<svg width="263" height="200" viewBox="0 0 263 200" fill="none" xmlns="http://www.w3.org/2000/svg">
<path d="M188.547 177.31C196.945 186.561 210.451 191.077 217.348 199.64C208.069 199.461 188.933 196.24 180.287 192.757C178.387 189.218 179.378 187.525 174.023 180.063C178.932 179.549 183.79 178.628 188.547 177.31Z" fill="#F7C548"/>
<path d="M59.1767 152.212C45.4095 153.589 45.024 167.521 31.4633 173.868C33.432 164.341 37.2593 149.693 42.7661 137.894C48.4632 139.012 54.2695 139.474 60.0716 139.271C59.1203 143.515 58.8185 147.878 59.1767 152.212Z" fill="#F7C548"/>
<path d="M138.861 80.4299C138.532 77.855 138.002 75.3096 137.278 72.8167C134.244 74.652 130.809 75.72 127.269 75.928C128.096 78.2679 128.709 80.6778 129.1 83.1283L135.172 85.7991L138.861 80.4299Z" fill="#F7C548"/>
<path d="M148.017 156.108L89.7814 182.789C88.5044 183.376 87.1241 183.705 85.7197 183.758C84.3153 183.81 82.9144 183.585 81.5971 183.095C80.2799 182.605 79.0722 181.861 78.0433 180.903C77.0144 179.946 76.1845 178.795 75.6011 177.516L69.5298 164.245C69.5005 164.181 69.4472 164.131 69.3813 164.107C69.3155 164.082 69.2426 164.085 69.1787 164.114C69.1148 164.143 69.0651 164.197 69.0406 164.262C69.0161 164.328 69.0187 164.401 69.0479 164.465L75.133 177.737C75.7472 179.075 76.6191 180.279 77.6989 181.28C78.7787 182.282 80.0452 183.06 81.4261 183.572C82.8069 184.083 84.275 184.317 85.7465 184.261C87.2179 184.205 88.6639 183.859 90.0016 183.244C90.1393 183.175 91.461 182.445 148.237 156.576C148.289 156.542 148.327 156.489 148.344 156.429C148.36 156.369 148.355 156.304 148.328 156.248C148.302 156.191 148.256 156.146 148.198 156.12C148.141 156.095 148.077 156.09 148.017 156.108Z" fill="#005758"/>
<path d="M230.386 106.615L195.156 29.684C195.145 29.6479 195.126 29.6146 195.102 29.5863C195.077 29.558 195.046 29.5354 195.012 29.5201C194.977 29.5047 194.94 29.497 194.902 29.4973C194.865 29.4977 194.828 29.5062 194.794 29.5222C194.76 29.5382 194.729 29.5614 194.705 29.5902C194.681 29.619 194.663 29.6526 194.653 29.6889C194.643 29.7252 194.641 29.7632 194.647 29.8004C194.653 29.8375 194.667 29.873 194.688 29.9043L229.918 106.78C231.095 109.361 231.202 112.302 230.213 114.961C229.225 117.619 227.222 119.777 224.645 120.961L174.56 143.952C174.508 143.978 174.466 144.021 174.44 144.074C174.415 144.126 174.408 144.186 174.421 144.243C174.434 144.3 174.465 144.351 174.51 144.388C174.555 144.425 174.612 144.446 174.67 144.448C174.808 144.448 172.866 145.301 224.865 121.484C227.566 120.24 229.663 117.977 230.698 115.19C231.732 112.403 231.62 109.32 230.386 106.615Z" fill="#005758"/>
<path d="M184.183 15.6964C181.692 15.0608 179.058 15.2989 176.721 16.371L138.972 33.6488L138.806 34.2959L176.928 16.8391C179.157 15.8161 181.671 15.5925 184.045 16.2058C184.079 16.2148 184.114 16.2172 184.148 16.2127C184.183 16.2083 184.216 16.1971 184.246 16.1798C184.276 16.1626 184.302 16.1396 184.323 16.1121C184.344 16.0847 184.36 16.0534 184.369 16.0199C184.378 15.9865 184.38 15.9516 184.376 15.9172C184.372 15.8828 184.36 15.8497 184.343 15.8197C184.326 15.7896 184.303 15.7633 184.275 15.7421C184.248 15.721 184.217 15.7054 184.183 15.6964Z" fill="#005758"/>
<path d="M84.0679 58.8291L55.7211 71.7841C55.683 71.792 55.647 71.8084 55.616 71.832C55.585 71.8556 55.5596 71.8858 55.5418 71.9205C55.524 71.9552 55.5141 71.9934 55.5129 72.0324C55.5118 72.0713 55.5193 72.1101 55.5351 72.1457C55.5508 72.1814 55.5743 72.2131 55.6039 72.2385C55.6335 72.2639 55.6683 72.2824 55.706 72.2926C55.7436 72.3028 55.783 72.3045 55.8214 72.2975C55.8597 72.2905 55.896 72.275 55.9276 72.2521L84.4533 59.1871L84.0679 58.8291Z" fill="#005758"/>
<path d="M58.0754 139.243L36.7912 92.7791C35.618 90.2005 35.5141 87.262 36.5023 84.607C37.4905 81.952 39.4904 79.7966 42.0641 78.6126L44.8175 77.3323C44.8814 77.303 44.9311 77.2496 44.9556 77.1838C44.9802 77.118 44.9775 77.0451 44.9483 76.9812C44.9191 76.9173 44.8657 76.8676 44.7999 76.8431C44.734 76.8186 44.6611 76.8212 44.5972 76.8504L41.8438 78.1308C39.146 79.3768 37.0518 81.6411 36.0196 84.4278C34.9875 87.2145 35.1016 90.2966 36.3369 92.9994L57.6073 139.45C57.6424 139.499 57.693 139.534 57.7508 139.549C57.8086 139.565 57.8701 139.56 57.9249 139.536C57.9796 139.512 58.0245 139.47 58.0519 139.416C58.0793 139.363 58.0876 139.302 58.0754 139.243Z" fill="#005758"/>
<path d="M173.651 105.073L172.178 101.879C172.039 101.556 171.837 101.263 171.584 101.019C171.331 100.774 171.032 100.582 170.704 100.454C170.376 100.326 170.026 100.264 169.674 100.272C169.322 100.281 168.975 100.359 168.654 100.503L153.51 107.455C153.458 107.481 153.415 107.524 153.39 107.577C153.365 107.629 153.358 107.689 153.371 107.746C153.384 107.803 153.415 107.854 153.46 107.891C153.505 107.928 153.562 107.949 153.62 107.951C153.758 107.951 153.248 108.102 168.902 100.971C169.42 100.736 170.011 100.716 170.544 100.915C171.078 101.113 171.512 101.514 171.751 102.031L173.211 105.225C173.343 105.484 173.42 105.767 173.44 106.057C173.459 106.347 173.419 106.638 173.322 106.912C173.226 107.186 173.075 107.438 172.878 107.652C172.681 107.866 172.443 108.038 172.178 108.157L157.323 114.958C157.259 114.986 157.209 115.037 157.183 115.102C157.157 115.166 157.158 115.238 157.186 115.302C157.213 115.366 157.265 115.417 157.329 115.443C157.394 115.468 157.466 115.467 157.53 115.44L172.398 108.556C173.019 108.253 173.497 107.719 173.731 107.069C173.965 106.419 173.936 105.703 173.651 105.073Z" fill="#005758"/>
<path d="M127.063 129.317C127.005 129.316 126.948 129.295 126.903 129.258C126.858 129.221 126.827 129.17 126.814 129.113C126.801 129.056 126.808 128.996 126.833 128.943C126.858 128.891 126.901 128.848 126.953 128.822L133.52 125.807C133.551 125.786 133.586 125.772 133.624 125.766C133.661 125.76 133.699 125.762 133.735 125.772C133.771 125.782 133.805 125.8 133.834 125.824C133.863 125.849 133.886 125.879 133.902 125.913C133.918 125.947 133.926 125.984 133.927 126.022C133.927 126.059 133.919 126.097 133.904 126.131C133.889 126.165 133.866 126.196 133.838 126.221C133.809 126.246 133.776 126.264 133.74 126.275C127.297 129.221 127.201 129.317 127.063 129.317Z" fill="#005758"/>
<path d="M140.087 55.8417C142.344 61.7891 144.107 66.2359 144.891 71.6051C144.891 71.6051 174.092 60.2885 187.57 36.6501C184.777 32.3692 180.83 28.966 176.184 26.8341C160.985 45.7365 148.457 52.923 140.087 55.8417Z" fill="#F7C548"/>
<path d="M117.963 62.0507C118.816 61.5516 119.557 60.8813 120.138 60.082C123.979 59.9443 127.242 59.1871 129.156 56.9568C130.459 57.5051 131.89 57.6768 133.286 57.4524C134.789 60.4808 135.966 63.6606 136.796 66.938C133.616 69.6915 129.045 70.8755 123.029 71.2334C121.509 68.0823 119.818 65.0168 117.963 62.0507Z" fill="#F7C548"/>
<path d="M68.4421 90.2597C83.6686 89.6815 103.218 87.2172 118.004 81.9994C115.944 76.288 113.339 70.7879 110.226 65.5751C98.9778 69.8429 89.795 69.8429 66.9001 71.4261C72.1455 70.9856 73.7149 89.475 68.4421 90.2597Z" fill="#F7C548"/>
<path d="M214.567 105.996C214.155 105.095 213.488 104.334 212.65 103.806C211.811 103.278 210.837 103.007 209.846 103.024C208.856 103.042 207.892 103.348 207.072 103.905C206.253 104.462 205.614 105.246 205.233 106.161C204.011 105.757 202.682 105.831 201.512 106.367C200.343 106.904 199.419 107.863 198.928 109.052C197.986 108.742 196.975 108.713 196.017 108.969C195.059 109.225 194.197 109.755 193.536 110.494C192.875 111.233 192.444 112.149 192.296 113.129C192.148 114.109 192.29 115.111 192.703 116.013C193.116 116.914 193.783 117.675 194.622 118.202C195.461 118.73 196.436 119.001 197.428 118.983C198.419 118.964 199.383 118.657 200.202 118.099C201.021 117.54 201.66 116.755 202.039 115.839C203.261 116.243 204.59 116.169 205.76 115.633C206.93 115.096 207.853 114.137 208.345 112.948C209.285 113.257 210.295 113.284 211.251 113.028C212.207 112.772 213.068 112.243 213.728 111.505C214.388 110.768 214.819 109.854 214.968 108.875C215.117 107.897 214.978 106.896 214.567 105.996ZM199.231 118.056C198.552 118.367 197.808 118.508 197.062 118.467C196.317 118.425 195.593 118.202 194.953 117.817C194.314 117.432 193.778 116.896 193.392 116.257C193.007 115.617 192.783 114.894 192.741 114.148C192.699 113.403 192.839 112.658 193.15 111.979C193.461 111.301 193.933 110.708 194.526 110.253C195.118 109.799 195.812 109.495 196.548 109.37C197.284 109.245 198.04 109.301 198.749 109.534C198.387 110.713 198.467 111.984 198.974 113.109C199.481 114.234 200.379 115.136 201.502 115.646C201.073 116.705 200.262 117.565 199.231 118.056ZM214.237 109.713C213.823 110.823 212.996 111.73 211.928 112.243C210.86 112.756 209.635 112.836 208.51 112.466C208.871 111.287 208.791 110.016 208.285 108.891C207.778 107.766 206.879 106.864 205.756 106.354C206.237 105.275 207.116 104.424 208.209 103.977C209.302 103.53 210.526 103.523 211.625 103.956C212.723 104.389 213.612 105.229 214.107 106.302C214.601 107.374 214.663 108.596 214.278 109.713H214.237Z" fill="#005758"/>
<path d="M91.7499 111.503L87.6198 102.499C87.2266 101.639 86.6676 100.866 85.975 100.222C85.2824 99.5792 84.4697 99.079 83.5835 98.7503C82.6972 98.4216 81.7549 98.271 80.8103 98.3071C79.8658 98.3432 78.9377 98.5653 78.0791 98.9606L65.1792 104.853C63.4457 105.65 62.0995 107.102 61.4361 108.891C60.7727 110.68 60.8464 112.659 61.641 114.394L65.7712 123.411C66.5682 125.145 68.0206 126.491 69.8095 127.154C71.5983 127.818 73.5773 127.744 75.3119 126.949L88.198 121.043C89.9339 120.249 91.2832 118.797 91.9493 117.008C92.6154 115.219 92.5437 113.239 91.7499 111.503ZM87.9915 120.548L75.0916 126.454C74.2953 126.819 73.4349 127.023 72.5595 127.055C71.6841 127.088 70.811 126.947 69.9901 126.641C69.1691 126.336 68.4165 125.871 67.7753 125.274C67.134 124.678 66.6168 123.96 66.253 123.163L62.1229 114.16C61.4151 112.56 61.3634 110.747 61.9787 109.109C62.594 107.472 63.8272 106.141 65.4132 105.404L78.2994 99.4975C79.0966 99.1322 79.9581 98.9275 80.8345 98.8951C81.7109 98.8628 82.5851 99.0034 83.4071 99.309C84.2291 99.6145 84.9829 100.079 85.6255 100.676C86.268 101.273 86.7866 101.99 87.1517 102.788L91.2819 111.792C91.9859 113.392 92.0358 115.204 91.4209 116.84C90.806 118.476 89.5751 119.807 87.9915 120.548Z" fill="#005758"/>
<path d="M207.133 89.7365L205.674 86.5563C205.533 86.2324 205.33 85.9395 205.076 85.6947C204.821 85.4498 204.521 85.2578 204.192 85.1298C203.863 85.0018 203.512 84.9402 203.159 84.9488C202.806 84.9573 202.458 85.0358 202.136 85.1796L177.823 96.3723C177.505 96.5177 177.22 96.7243 176.982 96.9801C176.745 97.236 176.56 97.5362 176.438 97.8635C176.317 98.1908 176.261 98.5388 176.274 98.8877C176.287 99.2366 176.369 99.5795 176.515 99.8967L177.974 103.091C178.187 103.554 178.529 103.947 178.958 104.223C179.388 104.499 179.887 104.646 180.397 104.646C181.223 104.646 179.475 105.321 205.825 93.2609C206.464 92.9644 206.959 92.4278 207.204 91.7678C207.449 91.1078 207.424 90.3778 207.133 89.7365ZM205.605 92.7928L181.292 103.931C181.036 104.048 180.76 104.114 180.479 104.124C180.198 104.135 179.917 104.089 179.654 103.991C179.39 103.892 179.148 103.742 178.943 103.55C178.737 103.358 178.572 103.127 178.456 102.87L176.983 99.6902C176.865 99.4335 176.799 99.1561 176.789 98.8739C176.778 98.5917 176.823 98.3101 176.922 98.0454C177.02 97.7807 177.17 97.538 177.362 97.3312C177.555 97.1245 177.786 96.9577 178.043 96.8404L202.356 85.7027C202.612 85.5852 202.888 85.5193 203.169 85.509C203.45 85.4987 203.731 85.5441 203.995 85.6427C204.258 85.7412 204.5 85.8909 204.705 86.0831C204.911 86.2754 205.076 86.5063 205.192 86.7628L206.665 89.9568C206.899 90.4737 206.918 91.062 206.72 91.5934C206.521 92.1247 206.12 92.5559 205.605 92.7928Z" fill="#005758"/>
<path d="M261.665 64.102C261.343 63.3725 260.804 62.7595 260.122 62.3459C259.44 61.9323 258.648 61.7379 257.852 61.7891L253.253 27.8254L260.412 24.6727C260.461 24.6376 260.496 24.5869 260.512 24.5291C260.527 24.4713 260.523 24.4099 260.498 24.3551C260.474 24.3003 260.432 24.2555 260.379 24.2281C260.325 24.2007 260.264 24.1924 260.206 24.2046L252.868 27.4261C252.819 27.4525 252.778 27.4926 252.751 27.5414C252.725 27.5903 252.712 27.6458 252.716 27.7015L254.217 38.7152C216.564 55.3323 218.987 54.2034 218.987 54.4649C218.987 54.7265 218.353 53.9693 229.794 65.2171C229.959 65.3823 228.114 65.9055 256.599 56.709L257.315 61.9268C256.769 62.038 256.253 62.2655 255.802 62.5938C255.352 62.9221 254.978 63.3435 254.705 63.8294C254.432 64.3153 254.267 64.8543 254.22 65.4097C254.174 65.9651 254.248 66.5239 254.437 67.0482L241.414 72.8029C240.947 71.9099 240.152 71.2332 239.195 70.9159C238.239 70.5985 237.197 70.6653 236.289 71.1022C235.381 71.539 234.679 72.3116 234.33 73.2569C233.981 74.2021 234.014 75.2459 234.42 76.1677C234.827 77.0895 235.576 77.8171 236.509 78.1967C237.443 78.5764 238.487 78.5784 239.422 78.2024C240.356 77.8263 241.108 77.1016 241.518 76.1814C241.929 75.2612 241.965 74.2176 241.62 73.271L254.658 67.53C255.112 68.4593 255.917 69.1699 256.896 69.5056C257.874 69.8412 258.946 69.7744 259.875 69.3198C260.805 68.8652 261.515 68.0601 261.851 67.0816C262.187 66.103 262.12 65.0313 261.665 64.102ZM230 64.6802L219.661 54.5475L254.217 39.321L256.489 56.1445L230 64.6802ZM241.014 75.694C240.813 76.2079 240.489 76.6644 240.069 77.0231C239.65 77.3818 239.149 77.6316 238.61 77.7506C238.071 77.8695 237.511 77.8539 236.98 77.705C236.448 77.5562 235.962 77.2787 235.563 76.8972C235.165 76.5157 234.866 76.0418 234.694 75.5174C234.522 74.9931 234.482 74.4344 234.577 73.8909C234.672 73.3473 234.9 72.8356 235.24 72.4009C235.58 71.9662 236.022 71.622 236.526 71.3986C237.142 71.1256 237.825 71.0429 238.488 71.1615C239.151 71.28 239.763 71.5942 240.245 72.0636C240.728 72.533 241.059 73.1362 241.196 73.7955C241.333 74.4547 241.27 75.1399 241.014 75.7628V75.694ZM259.352 68.6727C258.745 68.9437 258.07 69.0281 257.415 68.9155C256.759 68.8028 256.152 68.498 255.67 68.0398C255.188 67.5815 254.852 66.9905 254.707 66.3415C254.561 65.6925 254.611 65.0148 254.85 64.3943C255.09 63.7739 255.509 63.2385 256.053 62.8561C256.597 62.4737 257.243 62.2616 257.908 62.2465C258.573 62.2314 259.227 62.4141 259.788 62.7713C260.349 63.1286 260.792 63.6445 261.059 64.2534C261.251 64.6558 261.359 65.0923 261.38 65.5373C261.4 65.9823 261.331 66.4269 261.177 66.8449C261.023 67.263 260.787 67.6461 260.484 67.9718C260.18 68.2975 259.814 68.5592 259.407 68.7416L259.352 68.6727Z" fill="#005758"/>
<path d="M139.137 80.4161C138.803 77.8226 138.269 75.2589 137.54 72.7478C137.251 71.7566 136.246 74.7165 127.256 75.6802C127.217 75.6836 127.179 75.6962 127.146 75.7169C127.113 75.7377 127.085 75.766 127.065 75.7996C127.044 75.8332 127.033 75.8711 127.03 75.9101C127.027 75.9492 127.034 75.9884 127.049 76.0244C127.865 78.3421 128.468 80.729 128.853 83.1558C128.856 83.1973 128.871 83.237 128.895 83.2709C128.92 83.3048 128.952 83.3316 128.99 83.3486L135.075 86.102C135.131 86.1249 135.193 86.1278 135.251 86.1103C135.309 86.0927 135.359 86.0558 135.392 86.0056C139.357 80.1546 139.137 80.6226 139.137 80.4161ZM135.089 85.4825L129.348 82.9493C128.977 80.6371 128.406 78.3616 127.641 76.1483C130.989 75.9151 134.239 74.9166 137.141 73.2296C137.804 75.5678 138.297 77.9513 138.614 80.3611L135.089 85.4825Z" fill="#005758"/>
<path d="M35.7724 26.9993C35.4467 26.2794 35.3419 25.4791 35.4712 24.6996C35.6006 23.9201 35.9584 23.1966 36.4992 22.6206C37.04 22.0445 37.7396 21.6419 38.5094 21.4637C39.2792 21.2855 40.0845 21.3397 40.8235 21.6195C41.5624 21.8992 42.2017 22.392 42.6605 23.0353C43.1192 23.6786 43.3768 24.4436 43.4005 25.2333C43.4243 26.0231 43.2132 26.8022 42.7939 27.4719C42.3746 28.1416 41.7661 28.6719 41.0453 28.9955C40.0811 29.4284 38.9847 29.4614 37.9963 29.0872C37.0078 28.713 36.2081 27.9622 35.7724 26.9993ZM37.9752 22.1945C37.3507 22.4769 36.8238 22.938 36.4611 23.5195C36.0984 24.101 35.916 24.777 35.937 25.462C35.958 26.1471 36.1815 26.8106 36.5792 27.3688C36.9769 27.927 37.531 28.3549 38.1717 28.5985C38.8123 28.842 39.5107 28.8904 40.1789 28.7375C40.847 28.5846 41.4548 28.2372 41.9257 27.7392C42.3965 27.2411 42.7094 26.6148 42.8246 25.9392C42.9399 25.2636 42.8525 24.5689 42.5734 23.9429C42.1946 23.1021 41.4977 22.4459 40.6357 22.1181C39.7738 21.7904 38.817 21.8178 37.9752 22.1945Z" fill="#005758"/>
<path d="M48.4521 31.6939C48.1798 31.0955 48.0595 30.4392 48.1018 29.7831C48.1441 29.127 48.3479 28.4915 48.6948 27.9331C49.0418 27.3747 49.5214 26.9106 50.0908 26.582C50.6603 26.2535 51.3021 26.0706 51.9592 26.0497C52.6163 26.0289 53.2684 26.1706 53.8576 26.4623C54.4468 26.754 54.9548 27.1868 55.3365 27.722C55.7183 28.2573 55.9619 28.8786 56.0458 29.5306C56.1298 30.1827 56.0513 30.8454 55.8176 31.4599C55.5374 32.1963 55.0456 32.8333 54.4042 33.2908C53.7627 33.7482 53.0003 34.0057 52.2128 34.0307C51.4253 34.0557 50.6481 33.8472 49.9789 33.4314C49.3097 33.0156 48.7784 32.411 48.4521 31.6939ZM48.8376 28.8166C48.6371 29.3498 48.571 29.9242 48.6451 30.489C48.7192 31.0538 48.9312 31.5917 49.2625 32.0551C49.5937 32.5186 50.034 32.8933 50.5444 33.1463C51.0549 33.3992 51.6197 33.5226 52.1891 33.5055C52.7585 33.4884 53.3149 33.3313 53.8093 33.0482C54.3036 32.765 54.7206 32.3645 55.0234 31.8821C55.3262 31.3996 55.5056 30.8499 55.5457 30.2817C55.5857 29.7134 55.4853 29.1441 55.2531 28.6238C54.968 28.001 54.5056 27.476 53.9236 27.1146C53.3417 26.7532 52.6661 26.5714 51.9814 26.592C51.2967 26.6125 50.6332 26.8345 50.0741 27.2302C49.5149 27.6259 49.0848 28.1777 48.8376 28.8166Z" fill="#005758"/>
<path d="M41.1968 38.8529L49.7462 16.2333C49.8701 15.9167 50.3658 16.0956 50.2418 16.4123L41.6786 39.0318C41.6722 39.0698 41.6574 39.1058 41.6355 39.1374C41.6135 39.169 41.5848 39.1953 41.5515 39.2146C41.5182 39.2338 41.481 39.2454 41.4427 39.2486C41.4043 39.2519 41.3657 39.2466 41.3297 39.2332C41.2936 39.2198 41.2609 39.1986 41.234 39.1711C41.2071 39.1437 41.1865 39.1106 41.1738 39.0743C41.1611 39.038 41.1566 38.9993 41.1606 38.961C41.1645 38.9227 41.1769 38.8858 41.1968 38.8529Z" fill="#005758"/>
<path d="M139.33 179.43L133.162 182.28L130.312 176.112C130.277 176.06 130.225 176.022 130.165 176.006C130.104 175.989 130.04 175.994 129.983 176.021C129.927 176.048 129.881 176.094 129.856 176.151C129.83 176.208 129.826 176.272 129.844 176.332L132.694 182.5L126.526 185.35C126.474 185.376 126.432 185.419 126.407 185.472C126.381 185.524 126.375 185.584 126.387 185.641C126.4 185.698 126.431 185.749 126.476 185.786C126.522 185.823 126.578 185.844 126.636 185.846C126.746 185.846 126.526 185.846 132.9 182.954L135.75 189.136C135.765 189.168 135.785 189.196 135.811 189.22C135.836 189.243 135.866 189.262 135.899 189.274C135.931 189.286 135.966 189.292 136.001 189.291C136.035 189.289 136.069 189.281 136.101 189.267C136.133 189.252 136.161 189.232 136.185 189.206C136.209 189.181 136.227 189.151 136.239 189.118C136.251 189.086 136.257 189.051 136.256 189.016C136.254 188.982 136.246 188.947 136.232 188.916L133.368 182.748L139.55 179.912C139.614 179.883 139.663 179.829 139.688 179.763C139.712 179.698 139.71 179.625 139.681 179.561C139.651 179.497 139.598 179.447 139.532 179.423C139.466 179.398 139.393 179.401 139.33 179.43Z" fill="#005758"/>
<path d="M185.34 67.4888C185.439 66.5754 185.293 65.652 184.915 64.8144C184.537 63.9767 183.942 63.2555 183.192 62.7253C183.145 62.6809 183.116 62.6205 183.111 62.556C183.106 62.4914 183.124 62.4273 183.164 62.3759C183.203 62.3245 183.26 62.2895 183.324 62.2778C183.388 62.266 183.453 62.2783 183.509 62.3123C184.335 62.8866 184.994 63.6693 185.419 64.5809C185.845 65.4925 186.022 66.5005 185.932 67.5025C185.931 67.5414 185.922 67.5797 185.906 67.6153C185.891 67.6508 185.868 67.683 185.84 67.7098C185.812 67.7367 185.779 67.7577 185.743 67.7717C185.706 67.7858 185.668 67.7925 185.629 67.7916C185.59 67.7907 185.552 67.7822 185.516 67.7665C185.48 67.7508 185.448 67.7282 185.421 67.7001C185.395 67.672 185.374 67.6388 185.36 67.6026C185.345 67.5663 185.339 67.5276 185.34 67.4888Z" fill="#005758"/>
<path d="M190.365 68.0807C190.391 66.2414 190.002 64.4198 189.228 62.7513C188.453 61.0829 187.312 59.6105 185.89 58.4437C185.629 58.2096 185.973 57.8241 186.221 58.0444C187.693 59.2523 188.876 60.7745 189.684 62.4992C190.491 64.2239 190.903 66.1075 190.888 68.0119C190.897 68.0812 190.878 68.1514 190.835 68.2069C190.814 68.2344 190.788 68.2575 190.758 68.2748C190.728 68.2921 190.695 68.3034 190.661 68.3079C190.591 68.317 190.521 68.2982 190.466 68.2556C190.41 68.213 190.374 68.1501 190.365 68.0807Z" fill="#005758"/>
<path d="M195.94 68.7966C195.482 63.1059 192.983 57.7722 188.905 53.7766C188.856 53.7273 188.828 53.6604 188.828 53.5907C188.828 53.521 188.856 53.4542 188.905 53.4049C188.955 53.3556 189.022 53.3279 189.091 53.3279C189.161 53.3279 189.228 53.3556 189.277 53.4049C193.437 57.4918 195.984 62.942 196.45 68.7553C196.442 68.8144 196.414 68.8691 196.371 68.9101C196.327 68.9511 196.271 68.9761 196.212 68.981C196.152 68.9858 196.093 68.9701 196.044 68.9366C195.994 68.9031 195.958 68.8537 195.94 68.7966Z" fill="#005758"/>
<path d="M162.279 6.1419C162.01 5.55363 161.518 5.09605 160.912 4.86907C160.305 4.64208 159.634 4.66413 159.044 4.93038L158.025 5.39847L156.415 1.90159L159.43 0.524869C159.494 0.495659 159.543 0.442263 159.568 0.376425C159.592 0.310588 159.59 0.237704 159.56 0.173806C159.531 0.109909 159.478 0.0602305 159.412 0.0357029C159.346 0.0111752 159.273 0.0138056 159.209 0.043016L156.194 1.41974L155.63 0.166921C155.603 0.103024 155.551 0.0526223 155.486 0.0268037C155.422 0.000985174 155.35 0.00186634 155.286 0.029251C155.222 0.0566358 155.171 0.10828 155.146 0.172827C155.12 0.237373 155.121 0.309531 155.148 0.373429L155.726 1.62625L154.708 2.09433C154.395 2.21435 154.11 2.39715 153.871 2.63144C153.632 2.86574 153.443 3.14656 153.317 3.45658C153.19 3.7666 153.129 4.09925 153.136 4.43399C153.143 4.76873 153.219 5.09847 153.358 5.40285C153.498 5.70724 153.698 5.97981 153.947 6.20376C154.196 6.42771 154.488 6.59828 154.805 6.70494C155.123 6.8116 155.458 6.8521 155.792 6.82393C156.126 6.79576 156.45 6.69952 156.745 6.54115L157.764 6.07306L159.375 9.58371L156.36 10.9604C156.324 10.9712 156.29 10.9896 156.262 11.0145C156.234 11.0393 156.211 11.07 156.196 11.1043C156.18 11.1387 156.173 11.176 156.173 11.2136C156.173 11.2513 156.182 11.2884 156.198 11.3224C156.214 11.3565 156.237 11.3867 156.266 11.411C156.295 11.4352 156.328 11.453 156.365 11.4631C156.401 11.4732 156.439 11.4753 156.476 11.4693C156.513 11.4634 156.549 11.4494 156.58 11.4285L159.581 10.0518L160.159 11.3046C160.17 11.3407 160.189 11.374 160.213 11.4023C160.238 11.4306 160.269 11.4532 160.303 11.4685C160.338 11.4839 160.375 11.4916 160.413 11.4913C160.45 11.4909 160.487 11.4824 160.521 11.4664C160.555 11.4504 160.586 11.4272 160.61 11.3984C160.634 11.3696 160.652 11.336 160.662 11.2997C160.672 11.2634 160.674 11.2254 160.668 11.1882C160.662 11.1511 160.648 11.1156 160.627 11.0843L160.063 9.83152L161.082 9.36343C161.667 9.09372 162.121 8.60346 162.345 7.9998C162.57 7.39613 162.546 6.72816 162.279 6.1419ZM156.525 6.1419C156.295 6.24791 156.047 6.30743 155.795 6.31702C155.542 6.3266 155.29 6.28606 155.053 6.19774C154.817 6.10942 154.6 5.97507 154.415 5.80244C154.23 5.62981 154.082 5.42232 153.978 5.19196C153.767 4.72606 153.748 4.19576 153.926 3.71628C154.104 3.23681 154.464 2.84689 154.928 2.63126L155.947 2.16317L157.544 5.67381L156.525 6.1419ZM160.861 8.89535L159.843 9.36343L158.232 5.86655L159.251 5.39847C159.482 5.27749 159.736 5.20483 159.996 5.1849C160.257 5.16497 160.519 5.19818 160.766 5.28252C161.013 5.36687 161.24 5.50058 161.434 5.67554C161.628 5.8505 161.785 6.06306 161.894 6.3003C162.003 6.53755 162.063 6.79453 162.07 7.05565C162.077 7.31676 162.031 7.57656 161.934 7.81926C161.838 8.06196 161.693 8.28249 161.508 8.46748C161.324 8.65246 161.104 8.79803 160.861 8.89535Z" fill="#005758"/>
<path d="M31.4082 109.052C31.0355 108.234 30.3552 107.596 29.515 107.276C28.6747 106.957 27.7423 106.981 26.9201 107.345C16.8976 109.727 13.0703 109.589 11.7762 106.794L10.6335 104.289C10.5214 104.028 10.4635 103.747 10.4635 103.463C10.4635 103.178 10.5214 102.897 10.6335 102.636C10.7934 102.22 11.0701 101.859 11.4304 101.597C11.7906 101.334 12.2191 101.182 12.6642 101.157C13.1092 101.132 13.552 101.236 13.9391 101.457C14.3262 101.678 14.6412 102.007 14.8463 102.402C14.8755 102.466 14.9289 102.516 14.9947 102.541C15.0605 102.565 15.1334 102.562 15.1973 102.533C15.2612 102.504 15.3109 102.451 15.3354 102.385C15.3599 102.319 15.3573 102.246 15.3281 102.182C15.0774 101.697 14.6927 101.295 14.2198 101.022C13.7469 100.749 13.2056 100.618 12.6603 100.644C12.1151 100.67 11.5888 100.853 11.144 101.169C10.6993 101.486 10.3549 101.923 10.1516 102.43C9.91039 103.05 9.91039 103.738 10.1516 104.357C11.666 108.391 14.9564 109.382 1.89129 118.73C1.09878 119.128 0.491069 119.817 0.195756 120.653C-0.0995561 121.489 -0.0595037 122.407 0.307504 123.214C0.674512 124.021 1.33993 124.654 2.16405 124.981C2.98817 125.308 3.9069 125.303 4.72734 124.967L29.7149 113.664C30.1318 113.476 30.507 113.206 30.8186 112.871C31.1301 112.536 31.3718 112.143 31.5295 111.713C31.6871 111.284 31.7576 110.827 31.7368 110.371C31.716 109.914 31.6043 109.465 31.4082 109.052ZM29.4946 113.113L4.45199 124.485C3.75984 124.81 2.96705 124.848 2.24716 124.59C1.52727 124.332 0.938932 123.799 0.610938 123.108C0.445931 122.753 0.353525 122.368 0.339132 121.976C0.324738 121.585 0.388647 121.194 0.527114 120.827C0.665582 120.461 0.875824 120.125 1.14553 119.841C1.41523 119.556 1.73898 119.329 2.0978 119.171C9.43573 113.953 12.3131 110.911 12.1754 108.157C12.7859 108.669 13.4924 109.055 14.2535 109.291C15.0146 109.528 15.8151 109.61 16.6085 109.534C20.1746 109.353 23.7105 108.785 27.1542 107.84C27.8486 107.562 28.6235 107.563 29.3176 107.842C30.0117 108.121 30.5714 108.657 30.8802 109.338C31.1889 110.02 31.2229 110.794 30.9751 111.5C30.7272 112.205 30.2166 112.788 29.5496 113.127L29.4946 113.113Z" fill="#005758"/>
<path d="M217.61 199.475C210.726 190.967 197.441 186.451 189.043 177.448C192.897 176.348 196.629 174.858 200.181 173.001C200.218 172.979 200.249 172.948 200.27 172.91C200.291 172.873 200.303 172.83 200.303 172.787C200.303 172.744 200.291 172.702 200.27 172.665C200.249 172.627 200.218 172.596 200.181 172.574C173.28 151.772 149.834 100.64 144.96 87.9055C145.777 82.5589 145.86 77.1258 145.208 71.7566C148.43 70.5588 174.945 59.3661 187.887 36.7741C187.914 36.7333 187.928 36.6854 187.928 36.6364C187.928 36.5874 187.914 36.5395 187.887 36.4987L187.391 35.769C192.058 31.0193 211.842 20.6251 208.179 20.1432C207.169 20.0477 206.149 20.1506 205.178 20.4461C206.238 19.7853 207.629 18.9317 208.854 18.2571C209.432 17.9543 209.639 17.6376 209.474 17.3347C209.129 16.6739 206.569 16.8529 204.531 17.5688L209.529 12.0619C209.724 11.8476 209.875 11.5967 209.972 11.3237C210.069 11.0507 210.112 10.7611 210.096 10.4716C210.081 10.1822 210.008 9.89868 209.882 9.63755C209.757 9.37642 209.58 9.14288 209.363 8.95048L200.057 0.566242C199.62 0.174635 199.046 -0.0278733 198.46 0.00309351C197.874 0.0340603 197.325 0.295975 196.932 0.731447L184.541 14.4987C184.15 14.9354 183.947 15.5096 183.978 16.0954C184.009 16.6812 184.271 17.2308 184.706 17.6238L185.505 18.3397C182.848 21.7815 179.475 25.8153 177.947 27.3848C177.451 27.1232 176.955 26.8616 176.432 26.6138C176.381 26.5891 176.324 26.5824 176.269 26.5949C176.214 26.6074 176.164 26.6384 176.129 26.6827C165.295 40.0093 150.219 54.5751 133.313 57.2184C129.679 57.7966 126.746 55.7315 126.264 53.5288C129.266 52.3999 130.271 50.1145 128.729 46.893C132.594 46.0616 136.016 43.8293 138.333 40.6261C140.651 37.4229 141.702 33.4753 141.283 29.5437C140.865 25.612 139.006 21.9743 136.065 19.3313C133.124 16.6883 129.31 15.2268 125.356 15.2283C115.251 15.2283 106.977 24.6038 109.937 36.2647C107.514 32.9132 104.027 30.482 100.044 29.368C96.0619 28.254 91.8194 28.5231 88.0096 30.1312C84.1997 31.7393 81.0476 34.5915 79.0678 38.2221C77.088 41.8527 76.3975 46.0473 77.1091 50.1209C77.8206 54.1946 79.8922 57.9067 82.9855 60.6512C86.0789 63.3956 90.0112 65.0104 94.1407 65.2317C98.2701 65.4531 102.353 64.2679 105.722 61.8699C109.091 59.4718 111.547 56.0024 112.69 52.0281C114.879 53.1433 117.798 53.4049 119.574 54.6301C121.363 58.1546 120.84 60.5225 115.994 62.8079C101.291 69.7741 93.2506 69.2922 66.969 71.1646C66.3274 71.2761 65.7297 71.5647 65.2432 71.9976C64.7567 72.4306 64.4008 72.9908 64.2156 73.6152C62.944 73.7415 61.6654 73.7829 60.3883 73.7391C51.8664 70.5726 50.0628 67.9018 45.1617 64.6665C44.611 64.2947 43.9089 64.6665 44.0879 65.5338C44.5602 66.7408 45.2562 67.8478 46.1392 68.7966C43.964 67.7503 41.004 66.0432 39.0078 65.2034C38.8566 65.1237 38.6819 65.1007 38.5152 65.1386C38.3486 65.1764 38.201 65.2727 38.0991 65.4099C37.8238 65.8367 37.9752 66.7866 40.2743 68.7966C40.6461 69.1133 42.188 70.4625 43.4683 71.5501C42.188 71.1371 40.8939 70.6552 39.5584 70.1733C36.4884 68.9205 34.7124 68.6314 34.2994 69.3611C34.1617 69.6089 33.7074 70.3936 37.5897 73.3536C42.3297 76.5068 47.4097 79.116 52.7337 81.1321C52.8163 81.2697 53.3532 81.5175 53.2981 81.9443C53.1192 83.321 47.7913 84.8354 46.4145 85.6064C44.9139 86.5288 43.8676 87.2172 44.0879 87.8642C44.198 88.1946 44.5835 88.4837 46.2356 88.4837C52.4639 87.9946 58.7145 87.8476 64.959 88.0432C66.4183 90.7966 67.7124 90.6727 68.9515 90.6177C87.0003 89.8742 105.159 86.8455 117.715 82.495C119.271 86.7078 120.468 90.6039 121.06 91.8017C115.677 97.1846 109.427 91.5951 101.607 132.883C83.7099 132.883 77.9002 134.26 60.7049 136.242C60.6554 136.249 60.6087 136.27 60.5699 136.301C60.5311 136.333 60.5016 136.374 60.4846 136.421C60.1955 137.344 59.9477 138.266 59.7274 139.175C54.0119 139.384 48.2915 138.922 42.6836 137.798C42.6269 137.783 42.5668 137.789 42.5138 137.814C42.4609 137.839 42.4186 137.882 42.3945 137.936C36.1579 151.469 32.427 167.632 31.1054 173.951C31.0951 173.999 31.0986 174.049 31.1154 174.095C31.1323 174.141 31.1618 174.182 31.2006 174.212C31.2394 174.242 31.2859 174.261 31.3348 174.266C31.3837 174.271 31.433 174.262 31.4771 174.24C44.9277 167.948 45.4921 154.153 58.8188 152.639C59.345 157.451 60.426 162.187 62.0403 166.75C62.0495 166.784 62.0657 166.815 62.0878 166.842C62.1099 166.869 62.1374 166.891 62.1686 166.907C62.1998 166.923 62.2339 166.931 62.2687 166.933C62.3036 166.934 62.3383 166.928 62.3707 166.916L107.293 152.212C110.499 151.165 113.34 149.226 115.485 146.623C121.957 138.789 127.347 130.12 131.51 120.851C137.017 138.046 152.532 165.745 162.059 180.779C162.083 180.815 162.116 180.844 162.155 180.864C162.193 180.883 162.236 180.892 162.28 180.889C166.16 180.902 170.038 180.714 173.899 180.325C179.144 187.677 178.153 189.301 180.053 192.881C180.085 192.935 180.133 192.979 180.191 193.005C188.795 196.529 207.808 199.888 217.362 199.971C217.428 200.004 217.504 200.009 217.574 199.986C217.643 199.963 217.701 199.913 217.734 199.847C217.767 199.781 217.772 199.705 217.749 199.635C217.726 199.566 217.676 199.508 217.61 199.475ZM208.895 17.4999C208.782 17.5979 208.657 17.6811 208.524 17.7477C206.266 18.9868 203.471 20.7903 203.141 21.0106C202.099 21.4173 201.079 21.8768 200.084 22.3873L203.636 18.4499C205.259 17.6267 207.087 17.2964 208.895 17.4999ZM184.927 17.1695C184.596 16.8691 184.397 16.4503 184.374 16.0042C184.351 15.5581 184.505 15.1209 184.803 14.7878L197.193 1.02056C197.496 0.689059 197.917 0.490174 198.366 0.466983C198.814 0.443792 199.253 0.598161 199.589 0.896655L208.895 9.2809C209.061 9.42865 209.195 9.60766 209.291 9.80762C209.387 10.0076 209.442 10.2245 209.453 10.446C209.465 10.6674 209.432 10.8889 209.358 11.0977C209.283 11.3065 209.168 11.4985 209.019 11.6626L196.629 25.4299C196.481 25.6014 196.299 25.7411 196.095 25.8407C195.892 25.9402 195.67 25.9975 195.444 26.0091C195.217 26.0206 194.991 25.9863 194.778 25.908C194.565 25.8298 194.371 25.7093 194.206 25.5538L190.172 21.933C189.36 20.8041 191.549 15.8203 191.783 14.3748C192.031 12.6263 192.168 11.3873 191.535 11.1395C190.433 10.7127 188.644 13.9893 185.656 17.8716L184.927 17.1695ZM188.479 14.953C190.833 11.4974 191.342 11.58 191.397 11.6076C191.452 11.6351 191.617 12.172 191.301 14.2784C191.081 15.8203 188.547 21.2446 189.924 22.2909L192.251 24.3835C190.406 24.0646 188.511 24.2209 186.744 24.8379C186.687 24.8644 186.641 24.9108 186.615 24.9685C186.589 25.0262 186.585 25.0912 186.604 25.1517C186.622 25.2121 186.662 25.2638 186.715 25.2972C186.769 25.3306 186.833 25.3435 186.895 25.3335C191.025 24.0531 193.104 25.2096 193.256 25.3335L193.958 25.9668C194.393 26.3601 194.966 26.565 195.552 26.5366C196.138 26.5082 196.688 26.2489 197.083 25.8153L199.148 23.53C199.644 23.2409 205.027 20.2809 208.069 20.6526C207.147 22.3047 191.067 31.336 187.074 35.3285C184.758 32.1611 181.786 29.5312 178.36 27.6188C181.969 23.5909 185.347 19.3622 188.479 14.953ZM176.308 27.1095C180.777 29.1926 184.588 32.4646 187.322 36.5675C174.574 58.7603 148.099 69.9944 145.139 71.1646C144.128 65.929 142.564 60.8156 140.472 55.9105C152.092 51.8767 164.152 42.1708 176.308 27.1095ZM118.734 52.1107C118.582 51.8905 117.866 51.147 117.481 51.1195C112.8 50.8442 112.828 46.7828 115.443 47.5125C117.233 48.0081 117.605 47.5125 117.082 46.1358C116.201 43.7678 116.435 40.1333 118.045 39.0181C119.422 38.0957 121.473 38.9355 124.007 41.565C125.822 43.2722 127.322 45.2854 128.44 47.5125C128.968 48.5382 129.067 49.7317 128.715 50.8304C127.682 53.4324 123.208 53.6664 123.208 53.6664C123.153 53.6699 123.1 53.6907 123.058 53.7259C123.015 53.7611 122.985 53.8089 122.971 53.8624C122.957 53.9159 122.961 53.9723 122.981 54.0237C123.002 54.0751 123.038 54.1187 123.084 54.1483L127.476 56.2822C127.869 56.5918 128.294 56.8595 128.743 57.0807C127.132 58.7603 124.53 59.6414 120.62 59.8342C121.9 57.3423 120.289 54.4649 118.734 52.1107ZM120.276 60.3711C124.64 60.2059 127.49 59.2284 129.238 57.3148C130.498 57.8097 131.864 57.9663 133.203 57.7691C134.629 60.6772 135.759 63.7213 136.576 66.8554C133.823 69.2922 129.692 70.5726 123.236 70.9856C121.748 67.9581 120.108 65.0081 118.321 62.1471C119.075 61.6614 119.736 61.0461 120.276 60.3298V60.3711ZM44.8726 65.0382C49.3745 68.0119 50.8751 70.2009 57.5384 73.092C54.0293 72.0083 50.5863 70.7212 47.2268 69.2372L46.2218 68.0257C45.5014 67.2679 44.948 66.3674 44.5973 65.3823C44.5147 64.9831 44.6661 64.9005 44.8726 65.0382ZM40.6185 68.3423C38.6085 66.5939 38.4295 65.7954 38.5397 65.5889C38.6498 65.3823 38.6911 65.5889 38.7875 65.5889C41.0866 66.6214 44.9552 68.8242 47.1855 69.719C50.6909 71.2952 54.2966 72.6381 57.979 73.7391C53.5204 73.7991 49.0798 73.1627 44.8175 71.8529C43.5509 70.903 41.1004 68.7691 40.6185 68.3423ZM49.1129 87.6164C44.9827 88.0157 44.6936 87.6164 44.6661 87.5201C44.6386 87.4237 44.9552 86.9831 46.7725 85.868C48.2731 84.9731 54.6473 83.3761 53.78 81.3523C54.6473 81.669 55.5284 81.9581 56.4095 82.2472C56.4741 82.265 56.5431 82.2574 56.6022 82.2258C56.6613 82.1943 56.706 82.1413 56.7272 82.0778C56.7484 82.0142 56.7444 81.9449 56.716 81.8843C56.6877 81.8236 56.6371 81.7761 56.5747 81.7516C49.9728 79.6222 43.6921 76.6023 37.9064 72.7754C34.4233 70.1183 34.7537 69.4437 34.7537 69.4437C34.7537 69.4437 35.9101 69.072 39.3657 70.49C43.1667 72.0541 47.1347 73.1766 51.1918 73.8354C57.282 74.4899 63.4283 74.4206 69.5022 73.6289C71.6795 77.9289 72.0848 82.9109 70.6311 87.5063C66.1705 87.286 53.0641 87.2447 49.1129 87.6302V87.6164ZM69.6811 89.888C71.6499 88.2222 72.1042 83.9543 71.9803 81.1871C71.8564 78.4199 70.6999 73.0507 68.4008 71.5501C89.6436 70.0632 98.8952 70.0907 110.129 65.8642C113.116 70.9358 115.628 76.2727 117.632 81.8066C105.283 86.1296 87.4684 89.1308 69.6811 89.9018V89.888ZM110.625 65.7128C113.112 64.7696 115.536 63.6659 117.88 62.4086C119.661 65.2568 121.297 68.193 122.781 71.2059C122.891 71.4399 122.891 71.5088 123.181 71.495C129.83 71.082 134.098 69.7466 137.03 67.1308C137.066 67.1013 137.092 67.0624 137.107 67.0186C137.122 66.9749 137.124 66.9279 137.113 66.883C136.295 63.7022 135.17 60.6084 133.754 57.6452C135.855 57.309 137.923 56.7932 139.935 56.1032C144.492 68.122 146.213 73.5463 144.423 87.7679C140.211 92.2973 128.04 95.0094 121.666 91.4988C120.482 89.1859 117.109 76.4925 110.625 65.7128ZM58.8876 151.964C45.4233 153.479 44.6936 167.108 31.8213 173.386C33.198 166.792 36.8738 151.276 42.835 138.197C48.3806 139.268 54.0265 139.729 59.6724 139.574C58.8114 143.644 58.547 147.818 58.8876 151.964ZM134.828 128.381C133.891 120.327 136.039 109.809 136.067 109.699C136.072 109.638 136.056 109.577 136.021 109.527C135.986 109.477 135.935 109.44 135.876 109.424C135.817 109.408 135.755 109.413 135.699 109.438C135.643 109.463 135.598 109.506 135.571 109.561C130.408 123.452 124.365 134.962 115.085 146.223C113.003 148.755 110.243 150.641 107.128 151.662L62.3845 166.351C59.1905 156.563 58.0203 146.416 61.0078 136.573C77.4596 134.632 83.8476 133.2 101.896 133.241C101.956 133.245 102.015 133.226 102.062 133.187C102.108 133.149 102.137 133.094 102.144 133.035C109.937 91.7328 115.994 97.5013 121.501 91.9944C127.806 95.3674 139.894 92.9581 144.534 88.3461C149.655 101.535 172.839 151.813 199.492 172.684C189.731 177.723 177.244 180.297 162.321 180.311C161.164 178.232 143.652 150.299 134.828 128.381ZM180.438 192.481C178.649 189.067 179.516 187.332 174.464 180.201C179.174 179.717 183.835 178.833 188.396 177.558C196.656 186.644 209.832 191.16 216.756 199.365C207.161 199.021 188.905 195.909 180.438 192.481Z" fill="#005758"/>
</svg>
