<svg width="300" height="222" viewBox="0 0 300 222" fill="none" xmlns="http://www.w3.org/2000/svg">
<path d="M121.628 183.077C121.554 183.05 121.493 182.996 121.459 182.925C121.425 182.854 121.42 182.772 121.447 182.698C121.473 182.623 121.527 182.562 121.598 182.528C121.669 182.494 121.751 182.49 121.825 182.516C132.906 186.396 144.735 187.652 156.384 186.187C156.461 186.179 156.539 186.201 156.6 186.249C156.661 186.298 156.701 186.368 156.71 186.445C156.72 186.522 156.699 186.6 156.652 186.662C156.605 186.724 156.535 186.765 156.458 186.776C144.718 188.253 132.796 186.986 121.628 183.077Z" fill="#005758"/>
<path d="M179.365 179.41C195.875 171.501 208.941 157.852 216.123 141.012C216.154 140.94 216.212 140.883 216.285 140.853C216.359 140.824 216.44 140.825 216.513 140.856C216.585 140.887 216.642 140.945 216.672 141.019C216.701 141.092 216.7 141.174 216.669 141.246C209.432 158.218 196.264 171.975 179.624 179.947C179.553 179.982 179.471 179.986 179.396 179.96C179.322 179.934 179.261 179.88 179.226 179.808C179.192 179.737 179.187 179.655 179.213 179.581C179.239 179.506 179.294 179.445 179.365 179.41Z" fill="#005758"/>
<path d="M222.38 109.08C222.302 109.08 222.227 109.051 222.171 108.997C222.114 108.944 222.081 108.87 222.077 108.792C221.728 98.3758 219.196 88.1483 214.645 78.7721C214.628 78.737 214.618 78.6988 214.616 78.6598C214.613 78.6209 214.619 78.5818 214.632 78.5449C214.645 78.5081 214.665 78.4741 214.69 78.4449C214.716 78.4158 214.748 78.392 214.783 78.375C214.854 78.3407 214.936 78.3359 215.01 78.3618C215.047 78.3747 215.081 78.3946 215.11 78.4206C215.139 78.4466 215.163 78.478 215.18 78.5132C219.767 87.964 222.319 98.2726 222.671 108.772C222.673 108.851 222.643 108.928 222.589 108.986C222.535 109.044 222.459 109.077 222.38 109.08Z" fill="#005758"/>
<path d="M203.513 61.9627C191.917 48.7054 176.04 39.9335 158.645 37.1734C158.567 37.1613 158.497 37.1187 158.451 37.055C158.404 36.9914 158.385 36.9119 158.397 36.834C158.409 36.7561 158.452 36.6862 158.515 36.6397C158.579 36.5932 158.658 36.5739 158.736 36.5861C176.271 39.3703 192.274 48.2149 203.96 61.5806C203.999 61.641 204.014 61.7132 204.004 61.784C203.993 61.8548 203.957 61.9195 203.903 61.966C203.849 62.0125 203.779 62.0378 203.708 62.0372C203.636 62.0366 203.567 62.0102 203.513 61.9627Z" fill="#005758"/>
<path d="M77.099 81.6442C83.3679 67.1128 94.0094 54.8961 107.544 46.6933C121.078 38.4905 136.832 34.7093 152.615 35.8755C152.693 35.8816 152.766 35.9186 152.817 35.9784C152.869 36.0382 152.894 36.1159 152.888 36.1944C152.882 36.273 152.845 36.3459 152.785 36.3971C152.725 36.4483 152.648 36.4737 152.569 36.4676C136.91 35.3141 121.281 39.0673 107.854 47.2054C94.4265 55.3436 83.8678 67.4625 77.6453 81.8778C77.6143 81.9503 77.5558 82.0075 77.4826 82.0368C77.4095 82.0661 77.3277 82.0651 77.2553 82.0342C77.1828 82.0032 77.1257 81.9447 77.0963 81.8715C77.067 81.7984 77.068 81.7166 77.099 81.6442Z" fill="#005758"/>
<path d="M105.973 175.433C93.5353 167.449 83.693 156.014 77.6494 142.527C71.6058 129.039 69.6225 114.083 71.9422 99.4862C71.9548 99.4083 71.9977 99.3386 72.0617 99.2924C72.1257 99.2462 72.2054 99.2273 72.2832 99.2399C72.3611 99.2524 72.4308 99.2954 72.477 99.3594C72.5232 99.4234 72.5421 99.503 72.5296 99.5809C70.2288 114.062 72.1969 128.9 78.1935 142.281C84.1901 155.661 93.9552 167.005 106.295 174.925C106.363 174.967 106.41 175.035 106.428 175.113C106.445 175.191 106.431 175.272 106.388 175.34C106.346 175.407 106.278 175.455 106.2 175.472C106.122 175.49 106.04 175.476 105.973 175.433Z" fill="#005758"/>
<path d="M271.037 90.6884C252.999 92.8831 236.48 94.192 218.906 93.0189C220.058 93.6437 221.166 94.3458 222.222 95.1204C220.841 98.962 219.023 103.544 219.274 107.278C213.317 110.716 205.508 112.94 200.703 111.51C195.778 101.07 194.479 95.0999 194.592 91.031C194.664 89.0029 195.094 87.0036 195.863 85.1258L192.597 89.8168L151.183 64.6154C151.692 61.5626 152.818 58.6455 154.491 56.0417C156.164 53.438 158.35 51.2021 160.915 49.4702C172.749 56.3812 200.829 75.0127 203.416 75.2211C202.892 82.0133 203.563 88.8446 205.4 95.4047C208.277 88.4409 212.146 81.9299 216.887 76.0737C230.756 78.2353 250.075 75.0837 269.72 72.9869C267.015 73.2048 266.846 84.6805 269.475 89.3289C269.961 90.191 270.501 90.6884 271.037 90.6884Z" fill="#F7C548"/>
<path d="M125.05 118.261C115.945 117.556 106.81 117.31 97.6804 117.526C98.2462 115.581 98.5848 113.577 98.6894 111.554C91.1815 113.499 83.9358 113.534 74.3043 112.168C74.3043 112.124 74.3043 112.083 74.3043 112.04C69.8217 114.993 65.8554 124.988 68.7464 133.07L60.9275 149.611L38.7845 135.469C32.1088 139.651 28.7504 144.96 26.3109 153.145L54.2407 172.275C56.1153 173.559 58.2402 174.432 60.476 174.837C62.7118 175.242 65.008 175.17 67.2137 174.624C69.4195 174.079 71.485 173.073 73.2747 171.673C75.0643 170.273 76.5377 168.511 77.5979 166.501L86.5316 149.535L75.9527 141.311C84.8468 146.142 102.111 144.803 112.216 143.553C109.564 154.126 107.488 164.836 105.998 175.635C111.693 179.477 118.643 180.99 125.419 179.864C130.478 165.67 134.754 151.209 138.228 136.547C138.752 134.465 138.814 132.293 138.411 130.184C138.008 128.075 137.148 126.08 135.893 124.338C134.638 122.596 133.017 121.15 131.144 120.1C129.271 119.05 127.191 118.423 125.05 118.261Z" fill="#F7C548"/>
<path d="M142.341 56.6181C141.247 58.6224 139.491 60.185 137.373 61.0391C135.304 57.0364 132.338 53.5664 128.705 50.9008C130.769 48.3808 132.717 43.8777 132.629 41.5393C132.394 38.8892 131.936 36.2637 131.261 33.6904C131.141 33.1235 131.893 32.4162 133.655 35.5551C133.791 35.7998 133.911 36.0288 134.201 36.553C133.868 34.2446 133.087 31.2983 132.788 29.4872C132.69 28.8793 133.53 28.1657 135.235 31.5999C135.466 32.0546 135.736 32.7051 136.254 33.8104C136.541 30.6209 136.552 27.5578 136.56 25.0504C136.56 24.7915 136.947 24.4315 137.163 24.5767C139.045 25.7909 141.562 38.6088 140.896 45.1929C141.254 44.0877 141.624 42.9082 141.94 41.8551C143.026 38.2235 144.257 38.0198 144.655 40.4024C145.437 45.9178 144.634 51.5417 142.341 56.6181Z" fill="#F7C548"/>
<path d="M146.853 0.000533171C146.531 0.00271656 146.217 0.100268 145.95 0.280882C145.683 0.461495 145.476 0.717077 145.354 1.01539C145.232 1.3137 145.202 1.64137 145.266 1.95707C145.33 2.27278 145.487 2.56236 145.715 2.7893C145.944 3.01624 146.235 3.17036 146.551 3.23223C146.867 3.29409 147.195 3.26093 147.492 3.13692C147.789 3.01291 148.043 2.80361 148.222 2.53543C148.401 2.26724 148.496 1.95218 148.495 1.62999C148.499 1.41386 148.459 1.19918 148.378 0.998885C148.297 0.79859 148.176 0.616832 148.022 0.46457C147.869 0.312309 147.686 0.192698 147.485 0.112947C147.284 0.0331948 147.069 -0.00504491 146.853 0.000533171Z" fill="white"/>
<path d="M86.0137 86.1158C78.8658 87.341 74.0043 78.6048 74.0043 78.6048C74.3885 78.7912 74.8069 78.8965 75.2336 78.914C75.6603 78.9316 76.086 78.861 76.4842 78.7068C76.8824 78.5526 77.2445 78.318 77.5481 78.0177C77.8516 77.7173 78.09 77.3577 78.2485 76.9611C78.6549 74.4778 78.0895 71.9333 76.6695 69.8559C76.821 69.2581 76.8055 68.6302 76.6248 68.0405C76.4441 67.4509 76.1052 66.9221 75.6448 66.5117C73.1769 64.6722 74.8553 62.4428 76.4185 63.9696C77.8032 65.3228 77.3658 63.338 76.3727 61.587C76.5783 61.7619 76.8244 61.8827 77.0886 61.9382C77.3527 61.9937 77.6266 61.9822 77.8852 61.9049C78.1439 61.8275 78.379 61.6867 78.5693 61.4952C78.7596 61.3037 78.899 61.0677 78.9748 60.8086C79.1694 60.9612 79.3954 61.0688 79.6365 61.1238C79.8777 61.1787 80.128 61.1796 80.3695 61.1263C80.611 61.073 80.8377 60.9669 81.0334 60.8156C81.229 60.6643 81.3887 60.4716 81.5011 60.2512C82.6063 61.0154 84.0795 60.5386 84.1537 59.3812C90.6005 70.7306 89.0058 73.1748 81.3937 72.3775L84.9732 74.8138C85.1527 75.4468 85.4926 76.0227 85.96 76.4859C86.5385 76.9568 87.2598 77.2172 88.0057 77.2243C88.7516 77.2315 89.4778 76.985 90.0652 76.5253L91.6947 75.578C91.6947 75.578 93.1552 84.8905 86.0137 86.1158Z" fill="#F7C548"/>
<path d="M27.7715 78.2037C24.6062 78.2774 21.4968 77.3611 18.8774 75.5826C16.7963 74.3084 16.3511 75.1784 17.6411 77.2831C18.0204 77.9725 18.1614 78.768 18.0421 79.5458C15.9496 79.957 13.8796 80.4751 11.84 81.0978C0.553794 84.7294 6.90744 84.6915 10.4553 84.011C8.87089 84.4937 7.31926 85.078 5.81007 85.7605C-2.38303 89.4931 -1.33462 91.1573 8.17848 87.8857C6.95531 88.5276 5.77067 89.2404 4.63061 90.0204C1.87063 91.8994 2.91115 92.4173 5.65534 91.5757C7.0448 91.1525 8.5969 90.6725 9.73215 90.2967C8.95164 90.7386 8.20203 91.2328 7.48849 91.7762C4.36851 94.1336 5.86376 94.7367 8.68216 93.802C15.1716 91.6452 24.0942 90.1057 28.2436 90.3283C27.2126 86.3683 27.0515 82.2319 27.7715 78.2037Z" fill="#F7C548"/>
<path d="M252.099 32.8551L248.006 28.7814C247.779 28.5551 247.598 28.2862 247.475 27.9901C247.351 27.694 247.288 27.3765 247.287 27.0557C247.286 26.7349 247.349 26.4171 247.471 26.1204C247.593 25.8238 247.772 25.5541 247.998 25.3267C248.225 25.0994 248.494 24.9188 248.79 24.7954C249.086 24.6719 249.403 24.608 249.724 24.6073C250.045 24.6065 250.363 24.669 250.659 24.7911C250.956 24.9132 251.226 25.0925 251.453 25.3188L252.085 25.9504L252.716 25.3188C252.943 25.0915 253.211 24.9109 253.508 24.7875C253.804 24.664 254.121 24.6001 254.442 24.5994C254.763 24.5986 255.081 24.6611 255.377 24.7832C255.674 24.9053 255.944 25.0846 256.171 25.3109C256.398 25.5372 256.579 25.8061 256.702 26.1022C256.826 26.3983 256.89 26.7158 256.89 27.0366C256.891 27.3574 256.829 27.6752 256.707 27.9719C256.585 28.2686 256.405 28.5383 256.179 28.7656L252.099 32.8551Z" fill="#005758"/>
<path d="M51.3812 49.0818C50.6736 49.0799 49.9768 48.9076 49.3499 48.5794C48.723 48.2512 48.1844 47.7768 47.7796 47.1964C47.3749 46.616 47.1159 45.9466 47.0246 45.2449C46.9333 44.5432 47.0124 43.8299 47.2552 43.1652C47.498 42.5005 47.8973 41.9042 48.4193 41.4265C48.9414 40.9488 49.5708 40.6039 50.2544 40.4211C50.938 40.2382 51.6555 40.2226 52.3464 40.3758C53.0372 40.5289 53.681 40.8462 54.2233 41.3008C54.9142 41.8836 55.4095 42.6647 55.6418 43.5383C55.8742 44.4119 55.8325 45.3358 55.5223 46.1849C55.2122 47.0339 54.6486 47.7672 53.9079 48.2854C53.1672 48.8036 52.2851 49.0816 51.3812 49.0818ZM48.4712 42.2261C48.0683 42.7063 47.79 43.2784 47.661 43.8918C47.532 44.5052 47.5563 45.141 47.7317 45.7428C47.9071 46.3446 48.2283 46.8938 48.6667 47.3419C49.1051 47.7899 49.6472 48.1229 50.245 48.3113C50.8429 48.4998 51.478 48.5379 52.094 48.4223C52.7101 48.3066 53.2882 48.0409 53.777 47.6485C54.2658 47.2561 54.6503 46.7492 54.8964 46.1727C55.1426 45.5962 55.2427 44.9679 55.188 44.3434C55.12 43.5937 54.8319 42.8808 54.3597 42.2945C53.8876 41.7081 53.2526 41.2745 52.5346 41.0482C51.8167 40.8218 51.0478 40.8129 50.3247 41.0225C49.6017 41.2321 48.9568 41.6508 48.4712 42.2261Z" fill="#005758"/>
<path d="M219.619 186.79H213.429V180.593C213.429 180.516 213.398 180.441 213.344 180.387C213.289 180.332 213.215 180.301 213.137 180.301C213.06 180.301 212.985 180.332 212.93 180.387C212.876 180.441 212.845 180.516 212.845 180.593V186.783H206.644C206.567 186.783 206.493 186.813 206.438 186.868C206.383 186.923 206.352 186.997 206.352 187.075C206.352 187.152 206.383 187.226 206.438 187.281C206.493 187.336 206.567 187.367 206.644 187.367H212.834V193.566C212.831 193.606 212.836 193.646 212.85 193.685C212.863 193.723 212.884 193.758 212.912 193.787C212.939 193.817 212.972 193.84 213.009 193.856C213.046 193.873 213.086 193.881 213.127 193.881C213.167 193.881 213.207 193.873 213.244 193.856C213.281 193.84 213.314 193.817 213.342 193.787C213.369 193.758 213.39 193.723 213.404 193.685C213.417 193.646 213.423 193.606 213.42 193.566V187.378H219.619C219.657 187.378 219.695 187.37 219.731 187.355C219.767 187.341 219.799 187.319 219.826 187.292C219.854 187.265 219.875 187.232 219.89 187.197C219.905 187.161 219.912 187.123 219.912 187.084C219.912 187.046 219.905 187.007 219.89 186.972C219.875 186.936 219.854 186.904 219.826 186.876C219.799 186.849 219.767 186.828 219.731 186.813C219.695 186.798 219.657 186.79 219.619 186.79Z" fill="#005758"/>
<path d="M78.6779 196.114L80.5332 199.875L84.6842 200.478L81.681 203.406L82.39 207.539L78.6779 205.588L74.9658 207.539L75.6748 203.406L72.6716 200.478L76.8211 199.875L78.6779 196.114Z" fill="#005758"/>
<path d="M272.421 84.8763C274.303 84.1303 276.008 82.9982 277.426 81.553C278.843 80.1079 279.943 78.3817 280.652 76.4858C280.68 76.4119 280.677 76.3301 280.644 76.2583C280.612 76.1865 280.552 76.1306 280.478 76.103C280.404 76.0753 280.322 76.0782 280.25 76.1109C280.179 76.1436 280.123 76.2035 280.095 76.2774C279.412 78.0982 278.354 79.7555 276.991 81.1424C275.627 82.5294 273.989 83.6153 272.18 84.33C272.144 84.3459 272.112 84.3686 272.084 84.397C272.057 84.4254 272.036 84.4588 272.022 84.4954C271.993 84.5693 271.995 84.6515 272.027 84.7239C272.059 84.7964 272.119 84.8531 272.193 84.8817C272.267 84.9103 272.349 84.9084 272.421 84.8763Z" fill="#005758"/>
<path d="M299.996 111.889C299.506 107.863 286.444 113.848 279.841 113.288C278.268 113.118 276.678 113.258 275.159 113.7C272.099 114.647 271.686 117.434 267.176 120.331C266.122 119.665 265.021 119.077 263.882 118.569C263.592 118.531 264.711 117.622 240.528 140.014C239.829 136.182 235.042 113.291 219.566 107.071C219.361 102.862 221.766 97.5299 223.091 93.5494C239.755 94.2978 254.81 92.9305 271.114 90.9821C271.892 90.9537 272.426 90.1058 272.726 89.3716C280.584 88.8126 279.857 88.9863 285.342 88.2284C287.281 87.9616 294.441 87.3 294.255 85.5805C294.179 84.8937 292.959 84.5795 290.623 84.649C289.711 84.6758 288.833 84.649 288.017 84.6063C290.255 84.1784 293.142 83.479 293.188 83.4679C294.261 83.2011 296.739 82.4669 296.573 81.4484C296.459 80.76 295.221 80.5011 292.895 80.6858C290.933 80.8437 289.198 80.91 287.8 80.9369C289.49 80.4521 291.948 79.7527 294.116 79.159C296.315 78.5574 297.539 77.7537 297.388 77.0132C297.201 76.1053 295.246 76.1795 293.639 76.4006C293.274 76.4511 289.745 76.8916 287.077 77.2232L291.192 75.3474C293.271 74.4001 294.35 73.418 294.084 72.7106C293.758 71.8438 291.839 72.2259 290.295 72.698C289.614 72.9064 283.348 74.7695 282.369 74.9085C280.916 75.1232 280.367 74.9369 280.329 74.8106C279.68 72.758 282.419 67.1796 280.27 66.4849C279.876 66.3601 278.679 65.9796 275.608 72.4138C274.886 73.9248 273.726 74.288 271.725 74.4017C271.289 73.568 270.565 72.578 269.635 72.6996C248.95 74.9101 230.602 77.9211 216.945 75.7832C216.26 75.6894 215.604 75.4451 215.024 75.0678C214.444 74.6906 213.955 74.1897 213.592 73.6011C234.055 69.1912 252.544 47.5629 247.417 43.3203C242.947 39.6256 232.201 47.9402 229.465 50.1792C229.798 47.8013 229.277 46.2208 227.91 45.4755C223.605 43.1261 211.962 50.3071 207.295 54.8513C206.084 55.9717 205.147 57.3558 204.557 58.8965C202.566 63.3349 202.154 66.4943 203.33 68.2896C203.734 68.8324 204.265 69.267 204.877 69.5548C205.489 69.8427 206.163 69.9749 206.839 69.9396C206.588 72.1501 205.67 74.6259 203.463 74.9274C201.121 74.8106 172.625 55.9676 161.064 49.2144C161.015 49.1861 160.96 49.172 160.904 49.1737C160.849 49.1754 160.794 49.1928 160.748 49.2239C160.244 49.5602 159.759 49.9123 159.294 50.2755C159.136 50.146 158.992 50.0118 158.852 49.8729C156.464 46.3613 157.492 42.4692 158.482 38.5519C159.005 36.4819 160.675 32.7588 161.296 30.474C161.35 30.3123 161.346 30.1364 161.282 29.978C161.218 29.8196 161.1 29.6892 160.948 29.6104C159.775 29.0956 157.948 32.3372 157.276 33.4298C157.732 31.0267 158.267 28.5146 158.469 26.4667C158.481 26.3546 158.462 26.2414 158.415 26.139C158.368 26.0365 158.295 25.9485 158.202 25.884C158.11 25.8196 158.002 25.7811 157.889 25.7725C157.777 25.7639 157.664 25.7855 157.563 25.8351C155.572 26.8551 151.102 37.2919 150.358 44.2234C149.937 42.7092 149.008 39.144 147.428 39.3808C146.839 39.4677 146.481 40.1213 146.473 41.1303C146.46 45.2861 146.419 48.9318 146.204 54.6902C146.105 57.3381 149.046 59.9528 151.609 61.7212C151.319 62.666 151.078 63.6251 150.887 64.5949C150.867 64.9107 147.966 63.0065 194.291 91.1984C194.204 96.0568 196.129 102.51 200.34 111.464L174.613 139.001C169.918 144.033 166.484 150.107 164.593 156.724C154.601 191.802 154.914 190.471 154.961 190.701C155.531 191.256 156.149 191.758 156.808 192.201C155.615 198.462 153.827 204.595 151.47 210.517C147.681 219.099 147.636 220.815 148.09 221.364C150.674 224.499 158.433 212.418 164.313 209.327C165.73 208.623 166.994 207.648 168.035 206.458C170.108 203.994 169.01 201.261 171.26 196.373C172.589 196.288 173.909 196.097 175.208 195.803C175.434 195.7 174.698 198.092 185.299 159.705L212.573 135.849L228.41 159.963C229.374 161.43 230.645 162.671 232.135 163.599C233.625 164.528 235.299 165.122 237.041 165.341C238.783 165.559 240.552 165.397 242.225 164.866C243.899 164.335 245.437 163.447 246.734 162.263C278.256 133.487 277.078 134.655 277.103 134.441C276.807 133.192 276.412 131.968 275.92 130.782C280.843 126.662 285.977 122.8 291.301 119.212C299.109 114.012 300.073 112.591 299.996 111.889ZM240.028 140.648C240.307 143.715 240.356 144.734 240.344 145.118C240.326 146.329 240.682 146.185 241.004 145.714C241.536 144.941 243.194 142.255 249.197 132.784L263.856 119.206C266.078 120.212 268.132 121.557 269.942 123.192L241.691 148.771C241.228 149.189 240.665 149.481 240.057 149.62C239.449 149.759 238.816 149.74 238.217 149.565C237.619 149.39 237.075 149.064 236.638 148.619C236.201 148.174 235.885 147.625 235.721 147.023C230.758 128.824 227.344 118.026 215.51 109.506C216.805 108.94 218.07 108.308 219.3 107.611C235.841 114.219 239.996 140.381 240.028 140.648ZM292.941 81.2795C295.668 81.0664 295.985 81.5448 295.985 81.5448C295.985 81.7027 295.288 82.3342 293.044 82.8932C290.609 83.5279 288.137 84.0156 285.643 84.3537C284.882 84.2833 284.127 84.1647 283.381 83.9984C283.684 83.1877 283.922 82.354 284.093 81.5053C287.044 81.5969 289.999 81.5204 292.941 81.2764V81.2795ZM293.731 76.9911C296.188 76.6516 296.799 77.0416 296.816 77.1332C296.846 77.2738 296.235 77.9685 293.974 78.5874C284.5 81.1785 286.237 81.0016 284.207 80.9164C284.344 80.0053 284.397 79.0835 284.364 78.1627C285.576 78.0127 293.633 77.0006 293.724 76.988L293.731 76.9911ZM276.148 72.6711C278.249 68.2675 279.587 66.8907 280.095 67.0533C281.436 67.4843 279.148 73.0217 279.768 74.989C279.834 75.2038 280.037 75.8574 282.462 75.4974C283.567 75.3395 290.407 73.2869 290.473 73.268C292.842 72.548 293.511 72.8354 293.543 72.9206C293.593 73.0564 293.099 73.8364 290.961 74.8153C284.276 77.8548 285.424 77.4411 284.342 77.5737C284.317 77.2011 284.282 76.819 284.232 76.4243C284.221 76.3472 284.18 76.2775 284.118 76.2302C284.056 76.183 283.978 76.162 283.901 76.1717C283.824 76.1814 283.753 76.2211 283.705 76.2823C283.657 76.3434 283.634 76.4211 283.643 76.4985C284.088 80.1679 283.287 83.8805 281.368 87.0395C281.331 87.1094 281.324 87.1909 281.348 87.2659C281.372 87.341 281.425 87.4035 281.495 87.4397C281.565 87.476 281.646 87.4829 281.721 87.4591C281.796 87.4352 281.859 87.3826 281.895 87.3126C282.386 86.3653 282.816 85.459 283.174 84.5653C285.632 85.0792 288.14 85.3091 290.65 85.2505C292.955 85.1842 293.619 85.53 293.668 85.65C293.649 85.8174 292.869 86.419 290.51 86.8658C288.56 87.2337 287.908 87.2826 285.26 87.6474C278.312 88.6074 277.033 88.3847 269.647 89.0258C267.83 84.6417 267.401 79.8061 268.417 75.1706C272.14 74.9227 274.858 75.3506 276.141 72.668L276.148 72.6711ZM206.886 72.4059C208.961 70.4322 209.674 69.7643 209.921 69.5038C210.192 69.218 210.042 68.9701 209.681 68.9749C208.864 69.2063 208.021 69.3331 207.172 69.3522C201.764 69.3791 202.88 64.0944 205.102 59.1396C206.057 57.0033 207.895 53.8644 209.968 54.9791C211.596 55.857 212.704 58.9976 212.535 61.0139C212.515 61.1824 212.543 61.3532 212.615 61.5068C212.688 61.6603 212.802 61.7904 212.944 61.8823C213.293 62.048 213.761 61.8949 214.509 61.3628C216.484 59.9496 217.667 63.3601 213.821 65.0196C213.459 65.1775 213.064 66.1154 213.015 66.3191C211.874 70.898 211.834 75.0238 216.372 76.2553C211.931 81.8048 208.261 87.9298 205.462 94.4636C203.825 88.2796 203.226 81.8666 203.69 75.4864C204.453 75.3128 205.153 74.9336 205.716 74.39C206.278 73.8464 206.681 73.1591 206.88 72.4027L206.886 72.4059ZM158.619 32.4114C160.105 30.043 160.719 30.1583 160.719 30.1583C160.36 31.5683 159.898 32.9504 159.338 34.2935C158.7 35.8243 158.172 37.3989 157.759 39.005C156.927 41.5484 156.666 44.244 156.995 46.8997C155.769 43.5429 156.253 39.1629 156.982 35.034C157.102 34.9156 156.927 35.0893 158.613 32.4082L158.619 32.4114ZM146.798 54.7107C147.011 48.9981 147.054 45.3413 147.066 41.1319C147.066 40.3756 147.303 39.9982 147.513 39.9666C147.87 39.9192 148.647 40.5982 149.299 42.714C150.28 45.8908 151.323 50.4508 151.333 50.4902C151.35 50.5671 151.398 50.6338 151.464 50.6757C151.531 50.7176 151.612 50.7312 151.689 50.7136C151.766 50.6961 151.832 50.6487 151.874 50.5819C151.916 50.5151 151.93 50.4344 151.912 50.3576C151.912 50.3276 151.438 48.305 150.846 46.025C150.864 39.4029 156.057 27.2656 157.881 26.4083C157.186 33.4551 152.695 45.3224 158.828 50.6544C155.522 53.3918 153.081 57.0292 151.8 61.126C149.749 59.697 146.708 57.1455 146.798 54.7107ZM194.888 91.0405C194.984 89.0415 195.411 87.0722 196.151 85.2126C196.168 85.1561 196.168 85.0957 196.15 85.0393C196.132 84.9829 196.098 84.9332 196.051 84.8969C195.709 84.6126 195.701 84.8511 192.516 89.4205L151.521 64.4733C152.03 61.5264 153.126 58.7116 154.742 56.1954C156.358 53.6792 158.463 51.5127 160.931 49.8239C172.037 56.3291 199.299 74.3306 203.101 75.458C202.615 82.2 203.297 88.9754 205.118 95.4852C205.135 95.5449 205.17 95.5978 205.219 95.6364C205.268 95.675 205.327 95.6974 205.389 95.7005C205.451 95.7037 205.513 95.6873 205.565 95.6538C205.618 95.6203 205.658 95.5713 205.681 95.5136C208.517 88.628 212.335 82.1891 217.016 76.3974C230.595 78.5148 250.938 75.3159 268.572 73.4132C266.395 76.3611 267.129 87.8621 270.001 90.5194C235.55 94.6642 221.527 92.73 218.891 92.73C218.816 92.7283 218.743 92.7552 218.688 92.8052C218.632 92.8552 218.598 92.9246 218.592 92.9991C218.585 93.0736 218.608 93.1476 218.654 93.2062C218.701 93.2647 218.768 93.3034 218.842 93.3142C219.194 93.4215 221.589 95.051 221.867 95.2436C220.572 98.8199 218.783 103.391 218.971 107.125C214.264 109.839 206.085 112.756 200.903 111.265C196.664 102.257 194.753 95.831 194.888 91.0405ZM167.572 206.066C166.581 207.199 165.376 208.125 164.027 208.793C158.501 211.701 150.456 223.3 148.54 220.979C148.334 220.73 148.262 219.242 152.005 210.749C154.36 204.875 156.146 198.789 157.337 192.574C161.223 195.25 165.872 196.593 170.586 196.401C168.556 200.999 169.418 203.878 167.574 206.064L167.572 206.066ZM184.835 159.309C184.677 159.448 185.124 158.077 174.854 195.266C172.662 195.745 170.414 195.914 168.175 195.768L178.402 156.611L208.323 130.621L209.916 137.381L184.835 159.309ZM228.901 159.625L208.391 128.403C208.352 128.345 208.295 128.302 208.228 128.282C208.161 128.262 208.09 128.266 208.026 128.294C207.962 128.321 207.91 128.37 207.878 128.432C207.847 128.494 207.838 128.566 207.854 128.633L208.17 129.968L177.944 156.225C177.786 156.363 178.244 154.867 167.575 195.718C163.141 195.238 158.957 193.425 155.575 190.518L165.159 156.887C167.026 150.36 170.414 144.369 175.045 139.406L200.791 111.846C205.054 113.026 210.767 111.486 214.874 109.779C226.806 118.23 230.041 128.434 235.154 147.18C235.344 147.88 235.712 148.52 236.22 149.039C236.729 149.557 237.362 149.936 238.059 150.139C238.756 150.343 239.494 150.364 240.202 150.201C240.909 150.038 241.563 149.697 242.101 149.209L270.385 123.605C273.358 126.544 275.464 130.247 276.471 134.305L246.329 161.816C245.096 162.942 243.633 163.787 242.042 164.292C240.45 164.798 238.768 164.952 237.111 164.744C235.454 164.536 233.862 163.97 232.445 163.087C231.028 162.204 229.819 161.024 228.903 159.628L228.901 159.625ZM290.966 118.707C285.676 122.277 280.57 126.111 275.666 130.195C273.982 126.327 271.221 123.024 267.711 120.682C272.066 117.805 272.526 115.137 275.328 114.264C276.774 113.844 278.288 113.713 279.784 113.877C286.1 114.418 299.036 108.946 299.398 111.957C299.439 112.276 298.693 113.578 290.968 118.71L290.966 118.707Z" fill="#005758"/>
<path d="M144.944 40.3566C144.543 37.9739 142.945 37.4308 141.646 41.7776C141.535 42.1502 141.415 42.5402 141.294 42.9365C141.321 36.0903 139.192 25.5445 137.32 24.3367C136.887 24.0524 136.257 24.5782 136.257 25.0614C136.257 27.5403 136.213 30.114 136.031 32.6403L135.494 31.475C134.492 29.454 133.6 28.5003 132.921 28.7198C132.762 28.7824 132.631 28.8999 132.552 29.0509C132.473 29.2019 132.451 29.3764 132.49 29.5424C132.695 30.7914 133.262 33.1566 133.604 34.8966C132.687 33.3824 131.928 32.7271 131.345 32.9466C131.195 33.0145 131.074 33.1341 131.004 33.2836C130.935 33.4331 130.921 33.6027 130.966 33.7613C131.635 36.3179 132.09 38.9259 132.325 41.5581C132.406 43.6897 130.628 47.9702 128.624 50.5202C128.377 50.3331 128.085 50.2128 127.777 50.1708C127.469 50.1287 127.156 50.1664 126.867 50.2802C115.394 60.1073 103.01 68.8172 89.882 76.2916C89.3475 76.7112 88.6863 76.9369 88.0068 76.9317C87.3273 76.9266 86.6696 76.6909 86.1415 76.2632C85.3496 75.2618 84.8859 74.0405 84.8136 72.7658C85.4182 72.7809 86.018 72.6555 86.5659 72.3997C87.1139 72.1438 87.595 71.7643 87.9715 71.2911C89.1999 69.4137 88.1294 65.8106 84.3984 59.2375C83.7352 58.0659 82.9931 56.8122 82.1958 55.5112C81.1837 53.858 79.1753 53.8059 78.7742 54.8165C77.5442 54.0807 75.6432 54.3538 75.3227 55.5554C75.0638 55.3609 74.7623 55.2309 74.4431 55.1763C74.1239 55.1217 73.7963 55.144 73.4875 55.2414C73.1787 55.3389 72.8976 55.5086 72.6675 55.7365C72.4375 55.9643 72.2651 56.2438 72.1648 56.5517C71.9149 56.405 71.6311 56.3259 71.3414 56.322C71.0516 56.3182 70.7659 56.3898 70.5121 56.5298C70.2584 56.6698 70.0455 56.8734 69.8943 57.1205C69.743 57.3677 69.6587 57.65 69.6495 57.9396C67.5843 57.387 66.1174 59.1728 68.5127 61.5854C69.5374 62.6212 73.9395 65.9195 76.4074 70.0122C77.7943 72.0215 78.3494 74.4898 77.9563 76.8995C77.8054 77.2536 77.5836 77.5732 77.3047 77.8385C77.0258 78.1038 76.6955 78.3093 76.3343 78.4424C75.9731 78.5755 75.5884 78.6333 75.204 78.6124C74.8197 78.5914 74.4436 78.4921 74.099 78.3205C73.9411 78.2668 54.9938 73.2316 28.2908 75.7942C28.2334 75.8008 28.1789 75.8236 28.1339 75.8599C28.0889 75.8963 28.0552 75.9447 28.0366 75.9995C27.8345 76.6311 27.6624 77.2768 27.5266 77.9116C24.495 77.9473 21.5268 77.0427 19.0304 75.3221C17.9251 74.6511 17.213 74.5105 16.8309 74.8895C16.4188 75.3016 16.6067 76.1526 17.3867 77.4316C17.7182 77.9936 17.8438 78.6534 17.742 79.2979C15.7172 79.6966 13.7145 80.2005 11.742 80.8073C4.84047 83.0415 5.02363 83.6968 5.13258 84.0931C5.29047 84.641 6.50467 84.7042 7.79466 84.611C6.33888 85.1652 -0.542125 88.0578 0.0341868 89.4899C0.463658 90.5589 4.53732 89.3431 5.64415 89.0163C5.25257 89.2578 4.85468 89.5105 4.46784 89.7789C3.0468 90.7404 2.53049 91.3894 2.76733 91.8836C3.25206 92.8862 6.47625 91.6452 7.68414 91.2662C6.86625 91.8599 5.06468 93.191 5.52415 94.0704C5.95836 94.8978 7.89256 94.3752 8.7736 94.0815C14.9855 92.011 21.4627 90.8438 28.0066 90.6157C28.1551 91.2315 28.3182 91.8547 28.4961 92.4852C28.6335 92.9715 28.7898 92.5025 38.4813 92.3115C38.5268 92.3241 38.5748 92.3241 38.6203 92.3115C49.4383 92.0862 60.2463 93.1077 70.8306 95.3557C72.4745 100.738 73.5333 106.282 73.9884 111.892C69.7585 114.843 65.5238 125.109 68.3832 133.151L60.8027 149.18C37.8924 134.539 38.9976 135.218 38.8397 135.17C37.5983 135.825 36.4382 136.624 35.3834 137.55C34.8055 137.212 34.534 136.942 33.8629 136.476C30.5108 134.153 27.4493 131.411 25.354 131.073C23.4159 130.932 21.4676 131.092 19.5783 131.546C11.8731 133.329 -4.86525 132.565 1.61786 136.965C6.71151 140.426 22.7472 146.801 27.2345 149.485C26.7603 150.704 26.357 151.95 26.0267 153.216C26.0851 153.434 24.9861 152.594 54.0812 172.515C55.9907 173.821 58.1545 174.709 60.431 175.12C62.7074 175.532 65.0451 175.457 67.2909 174.902C69.5367 174.347 71.6398 173.324 73.4626 171.9C75.2853 170.475 76.7866 168.682 77.8679 166.637L89.3562 144.816C96.8544 145.194 104.371 144.886 111.813 143.895C109.217 154.345 107.175 164.925 105.697 175.591C105.689 175.646 105.696 175.703 105.719 175.754C105.742 175.805 105.778 175.849 105.825 175.88C106.66 176.443 107.527 176.958 108.42 177.423C108.343 177.614 108.262 177.786 108.193 177.98C106.772 181.984 105.011 185.541 105.237 187.611C105.612 189.518 106.28 191.355 107.216 193.057C110.98 200.023 114.665 216.37 117.198 208.94C119.212 203.038 121.104 185.799 122.587 180.505C123.552 180.445 124.514 180.326 125.465 180.148C125.516 180.138 125.563 180.116 125.602 180.083C125.642 180.05 125.672 180.007 125.689 179.958C130.757 165.757 135.035 151.286 138.505 136.612C139.038 134.49 139.102 132.277 138.691 130.128C138.28 127.979 137.405 125.945 136.127 124.169C134.849 122.394 133.199 120.918 131.292 119.846C129.384 118.774 127.266 118.131 125.084 117.963C115.991 117.267 106.916 117.016 98.1004 117.218C98.5561 115.37 98.8639 113.49 99.0209 111.593C100.243 104.559 101.722 96.4909 101.173 89.4694C111.927 84.1705 129.101 70.3122 137.648 62.8106C137.964 62.4854 138 61.9533 137.744 61.1906C139.826 60.3061 141.542 58.7375 142.611 56.7443C144.912 51.6094 145.721 45.9299 144.944 40.3566ZM133.102 29.2819C133.102 29.2819 133.72 29.2314 134.959 31.7261L135.933 33.845C135.711 36.8524 135.123 39.8215 134.184 42.6871C134.449 41.3336 134.602 39.9605 134.642 38.5818C134.752 35.7524 132.872 29.6766 133.102 29.2819ZM132.919 41.5297C132.624 38.8277 132.169 36.1456 131.556 33.4977C131.623 33.4977 132.196 33.5703 133.388 35.7082L133.909 36.6555C134.01 37.2819 134.057 37.9158 134.048 38.5503C134.161 42.5882 132.727 46.5167 130.041 49.5333C131.656 47.1484 132.648 44.3967 132.925 41.5297H132.919ZM78.5389 77.0226C78.9616 74.5144 78.4073 71.9396 76.99 69.8274C77.1266 69.1904 77.0925 68.5285 76.8913 67.9089C76.69 67.2892 76.3286 66.7337 75.8437 66.2985C75.5674 66.0774 74.6358 65.3685 74.6832 64.4843C74.7274 63.7785 75.4032 63.4643 76.1374 64.1211C76.3632 64.3232 76.8132 64.8111 77.2205 64.7022C77.9958 64.4953 77.3405 62.9006 77.0011 62.1759C77.4119 62.2946 77.8512 62.2664 78.2435 62.0961C78.6357 61.9258 78.9563 61.624 79.15 61.2427C79.5633 61.4487 80.0354 61.5039 80.4851 61.399C80.9347 61.2941 81.3337 61.0356 81.6131 60.668C82.039 60.911 82.5393 60.9891 83.019 60.8875C83.4987 60.786 83.9244 60.5117 84.2152 60.117C87.5105 66.0159 88.5163 69.3727 87.4773 70.9627C86.4652 72.5069 83.3137 72.2811 81.4142 72.0821C81.3566 72.0757 81.2983 72.0863 81.2466 72.1126C81.1949 72.1389 81.1521 72.1798 81.1233 72.2301C81.0946 72.2805 81.0813 72.3382 81.085 72.3961C81.0887 72.454 81.1093 72.5095 81.1442 72.5558C81.2026 72.63 84.6368 74.9558 84.7142 75.0095C84.908 75.659 85.267 76.2472 85.7563 76.7163C86.3812 77.2303 87.1621 77.5171 87.9712 77.5297C88.7803 77.5423 89.5697 77.2801 90.2104 76.7858L91.4515 76.0642C91.6441 77.8989 91.9489 84.7942 85.9678 85.8236C80.2126 86.812 75.9069 81.0158 74.6437 79.0768C75.4324 79.2902 76.2726 79.1969 76.9953 78.8158C77.718 78.4347 78.2695 77.794 78.5389 77.0226ZM0.589973 89.2894C0.604183 89.0541 1.59102 88.0089 5.9331 86.0305C8.8379 84.7553 11.8666 83.7833 14.9709 83.13C14.2072 83.9555 13.527 84.8546 12.9404 85.8142C11.4529 86.271 9.99315 86.8134 8.56834 87.4389C2.6268 89.5215 0.78734 89.452 0.589973 89.2894ZM5.5731 91.2931C4.86115 91.603 4.08123 91.7237 3.3089 91.6436C3.3089 91.6436 3.32469 91.2726 4.80258 90.2668C7.15463 88.6395 9.7508 87.3971 12.4936 86.5863C12.0723 87.3723 11.721 88.1939 11.4436 89.0415C9.20781 90.2083 10.4015 89.8199 5.5731 91.2931ZM8.58887 93.5178C6.85204 94.0957 6.12099 93.9236 6.0531 93.7941C5.99783 93.6899 6.17941 93.1388 7.67151 92.0131C8.785 91.181 9.9714 90.4512 11.2162 89.8326C11.1045 90.2466 11.0264 90.6691 10.9825 91.0957C10.9796 91.1346 10.9844 91.1737 10.9966 91.2107C11.0088 91.2477 11.0282 91.282 11.0536 91.3115C11.105 91.3712 11.178 91.408 11.2565 91.4139C11.335 91.4197 11.4126 91.3942 11.4723 91.3428C11.532 91.2914 11.5688 91.2184 11.5746 91.1399C11.7553 89.8336 12.1518 88.5663 12.7478 87.3899C13.0983 86.6684 13.4852 86.051 13.3904 86.2105C14.1558 84.955 15.078 83.802 16.1346 82.7794C16.2546 82.6215 16.1141 82.241 15.6862 82.3373C14.9551 82.4952 12.4099 83.1157 10.8531 83.5752C9.18744 84.0109 7.45498 84.1308 5.7452 83.9289C5.9331 83.7079 6.9073 82.9958 11.9299 81.3758C13.8506 80.7845 15.8005 80.2928 17.772 79.9026C17.9139 81.4902 18.65 82.9657 19.833 84.034C21.016 85.1022 22.5586 85.6844 24.1525 85.6642C24.1913 85.6609 24.2292 85.6501 24.2639 85.6323C24.2986 85.6144 24.3294 85.5899 24.3546 85.5601C24.3798 85.5304 24.399 85.4959 24.4109 85.4588C24.4228 85.4216 24.4272 85.3825 24.424 85.3436C24.4208 85.3048 24.41 85.2669 24.3921 85.2322C24.3743 85.1975 24.3498 85.1667 24.32 85.1415C24.2903 85.1162 24.2558 85.0971 24.2187 85.0852C24.1815 85.0733 24.1424 85.0688 24.1035 85.0721C22.8692 85.1798 21.6372 84.8405 20.6321 84.1159C19.627 83.3914 18.9157 82.3298 18.6278 81.1247C17.9962 79.3121 18.7856 78.5542 17.8999 77.1205C17.1404 75.8779 17.183 75.3837 17.2588 75.3079C17.3346 75.2321 17.7183 75.2069 18.7272 75.8258C21.281 77.5841 24.3109 78.5205 27.4114 78.51C26.7891 82.336 26.9448 86.2481 27.8693 90.0126C21.3097 90.2692 14.819 91.4493 8.58887 93.5178ZM29.0061 92.0967C27.353 87.0091 27.1935 81.554 28.5466 76.3784C31.6003 76.0879 34.5466 75.9047 37.3792 75.7879C36.0458 81.0581 36.3068 86.6055 38.1292 91.7273C35.3392 91.7841 32.3313 91.9073 29.0061 92.0936V92.0967ZM12.2694 134.76C9.17781 135.044 3.901 135.475 1.81365 136.381C0.679973 135.592 0.721025 135.312 0.721025 135.312C1.07944 133.498 13.8057 133.493 19.7109 132.128C21.1734 131.798 22.6661 131.621 24.1651 131.6C25.458 131.565 26.7209 131.992 27.7272 132.805C26.8862 132.815 26.0466 132.872 25.2119 132.975C20.9353 133.829 16.6112 134.423 12.2631 134.756L12.2694 134.76ZM19.9714 145.288C24.0238 141.781 28.6498 138.998 33.6466 137.06C34.1866 137.441 34.4076 137.659 34.9098 137.965C31.5578 140.947 28.9968 144.713 27.4556 148.926C25.0277 147.575 22.5271 146.36 19.9651 145.285L19.9714 145.288ZM26.6598 153.025C28.9729 145.359 32.1166 140.055 38.7892 135.824L46.3555 140.657C41.036 144.404 37.2576 150.288 34.8292 158.614L26.6598 153.025ZM77.3437 166.36C76.3021 168.332 74.8555 170.061 73.0988 171.435C71.342 172.808 69.3148 173.795 67.1501 174.33C64.9854 174.865 62.732 174.936 60.5377 174.54C58.3434 174.143 56.2578 173.287 54.4175 172.027L35.3329 158.965C37.7566 150.568 41.5397 144.686 46.8923 141C61.6269 150.412 60.768 149.908 60.9259 149.908C60.9822 149.909 61.0375 149.893 61.0852 149.863C61.1329 149.833 61.1708 149.79 61.1943 149.739L68.6816 133.907C69.9447 136.899 72.1333 139.408 74.9263 141.066L86.1368 149.608L77.3437 166.36ZM115.848 210.247C113.992 210.356 110.637 198.135 107.748 192.779C106.847 191.145 106.202 189.382 105.837 187.551C105.817 186.637 105.966 185.727 106.278 184.867C106.766 186.517 107.418 188.115 108.223 189.636C111.168 195.085 114.267 206.093 116.591 208.899C116.113 210.204 115.838 210.244 115.838 210.244L115.848 210.247ZM120.37 189.042C115.904 186.079 111.994 182.354 108.817 178.038C108.858 177.931 108.916 177.797 108.96 177.691C112.997 179.695 117.466 180.671 121.971 180.533C121.285 183.338 120.747 186.177 120.36 189.039L120.37 189.042ZM125.2 179.6C118.615 180.66 111.872 179.194 106.322 175.495C106.796 172.252 107.306 169.042 107.833 165.939C110.802 168 114.151 169.449 117.686 170.203C121.22 170.957 124.869 171.001 128.421 170.332C127.418 173.327 126.352 176.403 125.19 179.597L125.2 179.6ZM97.4783 117.232C96.0615 117.266 94.6473 117.311 93.2357 117.369C93.1967 117.37 93.1583 117.379 93.1226 117.394C93.0869 117.41 93.0546 117.432 93.0276 117.461C93.0007 117.489 92.9795 117.522 92.9653 117.558C92.9512 117.595 92.9443 117.633 92.9452 117.672C92.946 117.711 92.9545 117.75 92.9702 117.785C92.9859 117.821 93.0084 117.853 93.0366 117.88C93.0647 117.907 93.0979 117.929 93.1342 117.943C93.1706 117.957 93.2093 117.964 93.2483 117.963C103.849 117.619 114.461 117.817 125.042 118.555C127.138 118.716 129.173 119.333 131.005 120.362C132.838 121.391 134.424 122.808 135.652 124.514C136.88 126.22 137.721 128.173 138.116 130.238C138.511 132.302 138.45 134.428 137.939 136.466C135 148.135 132.325 158.414 128.632 169.676C125.067 170.39 121.394 170.368 117.838 169.613C114.281 168.858 110.916 167.386 107.948 165.285C109.398 156.854 110.991 149.235 112.456 143.812C120.314 142.828 126.226 141.573 126.284 141.56C126.361 141.544 126.429 141.498 126.472 141.431C126.515 141.365 126.53 141.285 126.513 141.208C126.497 141.131 126.451 141.064 126.385 141.021C126.319 140.978 126.238 140.963 126.161 140.979C113.601 143.556 89.3184 146.821 77.4637 141.709C75.7003 140.918 74.0695 139.86 72.629 138.571C71.0009 137.047 69.7564 135.159 68.9974 133.062C66.0638 125.114 70.5764 115.157 74.2332 112.454L74.2727 112.462C84.2294 113.875 91.2526 113.725 98.3657 111.946C98.2555 113.735 97.9548 115.508 97.4688 117.233L97.4783 117.232ZM102.771 87.9726C100.368 84.9868 100.44 84.8889 100.087 85.11C99.7504 85.4257 100.245 85.5947 100.56 89.3178C101.141 96.2525 99.662 104.245 98.462 111.306C91.3994 113.112 84.4552 113.289 74.5932 111.908C74.2795 107.402 73.52 102.938 72.3258 98.5815C74.56 95.6778 74.4463 95.8609 74.4684 95.7394C74.4785 95.6621 74.4581 95.584 74.4116 95.5215C74.2806 95.3636 74.3532 95.4204 71.1274 94.8094C60.4937 92.5314 49.6318 91.4939 38.7592 91.7178C36.8983 86.6012 36.6346 81.0403 38.0029 75.7705C50.0244 75.1986 62.0683 76.24 73.8132 78.8668C76.3237 83.0984 80.9626 87.2936 86.0626 86.4157C92.8141 85.2536 92.1762 77.1379 92.0152 75.7437C102.307 69.7516 112.146 63.0125 121.451 55.5807C125.769 58.5044 129.299 62.4476 131.729 67.0611C124.652 72.9474 112.164 82.8915 102.771 87.9726ZM137.241 62.3811C137.178 62.4348 135.246 64.129 132.201 66.6695C129.751 62.0738 126.226 58.1379 121.928 55.197C123.738 53.7296 125.497 52.2523 127.207 50.7649C128.708 49.9754 135.717 57.6175 137.097 61.1464C137.339 61.7622 137.387 62.2233 137.241 62.3811ZM142.072 56.4933C141.07 58.3526 139.466 59.8163 137.523 60.6443C135.488 56.8899 132.7 53.5951 129.335 50.9654C136.44 45.3492 136.84 33.5861 136.852 25.0709C136.852 25.0045 136.985 24.8688 136.998 24.8435C138.734 25.9614 141.242 38.6718 140.597 45.1455C139.877 47.3876 139.217 49.3344 139.208 49.3644C139.183 49.4391 139.188 49.5208 139.224 49.5914C139.259 49.6621 139.32 49.7158 139.395 49.741C139.47 49.7661 139.552 49.7605 139.622 49.7254C139.693 49.6903 139.747 49.6286 139.772 49.5539C139.781 49.5254 141.902 43.006 142.217 41.956C142.893 39.6981 143.512 39.1329 143.76 39.1424C143.891 39.1424 144.186 39.4392 144.36 40.4687C145.118 45.9186 144.325 51.4716 142.072 56.4917V56.4933Z" fill="#005758"/>
<path d="M41.5872 88.3089C41.5872 88.5811 41.6953 88.8421 41.8878 89.0346C42.0802 89.2271 42.3413 89.3352 42.6135 89.3352C42.8857 89.3352 43.1467 89.2271 43.3392 89.0346C43.5316 88.8421 43.6398 88.5811 43.6398 88.3089C43.6398 88.0367 43.5316 87.7757 43.3392 87.5832C43.1467 87.3907 42.8857 87.2826 42.6135 87.2826C42.3413 87.2826 42.0802 87.3907 41.8878 87.5832C41.6953 87.7757 41.5872 88.0367 41.5872 88.3089Z" fill="#005758"/>
<path d="M55.2607 79.3074C55.2711 79.5716 55.3834 79.8215 55.574 80.0048C55.7646 80.188 56.0187 80.2904 56.2831 80.2904C56.5475 80.2904 56.8016 80.188 56.9922 80.0048C57.1828 79.8215 57.2951 79.5716 57.3055 79.3074C57.2951 79.0432 57.1828 78.7933 56.9922 78.6101C56.8016 78.4268 56.5475 78.3245 56.2831 78.3245C56.0187 78.3245 55.7646 78.4268 55.574 78.6101C55.3834 78.7933 55.2711 79.0432 55.2607 79.3074Z" fill="#005758"/>
<path d="M68.3422 89.3321C68.3422 89.6043 68.4503 89.8653 68.6428 90.0578C68.8352 90.2503 69.0963 90.3584 69.3685 90.3584C69.6407 90.3584 69.9017 90.2503 70.0942 90.0578C70.2867 89.8653 70.3948 89.6043 70.3948 89.3321C70.3948 89.0599 70.2867 88.7989 70.0942 88.6064C69.9017 88.4139 69.6407 88.3058 69.3685 88.3058C69.0963 88.3058 68.8352 88.4139 68.6428 88.6064C68.4503 88.7989 68.3422 89.0599 68.3422 89.3321Z" fill="#005758"/>
<path d="M86.1968 92.1725C86.1968 92.4447 86.3049 92.7058 86.4974 92.8983C86.6899 93.0907 86.9509 93.1989 87.2231 93.1989C87.4953 93.1989 87.7563 93.0907 87.9488 92.8983C88.1413 92.7058 88.2494 92.4447 88.2494 92.1725C88.2494 91.9003 88.1413 91.6393 87.9488 91.4468C87.7563 91.2544 87.4953 91.1462 87.2231 91.1462C86.9509 91.1462 86.6899 91.2544 86.4974 91.4468C86.3049 91.6393 86.1968 91.9003 86.1968 92.1725Z" fill="#005758"/>
<path d="M95.462 76.6027C95.462 76.8749 95.5702 77.136 95.7626 77.3284C95.9551 77.5209 96.2162 77.629 96.4883 77.629C96.7605 77.629 97.0216 77.5209 97.2141 77.3284C97.4065 77.136 97.5147 76.8749 97.5147 76.6027C97.5147 76.3305 97.4065 76.0695 97.2141 75.877C97.0216 75.6845 96.7605 75.5764 96.4883 75.5764C96.2162 75.5764 95.9551 75.6845 95.7626 75.877C95.5702 76.0695 95.462 76.3305 95.462 76.6027Z" fill="#005758"/>
<path d="M114.877 76.3911C114.877 76.1189 114.769 75.8578 114.576 75.6654C114.384 75.4729 114.123 75.3647 113.85 75.3647C113.578 75.3647 113.317 75.4729 113.125 75.6654C112.932 75.8578 112.824 76.1189 112.824 76.3911C112.824 76.6633 112.932 76.9243 113.125 77.1168C113.317 77.3092 113.578 77.4174 113.85 77.4174C114.123 77.4174 114.384 77.3092 114.576 77.1168C114.769 76.9243 114.877 76.6633 114.877 76.3911Z" fill="#005758"/>
<path d="M120.744 62.5754C120.744 62.3032 120.636 62.0421 120.443 61.8497C120.251 61.6572 119.99 61.5491 119.718 61.5491C119.445 61.5491 119.184 61.6572 118.992 61.8497C118.799 62.0421 118.691 62.3032 118.691 62.5754C118.691 62.8476 118.799 63.1086 118.992 63.3011C119.184 63.4936 119.445 63.6017 119.718 63.6017C119.99 63.6017 120.251 63.4936 120.443 63.3011C120.636 63.1086 120.744 62.8476 120.744 62.5754Z" fill="#005758"/>
<path d="M78.6779 106.143C78.6882 106.407 78.8005 106.657 78.9911 106.84C79.1817 107.024 79.4358 107.126 79.7002 107.126C79.9646 107.126 80.2187 107.024 80.4093 106.84C80.5999 106.657 80.7122 106.407 80.7226 106.143C80.7122 105.879 80.5999 105.629 80.4093 105.446C80.2187 105.262 79.9646 105.16 79.7002 105.16C79.4358 105.16 79.1817 105.262 78.9911 105.446C78.8005 105.629 78.6882 105.879 78.6779 106.143Z" fill="#005758"/>
<path d="M94.4404 105.12C94.4404 105.392 94.5486 105.653 94.741 105.846C94.9335 106.038 95.1945 106.146 95.4667 106.146C95.7389 106.146 96 106.038 96.1924 105.846C96.3849 105.653 96.493 105.392 96.493 105.12C96.493 104.848 96.3849 104.587 96.1924 104.394C96 104.202 95.7389 104.094 95.4667 104.094C95.1945 104.094 94.9335 104.202 94.741 104.394C94.5486 104.587 94.4404 104.848 94.4404 105.12Z" fill="#005758"/>
<path d="M79.7516 124.105C82.0068 123.682 84.1449 122.779 86.0216 121.459C87.8983 120.139 89.47 118.431 90.6305 116.452C90.6738 116.386 90.6892 116.306 90.6732 116.228C90.6572 116.151 90.6112 116.083 90.5452 116.04C90.4793 115.997 90.3988 115.981 90.3215 115.997C90.2442 116.013 90.1765 116.059 90.1331 116.125C89.0157 118.036 87.5017 119.684 85.6932 120.96C83.8846 122.236 81.8236 123.109 79.649 123.521C79.5742 123.537 79.5086 123.582 79.466 123.646C79.4234 123.709 79.407 123.787 79.4202 123.862C79.4335 123.938 79.4754 124.005 79.5371 124.05C79.5989 124.095 79.6757 124.115 79.7516 124.105Z" fill="#005758"/>
<path d="M160.315 55.0739C160.315 55.3461 160.423 55.6072 160.616 55.7996C160.808 55.9921 161.069 56.1002 161.342 56.1002C161.614 56.1002 161.875 55.9921 162.067 55.7996C162.26 55.6072 162.368 55.3461 162.368 55.0739C162.368 54.8017 162.26 54.5407 162.067 54.3482C161.875 54.1557 161.614 54.0476 161.342 54.0476C161.069 54.0476 160.808 54.1557 160.616 54.3482C160.423 54.5407 160.315 54.8017 160.315 55.0739Z" fill="#005758"/>
<path d="M264.536 78.6442C264.536 78.372 264.428 78.111 264.236 77.9185C264.043 77.726 263.782 77.6179 263.51 77.6179C263.238 77.6179 262.977 77.726 262.784 77.9185C262.592 78.111 262.484 78.372 262.484 78.6442C262.484 78.9164 262.592 79.1775 262.784 79.3699C262.977 79.5624 263.238 79.6705 263.51 79.6705C263.782 79.6705 264.043 79.5624 264.236 79.3699C264.428 79.1775 264.536 78.9164 264.536 78.6442Z" fill="#005758"/>
</svg>
