<svg width="211" height="238" viewBox="0 0 211 238" fill="none" xmlns="http://www.w3.org/2000/svg">
<path d="M104.885 195.493C95.0862 195.52 85.3799 193.598 76.3305 189.839C67.2811 186.081 59.0692 180.561 52.1724 173.6C52.1283 173.556 52.1036 173.496 52.1038 173.434C52.1039 173.371 52.1288 173.311 52.1731 173.267C52.2173 173.223 52.2773 173.199 52.3398 173.199C52.4022 173.199 52.4621 173.224 52.5062 173.268C62.3138 183.111 74.6961 189.992 88.2341 193.122C101.772 196.252 115.918 195.505 129.051 190.966C142.184 186.427 153.772 178.28 162.488 167.458C171.204 156.636 176.695 143.578 178.331 129.779C178.338 129.717 178.37 129.661 178.419 129.622C178.468 129.583 178.53 129.566 178.592 129.573C178.654 129.58 178.711 129.612 178.75 129.661C178.788 129.71 178.806 129.772 178.799 129.834C176.663 147.934 167.956 164.619 154.33 176.722C140.705 188.826 123.11 195.505 104.885 195.493Z" fill="#005758"/>
<path d="M176.032 100.848C174.702 96.1677 172.911 91.6309 170.685 87.3042C170.659 87.2492 170.656 87.1864 170.676 87.129C170.695 87.0716 170.737 87.0241 170.79 86.9963C170.844 86.9685 170.907 86.9627 170.965 86.98C171.023 86.9973 171.072 87.0364 171.102 87.0892C173.343 91.4415 175.146 96.0056 176.485 100.714C176.503 100.774 176.496 100.839 176.466 100.894C176.436 100.949 176.386 100.99 176.326 101.007C176.266 101.025 176.201 101.018 176.146 100.988C176.091 100.958 176.05 100.908 176.032 100.848Z" fill="#005758"/>
<path d="M59.9762 137.267C59.9739 135.04 59.0882 132.904 57.5134 131.33C55.9386 129.755 53.8034 128.869 51.5763 128.867H32.9475V117.637H51.9663C52.9184 117.636 53.8313 117.257 54.5046 116.584C55.1778 115.911 55.5565 114.998 55.5575 114.046V101.266C55.5562 100.314 55.1773 99.401 54.5041 98.728C53.8309 98.055 52.9182 97.6765 51.9663 97.6755H8.0075C7.05664 97.6782 6.14557 98.0574 5.47368 98.7302C4.80179 99.4031 4.42382 100.315 4.4225 101.266V114.046C4.42349 114.998 4.80217 115.911 5.47545 116.584C6.14872 117.257 7.0616 117.636 8.01375 117.637H27.025V128.867H8.4C6.17299 128.869 4.03796 129.755 2.46323 131.33C0.888493 132.905 0.00264647 135.04 0 137.267V165.306C0.00264647 167.533 0.888493 169.668 2.46323 171.242C4.03796 172.817 6.17299 173.703 8.4 173.706H51.5763C53.8033 173.703 55.9383 172.817 57.513 171.242C59.0878 169.668 59.9736 167.533 59.9762 165.306V137.267ZM32.9475 156.638V151.692C33.6797 152.585 34.6567 153.246 35.7588 153.593C35.8181 153.612 35.8826 153.607 35.9382 153.579C35.9938 153.55 36.0358 153.501 36.055 153.442C36.0742 153.382 36.0691 153.318 36.0407 153.262C36.0124 153.207 35.9631 153.165 35.9037 153.146C33.3425 152.318 31.5075 149.782 31.9313 145.686C31.938 145.624 31.9199 145.561 31.8809 145.513C31.8419 145.464 31.7851 145.433 31.7231 145.426C31.6611 145.419 31.599 145.437 31.5503 145.477C31.5017 145.516 31.4705 145.572 31.4638 145.634C30.9638 150.343 28.5063 150.564 28.4338 149.074C28.3263 146.816 28.2125 145.259 28.2662 144.242C28.37 142.311 29.0775 142.263 31.55 142.102C34.8825 141.883 35.0812 141.871 36.12 143.486C36.495 144.074 36.37 146.777 38.1787 146.796C44.7812 146.867 57.1787 146.587 59.5062 146.407V160.079C57.7938 160.036 37.745 159.822 32.9475 159.724V157.893C33.0931 157.487 33.0931 157.044 32.9475 156.638ZM27.495 173.234V159.797C27.8525 159.757 29.9725 159.496 30.7925 159.408C31.4262 159.362 32.0232 159.094 32.4775 158.649V173.234H27.495ZM30.745 158.941C28.185 159.214 26.87 159.462 25.5963 159.449C23.7413 159.436 23.6562 156.394 25.9625 156.218C27.7775 156.081 29.03 155.968 30.8638 155.907C33.235 155.828 33.1338 158.684 30.7425 158.941H30.745ZM27.8088 144.072C27.7732 145.175 27.797 146.28 27.88 147.381C26.8764 147.445 25.8695 147.442 24.8663 147.372C23.0613 147.199 23.085 144.063 25.3937 144.051L27.8088 144.072ZM25.1725 148.063C26.1075 148.043 26.9738 147.971 27.9113 147.938C27.93 148.301 27.95 148.688 27.9688 149.097C28.0425 150.616 30.1175 151.144 31.2588 148.531C31.4843 148.755 31.6366 149.043 31.6957 149.355C31.7548 149.668 31.7179 149.992 31.5899 150.283C31.4618 150.574 31.2486 150.82 30.9782 150.988C30.7079 151.156 30.393 151.239 30.075 151.224C27.4625 151.362 26.0038 151.551 24.6488 151.467C22.6938 151.347 22.7038 148.117 25.1725 148.063ZM32.0888 150.289C32.2042 150.544 32.3357 150.791 32.4825 151.029V152.931C32.3968 152.571 32.2065 152.244 31.9356 151.992C31.6646 151.74 31.3252 151.574 30.96 151.514C31.23 151.412 31.4724 151.248 31.6675 151.035C31.8627 150.823 32.0053 150.567 32.0837 150.289H32.0888ZM25.225 152.092C27.1 152.003 28.3912 151.924 30.2975 151.917C32.7663 151.907 32.5925 154.876 30.1062 155.069C27.53 155.271 26.1063 155.491 24.7738 155.444C22.8363 155.376 22.825 152.206 25.22 152.092H25.225ZM32.4825 153.759V155.944C32.2385 155.749 31.9581 155.605 31.6577 155.519C31.3573 155.433 31.0428 155.408 30.7325 155.444C31.1523 155.356 31.5387 155.151 31.8474 154.853C32.156 154.555 32.3744 154.176 32.4775 153.759H32.4825ZM51.5812 129.337C53.6837 129.339 55.6994 130.175 57.1861 131.662C58.6727 133.149 59.5089 135.164 59.5113 137.267V145.936C57.355 146.114 44.8375 146.397 38.1887 146.326C36.825 146.312 36.9837 143.951 36.5212 143.231C35.5287 141.691 35.0625 141.454 32.9525 141.548V129.337H51.5812ZM8.0125 117.212V117.166C7.1837 117.166 6.38884 116.836 5.80279 116.25C5.21674 115.664 4.8875 114.869 4.8875 114.041V101.266C4.8875 100.437 5.21674 99.6419 5.80279 99.0558C6.38884 98.4698 7.1837 98.1405 8.0125 98.1405H51.9663C52.7951 98.1405 53.5899 98.4698 54.176 99.0558C54.762 99.6419 55.0913 100.437 55.0913 101.266V114.046C55.0913 114.874 54.762 115.669 54.176 116.255C53.5899 116.841 52.7951 117.171 51.9663 117.171H32.7163C32.6854 117.171 32.6548 117.177 32.6263 117.188C32.5978 117.2 32.5719 117.218 32.5501 117.239C32.5283 117.261 32.5109 117.287 32.4991 117.316C32.4873 117.344 32.4813 117.375 32.4813 117.406V141.576C32.1775 141.593 31.845 141.616 31.4813 141.639C28.9813 141.803 28.1062 142.041 27.865 143.607L27.505 143.601V117.402C27.5047 117.339 27.4796 117.28 27.4354 117.236C27.3911 117.192 27.3312 117.167 27.2687 117.167C8.52625 117.167 8.45 117.151 8.0075 117.213L8.0125 117.212ZM0.472499 165.304V137.267C0.474484 135.164 1.31043 133.149 2.79689 131.662C4.28336 130.175 6.29891 129.339 8.40125 129.337H27.0263V143.587C26.7388 143.587 25.4012 143.574 25.4012 143.574C24.901 143.555 24.4092 143.708 24.0078 144.007C23.6064 144.307 23.3195 144.734 23.1948 145.219C23.0701 145.704 23.1151 146.217 23.3223 146.673C23.5295 147.128 23.8864 147.5 24.3337 147.724C23.8989 147.857 23.5162 148.122 23.2388 148.483C22.9614 148.843 22.8031 149.281 22.7857 149.735C22.7684 150.19 22.893 150.638 23.1422 151.019C23.3913 151.399 23.7528 151.692 24.1763 151.858C22.2537 152.758 22.56 155.828 24.7575 155.907C24.8825 155.907 25.0175 155.914 25.1488 155.914C23.1337 156.687 23.3713 159.703 25.3988 159.903C25.4888 159.932 26.835 159.999 27.035 160.009V173.229H8.41C6.30636 173.231 4.28822 172.397 2.79896 170.911C1.30971 169.425 0.471143 167.409 0.467499 165.306L0.472499 165.304ZM51.5812 173.233H32.9475V160.194C37.7463 160.292 57.8037 160.507 59.5062 160.551V165.301C59.5049 167.404 58.6691 169.42 57.1824 170.908C55.6956 172.395 53.6794 173.232 51.5763 173.234L51.5812 173.233Z" fill="#005758"/>
<path d="M15.2825 106.668L13.0825 106.349L12.0975 104.349C12.0749 104.314 12.0437 104.285 12.0069 104.265C11.9701 104.244 11.9288 104.234 11.8869 104.234C11.8449 104.234 11.8036 104.244 11.7668 104.265C11.73 104.285 11.6989 104.314 11.6762 104.349L10.6925 106.349L8.49125 106.668C8.4482 106.675 8.40796 106.694 8.37503 106.722C8.34211 106.751 8.3178 106.788 8.30483 106.83C8.29185 106.872 8.29072 106.916 8.30157 106.958C8.31242 107.001 8.33481 107.039 8.36624 107.069L9.95375 108.625L9.57874 110.817C9.57078 110.86 9.57521 110.905 9.59153 110.946C9.60785 110.987 9.63539 111.023 9.67101 111.049C9.70663 111.075 9.74887 111.09 9.79291 111.093C9.83694 111.097 9.88099 111.087 9.92 111.067L11.8887 110.033L13.8562 111.067C13.8953 111.087 13.9393 111.097 13.9833 111.093C14.0274 111.09 14.0696 111.075 14.1052 111.049C14.1409 111.023 14.1684 110.987 14.1847 110.946C14.201 110.905 14.2055 110.86 14.1975 110.817L13.8225 108.625L15.415 107.073C15.4477 107.042 15.471 107.003 15.4821 106.96C15.4933 106.916 15.4918 106.871 15.4779 106.828C15.464 106.786 15.4382 106.748 15.4036 106.72C15.3689 106.691 15.3269 106.673 15.2825 106.668Z" fill="#005758"/>
<path d="M24.3325 106.668L22.1313 106.349L21.1475 104.349C21.1249 104.314 21.0938 104.285 21.057 104.265C21.0202 104.244 20.9789 104.234 20.9369 104.234C20.895 104.234 20.8537 104.244 20.8169 104.265C20.78 104.285 20.7489 104.314 20.7263 104.349L19.7425 106.349L17.5413 106.668C17.4982 106.675 17.458 106.694 17.4251 106.722C17.3922 106.751 17.3678 106.788 17.3549 106.83C17.3419 106.872 17.3408 106.916 17.3516 106.958C17.3625 107.001 17.3849 107.039 17.4163 107.069L19.0038 108.625L18.6288 110.817C18.623 110.851 18.6246 110.885 18.6336 110.918C18.6426 110.951 18.6587 110.982 18.6809 111.008C18.7031 111.035 18.7307 111.056 18.7619 111.07C18.793 111.084 18.827 111.092 18.8613 111.092C19.5837 110.8 20.2789 110.445 20.9388 110.03L22.9063 111.064C22.9453 111.085 22.9893 111.094 23.0334 111.091C23.0774 111.088 23.1197 111.072 23.1553 111.046C23.1909 111.02 23.2184 110.984 23.2348 110.943C23.2511 110.902 23.2555 110.858 23.2475 110.814L22.8725 108.623L24.465 107.07C24.497 107.04 24.5196 107.001 24.5303 106.958C24.541 106.915 24.5393 106.87 24.5255 106.828C24.5116 106.785 24.4861 106.748 24.452 106.72C24.4179 106.692 24.3765 106.674 24.3325 106.668Z" fill="#005758"/>
<path d="M33.3825 106.668L31.1812 106.349L30.1975 104.349C30.1749 104.314 30.1437 104.285 30.1069 104.265C30.0701 104.244 30.0288 104.234 29.9868 104.234C29.9449 104.234 29.9036 104.244 29.8668 104.265C29.83 104.285 29.7988 104.314 29.7762 104.349L28.7912 106.349L26.5912 106.668C26.5482 106.675 26.5079 106.694 26.475 106.722C26.4421 106.751 26.4178 106.788 26.4048 106.83C26.3918 106.872 26.3907 106.916 26.4015 106.958C26.4124 107.001 26.4348 107.039 26.4662 107.069L28.0537 108.625L27.6725 110.813C27.6664 110.847 27.6679 110.881 27.6767 110.915C27.6856 110.948 27.7016 110.978 27.7237 111.005C27.7457 111.031 27.7733 111.052 27.8044 111.066C27.8355 111.081 27.8694 111.088 27.9037 111.088C28.628 110.8 29.3235 110.445 29.9812 110.027L31.95 111.06C31.989 111.081 32.033 111.09 32.0771 111.087C32.1211 111.084 32.1633 111.069 32.199 111.042C32.2346 111.016 32.2621 110.981 32.2784 110.94C32.2948 110.899 32.2992 110.854 32.2912 110.81L31.9225 108.625L33.515 107.073C33.5472 107.042 33.57 107.003 33.5809 106.96C33.5917 106.916 33.5901 106.871 33.5762 106.829C33.5624 106.786 33.5369 106.749 33.5026 106.72C33.4683 106.692 33.4266 106.674 33.3825 106.668Z" fill="#005758"/>
<path d="M42.4313 106.668L40.2313 106.349L39.2475 104.349C39.225 104.314 39.1938 104.284 39.1568 104.264C39.1199 104.244 39.0784 104.233 39.0363 104.233C38.9941 104.233 38.9526 104.244 38.9157 104.264C38.8787 104.284 38.8476 104.314 38.825 104.349L37.8413 106.349L35.64 106.668C35.5972 106.675 35.5573 106.695 35.5247 106.723C35.492 106.752 35.4679 106.789 35.455 106.83C35.4421 106.872 35.4409 106.916 35.4515 106.958C35.462 107 35.484 107.039 35.515 107.069L37.1025 108.625L36.7275 110.817C36.7215 110.85 36.7229 110.885 36.7317 110.918C36.7406 110.951 36.7566 110.982 36.7787 111.008C36.8007 111.035 36.8283 111.056 36.8594 111.07C36.8906 111.084 36.9245 111.092 36.9588 111.092C37.6812 110.8 38.3764 110.445 39.0363 110.03L41.0038 111.064C41.0428 111.085 41.0868 111.094 41.1308 111.091C41.1749 111.088 41.2171 111.072 41.2527 111.046C41.2884 111.02 41.3159 110.984 41.3322 110.943C41.3485 110.902 41.353 110.858 41.345 110.814L40.97 108.623L42.5625 107.07C42.5944 107.04 42.617 107.001 42.6278 106.958C42.6385 106.915 42.637 106.87 42.6233 106.828C42.6096 106.786 42.5843 106.749 42.5503 106.72C42.5163 106.692 42.4751 106.674 42.4313 106.668Z" fill="#005758"/>
<path d="M51.4812 106.668L49.2812 106.349L48.2962 104.349C48.2736 104.314 48.2425 104.285 48.2057 104.265C48.1689 104.244 48.1276 104.234 48.0856 104.234C48.0436 104.234 48.0024 104.244 47.9655 104.265C47.9287 104.285 47.8976 104.314 47.875 104.349L46.8912 106.349L44.6912 106.668C44.6477 106.674 44.6067 106.692 44.573 106.72C44.5392 106.749 44.5141 106.786 44.5004 106.828C44.4867 106.869 44.4851 106.914 44.4956 106.957C44.5061 107 44.5284 107.039 44.56 107.069L46.1525 108.625L45.7775 110.817C45.7695 110.86 45.7739 110.905 45.7903 110.946C45.8066 110.987 45.8341 111.023 45.8697 111.049C45.9054 111.075 45.9476 111.09 45.9916 111.093C46.0357 111.097 46.0797 111.087 46.1187 111.067L48.0875 110.033L50.055 111.067C50.094 111.087 50.138 111.097 50.1821 111.093C50.2261 111.09 50.2684 111.075 50.304 111.049C50.3396 111.023 50.3671 110.987 50.3835 110.946C50.3998 110.905 50.4042 110.86 50.3962 110.817L50.0212 108.625L51.6137 107.073C51.6464 107.042 51.6697 107.003 51.6809 106.96C51.692 106.916 51.6905 106.871 51.6766 106.828C51.6627 106.786 51.6369 106.748 51.6023 106.72C51.5677 106.691 51.5257 106.673 51.4812 106.668Z" fill="#005758"/>
<path d="M183.422 125.55C171.86 135.667 160.236 145.8 148.079 155.493C145.576 157.498 142.41 158.486 139.211 158.261C136.012 158.035 133.015 156.613 130.819 154.277C123.836 146.832 114.819 136.027 109.64 125.35L109.989 138.954L101.544 152.829C106.749 163.579 114.246 175.365 123.169 187.807C118.052 196.695 109.387 200.873 99.1687 202.29C90.7967 189.38 83.6319 175.725 77.7649 161.5C76.9511 159.479 76.5786 157.306 76.6724 155.129C76.7661 152.952 77.324 150.82 78.3087 148.875L96.9899 112.073C105.809 110.989 114.485 108.952 122.865 105.999C123.587 105.746 124.268 105.387 124.885 104.934C128.152 106.379 135.565 111.705 142.065 131.147L167.044 106.772C171.128 108.28 174.768 110.79 177.629 114.071C180.491 117.352 182.483 121.299 183.422 125.55Z" fill="#F7C548"/>
<path d="M192.887 48.843H149.707C147.48 48.8457 145.345 49.7315 143.771 51.3062C142.196 52.881 141.31 55.016 141.307 57.243V79.033C141.31 81.2598 142.196 83.3945 143.771 84.969C145.346 86.5434 147.481 87.4291 149.707 87.4318H192.887C195.114 87.4294 197.249 86.5439 198.824 84.9693C200.399 83.3948 201.285 81.2599 201.287 79.033V57.243C201.285 55.016 200.399 52.881 198.824 51.3062C197.25 49.7315 195.114 48.8457 192.887 48.843ZM169.512 53.6593C169.466 52.8693 171.652 53.4518 172.242 57.6368C172.689 60.8105 172.705 61.438 172.829 62.4043C173.147 64.8743 173.061 65.4118 173.125 65.5455C174.699 69.0343 172.051 74.0343 168.315 73.573C168.254 73.5663 168.192 73.584 168.144 73.6222C168.095 73.6604 168.064 73.7161 168.056 73.7772C168.049 73.8384 168.065 73.9002 168.103 73.9492C168.14 73.9982 168.195 74.0306 168.256 74.0393C172.371 74.5393 175.256 69.198 173.57 65.3918C173.56 65.248 173.525 64.7493 173.454 63.9593C174.368 64.5126 175.445 64.7333 176.502 64.5843C176.098 64.6932 175.742 64.9344 175.491 65.2692C175.24 65.6041 175.108 66.0134 175.116 66.432C175.124 66.8506 175.272 67.2543 175.537 67.5789C175.801 67.9035 176.167 68.1302 176.575 68.223C176.134 68.254 175.719 68.4381 175.4 68.7434C175.08 69.0487 174.878 69.4559 174.828 69.8947C174.777 70.3334 174.882 70.7759 175.123 71.1457C175.365 71.5154 175.728 71.7891 176.15 71.9193C175.768 72.0922 175.451 72.3822 175.245 72.7474C175.039 73.1126 174.955 73.5339 175.005 73.9502C175.055 74.3665 175.236 74.7561 175.522 75.0626C175.808 75.369 176.184 75.5762 176.596 75.6543C174.744 76.343 175.05 79.1955 177.68 79.4768L178.205 79.5343C171.897 79.7843 143.205 80.373 141.896 80.4093C141.821 80.0239 141.785 79.6319 141.787 79.2393C141.755 77.9305 141.777 74.638 141.777 64.303C143.79 64.428 157.342 65.2643 161.735 65.2155C163.451 65.1955 166.646 65.1605 167.735 63.0393C168.739 61.093 169.577 54.7505 169.514 53.6593H169.512ZM177.73 79.013C175.32 78.7555 175.261 75.8968 177.611 75.9793C179.505 76.048 179.82 76.018 181.361 76.133C183.664 76.308 183.587 79.3505 181.726 79.3643C180.388 79.336 179.054 79.2187 177.731 79.013H177.73ZM177.48 75.3318C174.965 75.2443 174.716 72.278 177.152 72.1905C179.014 72.123 180.352 72.1368 182.227 72.1443C184.625 72.1543 184.752 75.3168 182.825 75.4718C181.52 75.5768 179.922 75.413 177.481 75.3318H177.48ZM177.322 71.6668C174.885 71.6668 174.525 68.8468 176.86 68.6668C178.79 68.5168 183.235 68.373 183.36 68.373C185.574 68.373 185.816 71.3218 183.992 71.5443C182.719 71.6993 179.85 71.6493 177.324 71.6668H177.322ZM177.757 67.8918C175.344 68.0968 174.736 65.3018 177.061 64.9355C178.587 64.6968 181.865 64.2893 182.217 64.2893C184.256 64.2893 184.662 67.0543 182.907 67.4143C181.661 67.6605 180.265 67.678 177.759 67.8918H177.757ZM200.816 79.033C200.814 81.1353 199.978 83.1509 198.491 84.6374C197.004 86.1238 194.989 86.9598 192.886 86.9618H149.707C147.926 86.9593 146.197 86.3582 144.799 85.2551C143.4 84.1521 142.413 82.611 141.995 80.8793C143.34 80.8443 146.102 80.7868 149.575 80.7143C191.972 79.8393 177.385 79.8393 181.726 79.8393C183.831 79.823 184.226 76.933 182.456 75.9643C182.592 75.9643 182.729 75.9505 182.864 75.9405C184.911 75.7755 185.2 73.0655 183.614 72.0518C183.774 72.0405 183.92 72.0268 184.05 72.0105C186.49 71.7143 186.161 67.8018 183.245 67.9043L182.709 67.9243C182.806 67.9068 182.904 67.8893 183.001 67.8693C185.407 67.383 184.775 63.508 181.885 63.838C174.831 64.258 173.659 64.4818 173.316 62.5405C173.146 60.908 172.95 59.2905 172.709 57.5705C171.98 52.403 168.959 52.2243 169.044 53.688C169.104 54.7255 168.266 60.9818 167.317 62.8243C166.357 64.6993 163.346 64.728 161.73 64.7455C157.334 64.7943 143.679 63.9518 141.777 63.833V57.243C141.779 55.1407 142.615 53.125 144.102 51.6383C145.588 50.1516 147.604 49.3153 149.706 49.313H192.886C194.989 49.3153 197.004 50.1516 198.491 51.6382C199.978 53.1249 200.814 55.1406 200.816 57.243V79.033Z" fill="#005758"/>
<path d="M44.3975 190.001H41.6362C41.3249 190.001 41.0166 189.939 40.7291 189.82C40.4416 189.7 40.1805 189.525 39.9608 189.304C39.7412 189.084 39.5673 188.822 39.4492 188.534C39.3311 188.246 39.271 187.937 39.2725 187.626V184.876C39.2725 184.813 39.2477 184.754 39.2037 184.709C39.1596 184.665 39.0998 184.641 39.0375 184.641C38.9752 184.641 38.9154 184.665 38.8713 184.709C38.8273 184.754 38.8025 184.813 38.8025 184.876V187.626C38.8035 187.937 38.7431 188.245 38.6247 188.533C38.5063 188.821 38.3323 189.083 38.1126 189.304C37.8929 189.524 37.6319 189.699 37.3445 189.819C37.057 189.939 36.7488 190 36.4375 190.001H33.6725C33.6102 190.001 33.5504 190.025 33.5063 190.069C33.4623 190.114 33.4375 190.173 33.4375 190.236C33.4375 190.298 33.4623 190.358 33.5063 190.402C33.5504 190.446 33.6102 190.471 33.6725 190.471H36.4337C36.7443 190.47 37.0519 190.532 37.3388 190.65C37.6257 190.769 37.8864 190.943 38.106 191.163C38.3255 191.383 38.4996 191.643 38.6183 191.93C38.7369 192.217 38.7978 192.525 38.7975 192.836V195.597C38.8018 195.656 38.8285 195.712 38.8723 195.753C38.916 195.793 38.9734 195.816 39.0331 195.816C39.0928 195.816 39.1503 195.793 39.194 195.753C39.2377 195.712 39.2644 195.656 39.2687 195.597V192.836C39.2686 192.525 39.3296 192.218 39.4483 191.931C39.5671 191.644 39.7412 191.383 39.9607 191.164C40.1802 190.944 40.4409 190.77 40.7277 190.651C41.0146 190.533 41.322 190.472 41.6325 190.472H44.395C44.4575 190.472 44.5175 190.448 44.562 190.404C44.6064 190.36 44.6315 190.3 44.6319 190.237C44.6322 190.175 44.6077 190.115 44.5637 190.071C44.5198 190.026 44.46 190.001 44.3975 190.001ZM39.0362 191.701C38.7481 191.045 38.2244 190.521 37.5687 190.233C38.2243 189.945 38.748 189.422 39.0362 188.767C39.323 189.423 39.846 189.946 40.5012 190.234C39.8473 190.522 39.3246 191.043 39.0362 191.697V191.701Z" fill="#005758"/>
<path d="M163.953 33.5941H157.923V27.5604C157.918 27.5009 157.891 27.4452 157.848 27.4045C157.804 27.3639 157.747 27.3413 157.687 27.3413C157.627 27.3413 157.57 27.3639 157.526 27.4045C157.482 27.4452 157.456 27.5009 157.451 27.5604V33.5954H151.419C151.359 33.5997 151.304 33.6264 151.263 33.6701C151.222 33.7139 151.2 33.7713 151.2 33.831C151.2 33.8907 151.222 33.9482 151.263 33.9919C151.304 34.0356 151.359 34.0623 151.419 34.0666H157.453V40.0991C157.457 40.1587 157.484 40.2143 157.527 40.255C157.571 40.2956 157.628 40.3182 157.688 40.3182C157.748 40.3182 157.805 40.2956 157.849 40.255C157.893 40.2143 157.919 40.1587 157.924 40.0991V34.0654H163.958C164.017 34.0605 164.072 34.0332 164.113 33.989C164.153 33.9449 164.175 33.8871 164.174 33.8274C164.174 33.7677 164.15 33.7105 164.109 33.6672C164.068 33.6239 164.012 33.5978 163.953 33.5941Z" fill="#005758"/>
<path d="M47.24 18.7966C47.2362 18.219 47.0619 17.6553 46.7388 17.1765C46.4158 16.6976 45.9584 16.3248 45.4242 16.105C44.89 15.8852 44.3028 15.8281 43.7363 15.9409C43.1698 16.0537 42.6492 16.3314 42.24 16.7391L41.7137 17.2666L41.1862 16.7416C40.9179 16.4529 40.594 16.2214 40.234 16.0608C39.874 15.9003 39.4853 15.8142 39.0912 15.8075C38.6971 15.8009 38.3057 15.8739 37.9405 16.0222C37.5753 16.1705 37.2438 16.391 36.9659 16.6705C36.688 16.95 36.4694 17.2828 36.3232 17.6488C36.177 18.0149 36.1062 18.4067 36.1151 18.8007C36.124 19.1948 36.2124 19.583 36.375 19.9421C36.5376 20.3012 36.771 20.6237 37.0612 20.8904L41.565 25.3754C41.5867 25.3974 41.6126 25.4148 41.6411 25.4268C41.6697 25.4387 41.7003 25.4448 41.7312 25.4448C41.7621 25.4448 41.7928 25.4387 41.8213 25.4268C41.8498 25.4148 41.8757 25.3974 41.8975 25.3754L46.3887 20.8641C46.6601 20.5928 46.8751 20.2704 47.0212 19.9156C47.1673 19.5607 47.2417 19.1804 47.24 18.7966Z" fill="#005758"/>
<path d="M18.9925 20.893C18.88 9.76799 28.605 0.131743 41.4038 0.00174325C59.1725 -0.203257 70.215 17.7142 60.8175 31.5217L64.425 40.7717C64.4417 40.8144 64.4456 40.8611 64.4361 40.9059C64.4266 40.9508 64.4042 40.9919 64.3717 41.0242C64.3391 41.0565 64.2978 41.0785 64.2529 41.0877C64.208 41.0968 64.1614 41.0925 64.1188 41.0755L54.82 37.3905C40.13 47.1017 19.1638 37.768 18.9925 20.893ZM41.6588 0.471743C35.7922 0.416226 30.1233 2.58971 25.7975 6.55299C23.7027 8.42177 22.0486 10.7321 20.9544 13.3173C19.8602 15.9026 19.3533 18.6984 19.4701 21.5032C19.5869 24.308 20.3246 27.052 21.6299 29.5373C22.9353 32.0226 24.7758 34.1874 27.0188 35.8755C30.9412 38.9113 35.7143 40.6456 40.6706 40.8358C45.627 41.0261 50.5189 39.6629 54.6625 36.9367C54.69 36.918 54.7113 36.903 54.94 36.978C55.5075 37.1642 57.3575 37.8955 63.7913 40.4455C61.36 34.2105 60.5975 32.313 60.3913 31.7017C60.2838 31.3855 60.325 31.4117 60.36 31.3605C69.5813 17.983 59.0475 0.471743 41.6588 0.471743Z" fill="#005758"/>
<path d="M191.196 192.529L182.61 191.279L178.77 183.498C178.747 183.463 178.716 183.433 178.679 183.413C178.642 183.392 178.601 183.382 178.559 183.382C178.517 183.382 178.475 183.392 178.438 183.413C178.401 183.433 178.37 183.463 178.347 183.498L174.507 191.279L165.921 192.529C165.878 192.536 165.838 192.555 165.805 192.584C165.772 192.613 165.748 192.65 165.735 192.691C165.722 192.733 165.721 192.777 165.732 192.82C165.742 192.862 165.765 192.9 165.796 192.931L172.009 198.987L170.542 207.539C170.534 207.583 170.539 207.628 170.555 207.669C170.572 207.71 170.599 207.745 170.635 207.771C170.67 207.797 170.713 207.813 170.757 207.816C170.801 207.819 170.845 207.81 170.884 207.789L178.564 203.752L186.244 207.789C186.283 207.81 186.327 207.819 186.371 207.816C186.415 207.813 186.457 207.797 186.493 207.771C186.528 207.745 186.556 207.71 186.572 207.669C186.588 207.628 186.593 207.583 186.585 207.539L185.119 198.987L191.331 192.931C191.363 192.9 191.385 192.861 191.395 192.818C191.406 192.775 191.404 192.73 191.39 192.688C191.376 192.646 191.35 192.609 191.316 192.581C191.281 192.553 191.24 192.535 191.196 192.529ZM184.696 198.737C184.571 198.862 184.505 198.222 186.036 207.149C178.076 202.963 178.612 203.191 178.45 203.274L171.075 207.149L172.482 198.944C172.514 198.771 172.94 199.248 166.455 192.927C175.444 191.619 174.79 191.759 174.869 191.601L178.552 184.137L182.236 191.601C182.315 191.759 181.681 191.623 190.651 192.927L184.696 198.737Z" fill="#005758"/>
<path d="M34.1725 97.8368C38.3325 85.1378 45.8397 73.7956 55.9037 65.0044C65.9677 56.2133 78.216 50.2985 91.3588 47.883C91.4201 47.8718 91.4834 47.8853 91.5348 47.9207C91.5861 47.9561 91.6213 48.0104 91.6325 48.0718C91.6438 48.1331 91.6303 48.1964 91.5949 48.2477C91.5595 48.2991 91.5051 48.3343 91.4438 48.3455C78.383 50.7444 66.2109 56.6212 56.2094 65.3568C46.208 74.0924 38.7475 85.3636 34.6138 97.983C34.5884 98.0333 34.5458 98.0728 34.4937 98.0942C34.4416 98.1157 34.3836 98.1178 34.3301 98.1001C34.2767 98.0823 34.2314 98.046 34.2024 97.9977C34.1735 97.9494 34.1629 97.8923 34.1725 97.8368Z" fill="#005758"/>
<path d="M210.219 101.675C203.529 98.3542 184.641 99.0954 174.145 100.877C174.105 100.888 174.099 100.877 174.02 100.957C173.77 101.199 172.869 102.265 168.574 107.16C168.104 106.948 167.625 106.744 167.136 106.548C167.086 106.528 166.998 106.548 166.75 106.755C165.971 107.415 162.274 111.099 142.175 130.717C136.018 112.492 129.129 106.717 125.341 104.884C126.425 104.007 127.261 102.861 127.767 101.561C128.272 100.261 128.429 98.8522 128.223 97.4729C127.086 89.7617 124.235 73.8942 121.576 69.0342C118.731 63.8404 111.691 63.9417 109.774 62.7904C106.475 60.8067 104.899 56.4492 104.698 52.6529C104.691 52.593 104.662 52.5377 104.616 52.4985C104.571 52.4593 104.512 52.4393 104.451 52.4425C104.391 52.4457 104.334 52.4719 104.293 52.5157C104.252 52.5596 104.229 52.6176 104.229 52.6779C104.433 56.6342 106.094 61.1267 109.531 63.1929C110.796 63.7242 112.116 64.114 113.466 64.3554C113.121 65.228 112.549 65.9926 111.81 66.5704C111.024 67.0715 110.182 67.478 109.301 67.7817C101.423 70.5004 93.7613 65.2579 95.4713 66.3642C94.734 65.9804 94.1074 65.4141 93.6513 64.7192C94.7798 64.3222 95.9285 63.9851 97.0926 63.7092C98.1326 63.3746 99.0303 62.7009 99.6422 61.7957C100.254 60.8906 100.545 59.8065 100.468 58.7167L101.738 56.2592C101.758 56.2152 101.765 56.166 101.756 56.1182C101.748 56.0705 101.724 56.0265 101.69 55.9924C101.655 55.9583 101.611 55.9357 101.563 55.9278C101.515 55.9198 101.466 55.9268 101.423 55.9479C100.963 56.2706 100.477 56.5529 99.9688 56.7917C97.3026 58.0267 95.4051 57.3792 94.6313 54.5417C94.1325 51.9339 94.116 49.2567 94.5826 46.6429C94.8763 44.9054 95.5976 42.4054 97.3601 42.4167C98.8738 42.4167 100.654 44.2917 101.509 46.1779C101.53 46.2221 101.565 46.2585 101.608 46.2821C101.651 46.3057 101.701 46.3154 101.749 46.3098C101.798 46.3041 101.844 46.2835 101.881 46.2507C101.917 46.2179 101.943 46.1746 101.954 46.1267C102.311 44.3529 103.173 43.0979 104.134 43.0979C104.259 43.0979 108.025 43.0754 108.439 43.0979C112.858 43.0342 117.911 40.9917 117.911 35.3929C117.911 30.0004 114.073 23.7317 109.121 23.7317C103.746 23.7317 99.4963 28.9004 98.8888 33.7317C98.7377 34.9494 98.8932 36.1856 99.3413 37.3279C97.8524 37.5425 96.4682 38.2187 95.384 39.2615C94.2997 40.3043 93.57 41.661 93.2976 43.1404C93.2828 43.2009 93.2925 43.2648 93.3246 43.3182C93.3566 43.3715 93.4085 43.4101 93.4688 43.4254C93.4688 43.4254 93.7188 43.4142 93.8926 43.4017C93.6641 46.0646 93.6161 48.7398 93.7488 51.4092C93.8738 56.1067 95.6238 59.1442 99.8888 57.3392C100.34 59.9804 99.5601 62.3779 96.9426 63.2642C95.0288 63.9167 88.4426 64.5779 85.1188 72.7092C84.1063 75.1842 83.4626 78.1629 82.3863 80.5842C81.8776 78.9867 81.6638 78.2767 81.5501 77.9592C81.4551 77.6954 81.4626 77.6804 81.1138 77.6142L78.3563 76.9004C77.5002 75.6669 76.322 74.692 74.9501 74.0817L81.1726 65.5329C81.2487 65.4349 81.3039 65.3221 81.3345 65.2018C81.3652 65.0815 81.3707 64.9561 81.3508 64.8335C81.3309 64.7109 81.2859 64.5938 81.2187 64.4894C81.1514 64.385 81.0634 64.2955 80.9601 64.2266C80.8568 64.1578 80.7403 64.1109 80.6181 64.089C80.4959 64.0671 80.3704 64.0707 80.2496 64.0994C80.1288 64.1281 80.0152 64.1815 79.9159 64.2561C79.8166 64.3307 79.7338 64.4249 79.6726 64.5329L74.0238 73.7704C73.2048 73.5537 72.3497 73.509 71.5126 73.6392L71.0301 71.0229C71.0216 70.9783 71.0005 70.937 70.9692 70.904C70.938 70.871 70.8979 70.8476 70.8538 70.8367L67.4226 70.0004C67.2763 69.9642 67.0963 70.0454 67.1613 70.3542C67.2401 70.7292 67.5201 71.6667 68.2438 74.2854C61.1851 72.4579 59.2713 71.9317 58.7163 71.8317C58.3213 71.7592 58.3988 71.9654 58.4663 72.1629C58.8176 73.2792 60.8338 78.8767 70.4063 106.849C70.4701 107.033 69.0863 106.599 92.3476 112.948C92.6113 112.98 92.6651 112.847 92.5276 112.323C92.3676 111.705 91.9426 110.549 91.2851 108.484C91.7851 108.734 92.2851 108.967 92.7851 109.193C93.2726 110.412 94.4101 112.764 95.6851 112.48C95.9863 112.445 96.2851 112.408 96.5826 112.37C94.5701 116.337 78.1026 148.773 78.1026 148.773C77.1027 150.748 76.5361 152.914 76.4408 155.125C76.3455 157.337 76.7237 159.543 77.5501 161.597C83.4167 175.836 90.5903 189.502 98.9788 202.418C99.0776 202.57 99.2163 202.524 99.4988 202.483C100.427 202.35 101.333 202.195 102.215 202.018C103.851 204.599 104.465 205.339 104.928 211.005C105.807 218.641 107.571 226.148 110.185 233.375L111.729 237.345C111.743 237.383 111.767 237.417 111.798 237.442C111.829 237.468 111.867 237.485 111.906 237.492C111.946 237.499 111.987 237.496 112.025 237.483C112.063 237.469 112.097 237.446 112.124 237.415C117.051 231.802 121.186 213.362 122.16 202.763C122.16 202.603 122.446 203.095 117.218 195.299C119.697 193.225 121.785 190.723 123.383 187.913C123.404 187.874 123.414 187.83 123.412 187.786C123.41 187.742 123.395 187.699 123.37 187.663C113.709 174.198 106.656 162.803 101.818 152.835L113.786 133.183C118.755 140.761 124.4 147.874 130.653 154.433C132.899 156.797 135.948 158.235 139.201 158.465C142.454 158.694 145.675 157.698 148.231 155.673C159.965 146.313 171.185 136.572 183.584 125.724C183.617 125.696 183.641 125.659 183.654 125.617C183.667 125.576 183.668 125.531 183.658 125.489C183.022 122.925 182.05 120.456 180.768 118.147C182.534 116.94 184.479 116.019 186.533 115.418C193.714 112.659 200.526 109.02 206.813 104.584C209.115 102.947 209.929 102.365 210.211 102.117C210.423 101.932 210.359 101.75 210.219 101.675ZM113.844 64.6754C114.089 64.8006 114.284 65.0042 114.4 65.2537C114.515 65.5032 114.544 65.7842 114.481 66.0518C114.418 66.3195 114.267 66.5583 114.053 66.7303C113.838 66.9022 113.572 66.9973 113.298 67.0004C112.951 67.0121 112.606 66.9351 112.298 66.7767C112.964 66.2006 113.491 65.4809 113.839 64.6717L113.844 64.6754ZM111.858 67.1017C111.915 67.2837 111.93 67.4767 111.899 67.6652C111.869 67.8537 111.794 68.0324 111.682 68.1867C111.569 68.3411 111.422 68.4668 111.252 68.5536C111.082 68.6405 110.894 68.6861 110.703 68.6867C110.503 68.6868 110.306 68.6372 110.13 68.5423C109.954 68.4473 109.805 68.3101 109.695 68.1429C110.445 67.8612 111.167 67.5114 111.853 67.0979L111.858 67.1017ZM109.19 68.3167C109.213 68.6062 109.131 68.8942 108.959 69.1282C108.787 69.3622 108.537 69.5264 108.254 69.5909C107.97 69.6554 107.674 69.6158 107.417 69.4794C107.161 69.343 106.962 69.1188 106.858 68.8479C107.646 68.7303 108.424 68.5515 109.185 68.3129L109.19 68.3167ZM106.244 68.9204C106.21 69.2035 106.073 69.4641 105.86 69.6527C105.646 69.8413 105.37 69.9446 105.085 69.9429C104.815 69.9424 104.554 69.8492 104.345 69.679C104.136 69.5087 103.992 69.2719 103.936 69.0079C104.705 69.0266 105.474 68.9962 106.239 68.9167L106.244 68.9204ZM101.04 68.6967C101.82 68.8359 102.607 68.9314 103.398 68.9829C103.328 69.2347 103.177 69.4567 102.969 69.6147C102.761 69.7728 102.506 69.8582 102.245 69.8579C101.932 69.8572 101.631 69.7356 101.406 69.5185C101.181 69.3015 101.048 69.0057 101.035 68.6929L101.04 68.6967ZM98.2551 67.9954C99.0155 68.2376 99.7878 68.4412 100.569 68.6054C100.453 68.8706 100.245 69.0855 99.9845 69.2113C99.7237 69.3371 99.4266 69.3655 99.1466 69.2914C98.8667 69.2173 98.6225 69.0456 98.4581 68.8073C98.2937 68.5689 98.2199 68.2797 98.2501 67.9917L98.2551 67.9954ZM95.5476 66.9204C96.2709 67.2594 97.011 67.5615 97.7651 67.8254C97.6135 68.0687 97.3807 68.2506 97.108 68.3388C96.8353 68.4271 96.5402 68.4161 96.2748 68.3078C96.0094 68.1995 95.7908 68.0008 95.6578 67.7469C95.5247 67.4931 95.4856 67.2003 95.5476 66.9204ZM93.2501 64.9554C93.6971 65.6619 94.3115 66.2471 95.0388 66.6592C94.9273 66.8045 94.7838 66.9223 94.6195 67.0033C94.4552 67.0844 94.2745 67.1266 94.0913 67.1267C93.8439 67.1174 93.6045 67.036 93.4028 66.8924C93.201 66.7489 93.0456 66.5495 92.9557 66.3188C92.8657 66.0881 92.8452 65.8361 92.8966 65.5939C92.9481 65.3516 93.0692 65.1297 93.2451 64.9554H93.2501ZM74.6651 74.4667C75.8186 74.9529 76.8311 75.722 77.6088 76.7029L73.7613 75.7029L74.6651 74.4667ZM73.7663 74.1817C73.3088 74.9317 73.0163 75.3767 72.9676 75.5029L71.8001 75.1992L71.5963 74.0954C72.3182 73.9802 73.0558 74.0096 73.7663 74.1817ZM67.6988 70.5454L70.5913 71.2504L71.2976 75.0679L68.7688 74.4129L67.6988 70.5454ZM92.0251 112.375L70.8038 106.572L58.9851 72.3754L81.0976 78.0992L84.9088 90.0554C84.8863 92.3679 84.7288 93.8254 84.1526 94.1579C84.0318 94.2088 83.8998 94.2271 83.7698 94.2111C83.6397 94.1951 83.5161 94.1453 83.4113 94.0667C80.3869 91.321 77.1108 88.866 73.6263 86.7342C72.7826 86.2954 70.2888 85.0004 69.7513 85.7754C69.3763 86.3117 70.1451 87.4592 72.0338 89.1867C72.7913 89.8842 73.5001 90.5817 74.1513 91.2729C73.2313 90.8392 72.1301 90.3492 71.4213 90.0367C69.7088 89.2867 68.6388 89.1529 68.3276 89.6504C68.2618 89.7724 68.2422 89.9139 68.2723 90.0491C68.3023 90.1843 68.3801 90.3041 68.4913 90.3867C69.7151 91.4367 71.7476 92.9017 73.1601 94.0492C72.3138 93.8279 70.1851 93.3092 69.8438 94.1204C69.7989 94.2519 69.8025 94.395 69.8538 94.524C69.9052 94.6531 70.0009 94.7595 70.1238 94.8242C71.7801 95.8329 74.8513 97.3129 76.3738 98.2979C78.6831 99.6031 80.8659 101.12 82.8938 102.83C83.6745 103.682 84.5426 104.449 85.4838 105.119C87.1532 106.255 88.8948 107.28 90.6976 108.189L92.0251 112.375ZM77.0251 96.5554C73.8201 94.1729 75.1926 94.9767 71.3488 92.0442C70.4351 91.3454 69.4901 90.6242 68.7963 90.0292C68.7351 89.9767 68.7163 89.9142 68.7263 89.9042C68.7363 89.8942 69.0826 89.5292 71.2263 90.4704C72.2488 90.9217 74.0913 91.7454 75.0088 92.2204C76.7444 94.1761 78.2842 96.2971 79.6063 98.5529C78.7826 97.8554 77.8788 97.1842 77.0238 96.5492L77.0251 96.5554ZM80.8438 100.327C80.9896 100.526 81.1388 100.725 81.2913 100.925C80.1326 100.093 78.8351 99.2867 77.7763 98.6279C76.3227 97.6737 74.8161 96.8027 73.2638 96.0192C72.2276 95.4704 71.1576 94.9029 70.3688 94.4217C70.3001 94.3804 70.2701 94.3204 70.2776 94.3029C70.2851 94.2854 70.5701 93.8742 72.8426 94.4529C73.0713 94.5117 73.4913 94.6204 73.9876 94.7517C76.1226 96.6342 79.0163 98.3842 80.8426 100.32L80.8438 100.327ZM93.0601 108.8C90.1988 107.524 87.4762 105.958 84.9351 104.125C83.9428 103.292 83.0351 102.362 82.2251 101.35C80.9377 99.6971 79.7474 97.9705 78.6601 96.1792C76.8598 93.4875 74.7406 91.0234 72.3488 88.8404C70.2726 86.9417 70.0488 86.1667 70.1338 86.0454C70.1403 86.0388 70.1479 86.0333 70.1563 86.0292C70.2726 85.9729 70.8838 85.8367 73.4063 87.1542C76.8607 89.2679 80.1076 91.7033 83.1038 94.4279C83.1184 94.4425 83.1348 94.4551 83.1526 94.4654C83.3297 94.592 83.5377 94.6684 83.7547 94.6865C83.9717 94.7045 84.1895 94.6636 84.3851 94.5679C85.6351 93.8479 85.2788 90.2442 85.4151 88.9992C85.4334 88.331 85.5666 87.6709 85.8088 87.0479C85.8788 87.0604 86.2826 87.2654 87.3088 90.0554C88.1188 92.2604 89.5413 96.1254 91.4051 97.3942C92.4023 97.9726 93.5792 98.1589 94.7063 97.9167C96.2607 101.787 96.878 105.97 96.5076 110.124C95.3339 109.746 94.1824 109.302 93.0588 108.794L93.0601 108.8ZM96.3963 111.918C96.6577 111.472 96.8356 110.982 96.9213 110.472C97.6488 106.922 96.5263 100.818 95.0651 97.5617C94.7196 96.6567 94.1724 95.8423 93.4651 95.1804L111.145 92.2929C111.176 92.288 111.206 92.2768 111.233 92.26C111.26 92.2432 111.283 92.2212 111.301 92.1953C111.319 92.1694 111.331 92.1401 111.337 92.1092C111.344 92.0782 111.344 92.0464 111.338 92.0154L109.381 82.2317C109.369 82.1705 109.333 82.1167 109.281 82.0822C109.229 82.0476 109.166 82.035 109.104 82.0473C109.043 82.0596 108.989 82.0956 108.955 82.1476C108.92 82.1995 108.908 82.263 108.92 82.3242L110.829 91.8679L94.5638 94.5179C94.1626 93.7979 92.3826 90.5992 92.0901 90.0679C89.5188 85.4117 89.9301 78.9204 89.9351 78.8554C89.9379 78.7941 89.9166 78.7341 89.8758 78.6883C89.835 78.6424 89.7778 78.6144 89.7166 78.6102C89.6553 78.6059 89.5949 78.6258 89.5481 78.6656C89.5013 78.7053 89.472 78.7618 89.4663 78.8229C89.4663 78.8892 89.0388 85.5154 91.6776 90.2954C91.9538 90.7954 93.5526 93.6704 94.0713 94.5979L92.5238 94.8479C91.9288 94.9204 91.4951 95.5204 91.2313 96.6317C88.4513 93.9917 87.2213 86.3817 85.7613 86.5704C85.2613 86.6304 85.1201 87.4142 84.9751 88.7079L82.5963 81.2504C85.0601 76.1704 84.9613 68.8529 92.5263 65.2092C92.4173 65.4691 92.3735 65.7517 92.3989 66.0324C92.4243 66.3131 92.518 66.5834 92.6719 66.8195C92.8258 67.0556 93.0352 67.2505 93.2817 67.3871C93.5283 67.5236 93.8045 67.5977 94.0863 67.6029C94.4303 67.603 94.7659 67.496 95.0463 67.2967C95.0667 67.6078 95.1725 67.9072 95.3521 68.162C95.5318 68.4168 95.7782 68.617 96.0644 68.7407C96.3506 68.8644 96.6653 68.9067 96.974 68.863C97.2826 68.8193 97.5733 68.6912 97.8138 68.4929C97.8863 68.7881 98.0365 69.0585 98.2486 69.2762C98.4608 69.4939 98.7272 69.6508 99.0205 69.7309C99.3137 69.811 99.623 69.8112 99.9163 69.7315C100.21 69.6519 100.476 69.4953 100.689 69.2779C100.803 69.5625 100.992 69.8103 101.237 69.9942C101.483 70.1781 101.774 70.291 102.079 70.3205C102.384 70.3501 102.691 70.2952 102.967 70.1617C103.243 70.0283 103.476 69.8216 103.643 69.5642C103.793 69.8365 104.018 70.0605 104.291 70.2102C104.563 70.3599 104.873 70.429 105.184 70.4097C105.494 70.3903 105.793 70.2832 106.045 70.1007C106.297 69.9183 106.492 69.6681 106.608 69.3792C106.795 69.6462 107.057 69.8528 107.361 69.9735C107.664 70.0942 107.996 70.1239 108.316 70.0589C108.636 69.9939 108.93 69.8371 109.162 69.6076C109.395 69.3781 109.555 69.0859 109.624 68.7667C109.879 68.9777 110.191 69.1086 110.521 69.143C110.85 69.1775 111.183 69.1139 111.476 68.9603C111.77 68.8067 112.012 68.5699 112.171 68.2795C112.331 67.9891 112.401 67.6581 112.374 67.3279C112.673 67.4253 112.986 67.4734 113.3 67.4704C113.623 67.4665 113.938 67.371 114.209 67.195C114.479 67.0191 114.694 66.7699 114.829 66.4765C114.964 66.183 115.012 65.8574 114.969 65.5375C114.926 65.2175 114.793 64.9164 114.585 64.6692C115.932 64.9574 117.207 65.5124 118.336 66.3016C119.465 67.0908 120.424 68.0982 121.158 69.2642C123.783 74.0667 126.62 89.8642 127.751 97.5467C128.011 99.2824 127.657 101.054 126.751 102.557C125.845 104.06 124.443 105.2 122.788 105.782C114.239 108.777 105.389 110.832 96.3951 111.912L96.3963 111.918ZM119.613 199.724L121.685 202.813C120.7 213.397 116.591 231.145 112.024 236.813L110.669 233.327C114.081 227.987 117.394 212.25 119.611 199.718L119.613 199.724ZM183.166 125.474C170.815 136.28 159.631 145.988 147.94 155.314C145.477 157.266 142.372 158.226 139.237 158.005C136.102 157.784 133.163 156.398 130.998 154.12C124.667 147.49 118.967 140.285 113.971 132.599C112.461 130.254 111.099 127.818 109.893 125.303C109.679 124.963 109.413 125.165 109.413 125.355C109.413 125.355 109.413 125.355 109.759 138.895C103.296 149.509 101.73 152.02 101.393 152.663C101.268 152.913 101.315 152.88 101.34 152.93C106.178 162.919 113.231 174.333 122.9 187.819C121.061 191.02 118.571 193.799 115.591 195.978L105.575 180.488C105.539 180.442 105.487 180.412 105.43 180.402C105.373 180.392 105.314 180.404 105.265 180.435C105.216 180.466 105.18 180.514 105.164 180.57C105.149 180.626 105.154 180.686 105.18 180.738L115.208 196.25C110.435 199.406 104.983 201.386 99.2976 202.03C90.9582 189.177 83.8249 175.581 77.9888 161.414C77.1872 159.423 76.8203 157.283 76.9126 155.139C77.0048 152.994 77.5542 150.894 78.5238 148.979C78.5238 148.979 96.8663 112.835 97.0951 112.297C105.905 111.208 114.571 109.172 122.944 106.222C123.644 105.976 124.307 105.634 124.913 105.205C127.935 106.592 135.368 111.857 141.841 131.222C141.854 131.259 141.876 131.293 141.906 131.32C141.935 131.347 141.971 131.366 142.009 131.375C142.048 131.384 142.089 131.384 142.127 131.373C142.165 131.362 142.2 131.342 142.229 131.314L167.098 107.042C169.854 108.122 172.421 109.635 174.701 111.523L161.379 123.974C161.344 124.006 161.32 124.048 161.309 124.094C161.299 124.14 161.302 124.189 161.32 124.233C161.337 124.277 161.367 124.314 161.406 124.341C161.445 124.368 161.492 124.382 161.539 124.382C161.683 124.382 160.736 125.218 175.061 111.83C179.114 115.424 181.947 120.191 183.165 125.469L183.166 125.474ZM206.638 104.139C200.616 102.212 184.554 103.048 171.861 104.124L174.311 101.33C184.793 99.5642 203.003 98.9767 209.656 101.935L206.638 104.139Z" fill="black"/>
<path d="M116.469 112.267C116.443 112.249 116.421 112.227 116.404 112.201C116.387 112.175 116.376 112.147 116.37 112.116C116.364 112.086 116.365 112.055 116.371 112.024C116.377 111.994 116.389 111.965 116.407 111.94C116.424 111.914 116.446 111.893 116.472 111.876C116.498 111.859 116.527 111.847 116.557 111.841C116.588 111.836 116.619 111.836 116.649 111.842C116.679 111.848 116.708 111.861 116.734 111.878C118.528 113.192 120.574 114.122 122.743 114.612C124.912 115.101 127.159 115.139 129.344 114.723C129.405 114.711 129.468 114.723 129.52 114.758C129.572 114.792 129.608 114.846 129.621 114.907C129.633 114.969 129.62 115.032 129.586 115.084C129.551 115.136 129.497 115.172 129.436 115.184C127.19 115.612 124.88 115.574 122.65 115.072C120.419 114.57 118.315 113.615 116.469 112.267Z" fill="black"/>
<path d="M107.942 42.7606C107.284 42.6482 106.613 42.6255 105.949 42.6931C105.542 41.3626 104.708 40.2031 103.576 39.3938C102.445 38.5845 101.078 38.1705 99.6875 38.2156C98.279 38.1344 96.8895 38.572 95.7817 39.4456C94.6739 40.3192 93.9244 41.5683 93.675 42.9569L93.4675 42.9644C92.8137 42.9981 92.1875 43.5994 91.7487 44.6131C90.3575 47.8294 91.5912 52.9369 94.075 53.1406H94.0937C94.1259 53.1406 94.1577 53.1339 94.1872 53.121C94.2166 53.1081 94.2431 53.0892 94.265 53.0656C94.5737 52.7344 93.5662 51.2381 94.3712 43.3056C94.3872 43.2685 94.3944 43.2282 94.3922 43.1879C94.3901 43.1475 94.3786 43.1082 94.3588 43.073C94.3389 43.0378 94.3112 43.0077 94.2778 42.9849C94.2444 42.9622 94.2062 42.9474 94.1662 42.9419C94.4177 41.6854 95.1152 40.5622 96.13 39.7797C97.1447 38.9972 98.4083 38.6082 99.6875 38.6844C100.954 38.6269 102.204 38.9883 103.245 39.7127C104.286 40.4371 105.059 41.4841 105.445 42.6919H104.152C101.337 42.6919 100.351 49.0219 102.414 51.8569C101.467 52.7729 100.341 53.4835 99.1062 53.9444C98.9608 53.7329 98.752 53.5731 98.51 53.4879C98.2679 53.4026 98.0051 53.3964 97.7592 53.47C97.5134 53.5437 97.2973 53.6934 97.142 53.8977C96.9867 54.102 96.9002 54.3503 96.895 54.6069C96.899 54.7712 96.9369 54.933 97.0062 55.082C97.0756 55.231 97.1749 55.3642 97.298 55.4731C97.4211 55.5821 97.5653 55.6645 97.7217 55.7152C97.878 55.766 98.0432 55.7839 98.2068 55.768C98.3704 55.7521 98.529 55.7026 98.6726 55.6227C98.8162 55.5427 98.9419 55.434 99.0416 55.3034C99.1414 55.1727 99.2131 55.0229 99.2524 54.8633C99.2917 54.7037 99.2977 54.5377 99.27 54.3756C99.2832 54.3736 99.2962 54.3703 99.3087 54.3656C100.567 53.8654 101.723 53.1379 102.717 52.2194C102.898 52.425 103.118 52.5914 103.366 52.7084C103.613 52.8254 103.882 52.8904 104.155 52.8994C107.831 52.8994 107.631 52.9244 107.945 52.8331C111.119 51.9031 111.12 43.6894 107.942 42.7606ZM93.8175 52.6106C92.0775 52.0294 90.875 47.8269 92.1837 44.7994C92.5437 43.9681 93.0337 43.4581 93.4912 43.4344L93.8912 43.4194C93.5224 46.4706 93.4964 49.5536 93.8137 52.6106H93.8175ZM104.156 52.4519V52.4306C102.872 52.4306 101.787 50.3056 101.787 47.7969C101.787 45.2881 102.872 43.1631 104.156 43.1631H106.281C104.125 44.9681 104.081 50.5706 106.274 52.4306C104.891 52.4306 104.366 52.4344 104.152 52.4519H104.156ZM107.816 52.3819C105.566 53.0444 104.076 47.2131 106.024 44.1856C106.442 43.5319 107.07 42.9919 107.815 43.2119C108.831 43.5094 109.861 45.1794 109.861 47.7969C109.861 50.4144 108.829 52.0844 107.812 52.3819H107.816Z" fill="#005758"/>
<path d="M141.548 56.803C140.804 56.803 129.28 48.638 110.081 47.303C110.02 47.2973 109.964 47.268 109.924 47.2212C109.884 47.1744 109.864 47.114 109.868 47.0527C109.873 46.9915 109.901 46.9343 109.947 46.8935C109.992 46.8527 110.052 46.8314 110.114 46.8342C121.216 47.5811 132.004 50.8383 141.665 56.3605C141.712 56.3854 141.749 56.4254 141.77 56.474C141.792 56.5227 141.796 56.5771 141.782 56.6284C141.768 56.6797 141.738 56.7249 141.695 56.7566C141.653 56.7883 141.601 56.8047 141.548 56.803Z" fill="#005758"/>
</svg>
