<svg width="194" height="238" viewBox="0 0 194 238" fill="none" xmlns="http://www.w3.org/2000/svg">
<path d="M60.7594 47.3998L34.7444 2.33856C34.334 1.62756 33.7436 1.03713 33.0327 0.626623C32.3218 0.216116 31.5153 0 30.6944 0C29.8734 0 29.0669 0.216116 28.356 0.626623C27.6451 1.03713 27.0548 1.62756 26.6444 2.33856L0.62686 47.3998C0.216214 48.1108 1.34597e-05 48.9174 6.28431e-10 49.7385C-1.34585e-05 50.5596 0.216161 51.3662 0.626783 52.0772C1.03741 52.7882 1.628 53.3786 2.33918 53.7889C3.05035 54.1993 3.85704 54.4151 4.67811 54.4148H28.7231V237.261C28.7274 237.321 28.7542 237.376 28.7979 237.417C28.8416 237.458 28.8991 237.48 28.9587 237.48C29.0184 237.48 29.0759 237.458 29.1196 237.417C29.1633 237.376 29.19 237.321 29.1944 237.261H32.1944C32.1944 237.475 32.5694 237.705 32.5994 237.185C32.7794 234.525 32.6644 213.244 32.6644 54.4111H56.7094C57.5299 54.4112 58.3361 54.1953 59.0468 53.7851C59.7575 53.375 60.3477 52.785 60.7581 52.0745C61.1686 51.3639 61.3848 50.5579 61.385 49.7373C61.3852 48.9167 61.1694 48.1106 60.7594 47.3998Z" fill="#005758"/>
<path d="M96.7794 188.485C96.9369 195.11 91.6681 208.224 88.6706 225.624C83.6107 227.067 78.248 227.067 73.1881 225.624L80.8844 185.821C85.766 188.372 91.3326 189.305 96.7794 188.485Z" fill="#F7C548"/>
<path d="M161.209 211.129C159.443 216.889 157.364 218.59 151.937 222.154L123.379 191.354C128.438 189.494 132.783 186.09 135.799 181.624C139.82 184.927 143.457 188.672 146.642 192.787C151.004 198.767 161.209 211.129 161.209 211.129Z" fill="#F7C548"/>
<path d="M133.189 175.929C145.911 168.667 155.494 156.952 160.091 143.044C164.689 129.136 163.975 114.018 158.087 100.605C158.067 100.549 158.069 100.487 158.092 100.432C158.116 100.377 158.16 100.333 158.214 100.309C158.269 100.285 158.33 100.283 158.387 100.302C158.443 100.322 158.49 100.362 158.518 100.415C164.453 113.934 165.173 129.171 160.54 143.19C155.907 157.209 146.25 169.016 133.428 176.337C133.374 176.369 133.309 176.378 133.249 176.362C133.188 176.346 133.136 176.307 133.104 176.252C133.073 176.198 133.064 176.134 133.08 176.073C133.096 176.012 133.135 175.96 133.189 175.929Z" fill="#005758"/>
<path d="M157.428 99.171C152.603 89.0642 145.023 80.5251 135.559 74.5362C126.096 68.5474 115.134 65.3522 103.934 65.3185C93.8059 65.2847 83.8402 67.8665 75.0022 72.8139C66.1642 77.7613 58.7533 84.9068 53.4869 93.5585C53.4537 93.6115 53.4009 93.6493 53.3399 93.6633C53.279 93.6774 53.2149 93.6667 53.1619 93.6335C53.1088 93.6004 53.0711 93.5475 53.0571 93.4865C53.043 93.4256 53.0537 93.3616 53.0869 93.3085C58.3957 84.5883 65.8662 77.3865 74.775 72.4005C83.6838 67.4145 93.729 64.8132 103.938 64.8485C115.227 64.8827 126.276 68.1037 135.815 74.1407C145.354 80.1778 152.994 88.7857 157.857 98.9735C157.87 99.0017 157.877 99.0321 157.878 99.0631C157.88 99.094 157.875 99.1249 157.864 99.154C157.853 99.1831 157.837 99.2098 157.816 99.2325C157.795 99.2553 157.769 99.2737 157.741 99.2866C157.684 99.3128 157.619 99.3154 157.561 99.2937C157.502 99.272 157.454 99.2279 157.428 99.171Z" fill="#005758"/>
<path d="M80.8906 179.511C67.2658 173.804 56.2429 163.246 49.956 149.879C43.669 136.512 42.5651 121.288 46.8581 107.154C46.8763 107.094 46.9175 107.044 46.9726 107.015C47.0277 106.985 47.0922 106.979 47.1518 106.997C47.2115 107.016 47.2615 107.057 47.2908 107.112C47.3201 107.167 47.3263 107.231 47.3081 107.291C43.0492 121.313 44.1446 136.417 50.3822 149.677C56.6198 162.938 67.5559 173.413 81.0731 179.074C81.1311 179.098 81.1771 179.144 81.201 179.202C81.2249 179.26 81.2248 179.326 81.2006 179.384C81.1764 179.442 81.1301 179.488 81.072 179.512C81.0138 179.535 80.9486 179.535 80.8906 179.511Z" fill="#005758"/>
<path d="M98.8168 183.907C98.6918 183.896 98.6768 183.437 98.9806 183.447C99.5168 183.464 100.808 183.654 103.938 183.654C107.268 183.79 110.602 183.516 113.864 182.839C113.924 182.822 113.989 182.83 114.043 182.861C114.097 182.892 114.137 182.943 114.154 183.003C114.17 183.063 114.162 183.127 114.131 183.182C114.101 183.236 114.049 183.276 113.989 183.292C110.114 184.337 102.784 184.244 98.8168 183.907Z" fill="#005758"/>
<path d="M171.489 94.9336C172.471 95.2436 174.413 96.0511 175.518 96.5074C178.533 97.7574 177.977 98.5136 177.453 98.4611C175.243 98.2586 172.407 97.6524 170.373 97.4924C170.844 97.7811 171.248 98.0299 171.459 98.1624C174.229 99.8886 173.556 100.544 173.052 100.412C171.052 99.8811 167.911 98.6924 166.039 98.2574C163.755 97.7854 161.433 97.5135 159.102 97.4449L155.943 98.5824L155.041 98.1574C152.402 96.7646 150.332 94.495 149.188 91.7399L148.874 90.4186C149.564 89.9347 150.35 89.6051 151.179 89.4524C155.632 88.0161 159.991 86.3014 164.229 84.3186C169.312 82.0386 167.924 83.8061 166.629 85.3461C165.686 86.4711 160.976 89.6061 163.504 90.3711C165.977 90.7124 174.687 91.9561 176.407 92.5411C181.271 94.1836 180.517 95.2911 175.818 94.9924C174.153 94.8861 172.111 94.8974 171.489 94.9336Z" fill="#F7C548"/>
<path d="M48.5793 94.2136C46.5206 97.1208 45.204 100.487 44.7443 104.02L40.6093 103.566C38.3551 104.175 36.1607 104.987 34.0531 105.992C32.3406 106.867 29.5744 108.755 27.7519 109.742C27.2906 109.992 26.4818 109.515 28.7656 107.184C28.9443 107.005 29.2743 106.669 29.6656 106.277C27.8218 106.884 24.9156 108.235 23.0131 108.894C22.5131 109.065 21.7981 108.461 24.4331 106.532C25.0081 106.112 26.9944 104.67 27.9856 104.049C26.5647 104.334 25.1602 104.695 23.7781 105.131C19.2844 106.54 18.2894 105.631 22.6256 102.892C23.4893 102.342 28.8756 99.9573 34.7231 97.7023C37.0031 96.3561 31.6118 94.4523 30.4269 93.5861C28.8019 92.3936 27.0419 91.0023 32.5193 92.0198C37.0983 92.9537 41.733 93.5892 46.3943 93.9223C47.1345 93.8809 47.8759 93.9797 48.5793 94.2136Z" fill="#F7C548"/>
<path d="M104.476 86.0935C104.467 85.9622 103.122 79.3297 104.951 78.3685C109.201 76.1397 107.253 72.2435 105.036 74.101C103.969 74.991 103.568 74.851 103.502 74.1335C103.538 70.1822 99.6743 63.3722 95.4593 73.1135C94.0718 76.3185 93.6806 78.536 93.8856 80.0547C94.2418 82.7172 96.4743 83.4297 99.1518 83.1035L101.009 82.716L99.0593 85.5097C98.8581 86.8685 98.3231 88.236 96.9556 87.916C95.9287 87.6623 94.884 87.4872 93.8306 87.3922C93.8306 87.3922 96.9006 98.4247 100.058 103.606C102.31 97.5937 105.487 91.9701 109.474 86.9385C106.372 87.2422 105.156 89.3722 104.476 86.0935Z" fill="#F7C548"/>
<path d="M170.631 41.8311C161.401 40.0811 152.087 45.3586 150.391 54.3311C149.833 57.3457 150.213 60.4588 151.478 63.2511L147.484 69.7899C147.463 69.8256 147.451 69.8664 147.451 69.908C147.45 69.9497 147.461 69.9907 147.481 70.027C147.502 70.0633 147.531 70.0936 147.567 70.1147C147.603 70.1358 147.644 70.1471 147.686 70.1474C147.811 70.1474 148.936 69.8974 155.293 68.6036C165.243 78.0411 182.478 73.7099 184.909 60.8536C186.553 52.1674 180.147 43.6361 170.631 41.8311ZM184.447 60.7749C182.881 69.0586 174.212 74.6949 164.757 72.9061C161.271 72.2608 158.05 70.6097 155.491 68.1561C155.448 68.1286 155.444 68.1099 155.256 68.1374C154.817 68.2024 153.381 68.5199 148.168 69.5786L151.918 63.4536C151.976 63.2824 152.028 63.3286 151.928 63.1061C146.712 51.4811 157.461 39.8261 170.553 42.2974C179.803 44.0449 186.042 52.3349 184.447 60.7749Z" fill="#005758"/>
<path d="M167.831 59.8397C167.749 59.8387 167.672 59.8056 167.615 59.7475C167.558 59.6894 167.526 59.6111 167.527 59.5297C167.559 56.7397 170.777 55.2047 170.791 52.496C170.808 52.1285 170.749 51.7614 170.616 51.4182C170.484 51.075 170.281 50.7633 170.021 50.5031C169.761 50.2429 169.449 50.04 169.106 49.9073C168.763 49.7746 168.396 49.7151 168.028 49.7326C167.661 49.7501 167.301 49.8442 166.972 50.0089C166.643 50.1736 166.352 50.4052 166.118 50.689C165.883 50.9727 165.711 51.3023 165.612 51.6565C165.512 52.0107 165.488 52.3818 165.541 52.746C165.55 52.8255 165.528 52.9056 165.479 52.9691C165.431 53.0326 165.359 53.0744 165.28 53.0857C165.2 53.097 165.12 53.0768 165.055 53.0294C164.991 52.982 164.947 52.9112 164.934 52.8322C164.873 52.3859 164.905 51.9316 165.029 51.4983C165.152 51.065 165.365 50.6622 165.652 50.3153C165.94 49.9685 166.297 49.6853 166.699 49.4836C167.102 49.2819 167.543 49.1662 167.993 49.1439C168.443 49.1215 168.893 49.193 169.314 49.3538C169.734 49.5145 170.117 49.761 170.438 50.0776C170.758 50.3943 171.01 50.7741 171.176 51.193C171.342 51.6119 171.419 52.0607 171.402 52.511C171.387 55.4297 168.167 57.0472 168.138 59.5372C168.137 59.6179 168.104 59.6949 168.046 59.7514C167.989 59.808 167.911 59.8397 167.831 59.8397Z" fill="#005758"/>
<path d="M168.662 63.1185C168.646 63.3305 168.547 63.5278 168.388 63.6687C168.229 63.8096 168.021 63.883 167.809 63.8734C167.596 63.8638 167.396 63.772 167.25 63.6174C167.104 63.4627 167.024 63.2574 167.027 63.0448C167.043 62.8328 167.141 62.6355 167.301 62.4946C167.46 62.3537 167.668 62.2803 167.88 62.2899C168.093 62.2995 168.293 62.3913 168.439 62.546C168.585 62.7006 168.665 62.9059 168.662 63.1185Z" fill="#005758"/>
<path d="M157.553 174.652C157.491 174.652 157.431 174.628 157.387 174.584C157.343 174.539 157.318 174.48 157.318 174.417C157.318 174.355 157.343 174.295 157.387 174.251C157.431 174.207 157.491 174.182 157.553 174.182H162.672C162.734 174.182 162.794 174.207 162.838 174.251C162.882 174.295 162.907 174.355 162.907 174.417C162.907 174.48 162.882 174.539 162.838 174.584C162.794 174.628 162.734 174.652 162.672 174.652H157.553Z" fill="#005758"/>
<path d="M171.752 174.626C171.69 174.626 171.63 174.601 171.586 174.557C171.542 174.513 171.517 174.453 171.517 174.391C171.517 174.329 171.542 174.269 171.586 174.225C171.63 174.181 171.69 174.156 171.752 174.156H176.871C176.933 174.156 176.993 174.181 177.037 174.225C177.081 174.269 177.106 174.329 177.106 174.391C177.106 174.453 177.081 174.513 177.037 174.557C176.993 174.601 176.933 174.626 176.871 174.626H171.752Z" fill="#005758"/>
<path d="M166.963 169.864V164.745C166.962 164.714 166.968 164.684 166.979 164.655C166.99 164.627 167.007 164.601 167.029 164.579C167.05 164.557 167.076 164.54 167.104 164.528C167.132 164.516 167.162 164.51 167.193 164.51C167.255 164.512 167.314 164.537 167.358 164.58C167.402 164.624 167.429 164.682 167.433 164.744V169.862C167.433 169.893 167.427 169.924 167.415 169.952C167.404 169.981 167.386 170.007 167.365 170.029C167.321 170.073 167.261 170.098 167.199 170.098C167.168 170.098 167.137 170.092 167.109 170.08C167.08 170.069 167.054 170.051 167.032 170.03C166.988 169.986 166.963 169.926 166.963 169.864Z" fill="#005758"/>
<path d="M166.988 184.065V178.946C166.992 178.887 167.019 178.831 167.063 178.79C167.106 178.75 167.164 178.727 167.224 178.727C167.283 178.727 167.341 178.75 167.385 178.79C167.428 178.831 167.455 178.887 167.459 178.946V184.065C167.455 184.124 167.428 184.18 167.385 184.221C167.341 184.261 167.283 184.284 167.224 184.284C167.164 184.284 167.106 184.261 167.063 184.221C167.019 184.18 166.992 184.124 166.988 184.065Z" fill="#005758"/>
<path d="M163.994 171.434C163.852 171.434 164.119 171.662 160.202 167.752C160.158 167.708 160.133 167.648 160.133 167.586C160.133 167.524 160.158 167.464 160.202 167.42C160.246 167.376 160.306 167.351 160.368 167.351C160.431 167.351 160.49 167.376 160.534 167.42L164.159 171.032C164.192 171.065 164.215 171.107 164.224 171.152C164.233 171.198 164.228 171.245 164.211 171.288C164.193 171.331 164.163 171.368 164.125 171.393C164.086 171.419 164.041 171.433 163.994 171.434Z" fill="#005758"/>
<path d="M174.053 181.457C173.912 181.457 174.178 181.686 170.262 177.776C170.24 177.754 170.223 177.728 170.211 177.7C170.199 177.671 170.193 177.641 170.193 177.61C170.193 177.579 170.199 177.548 170.21 177.519C170.222 177.491 170.239 177.465 170.261 177.443C170.283 177.421 170.309 177.404 170.338 177.392C170.366 177.38 170.397 177.374 170.428 177.374C170.459 177.374 170.489 177.38 170.518 177.391C170.547 177.403 170.573 177.421 170.594 177.442L174.219 181.056C174.252 181.089 174.275 181.131 174.284 181.176C174.293 181.222 174.288 181.269 174.27 181.312C174.253 181.355 174.222 181.392 174.184 181.418C174.145 181.444 174.1 181.457 174.053 181.457Z" fill="#005758"/>
<path d="M170.416 171.422C170.369 171.422 170.324 171.409 170.285 171.383C170.246 171.357 170.216 171.32 170.198 171.277C170.181 171.234 170.176 171.187 170.185 171.141C170.194 171.096 170.216 171.054 170.249 171.021L173.862 167.396C173.906 167.352 173.965 167.327 174.028 167.327C174.09 167.326 174.15 167.351 174.194 167.395C174.239 167.439 174.264 167.499 174.264 167.561C174.264 167.623 174.24 167.683 174.196 167.727C170.276 171.669 170.553 171.422 170.416 171.422Z" fill="#005758"/>
<path d="M160.393 181.482C160.347 181.483 160.301 181.469 160.262 181.443C160.223 181.418 160.193 181.381 160.175 181.338C160.157 181.295 160.152 181.247 160.161 181.202C160.17 181.156 160.193 181.114 160.226 181.081L163.839 177.456C163.883 177.412 163.943 177.387 164.006 177.387C164.068 177.387 164.128 177.412 164.172 177.456C164.216 177.5 164.241 177.56 164.241 177.622C164.241 177.685 164.216 177.744 164.172 177.789C160.252 181.727 160.536 181.482 160.393 181.482Z" fill="#005758"/>
<path d="M30.6931 34.6924C30.3616 34.6924 30.0437 34.5607 29.8092 34.3262C29.5748 34.0918 29.4431 33.7739 29.4431 33.4424V17.7249C29.4431 17.3933 29.5748 17.0754 29.8092 16.841C30.0437 16.6066 30.3616 16.4749 30.6931 16.4749C31.0246 16.4749 31.3426 16.6066 31.577 16.841C31.8114 17.0754 31.9431 17.3933 31.9431 17.7249V33.4424C31.9431 33.7739 31.8114 34.0918 31.577 34.3262C31.3426 34.5607 31.0246 34.6924 30.6931 34.6924Z" fill="white"/>
<path d="M30.6943 38.6686C30.2268 38.6683 29.7697 38.8068 29.3808 39.0663C28.9919 39.3259 28.6887 39.695 28.5096 40.1269C28.3305 40.5588 28.2835 41.0341 28.3746 41.4927C28.4657 41.9513 28.6907 42.3726 29.0212 42.7033C29.3518 43.034 29.7729 43.2593 30.2315 43.3506C30.69 43.4419 31.1654 43.3951 31.5974 43.2163C32.0294 43.0374 32.3986 42.7344 32.6584 42.3457C32.9182 41.9569 33.0568 41.4999 33.0568 41.0323C33.0562 40.4058 32.8071 39.8052 32.3642 39.3621C31.9214 38.919 31.3208 38.6696 30.6943 38.6686Z" fill="white"/>
<path d="M63.2931 26.6499C63.5698 26.3173 63.9244 26.0583 64.3254 25.8959C64.7264 25.7334 65.1613 25.6727 65.5915 25.7189C66.0216 25.7651 66.4337 25.917 66.791 26.1609C67.1483 26.4049 67.4398 26.7333 67.6395 27.1171C67.8392 27.5009 67.9409 27.9281 67.9357 28.3607C67.9304 28.7933 67.8183 29.2179 67.6094 29.5967C67.4004 29.9756 67.1011 30.2969 66.738 30.5321C66.3748 30.7673 65.9592 30.9091 65.5281 30.9449C65.0113 30.9914 64.4924 30.8832 64.0372 30.6342C63.582 30.3851 63.2111 30.0064 62.9716 29.5462C62.7321 29.0859 62.6348 28.5648 62.692 28.0491C62.7492 27.5334 62.9584 27.0464 63.2931 26.6499ZM63.1581 28.5249C63.1889 28.8773 63.3062 29.2167 63.4996 29.5129C63.693 29.8092 63.9565 30.0531 64.2668 30.2231C64.5771 30.3931 64.9245 30.4839 65.2782 30.4874C65.632 30.491 65.9812 30.4072 66.2948 30.2435C66.6084 30.0798 66.8768 29.8412 67.0762 29.5489C67.2755 29.2566 67.3996 28.9197 67.4375 28.5679C67.4754 28.2162 67.4259 27.8605 67.2935 27.5325C67.161 27.2044 66.9496 26.9141 66.6781 26.6874C66.3524 26.4147 65.9533 26.2447 65.5311 26.1988C65.1089 26.1529 64.6826 26.2331 64.306 26.4293C63.9293 26.6255 63.6193 26.9289 63.415 27.3012C63.2107 27.6735 63.1213 28.098 63.1581 28.5211V28.5249Z" fill="#005758"/>
<path d="M48.1781 210.312V200.724C48.1781 200.661 48.2029 200.601 48.2469 200.557C48.291 200.513 48.3508 200.489 48.4131 200.489C48.4754 200.489 48.5352 200.513 48.5793 200.557C48.6233 200.601 48.6481 200.661 48.6481 200.724V210.314C48.6479 210.376 48.623 210.436 48.5788 210.479C48.5346 210.523 48.4748 210.548 48.4125 210.548C48.3501 210.548 48.2904 210.523 48.2465 210.479C48.2025 210.434 48.1779 210.375 48.1781 210.312Z" fill="#005758"/>
<path d="M53.2032 205.752H43.6132C43.5508 205.752 43.4911 205.728 43.447 205.684C43.4029 205.639 43.3782 205.58 43.3782 205.517C43.3782 205.455 43.4029 205.395 43.447 205.351C43.4911 205.307 43.5508 205.282 43.6132 205.282H53.2032C53.2655 205.282 53.3253 205.307 53.3693 205.351C53.4134 205.395 53.4382 205.455 53.4382 205.517C53.4382 205.58 53.4134 205.639 53.3693 205.684C53.3253 205.728 53.2655 205.752 53.2032 205.752Z" fill="#005758"/>
<path d="M52.6081 96.136C52.299 96.137 51.9971 96.2295 51.7405 96.4018C51.4839 96.5742 51.2841 96.8186 51.1663 97.1044C51.0484 97.3902 51.0179 97.7044 51.0784 98.0075C51.139 98.3106 51.2879 98.589 51.5065 98.8076C51.725 99.0262 52.0034 99.1751 52.3065 99.2357C52.6097 99.2962 52.9239 99.2656 53.2097 99.1478C53.4954 99.03 53.7399 98.8302 53.9123 98.5736C54.0846 98.317 54.1771 98.0151 54.1781 97.706C54.1786 97.4997 54.1383 97.2953 54.0596 97.1046C53.9809 96.9139 53.8652 96.7406 53.7194 96.5947C53.5735 96.4488 53.4002 96.3332 53.2095 96.2545C53.0188 96.1758 52.8144 96.1355 52.6081 96.136Z" fill="#005758"/>
<path d="M65.1281 112.794C65.9924 112.794 66.6931 112.093 66.6931 111.229C66.6931 110.364 65.9924 109.664 65.1281 109.664C64.2638 109.664 63.5631 110.364 63.5631 111.229C63.5631 112.093 64.2638 112.794 65.1281 112.794Z" fill="#005758"/>
<path d="M79.7418 98.2898C79.4322 98.2891 79.1292 98.3802 78.8714 98.5517C78.6135 98.7232 78.4123 98.9674 78.2933 99.2533C78.1743 99.5392 78.1427 99.854 78.2027 100.158C78.2627 100.462 78.4114 100.741 78.6301 100.96C78.8489 101.179 79.1277 101.329 79.4314 101.389C79.7351 101.45 80.0499 101.419 80.3361 101.301C80.6223 101.183 80.867 100.982 81.0391 100.725C81.2112 100.467 81.3031 100.164 81.3031 99.8548C81.3031 99.4404 81.1387 99.0429 80.8461 98.7495C80.5534 98.4561 80.1563 98.2908 79.7418 98.2898Z" fill="#005758"/>
<path d="M95.8118 114.78C96.6762 114.78 97.3768 114.079 97.3768 113.215C97.3768 112.35 96.6762 111.65 95.8118 111.65C94.9475 111.65 94.2468 112.35 94.2468 113.215C94.2468 114.079 94.9475 114.78 95.8118 114.78Z" fill="#005758"/>
<path d="M109.478 101.42C109.788 101.42 110.09 101.328 110.348 101.156C110.605 100.984 110.805 100.74 110.924 100.454C111.042 100.168 111.073 99.8531 111.013 99.5495C110.953 99.2459 110.804 98.967 110.585 98.7482C110.366 98.5293 110.087 98.3803 109.783 98.3199C109.48 98.2595 109.165 98.2905 108.879 98.4089C108.593 98.5274 108.349 98.728 108.177 98.9853C108.005 99.2427 107.913 99.5453 107.913 99.8548C107.913 100.27 108.078 100.668 108.372 100.961C108.665 101.254 109.063 101.419 109.478 101.42Z" fill="#005758"/>
<path d="M126.539 102.305C126.849 102.305 127.151 102.213 127.409 102.041C127.666 101.869 127.867 101.625 127.985 101.339C128.104 101.053 128.135 100.738 128.074 100.434C128.014 100.131 127.865 99.8521 127.646 99.6332C127.427 99.4143 127.148 99.2653 126.845 99.2049C126.541 99.1445 126.226 99.1755 125.94 99.2939C125.655 99.4124 125.41 99.613 125.238 99.8703C125.066 100.128 124.974 100.43 124.974 100.74C124.974 101.155 125.139 101.553 125.433 101.846C125.726 102.14 126.124 102.305 126.539 102.305Z" fill="#005758"/>
<path d="M145.421 99.8549C145.73 99.8549 146.033 99.7631 146.29 99.5911C146.548 99.4191 146.748 99.1747 146.867 98.8888C146.985 98.6028 147.016 98.2881 146.956 97.9845C146.895 97.681 146.746 97.4021 146.527 97.1832C146.308 96.9644 146.03 96.8153 145.726 96.7549C145.422 96.6945 145.108 96.7255 144.822 96.844C144.536 96.9624 144.291 97.163 144.119 97.4204C143.947 97.6778 143.856 97.9803 143.856 98.2899C143.856 98.4954 143.896 98.6989 143.975 98.8888C144.053 99.0786 144.169 99.2512 144.314 99.3965C144.459 99.5418 144.632 99.6571 144.822 99.7357C145.012 99.8144 145.215 99.8549 145.421 99.8549Z" fill="#005758"/>
<path d="M137.064 116.695C137.929 116.695 138.629 115.994 138.629 115.13C138.629 114.265 137.929 113.565 137.064 113.565C136.2 113.565 135.499 114.265 135.499 115.13C135.499 115.994 136.2 116.695 137.064 116.695Z" fill="#005758"/>
<path d="M193.123 237.03H160.059C160.932 236.728 161.736 236.255 162.423 235.638C163.11 235.021 163.666 234.273 164.059 233.437C165.533 230.2 166.834 223.552 168.209 219.746C168.669 218.556 168.671 217.238 168.215 216.047C167.76 214.856 166.879 213.875 165.743 213.295L161.368 210.944C160.759 210.205 151.032 198.397 146.838 192.65C143.688 188.571 140.093 184.857 136.118 181.576C136.167 181.501 136.408 181.124 136.447 181.042C136.512 180.849 136.769 181.392 131.556 172.78L128.458 141.19C128.08 136.852 126.777 132.646 124.637 128.854C122.33 124.536 118.552 121.188 113.988 119.416C113.602 115.61 113.847 111.767 114.716 108.041C117.317 109.956 126.796 117.041 129.866 119.271C131.928 120.762 134.479 121.414 137.004 121.095C139.528 120.777 141.838 119.511 143.464 117.554C149.358 110.446 155.511 103.605 160.384 98.7349C160.688 98.4777 160.92 98.1472 161.059 97.7749C167.142 98.2424 168.802 99.5249 172.997 100.635C173.13 100.68 173.275 100.675 173.405 100.623C173.535 100.57 173.642 100.473 173.707 100.349C174.071 99.5111 172.131 98.2986 171.374 97.8261C173.227 98.0549 175.592 98.5249 177.437 98.6949C177.576 98.7176 177.719 98.6898 177.839 98.6164C177.959 98.543 178.05 98.429 178.093 98.2949C178.303 97.4536 176.409 96.6199 175.494 96.2399C174.744 95.9299 173.664 95.4824 172.744 95.1299C173.812 95.1224 174.954 95.1674 175.813 95.2224C176.799 95.2861 179.762 95.4574 179.952 94.4936C179.999 94.2586 180.139 93.5449 176.493 92.3137C174.902 91.7724 167.721 90.7174 163.567 90.1361C163.243 90.0349 163.058 89.8924 163.021 89.7124C162.803 88.6999 166.078 86.3749 166.817 85.4936C167.712 84.4286 168.317 83.6399 167.986 83.1974C167.587 82.6687 166.181 83.1524 163.336 84.4699C160.687 85.6949 158.068 86.7624 154.586 88.0174C152.921 87.2086 150.551 86.6861 149.288 88.0274C144.113 92.5194 139.468 97.5886 135.444 103.136C133.887 101.844 123.143 92.9887 115.671 88.4449C113.953 87.2777 111.92 86.6616 109.843 86.6786C108.523 86.8317 107.229 87.1552 105.992 87.6411C105.437 87.7386 105.089 87.5161 104.814 86.5024C105.254 86.6642 105.722 86.7358 106.19 86.713C106.658 86.6902 107.117 86.5734 107.539 86.3697C107.961 86.1659 108.337 85.8793 108.646 85.527C108.955 85.1746 109.19 84.7637 109.337 84.3186C109.78 84.8828 110.386 85.2971 111.072 85.5054C111.759 85.7138 112.493 85.7062 113.175 85.4836C113.857 85.2609 114.454 84.8341 114.886 84.2609C115.317 83.6876 115.562 82.9957 115.587 82.2787C116.198 82.6061 116.892 82.7447 117.582 82.6768C118.272 82.609 118.926 82.3379 119.462 81.8977C119.998 81.4576 120.39 80.8684 120.591 80.2047C120.791 79.541 120.79 78.8328 120.587 78.1699C121.28 78.2675 121.986 78.155 122.615 77.8471C123.243 77.5391 123.765 77.0498 124.113 76.4424C124.46 75.8349 124.618 75.1372 124.565 74.4393C124.512 73.7414 124.251 73.0755 123.816 72.5274C124.537 72.4004 125.2 72.0504 125.712 71.5268C126.224 71.0031 126.558 70.332 126.669 69.6082C126.779 68.8843 126.66 68.144 126.327 67.4916C125.995 66.8391 125.466 66.3074 124.816 65.9712C125.476 65.6487 126.017 65.1263 126.363 64.4782C126.709 63.8302 126.842 63.0895 126.742 62.3616C126.643 61.6338 126.316 60.9559 125.809 60.4243C125.302 59.8928 124.64 59.5347 123.918 59.4011C124.366 58.8614 124.642 58.1994 124.709 57.5011C124.776 56.8028 124.632 56.1004 124.295 55.485C123.958 54.8697 123.444 54.3697 122.82 54.0501C122.195 53.7304 121.489 53.6058 120.793 53.6924C121.009 53.0327 121.024 52.3237 120.836 51.6556C120.647 50.9875 120.265 50.3903 119.737 49.9402C119.208 49.49 118.558 49.207 117.869 49.1273C117.179 49.0476 116.481 49.1746 115.864 49.4924C115.849 48.7773 115.615 48.084 115.194 47.5058C114.773 46.9276 114.185 46.4923 113.509 46.2585C112.833 46.0247 112.102 46.0036 111.414 46.1981C110.725 46.3925 110.113 46.7932 109.659 47.3461C109.41 46.6349 108.947 46.0181 108.334 45.5807C107.72 45.1433 106.986 44.9066 106.232 44.9034C105.479 44.9001 104.743 45.1303 104.125 45.5623C103.508 45.9944 103.039 46.6071 102.784 47.3162C102.337 46.7569 101.729 46.3484 101.042 46.1458C100.355 45.9432 99.622 45.9562 98.9427 46.1831C98.2634 46.41 97.67 46.8399 97.2427 47.4147C96.8154 47.9894 96.5747 48.6815 96.5531 49.3974C95.9399 49.0738 95.2444 48.9396 94.5549 49.0118C93.8653 49.084 93.2127 49.3594 92.6799 49.803C92.1471 50.2467 91.758 50.8386 91.5621 51.5036C91.3661 52.1687 91.3721 52.877 91.5793 53.5386C90.8853 53.4455 90.1793 53.5626 89.5526 53.8749C88.9259 54.1872 88.4072 54.6803 88.0637 55.2905C87.7202 55.9007 87.5676 56.5999 87.6256 57.2977C87.6837 57.9955 87.9497 58.6599 88.3893 59.2049C87.5747 59.3543 86.8389 59.7861 86.3112 60.4244C85.7835 61.0628 85.4978 61.8667 85.5043 62.6949C85.5119 63.3338 85.6951 63.9584 86.0337 64.5003C86.3723 65.0421 86.8534 65.4805 87.4243 65.7674C86.7677 66.0946 86.2308 66.6202 85.8898 67.2697C85.5487 67.9193 85.4209 68.6597 85.5243 69.386C85.6278 70.1122 85.9574 70.7875 86.4662 71.3159C86.9751 71.8444 87.6375 72.1991 88.3593 72.3299C87.9173 72.8727 87.6483 73.5356 87.5869 74.2329C87.5255 74.9302 87.6746 75.6299 88.015 76.2416C88.3554 76.8533 88.8713 77.3489 89.4962 77.6643C90.1212 77.9798 90.8263 78.1006 91.5206 78.0112C91.3475 78.5463 91.3064 79.1153 91.4008 79.6698C91.4952 80.2242 91.7224 80.7476 92.063 81.1952C92.4035 81.6428 92.8473 82.0014 93.3564 82.2403C93.8655 82.4793 94.4249 82.5915 94.9868 82.5674C96.1579 83.3098 97.5614 83.5951 98.9293 83.3686C98.9906 85.1611 98.7481 88.0936 97.0106 87.6861C91.7993 86.4611 89.4668 87.2861 86.5031 89.5974C80.8581 93.6372 74.9955 97.3641 68.9418 100.761C61.9218 96.5261 56.8831 94.7549 50.3381 91.9324C50.2929 91.9132 50.2429 91.9085 50.195 91.9191C50.147 91.9296 50.1035 91.9548 50.0706 91.9911C49.5085 92.6112 48.981 93.2618 48.4906 93.9399C47.8168 93.7374 47.1131 93.6528 46.4106 93.6899C41.7565 93.3463 37.1284 92.713 32.5531 91.7937C29.5281 91.2324 28.7868 91.3999 28.6018 91.8262C28.3818 92.3349 29.1581 92.9511 30.2793 93.7799C31.1793 94.4411 35.0031 95.9386 35.0368 96.9624C35.0368 97.1461 34.8918 97.3299 34.5931 97.5061C28.7106 99.7799 23.2943 102.187 22.4906 102.696C19.2406 104.755 19.5468 105.415 19.6468 105.632C19.7718 105.895 20.1031 106.026 20.6468 106.026C22.1468 106.026 23.8143 105.259 26.7818 104.566C25.7043 105.31 24.4643 106.215 24.2818 106.35C22.7393 107.475 22.0706 108.356 22.3493 108.887C22.4233 109.007 22.5376 109.097 22.6717 109.139C22.8058 109.182 22.9509 109.176 23.0806 109.121C24.6393 108.581 27.0293 107.509 28.7568 106.852C28.1318 107.489 26.5468 109.116 27.0956 109.842C27.1881 109.949 27.3156 110.018 27.455 110.039C27.5944 110.059 27.7365 110.029 27.8556 109.954C31.8668 107.775 33.5168 105.767 40.5418 103.829C40.9531 103.829 41.4006 103.866 44.4768 104.227C44.3935 104.841 44.3331 105.466 44.2956 106.102C44.2881 106.227 44.3368 106.295 44.6206 106.429C49.2822 108.374 53.8425 110.553 58.2843 112.959C60.2418 113.975 62.2643 115.027 64.7018 116.224C66.3754 117.051 68.231 117.443 70.0964 117.362C71.9617 117.281 73.7764 116.73 75.3718 115.76C79.5281 113.242 83.9818 110.576 88.7468 108.057C89.7485 112.313 91.2026 116.45 93.0843 120.396C81.6281 175.055 79.7681 183.7 79.5531 185.087C79.5031 185.419 79.5531 185.337 79.5756 185.367C79.6768 185.454 80.4981 185.889 80.6156 185.95L72.9806 225.439C66.6781 227.314 59.2306 232.83 54.7206 237.03H4.58559C4.52326 237.03 4.46349 237.055 4.41941 237.099C4.37534 237.143 4.35059 237.203 4.35059 237.265C4.35059 237.327 4.37534 237.387 4.41941 237.431C4.46349 237.475 4.52326 237.5 4.58559 237.5C170.848 237.5 190.933 237.592 193.149 237.402C193.527 237.37 193.329 237.03 193.123 237.03ZM146.452 192.927C150.563 198.561 159.973 209.999 160.952 211.177C159.186 216.871 157.003 218.539 151.979 221.846L123.788 191.44C128.673 189.571 132.88 186.27 135.857 181.969C139.785 185.216 143.338 188.892 146.452 192.927ZM173.269 100.162C173.261 100.181 173.196 100.204 173.112 100.181C169.074 99.1149 167.581 97.9311 161.822 97.3711C164.651 97.3399 167.479 97.4563 170.296 97.7199L171.336 98.3611C173.381 99.6361 173.269 100.162 173.269 100.162ZM175.428 96.7249C177.653 97.6499 177.631 98.1824 177.631 98.1824C177.631 98.2037 177.564 98.2361 177.474 98.2274C176.418 98.1311 175.191 97.9336 174.003 97.7449C172.321 97.4339 170.62 97.236 168.912 97.1524C166.435 96.9249 163.946 96.8456 161.459 96.9149C164.692 95.859 168.06 95.2697 171.459 95.1649C172.428 95.4811 174.488 96.3349 175.428 96.7249ZM176.336 92.7599C179.502 93.8299 179.483 94.4036 179.483 94.4036C179.453 94.5536 178.721 94.9411 175.837 94.7536C172.621 94.5394 169.391 94.6997 166.212 95.2312C162.714 95.9721 159.286 97.0066 155.962 98.3237L155.158 97.9486C152.579 96.5866 150.552 94.3719 149.423 91.6824L149.146 90.5286C149.771 90.1018 150.481 89.8129 151.227 89.6811C154.473 89.0986 173.984 91.9586 176.336 92.7611V92.7599ZM164.326 84.5299C167.113 83.2611 167.549 83.4399 167.599 83.4762C167.679 83.7262 166.753 84.8299 166.449 85.1924C165.589 86.2186 161.926 88.6174 162.623 90.0111C159.664 89.6274 155.669 89.2374 152.801 89.1362C156.724 87.8144 160.572 86.2766 164.326 84.5299ZM96.9031 88.1449C98.4031 88.4974 99.0531 87.0974 99.2881 85.5699C99.3243 85.5186 101.193 82.8712 101.223 82.8199C101.243 82.7791 101.25 82.7335 101.244 82.6886C101.238 82.6438 101.219 82.6016 101.19 82.5672C101.161 82.5327 101.122 82.5076 101.079 82.4948C101.035 82.4819 100.989 82.482 100.946 82.4949C100.906 82.5074 97.1506 83.7012 95.2231 82.1574C93.0081 80.3849 94.4306 76.2337 95.5068 73.6049C96.3393 71.5749 98.1181 67.9361 100.249 68.3899C102.096 68.7811 103.288 72.0074 103.266 74.1399C103.266 74.1614 103.269 74.1828 103.274 74.2036C103.293 74.3474 103.352 74.7886 103.706 74.9261C104.166 75.1049 104.804 74.6049 105.184 74.2874C107.146 72.6399 108.741 76.1287 104.842 78.1624C103.836 78.6899 103.386 79.9787 104.057 85.0049C104.709 89.8287 106.057 87.7674 108.932 87.2549C105.195 92.0596 102.191 97.3912 100.017 103.076C97.3006 98.3549 94.6731 89.4774 94.1518 87.6637C95.0781 87.7658 95.9971 87.9266 96.9031 88.1449ZM30.5618 93.3949C30.1868 93.1149 29.0206 92.2636 29.0356 92.0111C29.3406 91.6186 32.8093 92.3149 33.1606 92.3862C36.9857 93.1452 40.8506 93.6877 44.7368 94.0111C42.0243 94.7749 38.7193 95.9349 35.4868 97.1649C35.8606 95.6361 31.6618 94.2099 30.5618 93.4011V93.3949ZM33.9368 105.777C31.8518 106.835 27.6243 109.75 27.4693 109.552C27.4693 109.552 27.2381 109.069 28.9231 107.347C29.0931 107.172 29.4068 106.855 29.7806 106.481C32.4544 105.563 35.1739 104.784 37.9281 104.147C36.5656 104.606 35.2345 105.152 33.9431 105.784L33.9368 105.777ZM26.0806 107.421C24.9693 107.882 23.8206 108.36 22.9256 108.671C22.8431 108.7 22.7743 108.682 22.7643 108.664C22.7643 108.664 22.6143 108.147 24.5581 106.725C24.8081 106.544 26.9568 104.975 28.0431 104.284C31.3866 103.554 34.8201 103.327 38.2306 103.609C34.0757 104.512 30.0112 105.791 26.0868 107.427L26.0806 107.421ZM33.1606 103.095C29.9501 103.345 26.7777 103.954 23.7031 104.911C20.9456 105.776 20.1418 105.574 20.0781 105.435C20.0781 105.435 19.9243 104.882 22.7468 103.094C30.0359 99.6223 37.5729 96.6976 45.2956 94.3437C46.2484 94.0856 47.2528 94.0856 48.2056 94.3437C46.2833 97.1619 45.0337 100.384 44.5531 103.761C40.7841 103.211 36.9742 102.99 33.1668 103.101L33.1606 103.095ZM87.6606 97.7749C87.6588 97.7126 87.6323 97.6535 87.5869 97.6107C87.5415 97.568 87.481 97.545 87.4187 97.5468C87.3564 97.5486 87.2973 97.5751 87.2546 97.6205C87.2118 97.6658 87.1888 97.7263 87.1906 97.7886C87.3822 101.086 87.8666 104.36 88.6381 107.572C83.8218 110.114 79.3268 112.806 75.1318 115.346C73.6037 116.275 71.8656 116.803 70.0788 116.881C68.2921 116.958 66.5147 116.583 64.9118 115.79C57.4706 112.139 54.1243 109.962 44.7793 105.955C45.0029 100.944 46.9548 96.1648 50.3031 92.4299C57.0693 95.3374 61.8768 97.0361 68.8131 101.234C68.8491 101.255 68.8901 101.266 68.9318 101.266C68.9736 101.266 69.0146 101.255 69.0506 101.234C69.1693 101.167 81.0168 94.4674 86.7881 89.9674C87.7051 89.1197 88.7887 88.4724 89.9699 88.0669C91.1511 87.6615 92.4038 87.5067 93.6481 87.6124C94.0393 88.9874 96.9256 98.9161 99.8581 103.727C99.881 103.765 99.9139 103.795 99.9532 103.815C99.9924 103.835 100.036 103.843 100.08 103.839C100.124 103.835 100.166 103.819 100.201 103.792C100.236 103.765 100.262 103.73 100.278 103.689C102.51 97.7292 105.654 92.1527 109.598 87.1586C111.674 87.0697 113.722 87.6633 115.428 88.8486C123.428 93.7149 135.217 103.559 135.334 103.657C135.377 103.692 135.43 103.712 135.486 103.712H135.512C135.544 103.709 135.574 103.699 135.602 103.683C135.63 103.667 135.654 103.645 135.673 103.62C139.495 98.3529 143.861 93.504 148.701 89.1537C148.567 90.0519 148.66 90.9693 148.972 91.8224C150.14 94.6325 152.252 96.9474 154.943 98.3686C156.226 99.0972 157.7 99.4185 159.169 99.2899C154.438 104.095 148.653 110.559 143.098 117.256C141.548 119.121 139.347 120.327 136.941 120.631C134.535 120.935 132.104 120.314 130.138 118.894C127.072 116.662 117.503 109.519 114.829 107.546C115.15 106.163 115.573 104.806 116.096 103.486C116.12 103.429 116.121 103.364 116.098 103.306C116.074 103.248 116.029 103.202 115.972 103.177C115.914 103.153 115.85 103.152 115.792 103.175C115.734 103.199 115.688 103.244 115.663 103.301C113.716 108.439 112.98 113.957 113.512 119.426C105.887 121.737 100.251 121.945 93.5006 120.164C90.1637 113.137 88.1828 105.543 87.6618 97.7812L87.6606 97.7749ZM80.0056 185.074L93.5118 120.645C100.561 122.48 106.494 122.051 113.762 119.832C118.253 121.548 121.969 124.834 124.219 129.082C126.327 132.817 127.61 136.961 127.981 141.234L131.084 172.876C131.097 173.001 131.023 172.821 135.947 180.951C134.66 183.025 133.057 184.886 131.197 186.466L125.168 179.28C125.128 179.232 125.07 179.202 125.008 179.196C124.946 179.191 124.884 179.21 124.836 179.251C124.788 179.291 124.758 179.348 124.753 179.41C124.747 179.473 124.767 179.535 124.807 179.582L130.837 186.766C128.271 188.818 125.378 190.424 122.279 191.516L116.958 186.455C114.626 184.238 112.958 181.415 112.143 178.302L101.231 136.677C101.215 136.617 101.176 136.565 101.122 136.534C101.068 136.502 101.004 136.494 100.944 136.509C100.883 136.525 100.832 136.564 100.8 136.618C100.769 136.672 100.76 136.736 100.776 136.796L106.651 159.214C97.2931 187.566 98.9993 182.089 97.4006 188.15C95.2969 188.493 93.161 188.594 91.0343 188.451L93.5518 179.349C93.5651 179.29 93.5551 179.228 93.5241 179.176C93.4931 179.125 93.4433 179.087 93.3851 179.071C93.327 179.055 93.2648 179.061 93.2116 179.09C93.1584 179.118 93.1182 179.166 93.0993 179.224L90.5568 188.415C86.8421 188.071 83.2445 186.933 80.0068 185.08L80.0056 185.074ZM81.0543 186.166C85.8359 188.589 91.2441 189.491 96.5531 188.751C96.5681 195.376 91.4281 208.367 88.4693 225.437C83.5633 226.804 78.3776 226.808 73.4693 225.45L81.0543 186.166ZM88.8381 237.024C89.4564 236.731 89.9688 236.253 90.3046 235.657C90.6404 235.061 90.7831 234.376 90.7131 233.695C90.4319 230.935 89.8291 228.217 88.9168 225.596C91.8256 208.745 97.0668 195.324 97.0206 188.682C97.0606 188.682 97.6456 188.592 97.6793 188.579C97.8756 188.507 97.7806 188.595 99.0631 183.74L106.883 160.049L111.699 178.417C112.537 181.615 114.25 184.515 116.646 186.792C122.279 192.15 122.091 192.057 122.278 192.014C122.403 191.986 123.153 191.689 123.321 191.625L151.756 222.295C154.338 226.17 153.821 228.12 153.512 229.282C150.713 231.889 149.217 231.96 147.238 237.024H88.8381Z" fill="#005758"/>
<path d="M120.689 133.874C120.752 133.874 120.812 133.849 120.856 133.805C120.9 133.761 120.924 133.701 120.924 133.639C120.924 133.576 120.9 133.517 120.856 133.472C120.812 133.428 120.752 133.404 120.689 133.404C120.653 133.404 120.626 133.404 120.593 133.404C116.416 133.404 112.843 131.529 109.661 127.695C109.621 127.647 109.564 127.617 109.502 127.611C109.439 127.605 109.377 127.624 109.329 127.664C109.281 127.703 109.251 127.761 109.245 127.823C109.239 127.885 109.258 127.947 109.298 127.995C112.287 131.609 116.037 133.962 120.689 133.874Z" fill="#005758"/>
</svg>
