<svg width="213" height="250" viewBox="0 0 213 250" fill="none" xmlns="http://www.w3.org/2000/svg">
<path d="M192.486 112.447C189.138 74.1658 189.298 75.1316 189.102 75C175.744 70.5395 175.923 70.4434 175.731 70.4789L164.831 10.5408L156.21 0L173.907 97.3145L173.055 97.4697L155.357 0.155263L150.999 13.0579L160.395 64.7171C142.73 57.8553 125.53 49.8506 108.905 40.7539C108.864 40.7318 108.817 40.7217 108.771 40.7247C108.724 40.7278 108.679 40.7438 108.641 40.771C85.2668 58.079 60.8868 73.9863 35.6297 88.4092C35.5731 88.4408 35.4876 88.4697 35.5073 88.9737C35.5639 90.3684 36.2033 96.6052 38.7652 125.897C43.2573 177.235 78.9428 233.66 126.97 249.987C127.003 249.998 127.038 250.002 127.072 249.999C127.107 249.996 127.14 249.986 127.17 249.97C135.464 245.36 143.084 239.631 149.816 232.943C149.86 232.896 149.884 232.835 149.883 232.771C149.882 232.707 149.856 232.645 149.811 232.6C149.766 232.554 149.706 232.528 149.642 232.526C149.578 232.524 149.515 232.547 149.468 232.589C142.794 239.219 135.244 244.903 127.027 249.483C81.7968 234.046 44.077 180.921 39.2639 125.853L36.0139 88.7605C61.1915 74.3741 85.4974 58.5131 108.805 41.2605C125.496 50.3847 142.764 58.4105 160.499 65.2868L166.566 98.646L159.724 99.8908C159.664 99.9018 159.609 99.9351 159.572 99.9841C159.534 100.033 159.517 100.095 159.522 100.156C159.527 100.217 159.556 100.275 159.601 100.316C159.647 100.358 159.706 100.381 159.768 100.382C159.899 100.382 160.73 100.212 171.02 98.3395C175.948 125.436 175.582 123.65 175.714 123.742C175.845 123.834 175.511 123.851 180.51 122.943C180.575 122.932 180.632 122.895 180.669 122.841C180.707 122.787 180.721 122.72 180.71 122.655L176.119 97.4171L187.327 95.3776C187.392 95.3659 187.449 95.3291 187.486 95.2751C187.524 95.2212 187.538 95.1547 187.526 95.0901C187.515 95.0256 187.478 94.9683 187.424 94.9309C187.37 94.8935 187.303 94.8791 187.239 94.8908L180.397 96.1342L175.826 71.0026C180.047 72.4987 184.391 73.9776 188.748 75.4013L191.993 112.489C195.315 150.457 182.068 193.812 158.245 222.945C158.205 222.996 158.187 223.06 158.194 223.125C158.201 223.189 158.233 223.248 158.283 223.289C158.333 223.33 158.398 223.35 158.462 223.344C158.527 223.338 158.586 223.307 158.628 223.258C182.528 194.033 195.819 150.537 192.486 112.447Z" fill="#005758"/>
<path d="M16.6323 156.147L11.8652 166.471L6.52441 160.191C6.48184 160.141 6.42112 160.11 6.3556 160.104C6.29009 160.099 6.22515 160.12 6.17507 160.162C6.125 160.205 6.09388 160.266 6.08858 160.331C6.08327 160.397 6.10421 160.462 6.14678 160.512C12.2178 167.67 11.7599 167.174 11.927 167.174C12.1586 167.174 11.777 167.85 17.0823 156.355C17.1099 156.296 17.1126 156.227 17.0899 156.166C17.0787 156.135 17.0615 156.107 17.0394 156.083C17.0174 156.059 16.9908 156.04 16.9613 156.026C16.9016 155.999 16.8334 155.996 16.7717 156.019C16.71 156.041 16.6599 156.088 16.6323 156.147Z" fill="#005758"/>
<path d="M206.488 225.99C206.481 225.925 206.451 225.866 206.401 225.824C206.352 225.782 206.289 225.761 206.224 225.766L191.578 227.046L191.134 221.966C190.967 220.056 191.565 218.159 192.797 216.691C194.03 215.223 195.795 214.304 197.704 214.138C199.613 213.971 201.511 214.569 202.979 215.801C204.447 217.034 205.365 218.799 205.532 220.708C205.538 220.773 205.57 220.834 205.62 220.876C205.67 220.918 205.735 220.939 205.801 220.933C205.866 220.927 205.927 220.896 205.969 220.845C206.011 220.795 206.031 220.73 206.026 220.665C205.833 218.636 204.846 216.765 203.279 215.461C201.713 214.157 199.695 213.525 197.665 213.703C195.635 213.88 193.757 214.853 192.441 216.41C191.125 217.966 190.478 219.979 190.64 222.011L191.839 235.709C192.017 237.75 192.999 239.636 194.568 240.952C196.137 242.269 198.165 242.908 200.205 242.73C202.246 242.551 204.132 241.569 205.448 240C206.765 238.431 207.404 236.404 207.226 234.363L206.488 225.99ZM200.152 242.237C198.243 242.401 196.347 241.802 194.88 240.57C193.412 239.339 192.493 237.576 192.323 235.667L191.613 227.542L206.011 226.282L206.723 234.407C206.888 236.316 206.288 238.212 205.056 239.68C203.825 241.148 202.061 242.068 200.152 242.237Z" fill="#005758"/>
<path d="M200.909 232.675C200.9 232.46 200.848 232.25 200.756 232.056C200.663 231.862 200.532 231.689 200.371 231.547C200.21 231.405 200.022 231.298 199.818 231.231C199.614 231.164 199.398 231.139 199.184 231.158C198.97 231.177 198.762 231.239 198.573 231.34C198.384 231.442 198.217 231.58 198.083 231.748C197.949 231.916 197.85 232.109 197.793 232.316C197.736 232.523 197.722 232.74 197.751 232.953L197.935 235.058C197.943 235.273 197.995 235.483 198.087 235.677C198.18 235.871 198.31 236.045 198.471 236.187C198.633 236.329 198.821 236.437 199.025 236.504C199.229 236.571 199.445 236.596 199.659 236.577C199.873 236.558 200.081 236.496 200.27 236.395C200.46 236.293 200.626 236.154 200.761 235.987C200.895 235.819 200.993 235.625 201.05 235.418C201.107 235.211 201.122 234.994 201.093 234.782L200.909 232.675ZM198.811 235.761C198.701 235.669 198.61 235.556 198.544 235.429C198.478 235.302 198.438 235.163 198.426 235.02L198.242 232.907C198.229 232.764 198.245 232.62 198.288 232.483C198.331 232.347 198.401 232.22 198.493 232.111C198.586 232.001 198.698 231.91 198.826 231.844C198.953 231.778 199.092 231.738 199.234 231.726C199.377 231.713 199.521 231.729 199.657 231.772C199.794 231.816 199.921 231.885 200.03 231.977C200.14 232.07 200.23 232.183 200.296 232.31C200.363 232.437 200.403 232.576 200.415 232.718L200.599 234.824C200.619 235.039 200.574 235.255 200.471 235.445C200.368 235.635 200.21 235.79 200.019 235.89C199.827 235.99 199.61 236.032 199.395 236.009C199.18 235.986 198.977 235.899 198.811 235.761Z" fill="#005758"/>
<path d="M47.6178 51.8422C48.5707 51.7587 49.4775 51.3945 50.2234 50.7957C50.9694 50.1968 51.521 49.3903 51.8086 48.4779C52.0962 47.5656 52.1067 46.5885 51.839 45.6701C51.5713 44.7518 51.0373 43.9334 50.3045 43.3186C49.5717 42.7037 48.673 42.3199 47.7221 42.2158C46.7712 42.1116 45.8108 42.2918 44.9623 42.7334C44.1138 43.1751 43.4153 43.8584 42.9551 44.697C42.4949 45.5357 42.2937 46.4919 42.377 47.4449C42.491 48.7221 43.1066 49.902 44.0889 50.7262C45.0713 51.5505 46.3402 51.9518 47.6178 51.8422ZM46.8165 42.6975C47.5279 42.635 48.2437 42.749 48.9005 43.0293C49.5574 43.3097 50.1349 43.7477 50.582 44.3045C51.0291 44.8614 51.332 45.5199 51.4637 46.2218C51.5955 46.9237 51.5521 47.6473 51.3374 48.3284C51.1227 49.0095 50.7433 49.6271 50.2329 50.1265C49.7224 50.626 49.0967 50.9918 48.4111 51.1916C47.7254 51.3915 47.0011 51.4191 46.3023 51.2721C45.6034 51.125 44.9516 50.8079 44.4046 50.3488C43.7474 49.7967 43.2686 49.0622 43.0286 48.2381C42.7886 47.4139 42.7983 46.5372 43.0564 45.7186C43.3145 44.8999 43.8094 44.1762 44.4787 43.6387C45.1479 43.1012 45.9614 42.7741 46.8165 42.6988V42.6975Z" fill="#005758"/>
<path d="M212.71 60.4907L208.315 60.8736C207.283 60.9627 206.258 60.6386 205.465 59.9725C204.671 59.3065 204.175 58.3529 204.084 57.321L203.701 52.9263C203.695 52.8608 203.664 52.8003 203.614 52.758C203.563 52.7157 203.498 52.695 203.433 52.7006C203.368 52.7062 203.307 52.7375 203.265 52.7878C203.222 52.838 203.202 52.9029 203.207 52.9684L203.593 57.3684C203.681 58.4002 203.357 59.4251 202.691 60.2181C202.025 61.0112 201.072 61.5076 200.04 61.5986L195.645 61.9828C195.583 61.9892 195.525 62.0194 195.484 62.0671C195.442 62.1148 195.421 62.1765 195.423 62.2395C195.426 62.3025 195.453 62.3621 195.498 62.4061C195.543 62.4501 195.603 62.4752 195.666 62.4763L200.084 62.092C200.595 62.0472 201.11 62.1036 201.599 62.2579C202.088 62.4123 202.543 62.6615 202.936 62.9915C203.329 63.3214 203.653 63.7255 203.889 64.1808C204.126 64.636 204.271 65.1335 204.315 65.6447L204.698 70.0394C204.704 70.1048 204.735 70.1653 204.786 70.2075C204.836 70.2497 204.901 70.2702 204.966 70.2644C205.032 70.2587 205.092 70.2271 205.135 70.1768C205.177 70.1265 205.197 70.0614 205.191 69.996L204.809 65.6013C204.72 64.5692 205.044 63.544 205.71 62.7507C206.376 61.9573 207.329 61.4606 208.361 61.3697L212.756 60.9868C212.789 60.9838 212.82 60.9743 212.849 60.9591C212.878 60.9438 212.904 60.923 212.925 60.8979C212.946 60.8727 212.961 60.8436 212.971 60.8124C212.981 60.7812 212.984 60.7483 212.981 60.7157C212.978 60.6832 212.969 60.6515 212.953 60.6226C212.938 60.5936 212.917 60.568 212.892 60.5471C212.867 60.5262 212.838 60.5105 212.807 60.5008C212.775 60.4911 212.742 60.4877 212.71 60.4907ZM204.434 64.167C204.161 63.5654 203.758 63.0324 203.253 62.6072C202.747 62.1821 202.153 61.8757 201.514 61.7105C202.114 61.4371 202.646 61.0328 203.07 60.5274C203.494 60.022 203.799 59.4282 203.964 58.7894C204.237 59.3908 204.641 59.9233 205.147 60.348C205.653 60.7726 206.248 61.0785 206.888 61.2434C206.286 61.5164 205.753 61.9208 205.329 62.4267C204.904 62.9327 204.598 63.5273 204.434 64.167Z" fill="#005758"/>
<path d="M82.2599 161.505C81.9546 163.189 77.7862 171.6 75.1981 175.247C73.5507 177.575 71.302 178.237 73.2704 173.564C73.921 172.002 74.4919 170.408 74.981 168.788C73.3413 170.756 71.4613 172.511 69.3849 174.011C66.8112 175.784 65.7941 174.434 68.6849 171.229C69.7875 170.026 70.8086 168.752 71.7415 167.413C69.781 168.599 67.6836 169.543 65.4954 170.222C62.6402 171.078 62.8639 169.351 65.856 167.779C66.8621 167.234 67.8254 166.612 68.7375 165.921C67.1996 166.322 65.621 166.547 64.0323 166.591C61.8849 166.512 61.1875 165.345 64.3612 164.584C66.8603 163.999 69.2543 163.032 71.4586 161.717C71.5729 160.133 72.0213 158.592 72.7744 157.193C72.2421 157.219 71.7229 157.367 71.2573 157.627C70.7917 157.886 70.3923 158.249 70.0902 158.688C66.8954 163.293 64.3415 164.586 65.4415 161.104C66.1099 158.979 66.4678 157.707 66.9283 156.096C67.3836 154.517 71.106 152.093 71.2836 151.183C71.3956 150.121 71.3771 149.049 71.2283 147.991C74.4611 147.512 77.7395 147.42 80.9941 147.716C81.2244 149.546 82.6073 159.592 82.2599 161.505Z" fill="#F7C548"/>
<path d="M112.948 92.433C112.665 94.7554 112.21 96.7751 113.985 98.5185C109.424 99.0062 104.926 99.9666 100.564 101.384C102.282 100.767 103.713 99.5375 104.582 97.9317C104.783 97.6453 104.942 97.3315 105.053 97.0001C107.222 92.1567 106.12 85.3883 105.663 85.0119C101.253 81.3448 104.509 77.2869 106.632 80.0119C107.656 81.3277 108.152 81.2514 108.415 80.4356C109.281 76.1962 114.566 69.983 117.363 78.5119C117.651 79.4113 117.886 80.3269 118.066 81.254C120.172 91.7435 116.235 92.9962 112.948 92.433Z" fill="#F7C548"/>
<path d="M178.136 149.451L161.536 204.006C154.168 205.227 145.123 203.43 139.128 198.588L146.749 166.624C136.273 171.952 120.901 177.562 109.895 173.65L124.276 178.693C118.142 189.319 111.385 199.572 104.04 209.399C101.227 213.059 97.4258 215.839 93.0845 217.41C88.7432 218.981 84.0431 219.277 79.5388 218.264C65.4033 215.092 53.3073 211.522 38.5507 206.764C37.4981 196.88 38.9612 192.396 42.2718 186.845L44.3849 183.784C57.8102 187.226 71.4186 189.91 85.1454 191.823C90.7935 183.505 95.613 174.653 99.5349 165.395C97.081 160.641 97.2796 154.868 98.5388 149.672C99.034 147.664 99.6901 145.698 100.501 143.795C109.804 145.134 119.287 144.402 128.274 141.65L161.89 132.647C164.193 132.032 166.619 132.043 168.916 132.68C171.213 133.317 173.298 134.557 174.955 136.271C176.612 137.985 177.781 140.111 178.34 142.428C178.9 144.745 178.829 147.17 178.136 149.451Z" fill="#F7C548"/>
<path d="M180.251 107.52C180.707 107.462 181.155 107.401 181.348 107.358C183.536 106.851 182.89 103.271 180.201 103.659C180.08 103.679 178.826 103.745 178.826 103.745C179.059 103.699 181.238 103.239 181.465 103.18C183.506 102.633 182.822 99.1276 180.307 99.5671C179.386 99.7302 176.739 100.251 175.769 100.433C168.953 101.657 166.551 102.06 164.623 103.053C168.702 106.113 171.361 111.118 172.781 116.583C175.457 115.888 178.156 115.595 180.105 115.064C180.282 115.039 180.456 115.016 180.631 114.983C182.736 114.62 182.265 111.195 179.689 111.43L181.06 111.218C183.151 110.789 182.684 107.46 180.251 107.52Z" fill="#F7C548"/>
<path d="M181.488 107.578C183.539 107.02 183.281 104.042 181.286 103.475C181.403 103.45 181.488 103.43 181.526 103.421C183.886 102.787 183.065 98.833 180.26 99.3225C179.72 99.4199 174.907 100.336 174.907 100.336C168.855 101.421 166.498 101.844 164.644 102.766C164.049 102.328 163.423 101.933 162.773 101.582C162.557 101.524 164.009 100.609 138.645 118.029C129.11 103.509 128.394 96.8041 114.061 98.2356C112.559 96.6777 112.891 94.8606 113.163 92.7212C119.265 93.5764 119.524 87.2778 118.309 81.1949C117.953 79.4238 118.045 79.8791 114.397 68.0659C114.196 67.6017 113.857 67.2106 113.426 66.9458C112.994 66.6811 112.492 66.5554 111.987 66.5861C111.482 66.6167 110.999 66.802 110.603 67.1169C110.207 67.4319 109.918 67.861 109.774 68.3462C109.488 67.9671 109.098 67.6785 108.652 67.5148C108.206 67.3512 107.722 67.3193 107.258 67.423C106.795 67.5268 106.371 67.7618 106.037 68.1C105.703 68.4382 105.473 68.8653 105.376 69.3304C105.048 68.9544 104.614 68.687 104.131 68.5634C103.648 68.4399 103.138 68.4661 102.671 68.6387C102.203 68.8112 101.798 69.1219 101.511 69.5296C101.224 69.9372 101.068 70.4225 101.063 70.9212C100.598 70.563 100.021 70.3827 99.4354 70.4128C98.8498 70.4428 98.2942 70.6813 97.869 71.0851C97.4437 71.4889 97.1769 72.0314 97.1166 72.6147C97.0563 73.198 97.2065 73.7837 97.5402 74.2659C99.077 77.1922 106.488 91.737 104.82 96.9291C104.43 97.9057 103.838 98.7886 103.082 99.5198C102.326 100.251 101.424 100.814 100.435 101.171C91.4528 104.157 82.9452 108.415 75.1717 113.816C66.2244 119.921 66.1073 123.444 65.8389 131.955C65.5904 138.028 65.6976 144.11 66.1599 150.17C66.106 151.579 68.627 152.112 70.1928 152.144C69.1981 153.088 67.0349 154.815 66.6849 156.025C66.6849 156.025 65.4244 160.312 65.1994 161.025C64.8046 162.292 64.8402 163.024 65.3244 163.262C66.6112 163.871 69.4652 159.999 70.2862 158.828C70.7688 158.132 71.5031 157.652 72.3336 157.488C71.7112 158.767 71.3299 160.15 71.2086 161.567C69.0595 162.84 66.728 163.776 64.2954 164.344C62.277 164.828 61.9047 165.436 61.9468 165.862C62.002 166.42 62.7954 166.794 64.0165 166.84C65.21 166.813 66.3988 166.681 67.5691 166.445C66.9767 166.853 66.3617 167.226 65.727 167.565C64.7691 168.069 62.8783 169.295 63.2665 170.242C63.3902 170.545 63.852 170.978 65.5546 170.466C67.3914 169.896 69.1657 169.142 70.8507 168.215C70.1095 169.207 69.3191 170.161 68.4823 171.074C67.6586 171.987 66.0086 174.084 66.9454 174.874L66.9639 174.888C67.0045 174.921 67.0486 174.949 67.0954 174.971L67.1099 174.979C68.031 175.404 69.6599 174.14 70.4573 173.515C71.8502 172.416 73.1523 171.206 74.3507 169.897C73.956 171.101 73.5165 172.316 73.0257 173.479C72.5175 174.477 72.2622 175.585 72.2823 176.705C72.2998 176.812 72.3411 176.914 72.4032 177.003C72.4652 177.092 72.5465 177.166 72.6409 177.22C72.7353 177.273 72.8405 177.305 72.9488 177.313C73.057 177.32 73.1656 177.303 73.2665 177.263C74.1409 176.865 74.8779 176.217 75.3849 175.401C78.2401 171.089 80.616 166.478 82.4704 161.65C82.7889 160.232 81.9546 153.244 81.7599 151.795C83.8112 151.5 85.2599 150.611 85.2086 149.637C84.9231 144.265 84.1704 132.744 84.2047 128.608C87.5296 126.992 92.0257 124.232 95.5875 123.072C98.0218 129.032 99.2625 136.888 100.232 143.779C97.4415 150.525 95.9546 158.851 99.1796 165.33C95.4103 174.559 90.6654 183.359 85.0257 191.579C71.3585 189.663 57.8092 186.983 44.4415 183.553C44.3927 183.541 44.3414 183.544 44.2945 183.562C44.2476 183.58 44.2071 183.612 44.1783 183.653C44.1783 183.653 41.9533 186.894 41.902 186.98C37.9972 185.506 33.9821 184.341 29.8941 183.497C29.8204 183.483 29.8376 183.462 29.6954 183.544C29.3586 183.734 28.1283 184.504 22.6928 187.313C14.8682 191.089 7.46326 195.679 0.600712 201.007C0.350484 201.207 0.166111 201.478 0.0714452 201.784C-0.0232211 202.09 -0.0238245 202.418 0.0697135 202.724C0.163252 203.031 0.346628 203.302 0.596117 203.503C0.845605 203.705 1.14973 203.826 1.46913 203.853C18.3323 205.169 30.1204 201.842 37.9981 202.932L38.3033 206.79C38.3068 206.838 38.3248 206.885 38.3551 206.924C38.3854 206.962 38.4264 206.99 38.4731 207.005C52.5994 211.561 64.9783 215.261 79.4796 218.516C84.0306 219.531 88.7765 219.227 93.1608 217.64C97.5452 216.053 101.386 213.249 104.234 209.557C112.706 198.327 120.381 186.517 127.201 174.213C127.211 174.195 127.218 174.175 127.223 174.154C133.873 172.597 140.308 170.23 146.381 167.105C138.635 199.592 138.87 198.407 138.881 198.641C139.852 199.552 140.945 200.323 142.13 200.932C140.632 204.876 139.451 208.934 138.599 213.066C138.587 213.126 138.598 213.188 138.63 213.241C142.884 220.455 147.106 231.115 156.107 242.359C156.307 242.61 156.578 242.795 156.884 242.89C157.19 242.985 157.518 242.986 157.825 242.893C158.132 242.799 158.403 242.616 158.605 242.366C158.806 242.116 158.927 241.812 158.953 241.492C159.458 233.08 159.232 224.64 158.278 216.267C157.74 212.407 157.674 208.496 158.084 204.62C159.253 204.577 160.418 204.461 161.573 204.274C161.621 204.265 161.666 204.243 161.702 204.209C161.737 204.175 161.762 204.132 161.773 204.084L178.372 149.54C179.076 147.217 179.146 144.748 178.575 142.388C178.004 140.029 176.813 137.865 175.125 136.121C173.437 134.376 171.314 133.115 168.975 132.466C166.635 131.818 164.165 131.807 161.82 132.434L128.67 141.312C129.351 139.09 129.666 136.773 129.603 134.45C131.383 136.417 133.799 137.693 136.427 138.055C139.055 138.417 141.726 137.842 143.972 136.43C175.139 117.097 173.428 118.421 173.406 118.158C173.393 118.013 173.149 117.017 173.085 116.763C175.661 116.117 178.373 115.796 180.139 115.316C180.322 115.291 180.498 115.267 180.672 115.234C181.073 115.136 181.434 114.918 181.708 114.608C181.981 114.298 182.153 113.913 182.201 113.502C182.248 113.092 182.169 112.677 181.974 112.313C181.779 111.949 181.478 111.654 181.11 111.466C181.519 111.355 181.885 111.122 182.159 110.798C182.433 110.474 182.601 110.074 182.642 109.652C182.683 109.23 182.595 108.806 182.388 108.435C182.182 108.064 181.868 107.765 181.488 107.578ZM105.435 96.762C107.189 92.512 106.688 86.0593 105.894 84.8909C105.803 84.7593 103.384 82.9488 103.766 80.7672C104.013 79.3567 105.361 78.7659 106.449 80.158C107.099 80.9883 107.574 81.3317 107.988 81.2606C108.355 81.2001 108.555 80.8356 108.669 80.4804C109.224 77.7646 111.907 73.7804 114.307 74.6001C116.403 75.3159 117.395 79.1212 117.83 81.2949C118.92 86.758 118.488 90.2304 116.557 91.6185C113.945 93.4922 109.357 90.8817 109.311 90.8554C109.283 90.8391 109.252 90.8286 109.22 90.8244C109.187 90.8201 109.155 90.8223 109.123 90.8307C109.06 90.8478 109.006 90.8893 108.973 90.9462C108.94 91.0031 108.931 91.0706 108.948 91.134C108.965 91.1975 109.007 91.2515 109.064 91.2843C110.195 91.9127 111.414 92.3699 112.68 92.6409C112.406 94.7659 112.089 96.6488 113.46 98.2988C109.836 98.7242 106.253 99.449 102.748 100.466C103.949 99.4848 104.875 98.2085 105.435 96.762ZM74.7533 168.666C73.1342 170.6 71.282 172.327 69.2389 173.807C68.0691 174.613 67.4086 174.638 67.2494 174.457C67.0218 174.194 67.2639 173.169 68.8639 171.395C70.8444 169.202 72.5977 166.814 74.0968 164.267C74.6327 164.587 75.1912 164.867 75.7678 165.105C75.4257 166.391 75.0902 167.574 74.7533 168.666ZM67.7796 169.132C66.9625 169.479 63.5691 170.788 63.727 169.921C63.7928 169.572 64.4099 168.815 65.9639 167.995C68.2914 166.622 70.4782 165.024 72.4928 163.224C72.8375 163.478 73.2428 163.75 73.6678 164.013C72.8783 165.296 72.1902 166.34 71.5731 167.217C70.3581 167.95 69.0896 168.59 67.7783 169.132H67.7796ZM75.8941 164.622C74.5613 164.045 73.3184 163.278 72.2033 162.347C72.1541 162.308 72.0916 162.288 72.0286 162.293C71.9656 162.298 71.9067 162.326 71.8639 162.373C71.8212 162.42 71.7978 162.481 71.7985 162.544C71.7992 162.607 71.824 162.668 71.8678 162.713C71.9362 162.775 72.0125 162.845 72.0967 162.911C70.7073 164.078 69.5875 164.976 68.6257 165.688C67.1257 166.075 65.5872 166.293 64.0389 166.338C62.9862 166.299 62.4599 165.999 62.4441 165.812C62.431 165.672 62.7586 165.224 64.4178 164.828C66.9373 164.232 69.3513 163.256 71.577 161.933C71.6156 161.912 71.648 161.882 71.6711 161.845C71.6942 161.807 71.7071 161.765 71.7086 161.721C71.8174 160.22 72.2353 158.757 72.9362 157.425C73.6183 157.425 74.2801 157.657 74.8125 158.083C76.2415 159.232 76.6323 161.607 75.8928 164.622H75.8941ZM73.2704 176.734C73.2131 176.766 73.1499 176.785 73.0847 176.792C73.0196 176.798 72.9539 176.791 72.8915 176.771C72.5928 176.536 72.8507 175.512 72.9573 175.147C74.2881 171.845 75.4066 168.461 76.306 165.016C78.3915 157.121 72.5494 155.179 70.0191 158.365C69.1874 159.587 68.251 160.734 67.2204 161.794C66.4007 162.583 65.8231 162.901 65.577 162.829L65.5481 162.819C65.1533 162.622 65.8112 160.766 65.9849 160.187C67.3349 155.807 66.956 156.005 68.1599 154.74C69.552 153.276 71.381 151.997 71.5257 151.233C71.6469 150.227 71.6346 149.209 71.4889 148.207C74.564 147.778 77.6772 147.689 80.7718 147.944C80.9902 149.626 82.3875 159.867 82.0046 161.54C80.1658 166.306 77.8161 170.858 74.9967 175.119C74.557 175.786 73.9648 176.34 73.2691 176.734H73.2704ZM0.911238 201.397C12.0349 192.491 22.7533 188.208 29.8902 184.008C30.7994 184.192 31.7612 184.411 32.8125 184.666C25.352 188.917 14.8297 193.892 4.0665 202.897C3.86941 203.06 3.71154 203.265 3.60466 203.497C2.90861 203.461 2.20992 203.412 1.50992 203.358C1.29079 203.338 1.08253 203.253 0.911758 203.115C0.740985 202.976 0.615449 202.79 0.551188 202.579C0.486928 202.369 0.486862 202.144 0.550995 201.933C0.615129 201.723 0.740549 201.536 0.911238 201.397ZM103.84 209.262C101.051 212.88 97.2878 215.627 92.9924 217.181C88.6969 218.736 84.0473 219.033 79.5889 218.038C65.1586 214.8 52.831 211.12 38.7836 206.591C38.5872 204.914 38.4769 203.229 38.4533 201.541C38.3547 194.83 39.9007 191.745 42.4954 186.962L44.4889 184.079C57.868 187.505 71.4288 190.178 85.1073 192.084C85.1527 192.091 85.1993 192.085 85.2415 192.067C85.2837 192.049 85.3197 192.019 85.3454 191.98C90.9706 183.809 95.7125 175.064 99.4915 165.892C102.832 171.957 108.702 173.497 113.422 175.15L110.69 178.87C110.663 178.907 110.647 178.951 110.644 178.996C110.64 179.042 110.649 179.087 110.67 179.128C110.69 179.169 110.722 179.203 110.761 179.227C110.8 179.251 110.844 179.264 110.89 179.265C111.068 179.265 110.843 179.499 113.916 175.317L123.981 178.846C117.915 189.399 111.188 199.558 103.84 209.262ZM158.461 241.447C158.443 241.668 158.359 241.878 158.22 242.05C158.081 242.222 157.894 242.348 157.682 242.413C157.47 242.477 157.244 242.477 157.033 242.412C156.822 242.346 156.635 242.219 156.497 242.046C147.56 230.883 143.339 220.282 139.106 213.067C139.322 212 139.582 210.883 139.913 209.596C144.399 217.278 149.269 228.208 158.597 239.499C158.553 240.145 158.51 240.79 158.461 241.447ZM177.898 149.395L161.341 203.804C153.995 204.97 145.214 203.124 139.405 198.507L146.963 166.808C151.244 164.628 154.028 162.837 154.056 162.82C154.106 162.783 154.14 162.728 154.151 162.667C154.162 162.606 154.15 162.542 154.117 162.49C154.084 162.437 154.032 162.399 153.972 162.383C153.912 162.367 153.848 162.374 153.793 162.403C153.765 162.421 150.956 164.228 146.64 166.42C135.885 171.899 121.026 177.278 109.666 173.311C96.8415 168.83 95.4836 156.592 100.66 144.079C104.742 144.621 108.865 144.794 112.978 144.596C112.376 146.122 111.964 147.716 111.751 149.342C111.744 149.407 111.762 149.471 111.802 149.522C111.843 149.573 111.901 149.606 111.966 149.615C112.03 149.623 112.095 149.605 112.147 149.566C112.198 149.526 112.232 149.468 112.241 149.404C112.463 147.742 112.895 146.116 113.528 144.563C118.568 144.333 123.555 143.436 128.359 141.895L161.949 132.895C164.21 132.29 166.592 132.301 168.847 132.927C171.102 133.552 173.149 134.769 174.776 136.452C176.402 138.135 177.549 140.222 178.098 142.497C178.646 144.773 178.577 147.153 177.895 149.392L177.898 149.395ZM129.794 133.908L117.813 120.1C117.771 120.054 117.714 120.026 117.653 120.02C117.592 120.014 117.53 120.031 117.481 120.068C117.431 120.104 117.398 120.158 117.386 120.219C117.374 120.28 117.386 120.342 117.418 120.395L128.865 138.272C128.72 139.362 128.458 140.432 128.085 141.466C119.226 144.146 109.89 144.869 100.724 143.586C99.6875 136.217 98.2139 126.37 94.6375 119.867C94.3639 119.472 94.4454 119.587 89.3441 125.351C87.2718 126.445 85.4507 127.457 83.8691 128.219C83.8277 128.239 83.7928 128.27 83.7681 128.309C83.7435 128.347 83.7302 128.392 83.7296 128.438C83.6823 131.259 84.2454 142.875 84.6507 148.632C82.3402 146.741 74.3204 147.276 71.4139 147.711C70.0441 147.909 67.5981 148.378 66.5928 149.338C66.1845 143.562 66.0967 137.767 66.3297 131.98C66.6007 123.405 66.702 120.197 75.4467 114.234C85.9086 107.099 98.402 101.094 111.035 99.1291C115.451 98.4422 120.606 97.9988 124.431 99.9185C129.643 102.538 131.872 108.85 138.365 118.519C138.581 118.838 137.435 119.461 162.697 102.113C168.366 105.241 171.497 111.758 172.873 118.055L143.702 135.997C141.518 137.373 138.913 137.919 136.36 137.535C133.808 137.152 131.478 135.865 129.794 133.908ZM181.01 110.975C180.674 111.045 179.947 111.134 179.672 111.17C179.478 111.192 179.256 111.709 179.693 111.676C181.96 111.471 182.393 114.428 180.584 114.74C180.415 114.772 180.247 114.795 180.041 114.825C178.299 115.299 175.403 115.669 172.961 116.28C171.628 111.271 169.145 106.294 165.091 103.1C166.861 102.283 169.244 101.855 174.998 100.822C174.998 100.822 179.811 99.9014 180.351 99.8106C182.557 99.4238 183.132 102.478 181.403 102.941C181.185 102.997 179.028 103.451 178.772 103.503C178.444 103.569 178.605 104.051 178.838 104.038C179.156 104.019 180.18 103.913 180.231 103.907C182.632 103.562 183.147 106.691 181.291 107.117C180.955 107.195 179.751 107.328 179.186 107.405C179.127 107.421 179.076 107.457 179.042 107.507C179.008 107.557 178.994 107.618 179.002 107.679C179.01 107.739 179.039 107.794 179.085 107.834C179.131 107.874 179.19 107.895 179.251 107.895L180.028 107.805C182.394 107.529 182.849 110.6 181.01 110.975Z" fill="#005758"/>
<path d="M159.493 150.216C159.525 150.219 159.558 150.216 159.589 150.207C159.62 150.198 159.649 150.183 159.674 150.162C159.7 150.142 159.721 150.117 159.736 150.088C159.752 150.06 159.762 150.028 159.765 149.996C159.769 149.964 159.766 149.931 159.757 149.9C159.747 149.869 159.732 149.84 159.712 149.814C159.691 149.789 159.666 149.768 159.638 149.753C159.609 149.737 159.578 149.727 159.545 149.724C158.077 149.566 157.44 149.905 154.388 150.908C154.331 150.926 154.283 150.964 154.252 151.014C154.221 151.064 154.21 151.124 154.219 151.183C154.228 151.241 154.258 151.294 154.303 151.332C154.349 151.371 154.406 151.391 154.465 151.391C154.541 151.391 157.228 150.488 157.298 150.47C158.003 150.229 158.751 150.142 159.493 150.216Z" fill="#005758"/>
<path d="M132.61 157.335C130.768 157.789 129.057 158.176 127.511 158.485C127.447 158.499 127.39 158.537 127.354 158.591C127.318 158.646 127.305 158.713 127.318 158.778C127.331 158.842 127.369 158.898 127.424 158.935C127.479 158.971 127.546 158.984 127.61 158.971C129.156 158.66 130.878 158.272 132.728 157.816C132.791 157.799 132.845 157.758 132.877 157.703C132.91 157.647 132.92 157.58 132.905 157.517C132.889 157.455 132.85 157.4 132.795 157.366C132.739 157.332 132.673 157.321 132.61 157.335Z" fill="#005758"/>
<path d="M118.909 159.422C118.411 159.393 117.92 159.298 117.448 159.14C116.324 158.743 115.293 158.119 114.422 157.305C114.374 157.264 114.312 157.242 114.248 157.245C114.185 157.248 114.125 157.275 114.081 157.321C114.037 157.367 114.012 157.428 114.012 157.491C114.012 157.555 114.036 157.616 114.08 157.662C115.384 158.924 117.07 159.717 118.874 159.916C118.939 159.919 119.002 159.896 119.05 159.854C119.099 159.811 119.128 159.75 119.133 159.686C119.137 159.621 119.116 159.558 119.074 159.509C119.032 159.459 118.973 159.428 118.909 159.422Z" fill="#005758"/>
<path d="M146.057 153.559C144.403 154.067 142.722 154.57 141.043 155.057C140.98 155.075 140.926 155.117 140.895 155.175C140.863 155.233 140.855 155.301 140.874 155.364C140.892 155.427 140.935 155.48 140.992 155.512C141.05 155.544 141.118 155.551 141.181 155.533C142.861 155.045 144.547 154.542 146.202 154.033C146.265 154.014 146.317 153.97 146.348 153.912C146.379 153.854 146.386 153.786 146.366 153.724C146.347 153.661 146.304 153.608 146.246 153.577C146.188 153.546 146.12 153.54 146.057 153.559Z" fill="#005758"/>
<path d="M163.045 161.864C164.519 156.357 164.464 156.608 164.526 156.207C164.536 156.142 164.52 156.075 164.481 156.022C164.443 155.969 164.385 155.933 164.32 155.923C164.255 155.913 164.188 155.929 164.135 155.967C164.082 156.006 164.046 156.064 164.036 156.129C163.972 156.545 163.993 156.413 162.566 161.734C162.558 161.766 162.556 161.798 162.56 161.831C162.564 161.863 162.574 161.894 162.591 161.923C162.607 161.951 162.628 161.976 162.654 161.996C162.68 162.016 162.709 162.03 162.741 162.039C162.772 162.047 162.805 162.05 162.837 162.045C162.87 162.041 162.901 162.031 162.929 162.015C162.957 161.998 162.982 161.977 163.002 161.951C163.022 161.925 163.037 161.896 163.045 161.864Z" fill="#005758"/>
<path d="M153.088 197.174L151.735 202.229C151.717 202.292 151.726 202.36 151.758 202.417C151.791 202.475 151.845 202.517 151.909 202.534C151.972 202.552 152.04 202.543 152.097 202.511C152.154 202.478 152.196 202.424 152.214 202.36L153.565 197.305C153.574 197.274 153.576 197.241 153.572 197.209C153.568 197.177 153.558 197.145 153.542 197.117C153.526 197.089 153.504 197.064 153.479 197.044C153.453 197.024 153.423 197.009 153.392 197.001C153.361 196.992 153.328 196.99 153.296 196.994C153.263 196.998 153.232 197.008 153.204 197.024C153.176 197.04 153.151 197.062 153.131 197.087C153.111 197.113 153.096 197.142 153.088 197.174Z" fill="#005758"/>
<path d="M160.303 170.178L158.951 175.233C158.933 175.296 158.942 175.364 158.974 175.422C159.007 175.479 159.061 175.521 159.124 175.538C159.188 175.556 159.256 175.547 159.313 175.515C159.37 175.482 159.412 175.428 159.43 175.365L160.782 170.311C160.8 170.247 160.792 170.179 160.759 170.122C160.727 170.064 160.673 170.022 160.609 170.005C160.546 169.987 160.478 169.995 160.42 170.028C160.363 170.06 160.321 170.114 160.303 170.178Z" fill="#005758"/>
<path d="M156.698 183.676L155.345 188.731C155.328 188.795 155.336 188.863 155.369 188.92C155.402 188.977 155.456 189.019 155.519 189.037C155.583 189.054 155.65 189.046 155.708 189.013C155.765 188.981 155.807 188.927 155.824 188.863L157.177 183.808C157.194 183.744 157.186 183.676 157.153 183.619C157.121 183.562 157.067 183.52 157.003 183.503C156.972 183.494 156.939 183.492 156.907 183.496C156.874 183.5 156.843 183.51 156.815 183.526C156.757 183.559 156.716 183.613 156.698 183.676Z" fill="#005758"/>
<path d="M105.519 185.921L102.423 190.132C102.396 190.168 102.379 190.212 102.375 190.258C102.371 190.303 102.38 190.349 102.401 190.39C102.421 190.431 102.453 190.465 102.492 190.489C102.531 190.514 102.576 190.526 102.622 190.526C102.803 190.526 102.552 190.799 105.919 186.208C105.947 186.155 105.954 186.094 105.94 186.035C105.926 185.977 105.892 185.926 105.843 185.891C105.795 185.856 105.735 185.84 105.676 185.846C105.616 185.851 105.561 185.878 105.519 185.921Z" fill="#005758"/>
<path d="M97.2507 197.178C94.4559 200.98 93.3809 202.828 90.6717 204.604C90.6445 204.622 90.6211 204.645 90.6028 204.672C90.5845 204.699 90.5717 204.729 90.5651 204.761C90.5585 204.793 90.5582 204.826 90.5643 204.858C90.5704 204.89 90.5828 204.92 90.6007 204.947C90.6186 204.975 90.6416 204.998 90.6686 205.016C90.6955 205.035 90.7258 205.047 90.7577 205.054C90.7896 205.061 90.8224 205.061 90.8544 205.055C90.8864 205.049 90.9169 205.036 90.9441 205.018C93.7678 203.163 94.8441 201.282 97.6467 197.471C97.6758 197.418 97.6847 197.357 97.6719 197.298C97.659 197.239 97.6253 197.187 97.5769 197.151C97.5286 197.115 97.4689 197.098 97.4089 197.103C97.3489 197.108 97.2927 197.134 97.2507 197.178Z" fill="#005758"/>
<path d="M82.5507 206.981C80.3138 206.954 79.0125 206.455 74.5244 205.416C74.4605 205.4 74.3931 205.411 74.337 205.445C74.2808 205.479 74.2406 205.534 74.225 205.598C74.2095 205.662 74.22 205.729 74.2542 205.785C74.2883 205.841 74.3434 205.882 74.4073 205.897C78.7165 206.937 80.3033 207.462 82.5402 207.476C82.6058 207.478 82.6692 207.453 82.7166 207.408C82.764 207.362 82.7914 207.3 82.7928 207.234C82.7942 207.169 82.7695 207.105 82.7241 207.058C82.6787 207.01 82.6163 206.983 82.5507 206.981Z" fill="#005758"/>
<path d="M52.4507 200.095L47.3626 198.868C47.2987 198.853 47.2313 198.864 47.1753 198.898C47.1193 198.932 47.0792 198.987 47.0639 199.051C47.0485 199.115 47.0592 199.183 47.0935 199.239C47.1278 199.295 47.1829 199.335 47.2468 199.35L52.3336 200.576C52.3975 200.592 52.4649 200.581 52.521 200.547C52.5772 200.513 52.6174 200.458 52.6329 200.394C52.6485 200.33 52.638 200.263 52.6038 200.207C52.5696 200.151 52.5146 200.11 52.4507 200.095Z" fill="#005758"/>
<path d="M66.0336 203.368L60.9467 202.142C60.8829 202.127 60.8155 202.137 60.7593 202.171C60.7032 202.205 60.6629 202.26 60.6474 202.324C60.6319 202.388 60.6423 202.456 60.6765 202.512C60.7107 202.568 60.7658 202.608 60.8296 202.624L65.9165 203.85C65.9803 203.865 66.0478 203.855 66.1039 203.821C66.16 203.787 66.2003 203.732 66.2158 203.668C66.2314 203.604 66.2209 203.536 66.1867 203.48C66.1525 203.424 66.0974 203.384 66.0336 203.368Z" fill="#005758"/>
</svg>
