<svg width="210" height="250" viewBox="0 0 210 250" fill="none" xmlns="http://www.w3.org/2000/svg">
<path d="M44.1564 80.1346C44.484 82.7557 45.467 85.2458 47.9308 86.1501C46.6268 90.7499 44.4364 95.0506 41.4828 98.8102C39.1631 97.3031 36.4896 95.9663 34.3533 94.5902C34.4189 92.3229 35.4673 89.8984 37.2366 86.6219C36.8765 85.35 36.8073 84.0134 37.0342 82.7112C37.261 81.4089 37.7782 80.1744 38.5472 79.0993C38.0706 79.8947 37.4887 80.6221 36.8172 81.2617C34.5499 83.3979 32.8855 81.9694 33.5015 80.5933C36.4371 73.6604 36.2274 73.241 40.1723 75.1675C43.7763 76.9106 43.7763 76.9106 44.1564 80.1346Z" fill="#F7C548"/>
<path d="M63.5921 91.7333C63.5226 91.7317 63.4544 91.7134 63.3935 91.6799C63.3325 91.6464 63.2805 91.5987 63.2419 91.5408C63.2034 91.4829 63.1793 91.4166 63.1718 91.3474C63.1643 91.2783 63.1736 91.2083 63.199 91.1435C102.005 -6.03532 99.3445 0.0195148 99.8556 0.098149C100.367 0.176783 99.7377 -4.56748 107.247 74.2896C107.241 74.393 107.199 74.491 107.127 74.5656C107.055 74.6402 106.958 74.6864 106.855 74.6959C106.752 74.7055 106.649 74.6776 106.564 74.6175C106.48 74.5573 106.42 74.4689 106.395 74.3682L99.5804 2.32612C61.3904 97.9585 64.0246 91.7333 63.5921 91.7333Z" fill="#005758"/>
<path d="M162.986 193.735C162.66 194.632 162.114 195.434 161.4 196.068H153.17C158.582 189.279 156.944 176.711 153.668 173.028C153.668 173.028 159.107 173.251 161.4 173.382C164.519 178.415 164.939 188.624 162.986 193.735Z" fill="#F7C548"/>
<path d="M153.668 173.002C156.944 176.685 158.582 189.253 153.17 196.042C123.97 195.858 121.598 195.203 116.159 192.687C111.31 190.432 106.815 176.855 102.988 165.165C105.937 161.665 114.416 153.487 117.47 150.67C119.619 149.634 124.468 147.131 126.054 146.07C127.116 151.744 129.815 164.208 131.558 172.189C134.18 172.425 144.533 172.687 153.655 173.054L153.668 173.002Z" fill="#F7C548"/>
<path d="M105.006 197.719C102.818 203.472 95.0983 206.893 88.9648 207.797C86.7844 208.128 84.561 208.044 82.412 207.548L77.9298 200.196C86.1995 202.018 97.6801 198.335 101.284 190.196C102.516 192.66 103.761 195.19 105.006 197.719Z" fill="#F7C548"/>
<path d="M87.4053 163.029C89.476 166.698 95.1639 177.851 101.284 190.184C99.5812 193.759 96.6514 196.606 93.0276 198.204C87.5888 187.654 76.3441 163.618 73.9326 158.599C85.1773 152.911 113.813 141.011 118.728 137.944C123.643 134.877 125.608 130.959 120.366 113.476C123.303 113.133 126.256 112.954 129.213 112.938C138.898 129.74 132.803 141.627 126.106 146.044C117.588 151.613 96.9593 159.542 87.4053 163.029Z" fill="#F7C548"/>
<path d="M94.1022 128.573C93.9842 127.263 93.7614 125.113 93.4862 122.65C101.641 117.656 110.796 114.524 120.3 113.476C125.543 130.959 123.577 134.89 118.662 137.944C113.748 140.998 85.1641 152.911 73.8801 158.599C76.2915 163.618 87.5362 187.654 92.9751 198.204C88.2909 200.423 83.0269 201.111 77.9298 200.17C57.3669 166.095 54.9423 159.922 55.9777 153.684C57.1441 146.738 63.1072 142.61 94.1022 128.573Z" fill="#F7C548"/>
<path d="M35.8605 75.2199C35.1782 76.4475 34.5742 77.7169 34.0519 79.0206C32.8962 78.4766 31.7833 77.8457 30.723 77.1334C30.2861 76.805 29.9935 76.3199 29.9071 75.7803C29.8206 75.2406 29.9469 74.6884 30.2595 74.24C30.572 73.7916 31.0463 73.4819 31.5826 73.3762C32.1189 73.2706 32.6752 73.3771 33.1345 73.6735L35.8605 75.2199Z" fill="#F7C548"/>
<path d="M36.7909 81.2355C37.5117 82.7427 36.3191 85.0755 34.1698 83.9746C32.3343 83.1458 30.5449 82.2183 28.8095 81.1962C28.3824 80.8602 28.0974 80.3756 28.0114 79.839C27.9254 79.3023 28.0446 78.7529 28.3453 78.3002C28.646 77.8475 29.1062 77.5246 29.6342 77.3958C30.1622 77.267 30.7194 77.3418 31.1948 77.6053C32.1908 78.1557 33.0951 78.562 34.1174 79.1124C34.1174 79.1124 33.7242 80.0298 33.5145 80.554C32.9247 81.9301 34.5498 83.3587 36.8171 81.2224L36.7909 81.2355Z" fill="#F7C548"/>
<path d="M27.1583 85.3769C26.6804 85.0745 26.3421 84.5946 26.218 84.0428C26.0939 83.4911 26.194 82.9126 26.4964 82.4346C26.7988 81.9567 27.2787 81.6185 27.8305 81.4944C28.3823 81.3703 28.9607 81.4704 29.4387 81.7728C31.3652 82.7557 32.5316 83.3455 34.4188 84.394C37.04 85.888 35.3231 89.2693 32.5054 87.9325C30.6749 87.1853 28.8895 86.332 27.1583 85.3769Z" fill="#F7C548"/>
<path d="M26.0181 89.6363C25.5942 89.3356 25.2998 88.8858 25.194 88.377C25.0882 87.8682 25.1788 87.3383 25.4476 86.8936C25.7164 86.4489 26.1435 86.1223 26.6432 85.9796C27.1428 85.8368 27.678 85.8884 28.1412 86.1239C29.9367 86.9758 31.1555 87.5394 33.0034 88.5354C35.6245 89.9246 33.9863 93.2141 31.221 91.9953C29.4478 91.2978 27.7112 90.5104 26.0181 89.6363Z" fill="#F7C548"/>
<path d="M160.011 4.81628C160.096 6.02487 160.096 7.23797 160.011 8.44656C158.629 8.32881 157.241 8.30254 155.856 8.36793C155.856 7.28015 155.856 6.4676 155.856 5.41914C155.765 2.5752 159.867 2.45725 160.011 4.81628Z" fill="#F7C548"/>
<path d="M164.532 4.58031C164.624 6.11367 164.427 7.48977 164.27 10.6089C164.281 11.0442 164.152 11.4715 163.9 11.8269C163.648 12.1824 163.289 12.4469 162.874 12.5811C162.46 12.7152 162.014 12.7118 161.601 12.5713C161.189 12.4308 160.834 12.1608 160.588 11.8016C163.549 10.6745 163.13 8.60376 161.649 8.52512L160.116 8.44649C160.116 7.28008 160.234 6.28405 160.26 5.17006C160.325 2.12954 164.375 2.07712 164.532 4.58031Z" fill="#F7C548"/>
<path d="M168.923 4.72456C168.923 6.32345 168.752 7.50297 168.517 10.6483C168.281 13.7937 164.493 13.8461 164.506 10.8318C164.506 9.52125 164.598 7.66024 164.703 5.22257C164.834 2.24758 168.844 2.24758 168.923 4.72456Z" fill="#F7C548"/>
<path d="M173.353 5.64181C173.285 7.56024 173.101 9.47282 172.802 11.369C172.474 14.3964 168.87 14.3964 168.87 11.4607C168.936 9.48178 169.067 8.04015 169.211 6.03498C169.486 3.13862 173.353 3.25657 173.353 5.64181Z" fill="#F7C548"/>
<path d="M160.574 11.7884C160.823 12.1435 161.178 12.4099 161.589 12.5485C161.999 12.6872 162.444 12.6909 162.857 12.5592C163.269 12.4274 163.629 12.1671 163.884 11.8162C164.138 11.4653 164.273 11.0423 164.27 10.6089C164.362 8.80033 164.48 7.48976 164.532 6.38888C164.794 6.38888 164.532 6.04813 164.532 10.8317C164.532 13.8591 168.294 13.7674 168.543 10.6482C168.674 8.86586 168.818 7.5815 168.91 6.50683H169.25C169.132 8.02709 169.014 9.46872 168.949 11.4215C168.844 14.344 172.487 14.344 172.881 11.3297C173.13 8.9576 173.379 7.50287 173.431 6.21851C173.837 6.21851 173.431 15.5498 173.431 23.5967C168.806 24.6305 164.023 24.7419 159.356 23.9243C159.867 21.0411 157.822 19.0621 155.358 17.4632C153.432 16.2313 153.471 15.8512 153.707 12.1292C153.995 7.75187 154.205 8.13194 161.662 8.48579C163.117 8.59064 163.536 10.6744 160.574 11.7884Z" fill="#F7C548"/>
<path d="M122.699 65.3646C118.177 77.3039 107.509 80.2527 103.512 76.1375C106.708 73.6307 108.875 70.0412 109.606 66.0461C111.335 64.8353 112.677 63.1516 113.473 61.197C112.338 61.7845 111.154 62.2713 109.934 62.6517C104.482 64.3424 102.791 60.8825 104.574 48.8645C107.797 47.9257 111.138 47.4578 114.495 47.4753C113.8 50.0965 114.089 53.7267 115.242 51.276C116.395 48.8252 119.174 50.6862 117.221 53.8971C116.885 54.5487 116.748 55.284 116.825 56.0127C116.901 56.7415 117.189 57.4319 117.653 57.9992C117.492 59.6246 117.91 61.2547 118.833 62.6022C119.756 63.9497 121.125 64.928 122.699 65.3646Z" fill="#F7C548"/>
<path d="M158.674 173.067L192.421 88.4306L133.446 98.9152C133.343 98.9174 133.243 98.8831 133.164 98.8185C133.084 98.7539 133.03 98.6632 133.011 98.5625C132.992 98.4618 133.01 98.3576 133.061 98.2686C133.111 98.1796 133.192 98.1115 133.288 98.0764C197.415 86.7793 193.26 87.3821 193.496 87.6705C193.732 87.9588 195.96 81.904 159.526 173.447C159.501 173.503 159.465 173.554 159.421 173.596C159.376 173.638 159.324 173.671 159.267 173.693C159.21 173.715 159.149 173.725 159.088 173.724C159.026 173.722 158.966 173.708 158.91 173.683C158.854 173.658 158.804 173.623 158.762 173.578C158.719 173.534 158.686 173.481 158.665 173.424C158.643 173.367 158.632 173.306 158.634 173.245C158.636 173.184 158.649 173.123 158.674 173.067Z" fill="#005758"/>
<path d="M128.636 249.958C128.53 249.956 128.429 249.914 128.351 249.842C128.274 249.769 128.226 249.671 128.216 249.565L122.974 194.993C122.977 194.889 123.018 194.789 123.089 194.712C123.16 194.636 123.256 194.587 123.36 194.576C123.464 194.565 123.568 194.592 123.654 194.652C123.74 194.711 123.801 194.8 123.826 194.901L128.859 247.717L149.539 195.858C149.589 195.765 149.672 195.693 149.771 195.656C149.871 195.62 149.98 195.621 150.079 195.66C150.178 195.699 150.259 195.772 150.306 195.867C150.354 195.961 150.366 196.07 150.339 196.173C127.509 253.458 129.068 249.958 128.636 249.958Z" fill="#005758"/>
<path d="M35.3625 162.596C35.2929 162.593 35.2248 162.575 35.1637 162.541C35.1027 162.508 35.0503 162.461 35.0108 162.403C34.9713 162.346 34.9458 162.28 34.9363 162.211C34.9268 162.142 34.9336 162.072 34.9562 162.006L55.6239 110.12C55.6739 110.027 55.7565 109.955 55.856 109.919C55.9555 109.882 56.0649 109.883 56.1635 109.922C56.2622 109.961 56.3431 110.035 56.391 110.129C56.4389 110.224 56.4504 110.333 56.4233 110.435L36.0177 161.613L55.9515 158.087C56.0645 158.067 56.1811 158.091 56.2757 158.157C56.3704 158.222 56.4352 158.322 56.4561 158.435C56.477 158.548 56.4521 158.664 56.3869 158.759C56.3218 158.854 56.2218 158.918 56.1088 158.939C35.2838 162.596 35.4673 162.596 35.3625 162.596Z" fill="#005758"/>
<path d="M86.1077 59.4932C86.1077 59.2442 87.0514 59.8602 73.3559 52.4554C74.2733 50.909 75.2169 49.2576 76.1605 47.5277C76.188 47.4788 76.2054 47.4249 76.2117 47.3692C76.2179 47.3135 76.213 47.2571 76.1971 47.2034C76.1812 47.1496 76.1547 47.0996 76.1192 47.0563C76.0836 47.0129 76.0398 46.9771 75.9901 46.951C47.7211 31.696 73.1593 45.4439 44.8641 30.1102C44.8152 30.0827 44.7613 30.0653 44.7056 30.0591C44.6499 30.0528 44.5935 30.0577 44.5398 30.0736C44.486 30.0895 44.436 30.116 44.3926 30.1515C44.3493 30.1871 44.3135 30.231 44.2874 30.2806C43.3438 32.0105 42.4788 33.7012 41.6663 35.3132L29.111 28.5113C29.0621 28.4838 29.0083 28.4665 28.9526 28.4602C28.8969 28.4539 28.8405 28.4588 28.7867 28.4747C28.7329 28.4906 28.6829 28.5171 28.6396 28.5526C28.5962 28.5882 28.5605 28.6321 28.5344 28.6817C18.574 47.1083 26.883 62.1143 33.4621 65.9019C33.4621 69.0473 33.7898 71.6946 33.9601 74.1323L35.8473 75.207C36.8303 73.6081 37.669 73.8964 40.1067 75.1152C44.2612 77.1597 43.7108 77.0287 44.2088 80.5672C44.3398 80.5672 50.0408 77.4349 52.2164 76.0457C54.5358 77.1123 57.0691 77.6324 59.6211 77.566C67.7073 77.566 78.7817 73.2673 86.0684 59.7946C86.0961 59.7501 86.114 59.7002 86.1208 59.6482C86.1275 59.5962 86.1231 59.5433 86.1077 59.4932ZM33.4621 64.8928C27.2631 60.8824 19.9239 46.8069 29.111 29.5073L41.3124 36.0602C34.5368 50.1488 33.5276 59.1918 33.4621 64.8928ZM49.6477 58.3399L41.9808 59.2049L47.4852 53.7398L44.2874 46.702L51.1548 50.3192L56.8558 45.0769L55.6239 52.7044L62.334 56.5182L54.6934 57.6977L53.1076 65.2859L49.6477 58.3399ZM53.0551 75.4822C57.8125 72.3106 64.8503 66.5048 72.9103 53.2025L85.1117 59.7553C75.597 76.95 59.8046 78.5096 53.0551 75.4953V75.4822Z" fill="#005758"/>
<path d="M30.4872 182.752C30.2819 181.411 29.7331 180.146 28.8941 179.08C28.0552 178.013 26.9547 177.182 25.6995 176.667C24.4443 176.152 23.0772 175.971 21.7311 176.14C20.3851 176.31 19.1057 176.825 18.0176 177.635C16.9294 178.446 16.0695 179.524 15.5213 180.765C14.9731 182.006 14.7553 183.368 14.8892 184.718C15.023 186.068 15.5039 187.36 16.2851 188.47C17.0663 189.579 18.1212 190.467 19.3473 191.048C17.8648 194.092 17.4478 197.546 18.1631 200.856C18.8784 204.166 20.6846 207.139 23.2919 209.3C25.8992 211.46 29.1566 212.682 32.5415 212.77C35.9264 212.857 39.2427 211.806 41.9584 209.783C44.6741 207.761 46.6319 204.885 47.5177 201.617C48.4035 198.349 48.1659 194.878 46.8431 191.761C45.5204 188.644 43.1891 186.061 40.2231 184.428C37.2572 182.794 33.8285 182.204 30.4872 182.752ZM32.9248 211.912C30.5053 211.906 28.1272 211.284 26.0139 210.106C23.9007 208.928 22.1216 207.231 20.844 205.177C19.5664 203.122 18.8321 200.776 18.7101 198.36C18.5881 195.943 19.0825 193.536 20.1467 191.363C21.356 191.758 22.6424 191.857 23.8978 191.651C25.1532 191.445 26.3408 190.941 27.3606 190.18C28.3805 189.42 29.2028 188.426 29.7583 187.281C30.3138 186.137 30.5862 184.876 30.5527 183.604C32.5018 183.266 34.5 183.338 36.42 183.814C38.3401 184.29 40.1401 185.16 41.7056 186.37C43.2711 187.579 44.5678 189.101 45.5132 190.839C46.4587 192.576 47.0323 194.492 47.1975 196.463C47.3627 198.434 47.1159 200.418 46.4727 202.289C45.8296 204.16 44.8043 205.876 43.4619 207.329C42.1196 208.782 40.4895 209.94 38.6755 210.729C36.8614 211.518 34.903 211.921 32.9248 211.912Z" fill="#005758"/>
<path d="M19.3866 63.1496L14.4851 64.0146C13.3763 64.2088 12.2358 63.9548 11.3143 63.3085C10.3927 62.6621 9.76547 61.6764 9.57043 60.5678L8.70545 55.6793C8.68168 55.5708 8.61705 55.4756 8.52495 55.4134C8.43286 55.3512 8.32036 55.3269 8.21081 55.3454C8.10125 55.364 8.00303 55.424 7.93652 55.513C7.87001 55.602 7.84031 55.7132 7.85358 55.8235L8.71855 60.7119C8.8161 61.2656 8.80272 61.8332 8.67917 62.3817C8.55562 62.9302 8.32438 63.4487 7.99885 63.9071C7.67332 64.3656 7.26 64.7548 6.78286 65.0522C6.30571 65.3496 5.77426 65.5493 5.21933 65.6397L0.330901 66.5046C0.225546 66.5301 0.133592 66.5942 0.0732426 66.6842C0.0128935 66.7743 -0.0114507 66.8837 0.00503039 66.9908C0.0215114 67.0979 0.077615 67.195 0.162235 67.2627C0.246855 67.3304 0.353823 67.3639 0.461958 67.3565L5.3766 66.4915C5.93259 66.3844 6.50446 66.3902 7.05815 66.5087C7.61185 66.6272 8.13603 66.8559 8.5995 67.1811C9.06296 67.5064 9.45623 67.9216 9.75588 68.4021C10.0555 68.8825 10.2554 69.4184 10.3437 69.9777L11.2086 74.8792C11.2278 74.9904 11.2903 75.0895 11.3824 75.1546C11.4746 75.2198 11.5889 75.2456 11.7001 75.2265C11.8113 75.2074 11.9104 75.1449 11.9755 75.0527C12.0407 74.9605 12.0665 74.8463 12.0474 74.735L11.1955 69.8335C11.0013 68.7248 11.2553 67.5843 11.9016 66.6627C12.5479 65.7411 13.5337 65.1139 14.6423 64.9189L19.5308 64.0539C19.6507 64.0348 19.7581 63.9688 19.8294 63.8705C19.9006 63.7722 19.9299 63.6496 19.9108 63.5297C19.8917 63.4097 19.8257 63.3023 19.7274 63.231C19.6291 63.1598 19.5065 63.1305 19.3866 63.1496ZM10.4616 67.8414C9.75108 66.774 8.66618 66.0118 7.42109 65.7052C8.48054 64.9865 9.24039 63.905 9.55732 62.6647C10.276 63.7241 11.3575 64.484 12.5978 64.8009C11.5304 65.5114 10.7682 66.5963 10.4616 67.8414Z" fill="#005758"/>
<path d="M209.105 140.434C202.172 141.745 202.093 141.666 201.857 141.745C200.245 141.969 198.609 141.559 197.294 140.601C195.978 139.642 195.087 138.21 194.807 136.607L193.575 129.583C193.554 129.47 193.489 129.37 193.394 129.304C193.3 129.239 193.183 129.214 193.07 129.235C192.957 129.256 192.857 129.321 192.792 129.416C192.727 129.51 192.702 129.627 192.723 129.74L193.955 136.764C194.102 137.576 194.086 138.409 193.91 139.215C193.734 140.021 193.399 140.784 192.927 141.46C192.454 142.136 191.852 142.712 191.156 143.155C190.46 143.597 189.683 143.897 188.87 144.038L181.845 145.27C181.732 145.291 181.632 145.356 181.567 145.45C181.502 145.545 181.477 145.662 181.498 145.775C181.519 145.888 181.583 145.988 181.678 146.053C181.773 146.118 181.889 146.143 182.002 146.122L189.027 144.89C190.63 144.603 192.282 144.951 193.632 145.861C194.983 146.772 195.926 148.172 196.261 149.765C196.261 149.949 196.576 151.613 197.572 157C197.596 157.108 197.66 157.203 197.752 157.266C197.844 157.328 197.957 157.352 198.066 157.334C198.176 157.315 198.274 157.255 198.341 157.166C198.407 157.077 198.437 156.966 198.424 156.856C197.467 151.417 197.179 149.792 197.113 149.595C196.901 148.041 197.275 146.464 198.162 145.171C199.048 143.877 200.384 142.96 201.91 142.597C202.224 142.597 201.805 142.597 209.275 141.286C209.388 141.263 209.488 141.197 209.551 141.101C209.615 141.005 209.639 140.888 209.616 140.775C209.593 140.662 209.527 140.562 209.431 140.499C209.335 140.435 209.218 140.411 209.105 140.434ZM196.287 147.459C195.765 146.561 195.054 145.788 194.203 145.193C193.352 144.597 192.382 144.194 191.36 144.012C192.258 143.488 193.032 142.774 193.627 141.921C194.223 141.068 194.625 140.095 194.807 139.071C195.331 139.97 196.044 140.743 196.897 141.339C197.751 141.934 198.723 142.336 199.747 142.518C198.849 143.043 198.074 143.757 197.477 144.61C196.88 145.463 196.474 146.434 196.287 147.459Z" fill="#005758"/>
<path d="M193.142 52.2195C192.16 52.2169 191.201 51.9234 190.386 51.3761C189.571 50.8287 188.936 50.052 188.562 49.1442C188.189 48.2364 188.092 47.2381 188.285 46.2754C188.478 45.3128 188.952 44.4289 189.648 43.7356C190.343 43.0423 191.228 42.5705 192.191 42.3799C193.154 42.1893 194.152 42.2884 195.059 42.6647C195.966 43.0411 196.741 43.6777 197.286 44.4943C197.831 45.3108 198.122 46.2706 198.122 47.2525C198.122 47.9058 197.993 48.5528 197.743 49.1563C197.492 49.7598 197.125 50.3079 196.663 50.7693C196.2 51.2307 195.651 51.5963 195.047 51.8452C194.443 52.094 193.795 52.2212 193.142 52.2195ZM193.142 43.1373C192.328 43.1373 191.533 43.3786 190.856 43.8308C190.179 44.283 189.652 44.9257 189.34 45.6776C189.029 46.4296 188.947 47.257 189.106 48.0553C189.265 48.8536 189.657 49.5868 190.232 50.1623C190.808 50.7379 191.541 51.1298 192.339 51.2886C193.138 51.4474 193.965 51.3659 194.717 51.0544C195.469 50.7429 196.112 50.2155 196.564 49.5387C197.016 48.862 197.257 48.0664 197.257 47.2525C197.257 46.161 196.824 45.1143 196.052 44.3426C195.28 43.5708 194.233 43.1373 193.142 43.1373Z" fill="#005758"/>
<path d="M17.1455 127.643C16.5988 127.642 16.0648 127.478 15.6122 127.172C15.1596 126.865 14.809 126.43 14.6056 125.923C14.4022 125.416 14.3553 124.859 14.4709 124.325C14.5865 123.79 14.8593 123.303 15.2543 122.925C15.6492 122.547 16.1482 122.296 16.6871 122.204C17.226 122.112 17.78 122.183 18.278 122.409C18.776 122.634 19.1951 123.004 19.4814 123.469C19.7677 123.935 19.9081 124.476 19.8846 125.022C19.8574 125.729 19.5564 126.397 19.0453 126.887C18.5342 127.376 17.8529 127.647 17.1455 127.643ZM17.1455 123.043C16.78 123.046 16.4234 123.156 16.1196 123.359C15.8158 123.562 15.578 123.85 15.4356 124.187C15.2931 124.523 15.2522 124.894 15.3179 125.254C15.3836 125.613 15.553 125.946 15.8053 126.21C16.0575 126.475 16.3816 126.66 16.7377 126.742C17.0937 126.825 17.4662 126.802 17.8091 126.676C18.1521 126.549 18.4507 126.325 18.6681 126.032C18.8855 125.738 19.0123 125.387 19.0327 125.022C19.0416 124.769 18.9992 124.517 18.9081 124.281C18.8171 124.046 18.6793 123.831 18.503 123.649C18.3267 123.468 18.1155 123.324 17.8822 123.227C17.6489 123.13 17.3983 123.08 17.1455 123.082V123.043Z" fill="#005758"/>
<path d="M137.587 30.6607L139.723 22.0371L133.367 23.1642C133.297 23.1745 133.226 23.1677 133.16 23.1443C133.094 23.1209 133.034 23.0817 132.986 23.0301C132.938 22.9784 132.904 22.9159 132.886 22.8479C132.868 22.78 132.866 22.7086 132.882 22.64L135.175 13.3743C135.206 13.2661 135.278 13.174 135.375 13.1176C135.472 13.0613 135.587 13.045 135.697 13.0722C135.806 13.0995 135.9 13.1682 135.959 13.2637C136.018 13.3592 136.038 13.4741 136.014 13.5839L133.865 22.2075C140.719 20.9887 140.418 20.9756 140.614 21.2115C140.811 21.4474 140.903 20.7921 138.413 30.8573C138.4 30.9115 138.376 30.9626 138.344 31.0078C138.311 31.0529 138.27 31.0912 138.222 31.1204C138.175 31.1496 138.122 31.1692 138.067 31.178C138.012 31.1868 137.956 31.1847 137.901 31.1718C137.847 31.1589 137.796 31.1354 137.751 31.1028C137.706 31.0701 137.668 31.0289 137.638 30.9814C137.609 30.9339 137.59 30.8812 137.581 30.8262C137.572 30.7711 137.574 30.7149 137.587 30.6607Z" fill="#005758"/>
<path d="M37.4725 87.0939C36.9728 85.7749 36.8058 84.353 36.9864 82.954C37.167 81.5551 37.6895 80.2222 38.5078 79.0732C38.0368 79.8689 37.4591 80.5965 36.791 81.2357C37.5249 82.7428 36.3191 85.0757 34.1698 83.9748C32.7413 83.254 30.1201 81.9958 30.1201 81.9958C29.976 82.2579 29.7925 81.8123 34.445 84.4335C37.0662 85.9275 35.3493 89.3088 32.5316 87.972C30.9589 87.2119 29.7663 86.6614 28.7965 86.2421C28.6916 86.478 28.4819 86.0455 33.0558 88.4569C35.677 89.7675 34.0519 93.1357 31.2472 91.9299C30.225 91.4712 29.36 91.1043 28.6261 90.8028C28.661 90.7158 28.6667 90.6198 28.6423 90.5292C28.6178 90.4387 28.5646 90.3585 28.4907 90.3008C28.4167 90.2432 28.326 90.2111 28.2323 90.2094C28.1385 90.2078 28.0467 90.2367 27.9708 90.2917C25.8477 92.0086 23.2659 92.3624 18.4167 91.6023L38.9403 102.742C33.6063 96.8315 33.7635 94.0006 37.4725 87.0939Z" fill="#005758"/>
<path d="M17.5648 92.1526L13.0827 98.0764C13.0451 98.1264 13.0189 98.184 13.0057 98.2452C12.9926 98.3064 12.9929 98.3697 13.0066 98.4307C13.0203 98.4918 13.0471 98.5491 13.0851 98.5988C13.1231 98.6485 13.1715 98.6894 13.2269 98.7186L35.8604 110.972C35.9145 111.003 35.9745 111.02 36.0362 111.025C36.098 111.029 36.1599 111.019 36.2175 110.997C36.2751 110.974 36.327 110.939 36.3695 110.894C36.412 110.849 36.444 110.795 36.4633 110.736L38.9665 103.712L17.5648 92.1526Z" fill="#005758"/>
<path d="M167.232 175.177C167.203 175.148 167.168 175.125 167.13 175.109C167.092 175.094 167.051 175.085 167.009 175.086C165.593 174.941 164.166 174.941 162.75 175.086C162.473 174.419 162.144 173.775 161.767 173.159C161.731 173.101 161.68 173.053 161.621 173.018C161.562 172.984 161.495 172.965 161.426 172.962C156.472 172.687 133.904 171.94 131.912 171.783C131.912 171.783 127.522 151.548 126.526 146.279C133.236 141.718 139.16 129.609 129.632 112.912C132.109 104.158 135.398 92.6507 137.128 86.8973C167.271 70.122 172.435 66.9766 174.86 62.4551C176.76 58.9035 176.38 57.1342 176.38 22.0371C176.603 20.7921 175.069 20.045 173.759 19.796C173.759 16.8735 174.099 6.90002 173.759 6.11368V5.64187C173.759 3.25663 170.613 2.67998 169.316 4.51478C169.041 2.24749 165.974 1.82811 164.742 3.66291C164.502 3.25458 164.157 2.91876 163.742 2.69111C163.327 2.46346 162.858 2.35248 162.384 2.36995C161.911 2.38742 161.452 2.5327 161.055 2.79035C160.658 3.048 160.338 3.4084 160.129 3.83328C159.801 3.38002 159.337 3.04352 158.804 2.87299C158.271 2.70246 157.698 2.70684 157.168 2.88548C156.638 3.06413 156.179 3.40768 155.858 3.8659C155.537 4.32411 155.371 4.87296 155.384 5.43218C155.384 6.32337 155.384 7.0835 155.384 8.05332C153.72 8.36786 153.406 9.36389 153.209 12.234C152.973 15.9692 152.934 16.5458 155.057 17.9088C156.196 18.5937 157.2 19.4822 158.019 20.53C157.35 20.7265 156.223 21.2115 156.21 22.2468C156.105 28.3279 156.21 44.0416 155.791 51.6298C153.235 53.1763 138.36 60.6072 131.899 63.6084C129.335 64.9524 126.428 65.5 123.551 65.1811C117.339 64.1064 118.073 58.0385 118.033 57.9074C118.387 52.8355 122.345 46.2303 123.577 43.4912C125.294 39.6905 122.856 38.2489 120.694 39.6905C120.548 39.3742 120.325 39.0993 120.046 38.8907C119.767 38.682 119.44 38.5462 119.095 38.4954C118.751 38.4447 118.399 38.4807 118.071 38.6001C117.744 38.7195 117.452 38.9186 117.221 39.1794C116.96 38.8948 116.639 38.6714 116.281 38.5251C115.924 38.3789 115.539 38.3135 115.153 38.3335C114.767 38.3535 114.391 38.4585 114.05 38.641C113.71 38.8235 113.414 39.0789 113.184 39.3891C112.227 38.1965 110.013 38.7207 108.925 40.0182C107.955 39.0745 105.701 40.0968 105.255 42.3641C104.285 47.4229 101.73 60.0699 105.373 62.8483C105.975 63.2313 106.656 63.4718 107.364 63.5513C108.073 63.6308 108.791 63.5472 109.462 63.307C109.292 66.8324 107.863 72.9004 103.302 75.9016C95.0327 81.2094 74.8499 90.3572 68.297 93.0439C64.8633 91.327 60.4336 89.6757 47.8259 82.5593C47.4094 82.3723 46.9413 82.334 46.4999 82.4509C46.0585 82.5678 45.6707 82.8328 45.4014 83.2015C44.8834 81.9489 44.5692 80.6216 44.4709 79.2698C44.2088 76.6486 43.6976 76.4258 40.3033 74.7614C38.4029 73.8309 36.9351 73.0183 35.7163 74.6565L33.3965 73.346C32.8998 73.0901 32.3342 72.9997 31.7824 73.088C31.2307 73.1763 30.7215 73.4386 30.3293 73.8366C29.9372 74.2346 29.6824 74.7476 29.6024 75.3006C29.5223 75.8536 29.621 76.4178 29.8842 76.9107C29.4063 76.9381 28.945 77.0959 28.5504 77.3669C28.1558 77.6379 27.843 78.0117 27.6458 78.448C27.4486 78.8842 27.3747 79.366 27.432 79.8413C27.4893 80.3165 27.6756 80.767 27.9708 81.1439C27.5099 81.2311 27.0808 81.4404 26.7283 81.75C26.3759 82.0596 26.113 82.4581 25.9671 82.9039C25.8211 83.3497 25.7975 83.8265 25.8987 84.2846C25.9999 84.7427 26.2221 85.1652 26.5423 85.5081C26.0719 85.6274 25.6467 85.8815 25.3189 86.2393C24.9911 86.597 24.7749 87.0427 24.6969 87.5216C24.6189 88.0005 24.6826 88.4918 24.88 88.935C25.0775 89.3782 25.4001 89.7541 25.8083 90.0164C27.1189 90.7504 28.4295 91.2222 31.0506 92.3755C34.0518 93.5681 35.8473 90.5014 34.0518 88.6928C34.4958 88.6452 34.9171 88.4718 35.266 88.1931C35.6149 87.9144 35.877 87.5419 36.0215 87.1194C36.166 86.6969 36.1869 86.2418 36.0818 85.8078C35.9766 85.3738 35.7498 84.9789 35.4279 84.6693C35.7824 84.6278 36.1206 84.497 36.4109 84.2892C36.4084 86.1648 37.1154 87.972 38.3898 89.3481C38.4703 89.4213 38.5754 89.4616 38.6842 89.4608C38.793 89.46 38.8975 89.4183 38.9769 89.3438C39.0562 89.2694 39.1047 89.1678 39.1124 89.0593C39.1202 88.9508 39.0868 88.8433 39.0189 88.7583C36.9744 86.5434 36.4764 83.0704 38.8223 79.2698C38.8634 79.1753 38.8694 79.0693 38.8392 78.9708C38.8091 78.8723 38.7448 78.7878 38.6579 78.7325C38.571 78.6771 38.4672 78.6547 38.3652 78.6691C38.2632 78.6835 38.1697 78.7338 38.1015 78.8111L38.036 78.9159C35.4148 83.0573 33.2524 82.0482 33.8159 80.7114C35.69 76.2948 36.2405 74.8924 37.0137 74.6041C37.551 74.4075 38.3243 74.7483 39.9756 75.5346C43.2651 77.1597 43.3962 77.2122 43.6059 79.3222C43.9204 82.3627 44.6937 85.128 47.4328 86.3993C46.1315 90.6571 44.086 94.6505 41.391 98.1944C39.1237 96.7528 36.7254 95.5733 34.8382 94.2627C34.8122 94.5986 34.8122 94.936 34.8382 95.2718C35.808 95.8616 36.8827 96.4645 37.9835 97.0935C37.6166 98.5745 37.6952 100.2 38.7306 100.58C61.4821 114.419 66.0036 116.582 72.2681 114.852C78.7846 112.917 85.1387 110.471 91.2714 107.539C91.2714 107.683 93.329 124.904 93.6566 128.311C62.2029 142.597 56.7378 146.568 55.5714 153.618C54.405 160.669 57.7994 168.035 82.0449 207.771C82.0719 207.817 82.1078 207.857 82.1506 207.888C82.1934 207.92 82.2422 207.943 82.2939 207.955C84.2641 208.418 86.3007 208.529 88.3095 208.282C85.5048 215.713 83.0672 228.334 83.67 234.992C83.6771 235.065 83.7026 235.135 83.744 235.195C83.7855 235.255 83.8416 235.304 83.9071 235.337C83.9726 235.37 84.0453 235.385 84.1185 235.382C84.1916 235.379 84.2628 235.358 84.3253 235.319C93.9056 229.396 105.91 213.669 109.03 204.954C109.056 204.881 109.063 204.803 109.049 204.727C109.035 204.65 109.002 204.58 108.951 204.521C107.581 202.826 106.069 201.252 104.429 199.816C104.827 199.203 105.156 198.548 105.412 197.863C105.435 197.809 105.447 197.752 105.447 197.693C105.447 197.634 105.435 197.576 105.412 197.523C101.769 190.118 91.8873 170.25 88.0342 163.238C91.966 161.783 96.1991 160.211 100.38 158.559C104.508 170.669 109.921 190.249 116.002 193.08C122.083 195.911 125.097 196.448 161.413 196.5C161.924 196.5 162.789 195.19 163.104 194.561C167.035 199.161 176.721 205.189 183.038 206.054C183.099 206.064 183.162 206.06 183.221 206.043C183.281 206.025 183.336 205.995 183.383 205.953C183.429 205.912 183.466 205.861 183.49 205.803C183.514 205.746 183.525 205.684 183.522 205.622C183.352 193.171 171.963 179.004 167.232 175.177ZM31.4307 91.5236C29.6436 90.8434 27.8937 90.069 26.1884 89.2039C25.8234 88.9745 25.5646 88.6095 25.4687 88.1892C25.3728 87.7689 25.4479 87.3278 25.6773 86.9628C25.9067 86.5978 26.2717 86.339 26.692 86.2431C27.1122 86.1473 27.5534 86.2223 27.9184 86.4517C29.7532 87.3167 31.0244 87.9064 32.7806 88.8369C34.943 89.9378 33.698 92.5196 31.4307 91.5236ZM32.7413 87.5919C30.1201 86.2813 28.6916 85.8095 27.4334 84.9707C27.0581 84.724 26.7961 84.3382 26.7051 83.8982C26.6142 83.4583 26.7017 83.0002 26.9485 82.6248C27.1953 82.2494 27.5811 81.9874 28.0211 81.8965C28.461 81.8056 28.9191 81.8931 29.2945 82.1399C31.1555 83.0835 32.4398 83.7388 34.2746 84.761C36.3846 86.0192 35.0216 88.6928 32.7413 87.5788V87.5919ZM36.5943 81.9826C36.7385 83.1753 35.8211 84.3417 34.3664 83.5946C32.1646 82.4807 30.2905 81.6681 29.0323 80.8556C28.8447 80.7273 28.6842 80.5634 28.56 80.3732C28.4357 80.1829 28.3502 79.9701 28.3082 79.7467C28.2662 79.5234 28.2686 79.294 28.3153 79.0716C28.362 78.8493 28.452 78.6382 28.5802 78.4506C28.7084 78.263 28.8723 78.1025 29.0626 77.9783C29.2528 77.854 29.4657 77.7685 29.689 77.7265C29.9123 77.6845 30.1417 77.6869 30.3641 77.7336C30.5865 77.7803 30.7975 77.8703 30.9851 77.9985C31.8632 78.4703 32.6495 78.8504 33.6062 79.3091L33.1475 80.3837C32.3219 82.1006 34.2091 83.7519 36.5419 81.9695L36.5943 81.9826ZM33.9732 78.431C32.9907 77.9345 32.0368 77.3832 31.1161 76.7797C30.9363 76.6515 30.7835 76.4891 30.6664 76.3018C30.5493 76.1145 30.4702 75.906 30.4337 75.6881C30.3972 75.4703 30.404 75.2474 30.4536 75.0322C30.5032 74.8169 30.5948 74.6136 30.723 74.4337C30.8512 74.2539 31.0136 74.1011 31.2009 73.984C31.3882 73.8669 31.5967 73.7878 31.8145 73.7513C32.0324 73.7148 32.2552 73.7215 32.4705 73.7712C32.6857 73.8208 32.889 73.9124 33.0689 74.0406L35.3755 75.3511C34.8775 76.072 34.445 77.068 33.8683 78.4179L33.9732 78.431ZM169.355 11.4739C169.355 9.48184 169.539 8.06643 169.696 6.06125C169.879 3.70223 172.92 3.82018 172.933 5.64187C172.933 6.8476 172.75 7.85674 172.369 11.3166C172.094 13.7543 169.263 13.8854 169.355 11.4739ZM165.109 5.2356C165.227 2.78483 168.412 2.83725 168.477 4.73758C168.477 6.19231 168.281 7.80431 168.058 10.6089C167.861 13.2301 164.899 13.2956 164.912 10.8317C164.939 8.81345 165.03 7.37183 165.109 5.2356ZM160.653 5.2356C160.653 2.74551 163.969 2.7324 164.087 4.67205C164.178 6.13989 163.969 7.7781 163.811 10.6483C163.823 10.9423 163.751 11.2336 163.603 11.4884C163.456 11.7432 163.24 11.9511 162.979 12.0882C162.719 12.2253 162.425 12.2858 162.132 12.263C161.838 12.2401 161.557 12.1346 161.321 11.9588C164.021 10.6483 163.497 8.21059 161.636 8.11885H160.522C160.587 7.07039 160.666 6.17921 160.679 5.17007L160.653 5.2356ZM159.552 4.90795C159.618 5.95539 159.618 7.00589 159.552 8.05332C158.15 8.05332 157.062 7.93537 156.223 7.97469C156.223 7.05729 156.223 6.37579 156.223 5.4846C156.236 3.13868 159.408 3.06005 159.578 4.84242L159.552 4.90795ZM155.529 17.2011C153.825 16.1002 153.825 15.9692 154.074 12.2472C154.336 8.31544 154.336 8.6955 161.597 9.01004C162.907 9.07557 162.907 11.4739 157.783 12.0244C157.682 12.0497 157.593 12.1108 157.533 12.1964C157.473 12.2821 157.447 12.3864 157.458 12.4902C157.469 12.5941 157.517 12.6903 157.594 12.7613C157.671 12.8322 157.77 12.8731 157.875 12.8762C158.006 12.8762 164.257 11.9326 165.948 17.1487C165.994 17.2401 166.072 17.3119 166.167 17.3512C166.262 17.3905 166.368 17.3948 166.465 17.3632C166.563 17.3317 166.646 17.2664 166.701 17.1791C166.755 17.0918 166.776 16.9881 166.76 16.8866C166.487 16.039 166.047 15.2546 165.466 14.5794C164.886 13.9043 164.176 13.3519 163.379 12.9549C163.745 12.7717 164.054 12.4904 164.27 12.1423C164.44 12.5592 164.728 12.9173 165.099 13.1726C165.469 13.4278 165.907 13.569 166.357 13.5788C166.807 13.5885 167.25 13.4664 167.631 13.2275C168.012 12.9885 168.316 12.6432 168.503 12.234C168.936 14.8552 172.343 14.8552 173.077 12.1423C173.077 15.8905 172.854 20.2285 172.933 23.4394C168.595 24.3212 164.135 24.4233 159.762 23.7409C159.945 21.7095 159.408 19.6126 155.555 17.1356L155.529 17.2011ZM109.947 66.3082C111.709 65.0554 113.074 63.322 113.879 61.3149C113.907 61.2346 113.912 61.1477 113.891 61.0649C113.87 60.9822 113.826 60.9075 113.763 60.8501C113.7 60.7926 113.621 60.7551 113.537 60.7422C113.452 60.7294 113.366 60.7416 113.289 60.7776C111.271 61.7736 107.68 63.3987 105.91 62.0882C104.141 60.7776 103.853 56.8459 104.954 49.1922C107.89 48.3882 110.914 47.9481 113.957 47.8816C113.643 49.4281 113.42 52.1409 114.351 52.4817C115.032 52.7176 115.451 51.8002 115.661 51.4463C116.578 49.4936 118.518 51.0532 116.88 53.6088C116.513 54.3133 116.351 55.1064 116.411 55.8985C116.471 56.6905 116.752 57.4499 117.221 58.0909C117.055 59.7336 117.461 61.3832 118.371 62.7609C119.281 64.1387 120.638 65.1602 122.214 65.6529C121.477 68.3351 120.048 70.7764 118.07 72.7317C116.091 74.687 113.634 76.0875 110.943 76.7928C108.23 77.4743 105.701 77.2384 104.272 76.2161C107.317 73.7229 109.337 70.1959 109.947 66.3082ZM90.5899 93.4632C90.5722 93.3631 90.5199 93.2723 90.442 93.207C90.3641 93.1416 90.2656 93.1058 90.1639 93.1058C90.0622 93.1058 89.9638 93.1416 89.8859 93.207C89.808 93.2723 89.7556 93.3631 89.738 93.4632C89.8559 94.7738 90.0263 96.5169 90.236 98.4827C87.9032 101.261 80.8523 108.967 74.1815 113.345C66.8161 115.638 65.5055 115.848 40.0936 100.475C41.6793 99.6753 43.6976 96.9494 45.9256 92.5196C47.0265 90.3441 48.822 86.3599 48.5467 83.9223C52.2163 86.0716 58.2974 89.3349 67.6811 93.686C68.0611 93.8564 68.2315 94.0006 68.4805 93.9088C74.7975 91.2877 94.9541 82.2054 103.538 76.6748C107.47 80.0823 119.685 77.1991 123.04 65.8364C126.228 66.323 129.489 65.7765 132.345 64.2768C139.186 61.1052 154.546 53.4253 156.525 52.1147C156.583 52.0823 156.633 52.035 156.667 51.9774C156.702 51.9199 156.72 51.8542 156.721 51.7871C157.128 44.7886 157.193 30.3986 157.167 23.505C160.247 25.6543 172.592 25.2742 175.593 23.1642C175.593 56.9245 175.934 58.7069 174.165 62.0095C171.439 67.1208 162.815 71.6422 130.169 89.7805C130.098 89.8213 130.04 89.8808 130.001 89.9524C129.961 90.0241 129.943 90.1052 129.946 90.1868C130.366 95.7567 130.851 101.589 130.851 105.665L128.911 112.506C116.602 112.41 104.499 115.673 93.9056 121.942C92.8047 112.965 91.0748 99.1511 90.5899 93.4632ZM56.4102 153.75C57.7207 146.253 64.2736 142.295 106.513 123.475C106.609 123.423 106.681 123.337 106.715 123.233C106.75 123.13 106.744 123.018 106.7 122.919C106.655 122.819 106.575 122.741 106.475 122.698C106.374 122.656 106.262 122.652 106.159 122.689C101.926 124.576 98.0339 126.306 94.4823 127.931C94.3643 126.621 94.1808 124.917 93.9449 122.872C101.89 118.052 110.781 115.003 120.012 113.934C125.254 131.732 122.83 134.904 118.453 137.525C113.643 140.513 84.7971 152.544 73.6966 158.153C73.6464 158.177 73.6015 158.21 73.5644 158.252C73.5273 158.293 73.4988 158.341 73.4805 158.394C73.4623 158.446 73.4546 158.502 73.4579 158.557C73.4613 158.613 73.4756 158.667 73.5 158.717C75.7935 163.513 86.8678 187.156 92.3853 197.916C87.942 199.91 83.0066 200.539 78.205 199.724C57.4848 165.505 55.401 159.778 56.4102 153.763V153.75ZM107.195 203.813L108.138 204.888C105.006 213.341 93.7221 228.151 84.5481 234.192C84.5027 233.319 84.5027 232.444 84.5481 231.571C89.8035 228.111 101.507 216.762 107.195 203.826V203.813ZM104.574 197.719C101.73 204.849 89.3186 208.82 82.7133 207.155L78.7816 200.76C86.5664 202.07 97.2476 198.925 101.284 191.14L104.574 197.719ZM83.4604 163.985C83.3652 164.02 83.2852 164.087 83.2344 164.174C83.1836 164.262 83.1652 164.365 83.1823 164.465C83.1995 164.564 83.2512 164.655 83.3283 164.721C83.4055 164.786 83.5032 164.823 83.6045 164.824C84.8309 164.459 86.0344 164.022 87.2086 163.513C89.4103 167.445 94.9147 178.296 100.812 190.157C99.1922 193.441 96.4889 196.066 93.1586 197.588C87.7721 187.104 77.1434 164.391 74.4567 158.769C85.898 153.042 114.01 141.338 118.911 138.285C124.154 135.008 125.818 130.421 120.877 113.816C123.498 113.528 126.119 113.371 128.924 113.332C137.535 128.469 133.459 141.207 125.294 145.991C113.617 152.858 96.2777 159.385 83.4604 163.985ZM116.343 192.293C111.69 190.144 107.169 176.488 103.473 165.23C106.513 161.692 114.744 153.723 117.719 151.01C121.1 149.359 123.996 147.786 125.752 146.738C126.775 152.124 131.139 172.242 131.139 172.242C131.283 172.871 131.047 172.569 153.419 173.421C156.433 177.051 158.019 189.004 152.934 195.609C124.101 195.439 121.742 194.797 116.343 192.293ZM161.243 195.648H154.021C158.831 188.781 157.337 177.733 154.546 173.5C156.905 173.592 159.159 173.696 161.099 173.801C164.545 179.476 164.703 192.713 161.243 195.648ZM181.426 204.822C180.757 194.6 170.64 180.656 165.921 175.806C166.21 175.806 166.511 175.806 166.8 175.885C171.413 179.699 182.199 193.158 182.644 205.085C182.234 205.033 181.827 204.958 181.426 204.862V204.822Z" fill="#005758"/>
</svg>
