<svg width="218" height="250" viewBox="0 0 218 250" fill="none" xmlns="http://www.w3.org/2000/svg">
<path d="M124.558 207.053C124.558 207.053 125.294 200.121 125.228 200.108L127.46 200.646L131.306 163.886L119.648 147.646L117.626 167.417C117.501 169.371 116.921 171.268 115.931 172.957C114.942 174.647 113.571 176.081 111.928 177.146C110.201 178.295 108.206 178.98 106.137 179.137C104.068 179.293 101.993 178.915 100.113 178.038L63.5754 161.313L62.8664 163.938L56.4465 160.984L58.4158 154.669C56.3775 153.62 54.2102 152.843 51.9696 152.359C63.943 209.272 65.8204 218.514 66.2274 219.932C66.3455 220.313 66.3981 220.287 66.4637 220.287L128.169 218.422C128.223 218.41 128.272 218.379 128.307 218.335C128.342 218.29 128.361 218.236 128.361 218.18C128.361 218.123 128.342 218.069 128.307 218.025C128.272 217.98 128.223 217.949 128.169 217.937L129.272 208.182L124.558 207.053Z" fill="#005758"/>
<path d="M31.9877 57.5038C32.1977 58.5409 33.5369 65.1053 35.4537 74.5711C49.8952 75.687 81.4042 78.0502 95.9245 78.8642C96.0821 78.8642 98.3402 78.5754 99.338 78.4835C101.36 78.2865 102.751 78.1815 103.277 78.0765C107.583 77.2494 106.729 71.9716 106.729 71.9716C105.784 68.3087 97.9464 62.2039 97.9464 62.2039C94.9268 59.1449 98.8654 58.5672 98.8654 58.5672C98.6983 58.2696 98.62 57.9305 98.6397 57.5898C98.6594 57.2491 98.7763 56.9212 98.9766 56.6449C99.1769 56.3686 99.4522 56.1555 99.7699 56.0309C100.088 55.9062 100.434 55.8752 100.769 55.9415C100.992 56.0465 101.347 55.5345 101.557 55.1931L32.224 57.2149C32.188 57.214 32.1523 57.2214 32.1196 57.2364C32.0868 57.2514 32.058 57.2737 32.0352 57.3015C32.0124 57.3294 31.9962 57.3621 31.988 57.3972C31.9798 57.4322 31.9797 57.4687 31.9877 57.5038Z" fill="#005758"/>
<path d="M128.654 113.905C147.691 147.567 145.84 144.101 146.063 145.177C146.082 145.237 146.122 145.287 146.176 145.319C146.229 145.35 146.293 145.361 146.354 145.347C146.415 145.334 146.469 145.299 146.505 145.248C146.541 145.197 146.557 145.134 146.549 145.072L134.339 87.0303L128.654 90.3781V113.905Z" fill="#005758"/>
<path d="M183.519 19.0366C183.511 18.9969 183.493 18.9598 183.467 18.9286C183.441 18.8973 183.408 18.8729 183.371 18.8573C183.333 18.8418 183.292 18.8357 183.252 18.8395C183.211 18.8433 183.173 18.8569 183.139 18.8791L127.105 54.3266L111.587 54.8255C113.215 56.9655 119.254 65.3285 116.537 68.8995C116.043 69.4538 115.436 69.8946 114.756 70.1915C114.076 70.4884 113.34 70.6344 112.598 70.6194C112.651 71.8369 113.152 72.9919 114.005 73.862C114.858 74.7321 116.003 75.2559 117.219 75.3326L130.348 67.8624L127.578 54.7336L183.139 19.5487L217.273 181.623L161.647 216.847L152.929 175.4C152.911 175.34 152.871 175.29 152.817 175.258C152.763 175.227 152.699 175.216 152.638 175.23C152.577 175.243 152.524 175.278 152.488 175.329C152.452 175.38 152.436 175.443 152.444 175.505C152.654 176.555 152.929 173.26 149.568 202.839L151.564 202.931L151.026 209.744L146.089 209.902C145.655 212.566 145.483 215.266 145.577 217.963L161.489 217.49C161.489 217.49 161.489 217.49 161.726 217.372C162.671 216.821 169.183 212.633 217.68 181.925C217.93 181.741 219.426 189.093 183.519 19.0366Z" fill="#005758"/>
<path d="M48.3723 135.357C48.3723 135.488 52.521 134.228 52.521 134.228L64.9539 140.005L68.0523 134.832L74.6166 137.589C74.2884 137.93 72.9362 140.123 72.9362 140.123L92.4454 148.919C87.7716 124.001 98.4584 115.191 98.4584 115.191L94.8349 97.7565L39.4973 90.8376L48.3723 135.357Z" fill="#005758"/>
<path d="M173.292 10.9362C173.056 5.99983 171.717 5.04143 170.574 10.3586C170.314 11.8465 169.941 13.3124 169.459 14.7436C169.353 12.7349 169.157 9.71525 168.96 6.86632C168.618 1.89054 167.095 1.22097 166.084 6.95822C165.776 9.08313 165.257 11.1721 164.535 13.1944C164.089 10.4505 163.354 6.23614 162.605 3.57101C161.292 -1.03717 159.783 -0.971524 159.691 4.20119C159.691 4.92327 159.494 11.6846 159.441 13.4701C158.851 11.9997 158.05 9.97783 157.301 7.90349C155.752 3.68917 153.612 3.7942 154.676 8.92753C154.794 9.49206 155.831 15.1768 156.146 16.8048C156.33 17.8419 156.435 20.4283 155.568 20.7434C152.943 21.7018 146.641 19.2861 145.709 21.3998C145.105 22.7783 149.555 24.0256 152.496 25.2071C154.203 25.8898 155.122 28.6731 154.781 30.5899C153.468 37.5481 154.374 32.3229 150.343 56.8474L128.563 68.9127L128.786 90.3912L161.936 70.9082C163.669 69.8917 165.141 68.4837 166.233 66.7967C167.325 65.1098 168.007 63.1907 168.224 61.193C169.052 53.552 170.364 41.4999 171.52 32.9137C172.566 25.6318 173.158 18.2918 173.292 10.9362Z" fill="#F7C548"/>
<path d="M95.9508 78.838L32.3027 74.3874C30.2547 74.2298 27.4582 72.72 26.9331 71.0396C26.0272 68.1512 25.187 63.8975 23.6903 64.1076C21.3928 64.4095 23.2177 70.6719 21.9442 72.6675C21.4978 73.3765 18.7539 72.6675 17.7692 72.208L9.6557 68.9783C4.40421 66.799 4.07599 68.6633 8.34283 71.0658C11.6907 72.9695 14.2114 74.5449 14.9728 75.0044C12.5046 74.3349 7.62075 73.0482 4.74556 72.313C-0.860404 70.882 -0.847277 72.7594 3.78716 74.5449C8.05399 76.186 13.1742 78.2341 13.5418 78.3916C11.4543 78.1159 8.00148 77.617 4.67991 76.9475C-1.03108 75.7921 -0.768504 77.5251 3.91845 79.2187C7.51572 80.5316 11.1918 81.6607 12.5703 82.002C10.5609 81.9597 8.5566 81.7843 6.57045 81.4769C0.754428 80.5579 1.14829 82.2909 6.1372 83.8007C9.6557 84.8772 11.8482 85.2448 18.3469 87.0172C24.5066 88.5376 30.7428 89.7296 37.0291 90.5882L94.8742 97.7302L96.686 106.29C104.865 110.636 95.9508 78.838 95.9508 78.838Z" fill="#F7C548"/>
<path d="M117.154 75.3326C115.959 75.2153 114.845 74.6743 114.015 73.8074C113.184 72.9406 112.691 71.8051 112.624 70.6062C115.749 70.5143 120.278 68.44 114.567 58.9217C108.384 48.6288 105.088 56.7292 105.666 61.1667C105.666 61.9807 105.259 62.1907 103.946 61.3374C101.202 59.565 99.5481 64.1994 104.629 66.1162C105.587 66.4838 109.395 76.4485 103.644 77.9321L102.213 78.129L104.839 89.9448L122.208 88.435V72.4574L117.154 75.3326Z" fill="#F7C548"/>
<path d="M40.3638 32.3623C40.1456 30.987 39.6208 29.6785 38.8283 28.5335C38.0357 27.3886 36.9957 26.4367 35.7853 25.7483C34.5749 25.0598 33.2251 24.6526 31.8359 24.5566C30.4467 24.4607 29.0538 24.6786 27.7602 25.1941C27.3127 24.5026 26.7049 23.9292 25.9884 23.5228C25.272 23.1163 24.4681 22.8887 23.6449 22.8592C22.8217 22.8298 22.0036 22.9994 21.2599 23.3536C20.5163 23.7078 19.8691 24.2362 19.3732 24.894C18.8774 25.5517 18.5475 26.3194 18.4117 27.1318C18.2759 27.9443 18.3381 28.7775 18.593 29.5607C18.8479 30.344 19.288 31.0542 19.876 31.6311C20.464 32.2079 21.1825 32.6344 21.9705 32.8744C21.8291 34.1932 21.9721 35.527 22.3897 36.7859C22.8073 38.0449 23.4899 39.1997 24.3914 40.1725C25.293 41.1454 26.3926 41.9138 27.6162 42.4259C28.8397 42.9379 30.1588 43.1818 31.4846 43.1411C32.8103 43.1004 34.112 42.776 35.3018 42.1898C36.4916 41.6036 37.542 40.7692 38.3821 39.7428C39.2223 38.7165 39.8327 37.5219 40.1723 36.2397C40.5119 34.9576 40.5727 33.6175 40.3507 32.3098L40.3638 32.3623ZM32.631 42.524C31.3087 42.7391 29.9547 42.6493 28.6723 42.2615C27.39 41.8736 26.2131 41.198 25.2316 40.2862C24.2501 39.3743 23.4899 38.2503 23.0089 37C22.5279 35.7496 22.3389 34.4058 22.4562 33.0713C23.401 33.2597 24.3798 33.1777 25.2801 32.8347C26.1804 32.4918 26.9657 31.9018 27.5457 31.1325C28.1257 30.3633 28.477 29.446 28.559 28.4861C28.6411 27.5262 28.4507 26.5626 28.0097 25.7061C29.1593 25.2369 30.3953 25.0167 31.6362 25.0602C32.8772 25.1037 34.0948 25.4098 35.2087 25.9583C36.3227 26.5068 37.3077 27.2853 38.0987 28.2424C38.8898 29.1995 39.4689 30.3134 39.7979 31.5107C40.1269 32.708 40.1983 33.9615 40.0074 35.1884C39.8165 36.4153 39.3676 37.5878 38.6903 38.6285C38.0131 39.6693 37.1228 40.5545 36.0784 41.226C35.0339 41.8975 33.8589 42.3399 32.631 42.524Z" fill="#005758"/>
<path d="M182.154 219.735C182.102 219.71 182.06 219.667 182.036 219.614C182.012 219.56 182.008 219.501 182.023 219.444C182.039 219.388 182.073 219.339 182.121 219.306C182.169 219.273 182.227 219.258 182.285 219.263C194.364 222.952 193.34 205.478 205.825 209.298C205.888 209.319 205.939 209.364 205.969 209.423C205.999 209.482 206.003 209.55 205.983 209.613C205.974 209.644 205.959 209.672 205.938 209.697C205.918 209.721 205.893 209.741 205.865 209.756C205.837 209.771 205.806 209.78 205.774 209.782C205.743 209.785 205.711 209.781 205.681 209.771C193.484 206.042 194.744 223.595 182.154 219.735Z" fill="#005758"/>
<path d="M29.2963 174.546C29.2415 174.534 29.1927 174.503 29.1577 174.458C29.1227 174.414 29.1037 174.36 29.1037 174.303C29.1037 174.247 29.1227 174.193 29.1577 174.148C29.1927 174.104 29.2415 174.073 29.2963 174.061L33.852 173.037C33.885 173.026 33.9198 173.023 33.9542 173.027C33.9886 173.031 34.0217 173.042 34.0516 173.059C34.0815 173.077 34.1074 173.1 34.1277 173.128C34.148 173.156 34.1623 173.188 34.1696 173.222C34.1769 173.256 34.1771 173.291 34.1701 173.325C34.1632 173.359 34.1493 173.391 34.1293 173.419C34.1093 173.447 34.0837 173.471 34.054 173.489C34.0244 173.507 33.9913 173.518 33.957 173.522C30.189 174.376 29.4276 174.546 29.2963 174.546Z" fill="#005758"/>
<path d="M42.0049 171.697C41.9501 171.685 41.9012 171.654 41.8662 171.61C41.8313 171.565 41.8123 171.511 41.8123 171.455C41.8123 171.398 41.8313 171.344 41.8662 171.3C41.9012 171.255 41.9501 171.224 42.0049 171.212L46.5605 170.188C46.6224 170.18 46.685 170.195 46.7359 170.232C46.7868 170.268 46.8224 170.321 46.8356 170.382C46.8487 170.443 46.8386 170.507 46.8071 170.561C46.7757 170.615 46.7251 170.655 46.6655 170.673C42.7663 171.527 42.0705 171.697 42.0049 171.697Z" fill="#005758"/>
<path d="M36.7534 168.376L35.7294 163.82C35.7217 163.789 35.7203 163.757 35.7255 163.725C35.7306 163.694 35.7422 163.663 35.7594 163.636C35.7765 163.609 35.799 163.586 35.8255 163.568C35.8519 163.55 35.8818 163.538 35.9132 163.531C35.9451 163.524 35.9782 163.522 36.0107 163.527C36.0431 163.532 36.0743 163.543 36.1023 163.561C36.1304 163.578 36.1548 163.6 36.1742 163.627C36.1935 163.653 36.2074 163.683 36.2151 163.715L37.2392 168.271C37.247 168.333 37.2313 168.395 37.1953 168.446C37.1592 168.497 37.1054 168.533 37.0444 168.546C36.9834 168.559 36.9197 168.549 36.8659 168.517C36.812 168.486 36.7719 168.435 36.7534 168.376Z" fill="#005758"/>
<path d="M39.6024 181.019L38.5652 176.463C38.5574 176.401 38.573 176.339 38.6091 176.288C38.6452 176.237 38.699 176.201 38.76 176.188C38.8209 176.175 38.8846 176.185 38.9385 176.217C38.9924 176.248 39.0325 176.299 39.051 176.358L40.075 180.914C40.0889 180.976 40.0774 181.042 40.0429 181.096C40.0084 181.15 39.9539 181.189 39.8912 181.203C39.8285 181.217 39.7629 181.205 39.7087 181.171C39.6545 181.136 39.6163 181.082 39.6024 181.019Z" fill="#005758"/>
<path d="M34.3902 170.398C34.2589 170.398 34.3902 170.463 30.3203 167.864C30.2727 167.826 30.2408 167.771 30.2306 167.711C30.2204 167.651 30.2326 167.589 30.265 167.537C30.2973 167.485 30.3476 167.447 30.4062 167.43C30.4648 167.413 30.5276 167.418 30.5829 167.444L34.5215 169.938C34.5667 169.967 34.6014 170.01 34.6203 170.06C34.6393 170.11 34.6416 170.165 34.6269 170.217C34.6121 170.268 34.5811 170.314 34.5385 170.346C34.4959 170.379 34.4439 170.397 34.3902 170.398Z" fill="#005758"/>
<path d="M45.3527 177.316C45.2214 177.316 45.3527 177.395 41.2697 174.783C41.243 174.765 41.2199 174.743 41.2018 174.717C41.1837 174.691 41.171 174.661 41.1643 174.63C41.1576 174.599 41.157 174.567 41.1627 174.536C41.1684 174.504 41.1802 174.475 41.1975 174.448C41.2147 174.421 41.2371 174.398 41.2632 174.38C41.2894 174.362 41.3188 174.349 41.3499 174.342C41.381 174.336 41.4131 174.335 41.4444 174.341C41.4757 174.347 41.5055 174.358 41.5323 174.376L45.4709 176.87C45.5189 176.895 45.557 176.935 45.5789 176.984C45.6009 177.033 45.6053 177.089 45.5915 177.141C45.5777 177.193 45.5465 177.239 45.5031 177.271C45.4596 177.303 45.4066 177.319 45.3527 177.316Z" fill="#005758"/>
<path d="M40.1144 169.111C40.0701 169.111 40.0267 169.099 39.9887 169.076C39.9507 169.053 39.9194 169.021 39.898 168.982C39.8766 168.943 39.8659 168.9 39.867 168.855C39.8681 168.811 39.881 168.768 39.9043 168.73L42.3987 164.792C42.437 164.744 42.4914 164.712 42.5516 164.702C42.6118 164.692 42.6737 164.704 42.7255 164.736C42.7772 164.769 42.8154 164.819 42.8326 164.878C42.8498 164.936 42.8449 164.999 42.8189 165.054C40.1143 169.321 40.3113 169.111 40.1144 169.111Z" fill="#005758"/>
<path d="M33.1955 180.113C33.1513 180.112 33.1079 180.1 33.0699 180.078C33.0318 180.055 33.0005 180.023 32.9792 179.984C32.9578 179.945 32.9471 179.901 32.9482 179.857C32.9493 179.813 32.9622 179.77 32.9855 179.732L35.4799 175.794C35.5147 175.74 35.5696 175.702 35.6324 175.688C35.6951 175.675 35.7607 175.686 35.8147 175.721C35.8687 175.756 35.9066 175.811 35.9201 175.874C35.9337 175.937 35.9217 176.002 35.8869 176.056C33.1824 180.27 33.3793 180.113 33.1955 180.113Z" fill="#005758"/>
<path d="M212.678 89.9186C212.678 89.7873 211.969 88.8289 209.593 85.0347C209.558 84.9794 209.502 84.9401 209.438 84.9253C209.375 84.9106 209.307 84.9216 209.252 84.9559L180.474 103.139L183.322 90.4963C183.33 90.4644 183.332 90.4312 183.327 90.3988C183.322 90.3663 183.31 90.3352 183.293 90.3071C183.276 90.2791 183.254 90.2546 183.227 90.2353C183.201 90.2159 183.171 90.202 183.139 90.1943L177.546 88.8814C177.483 88.8694 177.419 88.8818 177.365 88.916C177.311 88.9501 177.273 89.0035 177.257 89.0652L172.741 109.047C172.56 109.851 172.707 110.694 173.147 111.391C173.588 112.088 174.287 112.581 175.091 112.763C194.692 117.187 194.994 117.279 195.125 117.279C195.181 117.279 195.235 117.261 195.28 117.228C195.325 117.195 195.358 117.148 195.375 117.095L196.687 111.502C196.695 111.47 196.696 111.437 196.69 111.405C196.684 111.372 196.671 111.341 196.653 111.314C196.634 111.287 196.61 111.264 196.582 111.247C196.554 111.229 196.523 111.218 196.491 111.213L183.795 108.404L212.573 90.2206C212.622 90.1888 212.658 90.142 212.677 90.0874C212.696 90.0328 212.696 89.9735 212.678 89.9186Z" fill="#005758"/>
<path d="M203.488 63.6349L208.057 57.1756L201.65 52.7643C201.627 52.7411 201.608 52.7135 201.595 52.6831C201.583 52.6527 201.576 52.6201 201.576 52.5871C201.576 52.5541 201.583 52.5215 201.595 52.4911C201.608 52.4607 201.627 52.4331 201.65 52.4099L206.114 45.8849L199.615 41.1717C199.587 41.1545 199.563 41.1317 199.545 41.1048C199.526 41.0779 199.514 41.0475 199.508 41.0154C199.501 40.9833 199.502 40.9503 199.509 40.9185C199.516 40.8866 199.53 40.8566 199.55 40.8303L204.171 34.3841L197.528 29.6841C197.475 29.6469 197.438 29.5904 197.426 29.5267C197.413 29.463 197.426 29.397 197.462 29.3427C197.484 29.3176 197.512 29.2974 197.542 29.2836C197.573 29.2698 197.606 29.2627 197.639 29.2627C197.673 29.2627 197.706 29.2698 197.737 29.2836C197.767 29.2974 197.794 29.3176 197.817 29.3427L204.657 34.1741C204.684 34.1913 204.708 34.214 204.727 34.2409C204.745 34.2678 204.758 34.2983 204.764 34.3304C204.77 34.3624 204.77 34.3954 204.763 34.4273C204.755 34.4591 204.742 34.4892 204.722 34.5154L200.153 40.9485L206.652 45.6748C206.696 45.7211 206.72 45.7821 206.72 45.8455C206.72 45.9089 206.696 45.9699 206.652 46.0162L202.175 52.4361L208.621 56.8999C208.65 56.9184 208.674 56.9423 208.692 56.9704C208.711 56.9984 208.724 57.03 208.73 57.0631C208.736 57.0962 208.735 57.1302 208.728 57.1631C208.721 57.196 208.707 57.227 208.687 57.2544L203.974 63.9238C203.936 63.9882 203.873 64.0347 203.801 64.0532C203.728 64.0717 203.651 64.0605 203.587 64.0222C203.522 63.9839 203.476 63.9216 203.457 63.849C203.439 63.7763 203.45 63.6993 203.488 63.6349Z" fill="#005758"/>
<path d="M208.923 50.5324L213.492 44.0731L207.046 39.6356C207.018 39.6184 206.994 39.5956 206.976 39.5687C206.957 39.5418 206.945 39.5114 206.938 39.4793C206.932 39.4472 206.933 39.4142 206.94 39.3824C206.947 39.3505 206.961 39.3205 206.98 39.2943L211.549 32.8218L205.05 28.0955C205.007 28.0492 204.983 27.9882 204.983 27.9248C204.983 27.8614 205.007 27.8004 205.05 27.7541L209.567 21.2554L202.91 16.5684C202.648 16.3715 202.91 15.9645 203.199 16.1615L210.053 21.006C210.096 21.0522 210.12 21.1132 210.12 21.1766C210.12 21.24 210.096 21.3011 210.053 21.3473L205.536 27.8198L212.035 32.533C212.063 32.5502 212.087 32.5729 212.105 32.5998C212.124 32.6267 212.136 32.6572 212.143 32.6893C212.149 32.7213 212.148 32.7543 212.141 32.7862C212.134 32.818 212.12 32.848 212.101 32.8743L207.532 39.3468C214.398 44.0994 214.096 43.8237 214.096 43.9681C214.096 44.1125 214.477 43.6136 209.344 50.8213C209.305 50.877 209.246 50.9152 209.18 50.9275C209.113 50.9398 209.045 50.9252 208.989 50.8869C208.933 50.8486 208.895 50.7897 208.883 50.7233C208.871 50.6568 208.885 50.5882 208.923 50.5324Z" fill="#005758"/>
<path d="M122.09 95.9053L106.624 97.1C106.592 97.1017 106.56 97.1098 106.53 97.1239C106.5 97.1381 106.474 97.1579 106.452 97.1823C106.43 97.2067 106.413 97.2351 106.402 97.2661C106.391 97.297 106.386 97.3298 106.388 97.3626C107.242 107.866 107.425 110.649 107.504 111.384C107.504 111.686 107.504 111.634 107.609 111.66C114.896 115.835 116.694 116.911 117.18 117.121C117.443 117.266 117.443 117.226 117.666 116.99C118.099 116.504 119.294 115.06 123.311 110.347C123.353 110.307 123.384 110.257 123.403 110.202C123.421 110.147 123.426 110.089 123.416 110.032C123.416 109.428 123.18 106.947 122.353 96.1285C122.351 96.0962 122.343 96.0647 122.329 96.0357C122.314 96.0067 122.294 95.981 122.27 95.9601C122.245 95.9392 122.216 95.9235 122.186 95.9141C122.155 95.9047 122.122 95.9017 122.09 95.9053ZM117.364 116.636L108.003 111.292L106.94 97.5726L121.919 96.4173L122.97 110.019L117.364 116.636Z" fill="#005758"/>
<path d="M103.29 119.826C102.809 121.663 101.892 123.358 100.616 124.766C99.3411 126.174 97.7452 127.253 95.964 127.913C95.9278 127.919 95.8934 127.933 95.8633 127.954C95.8332 127.975 95.8081 128.003 95.7897 128.034C95.7714 128.066 95.7603 128.102 95.7572 128.138C95.7542 128.175 95.7592 128.211 95.7719 128.246C95.7847 128.28 95.8049 128.311 95.8311 128.337C95.8573 128.363 95.8889 128.382 95.9235 128.394C95.9581 128.407 95.995 128.411 96.0315 128.407C96.068 128.403 96.1032 128.391 96.1346 128.373C97.9815 127.687 99.635 126.565 100.954 125.102C102.273 123.639 103.219 121.878 103.71 119.97C103.703 119.925 103.685 119.882 103.655 119.846C103.626 119.811 103.587 119.784 103.544 119.769C103.501 119.754 103.454 119.752 103.409 119.762C103.364 119.772 103.323 119.794 103.29 119.826Z" fill="#005758"/>
<path d="M173.489 10.8968C173.397 8.94066 173.082 6.59062 172.176 6.51185C170.863 6.39369 170.272 10.6605 169.55 13.3519C169.445 11.5139 169.288 9.20323 169.13 6.89258C168.999 5.00204 168.645 2.71764 167.686 2.67826C166.465 2.67826 165.874 6.3543 165.769 6.94509C165.49 8.74445 165.082 10.5214 164.548 12.2622C164.102 9.55771 163.446 5.92105 162.776 3.53163C162.317 1.90366 161.594 0 160.689 0C159.494 0 159.376 3.03273 159.376 4.24058C159.376 4.87075 159.244 10.0041 159.192 12.3935C158.667 11.0806 158.05 9.46581 157.459 7.85097C156.658 5.68474 155.634 4.47689 154.833 4.71321C154.032 4.94953 153.822 6.51185 154.321 9.0063C154.426 9.47894 155.778 16.8835 155.778 16.8835C156.028 18.1964 155.962 20.3364 155.371 20.5596C152.877 21.4917 146.404 18.9973 145.367 21.3473C144.619 23.0409 149.306 24.3144 152.286 25.496C153.875 26.1262 154.741 28.8044 154.426 30.603C152.641 40.9485 155.883 21.2554 150.041 56.7029L117.101 75.0831C116.01 75.0128 114.983 74.5458 114.213 73.7703V73.6915C113.502 72.9085 113.045 71.9293 112.9 70.882C113.654 70.868 114.396 70.6919 115.075 70.3657C115.755 70.0395 116.356 69.5708 116.839 68.9914C118.27 66.9827 117.587 63.5693 114.817 58.8298C114.259 57.863 113.627 56.9412 112.926 56.0728C112.217 55.1012 110.642 52.6987 109.907 51.5696C109.382 50.7688 109.802 51.4383 108.108 48.5894C107.847 48.1604 107.437 47.8429 106.957 47.6979C106.476 47.553 105.959 47.5908 105.504 47.8042C105.05 48.0176 104.69 48.3914 104.495 48.8538C104.299 49.3162 104.282 49.8346 104.445 50.3093C104.105 50.2625 103.759 50.3024 103.439 50.4252C103.119 50.5481 102.835 50.7498 102.613 51.0118C102.392 51.2738 102.241 51.5874 102.173 51.9237C102.105 52.2599 102.124 52.6078 102.226 52.935C101.914 52.943 101.607 53.0235 101.331 53.1702C101.054 53.3169 100.816 53.5257 100.634 53.7802C100.452 54.0347 100.331 54.328 100.282 54.637C100.232 54.946 100.255 55.2622 100.349 55.5607C100.035 55.5675 99.7266 55.6468 99.4483 55.7925C99.1701 55.9383 98.9293 56.1465 98.7449 56.4008C98.5605 56.6551 98.4375 56.9487 98.3855 57.2585C98.3336 57.5683 98.354 57.8859 98.4453 58.1865C98.0468 58.201 97.6614 58.333 97.3377 58.5659C97.0141 58.7988 96.7665 59.1222 96.6262 59.4955C96.4858 59.8688 96.459 60.2752 96.5491 60.6637C96.6392 61.0521 96.8421 61.4053 97.1324 61.6787C97.2506 61.81 97.0274 61.3636 102.043 66.0112C104.786 68.545 106.231 70.6063 106.519 71.9454C106.782 74.5711 106.204 76.9868 103.671 77.6695L96.0033 78.5229L32.3159 74.0722C30.386 73.9278 27.6683 72.4705 27.1694 70.9082C26.2898 68.0987 25.4758 63.7924 23.7954 63.7924C21.0121 63.7924 22.9814 70.5012 21.7342 72.4705C21.4585 72.9169 19.1872 72.4705 17.7955 71.9191C17.7955 71.9191 10.1415 68.8864 9.68199 68.6895C8.18532 68.0724 5.61209 67.1665 5.15258 68.1249C4.81124 68.8207 5.91405 69.9761 8.11967 71.2233L13.2136 74.1247L4.70621 72.0373C3.11763 71.6303 0.399985 71.1051 0.084896 72.0373C-0.230193 72.9694 2.71064 74.3348 3.60339 74.663C6.38668 75.7396 9.56383 76.9999 11.4806 77.7745C9.65573 77.512 7.29256 77.1312 4.58805 76.5929C1.88353 76.0547 0.216184 76.0809 0.0192534 76.7899C-0.25645 77.7877 2.50058 78.9036 3.69529 79.3368C5.28387 79.9145 8.27722 80.9254 10.3909 81.5425C9.1831 81.4637 7.84397 81.3324 6.45233 81.1224C3.59026 80.6628 2.06733 80.7941 1.90979 81.5031C1.56844 82.9998 7.89649 84.5227 9.44567 84.9034C13.1217 85.8487 15.7475 86.5445 18.2419 87.2272C24.4187 88.7607 30.6723 89.9658 36.9766 90.8376L94.6248 98.019L98.1958 115.086C97.0274 116.11 87.9686 124.907 92.1697 148.486L73.3432 140.005C74.2097 138.6 74.5641 138.101 74.656 137.865C74.7479 137.628 74.7348 137.694 74.656 137.602C74.5773 137.51 68.8794 134.976 68.0917 134.609C68.0535 134.581 68.0076 134.566 67.9604 134.566C67.9132 134.566 67.8672 134.581 67.8291 134.609C67.6584 134.806 65.8992 137.655 64.7964 139.65C51.9959 133.703 52.5735 133.939 52.4291 133.952C51.6808 134.097 52.6917 133.952 45.1952 135.856C36.2351 137.775 27.5445 140.786 19.3185 144.823C19.2721 144.839 19.232 144.869 19.2035 144.909C19.1751 144.949 19.1598 144.997 19.1598 145.046C19.1598 145.095 19.1751 145.143 19.2035 145.183C19.232 145.223 19.2721 145.253 19.3185 145.269C21.1565 145.978 23.1389 146.582 25.1739 147.212C38.5127 151.059 44.867 149.838 55.6982 154.683L57.7725 155.615C57.3392 156.928 56.1051 160.722 56.0658 161.024C56.0264 161.326 56.0658 161.168 56.2102 161.273C61.0547 163.413 62.315 164.017 62.7745 164.135C62.8372 164.156 62.9056 164.151 62.9646 164.122C63.0237 164.092 63.0687 164.04 63.0896 163.978C63.2866 163.216 63.4835 162.455 63.7067 161.693L100.021 178.157C101.848 178.975 103.843 179.348 105.842 179.246C107.841 179.143 109.788 178.568 111.522 177.567C113.255 176.567 114.727 175.169 115.816 173.489C116.904 171.809 117.579 169.895 117.784 167.903L119.832 148.604L131.044 163.951L127.25 200.41C124.9 199.859 125.359 199.924 125.228 199.924C125.19 199.932 125.154 199.947 125.122 199.97C125.09 199.993 125.064 200.022 125.044 200.055C125.044 200.187 124.335 207.106 124.348 207.237C124.353 207.278 124.368 207.317 124.39 207.351C124.413 207.385 124.444 207.414 124.48 207.434C124.676 207.513 127.105 208.077 129.022 208.445C127.919 218.173 127.591 220.864 127.525 221.639C127.525 222.007 127.525 221.941 127.525 221.994C133.814 231.315 138.475 240.374 148.295 249.931C148.329 249.964 148.371 249.986 148.417 249.995C148.463 250.004 148.511 250.001 148.554 249.984C148.598 249.968 148.637 249.939 148.665 249.902C148.693 249.865 148.711 249.82 148.715 249.774C148.84 241.793 148.136 233.82 146.615 225.985C145.854 221.461 145.695 216.857 146.142 212.291L146.352 210.125C146.615 210.125 151 210.125 151.21 209.954C151.259 209.913 151.296 209.859 151.315 209.797C151.315 209.679 151.997 202.721 151.984 202.681C151.919 202.353 151.787 202.484 149.884 202.576L153.822 167.798C154.445 162.415 153.332 156.973 150.645 152.267L128.917 113.839V90.5225L162.041 71.1445C163.807 70.1083 165.306 68.6735 166.418 66.9547C167.531 65.2359 168.226 63.2808 168.448 61.2455C171.979 28.7519 173.791 17.2249 173.489 10.8968ZM166.281 7.03699C166.951 3.21654 167.66 3.17715 167.686 3.17715C167.712 3.17715 168.461 3.89923 168.658 6.91884C168.894 10.3323 169.288 15.9645 169.209 16.9098C167.888 16.37 166.516 15.9653 165.113 15.702C165.113 15.3343 164.929 14.3891 164.732 13.2337C165.506 11.2411 166.026 9.15925 166.281 7.03699ZM159.888 4.18806C159.888 1.29974 160.439 0.472634 160.689 0.446377C160.938 0.420119 161.594 1.03717 162.33 3.6104C163.354 7.28644 164.365 13.9821 164.601 15.5707C163.236 15.3692 161.852 15.3339 160.478 15.4656C160.36 15.1637 160.071 14.4547 159.678 13.5095C159.704 12.8661 159.875 5.04143 159.888 4.18806ZM104.747 65.893H104.668C99.9813 64.1207 101.32 59.9589 103.776 61.5474C104.616 62.0857 105.088 62.2433 105.495 62.0595C105.626 61.9615 105.73 61.8317 105.797 61.6823C105.863 61.5329 105.891 61.369 105.876 61.2061C105.883 61.1055 105.883 61.0047 105.876 60.9041C105.666 58.7904 106.362 55.4688 108.121 54.4317C109.88 53.3945 111.325 55.1931 111.469 55.2719C112.603 56.3804 113.567 57.65 114.331 59.0398C116.957 63.5955 117.692 66.8252 116.392 68.6632C114.633 71.1445 109.723 70.2255 109.67 70.2124C109.618 70.1993 109.185 70.3962 109.67 70.7901C110.156 71.1839 111.193 71.9716 113.858 74.046C114.732 74.9509 115.912 75.4984 117.167 75.582C118.839 74.8005 120.465 73.9238 122.038 72.9563V88.2119L105.102 89.6954L102.476 78.3522L103.684 78.2209C109.605 76.6455 106.047 66.7727 104.786 65.893H104.747ZM3.83971 74.2823C1.21397 73.2714 0.570659 72.4311 0.623173 72.2342C0.675688 72.0373 1.48967 71.7091 4.64056 72.523L15.9969 75.2932C15.7226 76.2865 15.5683 77.3091 15.5374 78.3391L13.5812 78.1159C13.1217 77.9321 8.0409 75.8971 3.83971 74.2823ZM0.610044 76.9999C0.610044 76.8687 1.42402 76.5142 4.54866 77.1444C8.13976 77.8973 11.7684 78.4582 15.4192 78.8248C15.4652 79.7765 15.6015 80.7216 15.8262 81.6475C14.786 81.5742 13.7419 81.5742 12.7016 81.6475C9.73372 80.9286 6.80624 80.0521 3.93161 79.0218C1.30587 77.9715 0.557529 77.1837 0.610044 76.9999ZM6.1635 83.5643C3.26205 82.6715 2.46119 81.8969 2.51371 81.7132C2.56622 81.5294 3.30143 81.2143 6.45233 81.7132C9.57498 82.1874 12.737 82.3501 15.8919 82.1989C16.0626 82.921 16.2595 83.6431 16.5089 84.3783C16.5323 84.4377 16.5776 84.486 16.6354 84.513C16.6933 84.5401 16.7594 84.5439 16.82 84.5237C16.8806 84.5035 16.9311 84.4608 16.9612 84.4044C16.9913 84.3481 16.9985 84.2823 16.9816 84.2207C15.6398 80.8483 15.6398 77.0902 16.9816 73.7178C17.0005 73.6863 17.0123 73.6511 17.0161 73.6146C17.0199 73.5781 17.0156 73.5413 17.0035 73.5066C16.9913 73.472 16.9718 73.4404 16.9461 73.4142C16.9204 73.3881 16.8892 73.3678 16.8548 73.3551C16.8204 73.3423 16.7836 73.3373 16.7471 73.3403C16.7105 73.3434 16.6751 73.3545 16.6433 73.3728C16.6115 73.3912 16.5842 73.4163 16.5632 73.4464C16.5423 73.4765 16.5282 73.5109 16.5221 73.5471C16.3514 73.9935 16.207 74.4136 16.0888 74.86L14.9729 74.5974L8.40851 70.8426C6.08472 69.5297 5.54644 68.6107 5.65147 68.3875C5.7565 68.1643 6.85932 68.0855 9.59009 69.2015L17.7036 72.4311C17.7036 72.4311 21.511 73.8622 22.1805 72.7856C23.4934 70.7769 21.7867 64.6064 23.756 64.3438C25.0688 64.16 26.1585 69.2803 26.7231 71.1051C27.2876 72.93 30.1759 74.453 32.3028 74.6236L95.7408 79.0218C97.605 86.0062 101.675 103.966 98.7078 106.277C98.2615 106.618 97.6444 106.566 96.8436 106.106L94.336 94.1329C94.3153 94.0752 94.2751 94.0266 94.2224 93.9954C94.1696 93.9643 94.1076 93.9525 94.0471 93.9622L85.4216 96.286L37.0291 90.3125C30.7528 89.4518 24.5257 88.2642 18.3732 86.7546C11.927 84.9822 9.74764 84.6146 6.1635 83.538V83.5643ZM62.7089 163.65L56.7091 161.024C59.262 151.918 63.118 143.229 68.1573 135.226L74.1571 137.852C68.9737 145.762 65.1074 154.461 62.7089 163.61V163.65ZM52.5079 134.491L56.8272 136.499C48.7268 138.876 37.935 140.976 25.6728 146.858C23.8216 146.32 21.9573 145.729 20.1062 145.046C33.1693 138.455 44.6306 136.893 52.5079 134.491ZM151.446 202.904L150.816 209.469C142.076 209.908 133.318 209.068 124.821 206.974L125.451 200.41C133.925 202.638 142.703 203.481 151.446 202.904ZM148.216 249.117C137.845 238.825 132.764 228.505 127.959 221.718L128.497 216.991C133.315 223.923 138.724 233.494 148.19 243.249C148.256 245.205 148.269 247.148 148.216 249.117ZM133.683 123.384C129.967 122.071 127.998 117.962 127.972 117.922C127.938 117.876 127.89 117.842 127.835 117.828C127.78 117.813 127.721 117.817 127.669 117.84C127.617 117.863 127.574 117.903 127.548 117.954C127.522 118.005 127.514 118.063 127.525 118.119C127.617 118.316 129.784 122.911 134.09 124.001L150.251 152.451C152.893 157.058 153.988 162.391 153.376 167.667L149.437 202.537C142.169 202.807 134.897 202.105 127.814 200.449L131.635 163.846C131.635 163.702 131.937 164.148 126.383 156.573L121.289 135.081C121.276 135.027 121.245 134.978 121.201 134.943C121.157 134.908 121.103 134.889 121.046 134.889C120.99 134.889 120.935 134.908 120.891 134.943C120.847 134.978 120.816 135.027 120.803 135.081L117.377 167.903C117.179 169.816 116.53 171.655 115.484 173.269C114.438 174.883 113.024 176.226 111.359 177.188C109.694 178.15 107.824 178.704 105.903 178.804C103.983 178.904 102.066 178.547 100.31 177.763L63.943 161.26C66.0839 153.952 69.1736 146.956 73.1331 140.451L85.6448 146.083C94.5329 157.623 94.1916 157.243 94.336 157.335C94.3791 157.357 94.4278 157.366 94.4761 157.361C94.5244 157.356 94.5701 157.337 94.6078 157.306C94.6454 157.276 94.6733 157.235 94.688 157.188C94.7026 157.142 94.7035 157.092 94.6905 157.046C86.0649 125.537 98.5503 115.506 98.6291 115.401C98.7078 115.296 98.8129 115.572 96.988 106.789C103.776 109.874 98.1564 86.2294 96.2528 79.0611L102.029 78.4178L104.655 90.0368C104.667 90.09 104.697 90.1374 104.741 90.1709C104.784 90.2044 104.837 90.2219 104.891 90.2206L122.34 88.7239C122.471 88.7239 122.497 88.6057 122.497 88.4744V72.6281L128.3 69.3196V113.957C128.313 114.036 128.431 114.141 133.683 123.384ZM172.649 19.5093C171.861 30.6293 171.638 27.2027 167.949 61.1536C167.733 63.1113 167.064 64.9919 165.996 66.6464C164.927 68.3008 163.487 69.6835 161.791 70.685L128.97 89.958L128.773 69.0439C145.958 59.5387 149.385 57.6745 150.133 57.2281C150.382 57.0705 150.474 56.9918 150.488 56.9393L154.925 30.6818C155.293 28.6731 154.308 25.7585 152.483 25.0365C150.658 24.3144 145.328 22.6733 145.84 21.5442C146.654 19.6931 152.995 21.9775 155.555 21.0191C156.711 20.5858 156.422 17.5268 156.29 16.7916C156.29 16.7916 154.978 9.33452 154.82 8.9144C154.308 6.3543 154.636 5.29087 154.978 5.18584C155.319 5.08081 156.212 5.89479 156.986 8.02165C158.207 11.3432 159.533 14.586 159.94 15.5707C159.284 15.6494 158.627 15.7545 157.853 15.8989C157.817 15.9007 157.782 15.9102 157.751 15.9266C157.719 15.943 157.692 15.9659 157.67 15.9939C157.648 16.0219 157.632 16.0543 157.623 16.0888C157.615 16.1234 157.614 16.1594 157.621 16.1944C157.627 16.2293 157.641 16.2625 157.662 16.2916C157.682 16.3207 157.709 16.345 157.739 16.3631C157.77 16.3811 157.804 16.3923 157.84 16.3961C157.875 16.3998 157.911 16.3959 157.945 16.3846C161.831 15.5032 165.9 15.923 169.524 17.5794C169.583 17.5946 169.645 17.5879 169.699 17.5605C169.754 17.5331 169.796 17.4869 169.818 17.4306C169.841 17.3742 169.842 17.3115 169.822 17.2543C169.802 17.1971 169.761 17.1493 169.708 17.1199C169.754 16.3678 169.754 15.6137 169.708 14.8617C170.166 13.4011 170.539 11.915 170.824 10.4111C171.546 7.07638 172.137 7.03699 172.137 7.03699C172.137 7.03699 172.872 7.79846 173.016 10.9756C173.095 13.1287 172.833 16.8179 172.649 19.5093Z" fill="#005758"/>
<path d="M159.559 18.9054C159.527 18.8904 159.492 18.8826 159.456 18.8823C159.421 18.8821 159.385 18.8895 159.353 18.904C159.32 18.9186 159.291 18.9399 159.268 18.9666C159.244 18.9933 159.226 19.0248 159.216 19.0589C159.206 19.093 159.203 19.1289 159.207 19.1642C159.212 19.1996 159.224 19.2335 159.243 19.2637C159.262 19.294 159.287 19.3198 159.317 19.3395C159.346 19.3593 159.38 19.3724 159.415 19.3781C164.023 20.8222 166.281 23.4611 166.111 27.2553C166.111 27.3214 166.137 27.3849 166.184 27.4317C166.231 27.4785 166.294 27.5047 166.36 27.5047C166.426 27.5047 166.49 27.4785 166.537 27.4317C166.583 27.3849 166.61 27.3214 166.61 27.2553C166.728 23.2248 164.417 20.4284 159.559 18.9054Z" fill="#005758"/>
<path d="M27.4714 83.538C23.5328 82.7634 20.999 80.1114 19.9749 75.6608C19.9565 75.6012 19.9163 75.5506 19.8625 75.5192C19.8086 75.4877 19.7449 75.4776 19.6839 75.4907C19.6229 75.5039 19.5691 75.5395 19.5331 75.5904C19.497 75.6413 19.4813 75.7039 19.4891 75.7658C20.5657 80.4265 23.2046 83.1966 27.3664 84.0106C27.422 84.0092 27.4757 83.9893 27.5187 83.9539C27.5617 83.9185 27.5916 83.8697 27.6037 83.8154C27.6158 83.761 27.6093 83.7042 27.5853 83.6539C27.5614 83.6036 27.5213 83.5628 27.4714 83.538Z" fill="#005758"/>
</svg>
