<svg width="1440" height="964" viewBox="0 0 1440 964" fill="none" xmlns="http://www.w3.org/2000/svg">
<path fill-rule="evenodd" clip-rule="evenodd" d="M0 892.776L60 904.371C120 915.965 240 940.811 360 867.93C480 796.707 600 629.413 720 617.819C840 606.224 960 748.672 1080 761.923C1200 773.517 1320 654.259 1380 594.629L1440 535V964H1380C1320 964 1200 964 1080 964C960 964 840 964 720 964C600 964 480 964 360 964C240 964 120 964 60 964H0V892.776Z" fill="#FFFAEF"/>
<path fill-rule="evenodd" clip-rule="evenodd" d="M0 914.776L60 926.371C120 937.965 240 962.811 360 889.93C480 818.707 600 651.413 720 639.819C840 628.224 960 770.672 1080 783.923C1200 795.517 1320 676.259 1380 616.629L1440 557V986H1380C1320 986 1200 986 1080 986C960 986 840 986 720 986C600 986 480 986 360 986C240 986 120 986 60 986H0V914.776Z" fill="#FFF3D9"/>
<path d="M172.042 637.421C81.2715 637.421 0 740.812 0 714.804V72H892.931C892.931 72 942.586 202.59 892.931 272.886C822.634 372.404 739.029 314.017 634.34 388.575C530.449 462.566 556.235 572.349 454.909 616.317C353.584 660.284 262.813 637.421 172.042 637.421Z" fill="#FFFAEF"/>
<path d="M152.042 622.421C61.2715 622.421 -20 725.812 -20 699.804V57H872.931C872.931 57 922.586 187.59 872.931 257.886C802.634 357.404 719.029 299.017 614.34 373.575C510.449 447.566 536.235 557.349 434.909 601.317C333.584 645.284 242.813 622.421 152.042 622.421Z" fill="#FFF3D9"/>
<path d="M1164 147C1122.98 130.94 1125.89 87.2186 1119.58 56.8898C1103.24 -21.6123 1439 56.8898 1439 56.8898V255C1439 255 1347.48 235.763 1323.8 204.475C1301.1 174.489 1312.04 171.737 1277 147C1238.1 119.544 1213.51 166.384 1164 147Z" fill="#FFFAEF"/>
<path d="M1186 125C1144.98 108.94 1147.89 65.2186 1141.58 34.8898C1125.24 -43.6123 1461 34.8898 1461 34.8898V233C1461 233 1369.48 213.763 1345.8 182.475C1323.1 152.489 1334.04 149.737 1299 125C1260.1 97.5444 1235.51 144.384 1186 125Z" fill="#FFF3D9"/>
</svg>
