<svg width="42" height="41" viewBox="0 0 42 41" fill="none" xmlns="http://www.w3.org/2000/svg">
<circle cx="21" cy="20.5" r="20.5" fill="#F7C548"/>
<path d="M31.8577 16.0424L29.3501 9.48216C29.1318 8.91153 28.6959 8.45096 28.1384 8.20141C27.5807 7.95164 26.9469 7.93353 26.3758 8.15068L8.983 14.8014C8.41192 15.0192 7.95087 15.4549 7.70114 16.0127C7.45138 16.5706 7.43349 17.2046 7.65155 17.7757L7.90516 18.4358L10.4096 24.9845V29.6967V29.6964C10.4103 30.3071 10.653 30.8927 11.0848 31.3246C11.5166 31.7564 12.1022 31.9994 12.7129 32H31.3323C31.943 31.9993 32.5284 31.7564 32.9602 31.3246C33.392 30.8927 33.635 30.3071 33.6357 29.6964V18.2836C33.635 17.7644 33.4588 17.2606 33.1361 16.8537C32.8135 16.4468 32.3628 16.1608 31.8572 16.0419L31.8577 16.0424ZM15.1234 15.979L29.1679 10.5264L29.8654 12.3511L20.6722 15.9791L15.1234 15.979ZM30.0595 12.8614L31.2514 15.9815H22.1539L30.0595 12.8614ZM9.17754 15.3088L26.5698 8.66099C27.0057 8.49478 27.4898 8.50837 27.9158 8.69858C28.3417 8.88856 28.6748 9.23999 28.8421 9.67546L28.9734 10.0197L13.6205 15.9794H12.7132C11.9175 15.9798 11.1784 16.3911 10.7585 17.0668L8.31866 17.99L8.16196 17.5803H8.16219C7.99621 17.1444 8.01002 16.6605 8.20046 16.2346C8.39066 15.8087 8.74233 15.4758 9.17775 15.3087L9.17754 15.3088ZM10.4094 18.2856V19.9936L9.25678 20.4445L8.51316 18.4987L10.4709 17.7587C10.4302 17.9312 10.4096 18.1079 10.4096 18.2849L10.4094 18.2856ZM9.45156 20.9517L10.4096 20.5751V23.4593L9.45156 20.9517ZM33.0928 29.6951H33.0926C33.0919 30.1615 32.9062 30.6088 32.5763 30.9387C32.2464 31.2686 31.7992 31.454 31.3327 31.4545H12.7133C12.2468 31.454 11.7996 31.2684 11.4697 30.9387C11.14 30.6087 10.9543 30.1615 10.9538 29.6951V18.2822C10.9543 17.8158 11.1397 17.3683 11.4697 17.0384C11.7996 16.7085 12.2468 16.5228 12.7133 16.5221H31.3327C31.7992 16.5226 32.2466 16.7083 32.5765 17.0382C32.9067 17.3681 33.0921 17.8155 33.0926 18.2822L33.0928 29.6951Z" fill="black"/>
<path d="M16.6178 25.5916H14.2859C13.9983 25.592 13.7227 25.7064 13.5194 25.9097C13.316 26.1133 13.2019 26.3888 13.2017 26.6764V28.5151C13.2019 28.8027 13.316 29.0785 13.5194 29.2819C13.7227 29.4852 13.9983 29.5998 14.2859 29.6H16.6178C16.9056 29.5998 17.1812 29.4852 17.3845 29.2819C17.5879 29.0786 17.7024 28.8028 17.7027 28.5151V26.6764C17.7024 26.3889 17.5879 26.1131 17.3845 25.9097C17.1812 25.7064 16.9056 25.592 16.6178 25.5916ZM17.1585 28.513L17.1587 28.5133C17.1583 28.8117 16.9164 29.0538 16.6178 29.054H14.2859C13.9874 29.0538 13.7454 28.8117 13.7451 28.5133V26.6746C13.7454 26.3759 13.9874 26.1341 14.2859 26.1336H16.6178C16.9164 26.1341 17.1583 26.3759 17.1587 26.6746L17.1585 28.513Z" fill="black"/>
<path d="M30.6688 28.7009H27.5564C27.406 28.7009 27.2844 28.8225 27.2844 28.9729C27.2844 29.123 27.406 29.2448 27.5564 29.2448H30.6688C30.8189 29.2448 30.9407 29.123 30.9407 28.9729C30.9407 28.8225 30.8189 28.7009 30.6688 28.7009Z" fill="black"/>
</svg>
