<svg width="42" height="41" viewBox="0 0 42 41" fill="none" xmlns="http://www.w3.org/2000/svg">
<circle cx="21" cy="20.5" r="20.5" fill="#F7C548"/>
<path d="M12.5887 32.9999H28.4113C29.3009 32.9999 30 32.3024 30 31.4145V8.58542C30 7.6977 29.3011 7 28.4113 7H15.3529H15.3212C15.2895 7 15.2576 7 15.2259 7.03164H15.1942C15.1625 7.03164 15.1305 7.06327 15.0988 7.09512L11.0953 11.1221C11.0636 11.1537 11.0636 11.1855 11.0317 11.2172V11.2488C11.0317 11.2804 11.0317 11.3123 11 11.3439V11.3756V31.4146C11 32.3023 11.6991 33 12.5887 33L12.5887 32.9999ZM15.0352 8.07818V11.0269H12.0804L15.0352 8.07818ZM11.6355 11.6609H15.3529C15.5435 11.6609 15.6705 11.5342 15.6705 11.3439V7.63421H28.4114C28.9516 7.63421 29.3646 8.04633 29.3646 8.58542V31.4145C29.3646 31.9536 28.9516 32.3657 28.4114 32.3657H12.5888C12.0486 32.3657 11.6356 31.9536 11.6356 31.4145L11.6355 11.6609Z" fill="black"/>
</svg>
