<svg width="42" height="41" viewBox="0 0 42 41" fill="none" xmlns="http://www.w3.org/2000/svg">
<circle cx="21" cy="20.5" r="20.5" fill="#F7C548"/>
<path d="M28.0015 19.9498V17.1129V16.7076C28.0015 16.5173 27.8742 16.3552 27.7248 16.3552H26.7287H24.3353H21.4412H18.9399H18.1154C17.9881 16.3552 17.8525 16.3411 17.7253 16.3552H17.7087C17.8 16.4715 17.894 16.5913 17.9853 16.7076V12.1967V11.5623C17.894 11.6786 17.8 11.7984 17.7087 11.9147H18.7048H21.0981H23.9922H26.4935C26.8975 11.9147 27.3042 11.9359 27.7082 11.9147H27.7248C27.8742 11.9147 28.0015 11.7526 28.0015 11.5623V8.73943V8.33767C27.8438 8.42225 27.6861 8.50331 27.5283 8.58789C28.1481 9.24339 28.7679 9.89889 29.3905 10.5508C30.3782 11.594 31.366 12.6372 32.3538 13.6803C32.5779 13.9199 32.8048 14.156 33.0289 14.3957V13.8988C32.4091 14.5543 31.7893 15.2098 31.1668 15.8618C30.179 16.9049 29.1912 17.9481 28.2035 18.9912C27.9794 19.2308 27.7525 19.4669 27.5283 19.7066C27.4121 19.8264 27.4287 20.0802 27.5283 20.2035C27.6418 20.348 27.805 20.3269 27.9185 20.2035C28.5382 19.548 29.158 18.8925 29.7806 18.2406C30.7683 17.1974 31.7561 16.1543 32.7439 15.1111C32.968 14.8715 33.1949 14.6354 33.419 14.3957C33.5269 14.2829 33.5269 14.0116 33.419 13.8988C32.7992 13.2433 32.1795 12.5878 31.5569 11.9358C30.5691 10.8927 29.5813 9.84954 28.5936 8.80642C28.3695 8.56677 28.1426 8.33066 27.9185 8.09098C27.7414 7.90421 27.4453 8.01346 27.4453 8.3412V11.1641V11.5658C27.5366 11.4495 27.6307 11.3297 27.722 11.2134H26.7259H24.3326H21.4384H18.9372C18.5332 11.2134 18.1265 11.1923 17.7225 11.2134H17.7059C17.5565 11.2134 17.4292 11.3755 17.4292 11.5658V16.0767V16.7111C17.4292 16.9014 17.5565 17.0635 17.7059 17.0635H18.702H21.0953H23.9895H26.4908H27.3153C27.4426 17.0635 27.5781 17.0776 27.7054 17.0635H27.722L27.4453 16.7111V19.548V19.9533C27.4481 20.4009 28.0015 20.4044 28.0015 19.9498L28.0015 19.9498Z" fill="black"/>
<path d="M14.5546 31.6505V28.8135V28.4083C14.4633 28.5245 14.3692 28.6444 14.2779 28.7607H15.274H17.6674H20.5615H23.0628C23.4668 28.7607 23.8735 28.7818 24.2775 28.7607H24.2941C24.4435 28.7607 24.5707 28.5986 24.5707 28.4083V23.8973V23.263C24.5707 23.0727 24.4435 22.9106 24.2941 22.9106H23.298H20.9046H18.0105H15.5092H14.6847C14.5574 22.9106 14.4218 22.8965 14.2945 22.9106H14.2779C14.3692 23.0269 14.4633 23.1467 14.5546 23.263V20.4401V20.0383C14.5546 19.7106 14.2586 19.6014 14.0815 19.7881C13.4617 20.4436 12.8419 21.0991 12.2194 21.7511C11.2316 22.7943 10.2438 23.8374 9.25606 24.8805C9.03194 25.1202 8.80506 25.3563 8.58093 25.5959C8.47302 25.7087 8.47302 25.9801 8.58093 26.0928C9.20071 26.7484 9.82049 27.4039 10.443 28.0558C11.4308 29.099 12.4186 30.1421 13.4064 31.1852C13.6305 31.4249 13.8574 31.661 14.0815 31.9007C14.1977 32.0205 14.3609 32.0452 14.4716 31.9007C14.5684 31.7773 14.5878 31.5236 14.4716 31.4038C13.8518 30.7483 13.232 30.0928 12.6095 29.4408C11.6217 28.3976 10.6339 27.3545 9.64619 26.3114C9.42207 26.0717 9.19518 25.8356 8.97106 25.5959V26.0928C9.59084 25.4373 10.2106 24.7818 10.8332 24.1299C11.8209 23.0867 12.8087 22.0436 13.7965 21.0005C14.0206 20.7608 14.2475 20.5247 14.4716 20.285C14.3139 20.2005 14.1562 20.1194 13.9985 20.0348V22.8577V23.2594C13.9985 23.4498 14.1257 23.6119 14.2752 23.6119H15.2713H17.6646H20.5588H23.06H23.8846C24.0118 23.6119 24.1474 23.626 24.2747 23.6119H24.2913C24.2 23.4956 24.1059 23.3757 24.0146 23.2594V27.7704V28.4047L24.2913 28.0523H23.2952H20.9018H18.0077H15.5064C15.1025 28.0523 14.6957 28.0312 14.2918 28.0523H14.2752C14.1257 28.0523 13.9985 28.2144 13.9985 28.4047V31.2416V31.6469C14.0012 32.1015 14.5546 32.1051 14.5546 31.6505L14.5546 31.6505Z" fill="black"/>
</svg>
