<svg width="41" height="42" viewBox="0 0 41 42" fill="none" xmlns="http://www.w3.org/2000/svg">
<circle cx="20.5" cy="21" r="20.5" fill="#005758"/>
<path d="M27.5015 20.4498V17.6129V17.2076C27.5015 17.0173 27.3742 16.8552 27.2248 16.8552H26.2287H23.8353H20.9412H18.4399H17.6154C17.4881 16.8552 17.3525 16.8411 17.2253 16.8552H17.2087C17.3 16.9715 17.394 17.0913 17.4853 17.2076V12.6967V12.0623C17.394 12.1786 17.3 12.2984 17.2087 12.4147H18.2048H20.5981H23.4922H25.9935C26.3975 12.4147 26.8042 12.4359 27.2082 12.4147H27.2248C27.3742 12.4147 27.5015 12.2526 27.5015 12.0623V9.23943V8.83767C27.3438 8.92225 27.1861 9.00331 27.0283 9.08789C27.6481 9.74339 28.2679 10.3989 28.8905 11.0508C29.8782 12.094 30.866 13.1372 31.8538 14.1803C32.0779 14.4199 32.3048 14.656 32.5289 14.8957V14.3988C31.9091 15.0543 31.2893 15.7098 30.6668 16.3618C29.679 17.4049 28.6912 18.4481 27.7035 19.4912C27.4794 19.7308 27.2525 19.9669 27.0283 20.2066C26.9121 20.3264 26.9287 20.5802 27.0283 20.7035C27.1418 20.848 27.305 20.8269 27.4185 20.7035C28.0382 20.048 28.658 19.3925 29.2806 18.7406C30.2683 17.6974 31.2561 16.6543 32.2439 15.6111C32.468 15.3715 32.6949 15.1354 32.919 14.8957C33.0269 14.7829 33.0269 14.5116 32.919 14.3988C32.2992 13.7433 31.6795 13.0878 31.0569 12.4358C30.0691 11.3927 29.0813 10.3495 28.0936 9.30642C27.8695 9.06677 27.6426 8.83066 27.4185 8.59098C27.2414 8.40421 26.9453 8.51346 26.9453 8.8412V11.6641V12.0658C27.0366 11.9495 27.1307 11.8297 27.222 11.7134H26.2259H23.8326H20.9384H18.4372C18.0332 11.7134 17.6265 11.6923 17.2225 11.7134H17.2059C17.0565 11.7134 16.9292 11.8755 16.9292 12.0658V16.5767V17.2111C16.9292 17.4014 17.0565 17.5635 17.2059 17.5635H18.202H20.5953H23.4895H25.9908H26.8153C26.9426 17.5635 27.0781 17.5776 27.2054 17.5635H27.222L26.9453 17.2111V20.048V20.4533C26.9481 20.9009 27.5015 20.9044 27.5015 20.4498L27.5015 20.4498Z" fill="white"/>
<path d="M14.0546 32.1505V29.3135V28.9083C13.9633 29.0245 13.8692 29.1444 13.7779 29.2607H14.774H17.1674H20.0615H22.5628C22.9668 29.2607 23.3735 29.2818 23.7775 29.2607H23.7941C23.9435 29.2607 24.0707 29.0986 24.0707 28.9083V24.3973V23.763C24.0707 23.5727 23.9435 23.4106 23.7941 23.4106H22.798H20.4046H17.5105H15.0092H14.1847C14.0574 23.4106 13.9218 23.3965 13.7945 23.4106H13.7779C13.8692 23.5269 13.9633 23.6467 14.0546 23.763V20.9401V20.5383C14.0546 20.2106 13.7586 20.1014 13.5815 20.2881C12.9617 20.9436 12.3419 21.5991 11.7194 22.2511C10.7316 23.2943 9.74381 24.3374 8.75606 25.3805C8.53194 25.6202 8.30506 25.8563 8.08093 26.0959C7.97302 26.2087 7.97302 26.4801 8.08093 26.5928C8.70071 27.2484 9.32049 27.9039 9.94305 28.5558C10.9308 29.599 11.9186 30.6421 12.9064 31.6852C13.1305 31.9249 13.3574 32.161 13.5815 32.4007C13.6977 32.5205 13.8609 32.5452 13.9716 32.4007C14.0684 32.2773 14.0878 32.0236 13.9716 31.9038C13.3518 31.2483 12.732 30.5928 12.1095 29.9408C11.1217 28.8976 10.1339 27.8545 9.14619 26.8114C8.92207 26.5717 8.69518 26.3356 8.47106 26.0959V26.5928C9.09084 25.9373 9.71061 25.2818 10.3332 24.6299C11.3209 23.5867 12.3087 22.5436 13.2965 21.5005C13.5206 21.2608 13.7475 21.0247 13.9716 20.785C13.8139 20.7005 13.6562 20.6194 13.4985 20.5348V23.3577V23.7594C13.4985 23.9498 13.6257 24.1119 13.7752 24.1119H14.7713H17.1646H20.0588H22.56H23.3846C23.5118 24.1119 23.6474 24.126 23.7747 24.1119H23.7913C23.7 23.9956 23.6059 23.8757 23.5146 23.7594V28.2704V28.9047L23.7913 28.5523H22.7952H20.4018H17.5077H15.0064C14.6025 28.5523 14.1957 28.5312 13.7918 28.5523H13.7752C13.6257 28.5523 13.4985 28.7144 13.4985 28.9047V31.7416V32.1469C13.5012 32.6015 14.0546 32.6051 14.0546 32.1505L14.0546 32.1505Z" fill="white"/>
</svg>
