<svg width="24" height="27" viewBox="0 0 24 27" fill="none" xmlns="http://www.w3.org/2000/svg">
<path d="M7.08032 11.1933C3.1076 11.1933 0 9.62339 0 7.63711C0 6.80419 0.544612 6.03523 1.5699 5.39453L1.89037 5.93914C1.08943 6.4518 0.640902 7.02837 0.640902 7.63714C0.640902 9.20704 3.58837 10.5526 7.08047 10.5526C8.55432 10.5526 11.3735 10.008 12.1424 9.49538L12.4949 10.04C11.5656 10.6807 8.55404 11.1933 7.08043 11.1933L7.08032 11.1933Z" fill="black"/>
<path d="M7.08032 14.0125C3.1076 14.0125 0 12.4426 0 10.4563V7.63696H0.640696V10.4563C0.640696 12.0262 3.58816 13.3718 7.08027 13.3718C10.5723 13.3718 13.5198 12.0262 13.5198 10.4563V8.88643H14.1605V10.4563C14.1608 12.4428 11.0531 14.0125 7.08078 14.0125H7.08032Z" fill="black"/>
<path d="M8.48999 7.82928C4.51726 7.82928 1.40967 6.25938 1.40967 4.2731C1.40967 2.28682 4.51732 0.716919 8.48999 0.716919C12.4627 0.716919 15.5703 2.28682 15.5703 4.2731C15.5701 6.25938 12.4624 7.82928 8.48999 7.82928ZM8.48999 1.38971C4.99794 1.38971 2.05042 2.73529 2.05042 4.30519C2.05042 5.8751 4.99789 7.22068 8.48999 7.22068C11.982 7.22068 14.9296 5.8751 14.9296 4.30519C14.9296 2.73529 11.9821 1.38971 8.48999 1.38971Z" fill="black"/>
<path d="M8.48999 10.6486C4.51726 10.6486 1.40967 9.07872 1.40967 7.09244V4.27307H2.05036V7.09244C2.05036 8.66235 4.99783 10.0079 8.48993 10.0079C11.982 10.0079 14.9295 8.66235 14.9295 7.09244V4.27307H15.5702V7.09244C15.5704 9.07872 12.4628 10.6486 8.49045 10.6486H8.48999Z" fill="black"/>
<path d="M9.93158 26.2829C5.99101 26.2829 2.8833 24.713 2.8833 22.7267V19.9073H3.524V22.7267C3.524 24.2966 6.47146 25.6422 9.93153 25.6422C12.3663 25.6422 14.5769 25.0015 15.6983 24.0083L16.1149 24.4888C14.8974 25.578 12.5265 26.2829 9.9316 26.2829L9.93158 26.2829Z" fill="black"/>
<path d="M21.7535 24.7452C19.9914 24.7452 17.6846 22.9831 15.9547 20.164C13.8081 16.6719 13.5199 13.1157 15.2498 12.0584C16.9798 11.0012 20.0235 12.8913 22.17 16.3514C24.3165 19.8435 24.6048 23.3997 22.8748 24.4569C22.5222 24.6491 22.1697 24.7452 21.7534 24.7452L21.7535 24.7452ZM16.371 12.4107C16.0828 12.4107 15.8264 12.4749 15.6021 12.6029C14.2246 13.468 14.6409 16.7679 16.4991 19.8434C18.3893 22.9192 21.1445 24.7771 22.5222 23.9123C23.8997 23.0472 23.4834 19.7473 21.6252 16.6718C20.0554 14.1087 17.8448 12.4107 16.371 12.4107L16.371 12.4107Z" fill="black"/>
<path d="M19.2866 26.283C18.6137 26.283 17.8128 25.9947 16.9799 25.4821C15.7304 24.6811 14.481 23.3356 13.4879 21.7018C11.3733 18.2097 11.0531 14.6535 12.783 13.5962L15.25 12.0905L15.6024 12.6351L13.1355 14.1087C11.758 14.9738 12.1743 18.2736 14.0325 21.3492C14.9937 22.8869 16.1471 24.1686 17.3324 24.9374C18.4216 25.6422 19.4147 25.8344 20.0557 25.45L22.5227 23.9442L22.8431 24.4889L20.3762 25.9946C20.0557 26.187 19.7033 26.2831 19.2867 26.2831L19.2866 26.283Z" fill="black"/>
<path d="M10.188 20.6764H10.1238C6.08712 20.6764 2.8833 19.0746 2.8833 17.0242C2.8833 16.8961 2.8833 16.7678 2.91526 16.6398L3.55595 16.7678C3.524 16.8639 3.524 16.9281 3.524 17.0242C3.524 18.658 6.56752 20.0358 10.1558 20.0358C11.0848 20.0358 12.014 19.9397 12.911 19.7475L13.0391 20.3882C12.1099 20.5804 11.1487 20.6764 10.1877 20.6764H10.188Z" fill="black"/>
<path d="M10.3161 23.5597H10.1559C6.08724 23.5597 2.8833 21.9579 2.8833 19.9074V17.0242H3.524V19.9074C3.524 21.5413 6.56752 22.919 10.1558 22.919C11.5974 22.951 13.0071 22.6947 14.3527 22.2142L14.577 22.823C13.1993 23.3035 11.7574 23.5598 10.3158 23.5598L10.3161 23.5597Z" fill="black"/>
<path d="M15.5703 12.4427L14.9616 12.2183C15.0257 12.0581 15.0257 11.93 15.0257 11.7698C15.0257 10.9369 14.2889 10.3282 13.6482 9.97576L13.9687 9.43115C15.0579 10.0718 15.6667 10.905 15.6667 11.7698C15.6986 11.9942 15.6345 12.2184 15.5703 12.4428L15.5703 12.4427Z" fill="black"/>
<path d="M8.52199 15.4221H8.39393C5.09405 15.4221 2.21066 14.3329 1.37769 12.731L1.95425 12.4427C2.65908 13.7883 5.38239 14.7814 8.42586 14.7814C9.73946 14.7814 11.0208 14.5892 12.2384 14.2049L12.4306 14.8136C11.149 15.23 9.83559 15.4222 8.52199 15.4222L8.52199 15.4221Z" fill="black"/>
<path d="M8.52196 18.3056H8.42587C4.35703 18.3056 1.15332 16.7037 1.15332 14.6533V12.3146H1.79402V14.6533C1.79402 16.2871 4.83754 17.6649 8.42581 17.6649C9.6433 17.6649 10.8606 17.5046 12.0461 17.1522L12.2383 17.761C11.0208 18.1454 9.77136 18.3056 8.52189 18.3056L8.52196 18.3056Z" fill="black"/>
</svg>
