<svg width="27" height="25" viewBox="0 0 27 25" fill="none" xmlns="http://www.w3.org/2000/svg">
<path d="M24.3577 8.54245L21.8501 1.98216C21.6318 1.41153 21.1959 0.950961 20.6384 0.701407C20.0807 0.451644 19.4469 0.433529 18.8758 0.650684L1.483 7.3014C0.911916 7.51923 0.450869 7.95488 0.201141 8.51265C-0.0486213 9.0706 -0.0665102 9.7046 0.151551 10.2757L0.405163 10.9358L2.90957 17.4845V22.1967V22.1964C2.91025 22.8071 3.15299 23.3927 3.58479 23.8246C4.01661 24.2564 4.60219 24.4994 5.21289 24.5H23.8323C24.443 24.4993 25.0284 24.2564 25.4602 23.8246C25.892 23.3927 26.135 22.8071 26.1357 22.1964V10.7836C26.135 10.2644 25.9588 9.7606 25.6361 9.35366C25.3135 8.94675 24.8628 8.66077 24.3572 8.54187L24.3577 8.54245ZM7.62336 8.47904L21.6679 3.02642L22.3654 4.85109L13.1722 8.4791L7.62336 8.47904ZM22.5595 5.36144L23.7514 8.48153H14.6539L22.5595 5.36144ZM1.67754 7.80881L19.0698 1.16099C19.5057 0.994785 19.9898 1.00837 20.4158 1.19858C20.8417 1.38856 21.1748 1.73999 21.3421 2.17546L21.4734 2.51965L6.12051 8.47939H5.21318C4.41745 8.47984 3.67835 8.89105 3.25855 9.56676L0.818656 10.49L0.661962 10.0803H0.662188C0.496207 9.64444 0.510021 9.16055 0.700457 8.7346C0.890663 8.30866 1.24233 7.97579 1.67775 7.80867L1.67754 7.80881ZM2.90937 10.7856V12.4936L1.75678 12.9445L1.01316 10.9987L2.97093 10.2587C2.93017 10.4312 2.90956 10.6079 2.90956 10.7849L2.90937 10.7856ZM1.95156 13.4517L2.9096 13.0751V15.9593L1.95156 13.4517ZM25.5928 22.1951H25.5926C25.5919 22.6615 25.4062 23.1088 25.0763 23.4387C24.7464 23.7686 24.2992 23.954 23.8327 23.9545H5.21326C4.74679 23.954 4.29956 23.7684 3.96966 23.4387C3.63997 23.1087 3.45429 22.6615 3.45384 22.1951V10.7822C3.45429 10.3158 3.63974 9.86831 3.96966 9.53841C4.29958 9.20852 4.74679 9.02281 5.21326 9.02213H23.8327C24.2992 9.02259 24.7466 9.20827 25.0765 9.53819C25.4067 9.86811 25.5921 10.3155 25.5926 10.7822L25.5928 22.1951Z" fill="black"/>
<path d="M9.11777 18.0916H6.78587C6.4983 18.092 6.22272 18.2064 6.01936 18.4097C5.81601 18.6133 5.70189 18.8888 5.70166 19.1764V21.0151C5.70189 21.3027 5.81601 21.5785 6.01936 21.7819C6.2227 21.9852 6.49827 22.0998 6.78587 22.1H9.11777C9.40557 22.0998 9.68115 21.9852 9.88452 21.7819C10.0879 21.5786 10.2024 21.3028 10.2027 21.0151V19.1764C10.2024 18.8889 10.0879 18.6131 9.88452 18.4097C9.68117 18.2064 9.4056 18.092 9.11777 18.0916ZM9.6585 21.013L9.65873 21.0133C9.65828 21.3117 9.41644 21.5538 9.11777 21.554H6.78587C6.48743 21.5538 6.24536 21.3117 6.24514 21.0133V19.1746C6.24536 18.8759 6.48743 18.6341 6.78587 18.6336H9.11777C9.41644 18.6341 9.65828 18.8759 9.65873 19.1746L9.6585 21.013Z" fill="black"/>
<path d="M23.1688 21.2009H20.0564C19.906 21.2009 19.7844 21.3225 19.7844 21.4729C19.7844 21.623 19.906 21.7448 20.0564 21.7448H23.1688C23.3189 21.7448 23.4407 21.623 23.4407 21.4729C23.4407 21.3225 23.3189 21.2009 23.1688 21.2009Z" fill="black"/>
</svg>
