<svg width="27" height="23" viewBox="0 0 27 23" fill="none" xmlns="http://www.w3.org/2000/svg">
<path d="M13.0357 11.3544C14.0569 10.3396 14.6909 8.93479 14.6909 7.38348C14.6909 4.29509 12.1777 1.78198 9.08885 1.78198C6.00001 1.78198 3.48625 4.29514 3.48625 7.38348C3.48625 8.93479 4.12003 10.3398 5.14208 11.3548C3.3354 12.2579 1.4894 13.2275 0.726085 16.2758C0.368968 17.7056 0.0200457 19.9638 0.0056165 20.0595C-0.0247168 20.2566 0.0697274 20.4517 0.242691 20.5511C0.382957 20.6316 3.73874 22.5144 9.08856 22.5144C14.4395 22.5144 17.7945 20.6315 17.9344 20.5511C18.1074 20.4524 18.2018 20.2572 18.1715 20.0595C18.1571 19.964 17.8081 17.7056 17.4506 16.2758C16.6884 13.2264 14.8415 12.2579 13.0348 11.3543L13.0357 11.3544ZM4.4503 7.38348C4.4503 4.82599 6.53103 2.74571 9.08896 2.74571C11.6468 2.74571 13.7272 4.82599 13.7272 7.38348C13.7272 9.9418 11.6469 12.0221 9.08896 12.0221C6.53108 12.0221 4.4503 9.94186 4.4503 7.38348ZM9.08896 21.55C4.87866 21.55 1.91952 20.2999 1.01247 19.8625C1.12477 19.1691 1.39518 17.5735 1.66068 16.509C2.32993 13.836 3.87826 13.0631 5.67089 12.1677C5.7649 12.1204 5.86021 12.0722 5.9553 12.0246C6.85024 12.6313 7.92912 12.9856 9.08908 12.9856C10.249 12.9856 11.3279 12.6309 12.2233 12.0242C12.3188 12.0724 12.4145 12.121 12.5096 12.1688C14.3019 13.0637 15.8495 13.8371 16.5171 16.5092C16.783 17.5741 17.053 19.1697 17.1657 19.8637C16.2619 20.3019 13.3136 21.5499 9.08864 21.5499L9.08896 21.55Z" fill="black"/>
<path d="M25.5858 14.118C24.8731 11.262 23.1507 10.3425 21.4594 9.49618C22.4072 8.53972 22.9941 7.22462 22.9941 5.7751C22.9941 2.85814 20.6208 0.485474 17.7038 0.485474C16.0004 0.485474 14.4863 1.29802 13.5176 2.55182C13.7581 2.77255 13.9846 3.00618 14.1903 3.26023C14.9762 2.16587 16.2566 1.44926 17.7038 1.44926C20.0891 1.44926 22.0303 3.38971 22.0303 5.7751C22.0303 8.16087 20.0899 10.102 17.7038 10.102C16.8306 10.102 16.0191 9.83974 15.3382 9.39357C15.2384 9.70444 15.1152 10.006 14.9695 10.2986C15.7685 10.7833 16.7028 11.0658 17.7038 11.0658C18.7934 11.0658 19.8063 10.7343 20.6487 10.1676C20.7335 10.2104 20.8193 10.2539 20.9032 10.2963C22.5797 11.1329 24.0269 11.8557 24.6499 14.3528C24.8971 15.3402 25.1473 16.8162 25.2551 17.4784C24.484 17.8495 22.2254 18.7989 18.9762 19.0069C19.0667 19.5378 19.1231 19.9051 19.1246 19.9147C19.127 19.9302 19.1261 19.945 19.128 19.9614C23.3224 19.677 25.907 18.2344 26.0254 18.1659C26.1984 18.0667 26.2928 17.872 26.2625 17.6739C26.2496 17.5842 25.9228 15.4619 25.5859 14.118L25.5858 14.118Z" fill="black"/>
</svg>
