<svg width="24" height="25" viewBox="0 0 24 25" fill="none" xmlns="http://www.w3.org/2000/svg">
<path d="M12 24.5C5.38983 24.5 0 19.1102 0 12.5C0 5.88977 5.38977 0.5 12 0.5C18.6102 0.499764 24 5.88953 24 12.5C24 19.1102 18.6102 24.5 12 24.5ZM12 1.17797C5.76271 1.17797 0.677967 6.26271 0.677967 12.5C0.677967 18.7373 5.76271 23.822 12 23.822C18.2373 23.822 23.322 18.7373 23.322 12.5C23.322 6.26271 18.2373 1.17797 12 1.17797Z" fill="black"/>
<path d="M11.9999 14.0593C11.7966 14.0593 11.6609 13.9238 11.6609 13.7202C11.6609 12.6353 12.5422 12.127 12.9829 11.8898C13.0508 11.856 13.1186 11.8219 13.1524 11.7881C14.2711 11.1781 14.949 10.1271 14.949 9.00835C14.949 7.34728 13.5592 5.95763 11.8983 5.95763C10.2372 5.95763 8.84759 7.34752 8.84759 9.00835C8.84759 9.21171 8.7121 9.34743 8.50851 9.34743C8.30516 9.34743 8.16943 9.21194 8.16943 9.00835C8.16943 7.00841 9.86435 5.27942 11.8984 5.27942C13.8983 5.27942 15.6273 6.97433 15.6273 9.00835C15.6273 10.3642 14.8137 11.6524 13.4916 12.3643C13.4576 12.3982 13.39 12.4322 13.3221 12.5001C12.8135 12.7711 12.3389 13.1101 12.3389 13.7204C12.3389 13.9238 12.2034 14.0593 12.0001 14.0593L11.9999 14.0593Z" fill="black"/>
<path d="M11.9999 19.7881C10.8474 19.7881 9.93213 18.839 9.93213 17.7203C9.93213 16.6017 10.8813 15.6525 11.9999 15.6525C13.1186 15.6525 14.0677 16.6017 14.0677 17.7203C14.0677 18.839 13.1524 19.7881 11.9999 19.7881ZM11.9999 16.3304C11.2203 16.3304 10.61 16.9746 10.61 17.7203C10.61 18.4661 11.2542 19.1102 11.9999 19.1102C12.7457 19.1102 13.3898 18.4999 13.3898 17.7203C13.3898 16.9407 12.7795 16.3304 11.9999 16.3304Z" fill="black"/>
</svg>
