<svg width="24" height="25" viewBox="0 0 24 25" fill="none" xmlns="http://www.w3.org/2000/svg">
<path d="M13.9566 16.8225V19.7077V23.2078V23.3127V23.3186V23.339C13.9537 23.4322 13.9187 23.3769 13.9624 23.3244C13.9566 23.3302 13.9449 23.3856 13.942 23.4002C13.9216 23.5167 13.9916 23.3361 13.9508 23.3885C13.9333 23.4118 13.9158 23.4468 13.9041 23.473C13.8546 23.5692 13.9857 23.4002 13.9012 23.4759C13.8837 23.4934 13.8633 23.5109 13.8458 23.5284C13.7671 23.61 13.9187 23.5051 13.8575 23.5197C13.8458 23.5226 13.7817 23.575 13.773 23.5663C13.7584 23.5517 13.8954 23.5313 13.805 23.5517C13.7934 23.5546 13.7788 23.5575 13.7672 23.5634C13.7147 23.575 13.7147 23.575 13.7672 23.5692C13.7788 23.5692 13.7934 23.5663 13.805 23.5663C13.7788 23.5692 13.7526 23.5692 13.7234 23.5692H13.7205H13.6681H12.8696H9.32577H4.91351H1.80978H1.47755H1.40469H1.39303C1.36972 23.5692 1.33184 23.5605 1.31144 23.5663C1.41635 23.5488 1.39886 23.5809 1.33184 23.5605C1.31435 23.5546 1.29395 23.5488 1.27646 23.543C1.34932 23.575 1.3668 23.5809 1.326 23.5634C1.31726 23.5546 1.24149 23.5255 1.24441 23.5138C1.24732 23.5022 1.33475 23.5983 1.27064 23.5342C1.25024 23.5138 1.22692 23.4818 1.20361 23.4672C1.14823 23.4322 1.26481 23.5809 1.21235 23.4789C1.20069 23.4555 1.18612 23.4322 1.17446 23.4118C1.11035 23.3069 1.19486 23.4993 1.18029 23.4264C1.17738 23.4177 1.15115 23.3331 1.15406 23.3302C1.15115 23.3302 1.16281 23.4789 1.15989 23.3244V23.3069V23.1554V21.2757V17.8339V13.5615V9.09677V5.18575V2.46961V1.79058V1.65361V1.64487V1.64195V1.60115C1.15989 1.47875 1.12201 1.7119 1.16281 1.60115C1.15989 1.60698 1.18321 1.5283 1.18612 1.5283C1.17738 1.55161 1.16572 1.57492 1.15698 1.59824C1.16864 1.57492 1.18029 1.55452 1.19195 1.53121C1.19778 1.52247 1.22984 1.4671 1.23275 1.4671C1.26189 1.47875 1.14241 1.55744 1.21527 1.49915C1.22401 1.49041 1.32018 1.41464 1.24149 1.47001C1.16281 1.5283 1.26481 1.45835 1.27647 1.45253C1.27064 1.45544 1.34058 1.41464 1.34349 1.41755C1.2619 1.44961 1.25315 1.45544 1.31144 1.43504C1.32309 1.43213 1.33767 1.42921 1.34932 1.4263C1.46881 1.38258 1.2211 1.42338 1.35224 1.42338H1.39304H1.39595H1.41635H1.50086H1.85058H3.15326H7.19543H11.4299C12.1818 1.42338 12.9337 1.42047 13.6827 1.42338H13.7235C13.8779 1.4263 13.7264 1.41755 13.7264 1.41755C13.7293 1.41172 13.8109 1.44087 13.8196 1.44087C13.8837 1.43795 13.706 1.37384 13.8051 1.43213C13.8255 1.44378 13.8488 1.45835 13.8721 1.47001C13.9741 1.52247 13.8255 1.40298 13.8604 1.45835C13.8663 1.4671 13.9304 1.51955 13.9275 1.52538C13.8808 1.46127 13.8692 1.44669 13.8954 1.48167C13.9071 1.49624 13.9158 1.51373 13.9275 1.5283C13.9245 1.52247 13.9653 1.59532 13.9624 1.59532C13.9508 1.60115 13.9216 1.46127 13.9508 1.58075C13.9683 1.65361 13.9362 1.65653 13.9566 1.56035C13.9537 1.58075 13.9595 1.61864 13.9595 1.64195V1.65944V1.78475V3.20696V7.33946V8.17004C13.9595 8.47604 14.2276 8.76747 14.5424 8.75292C14.8571 8.73835 15.1253 8.49647 15.1253 8.17004V5.22661V1.72363C15.1253 1.3506 15.0175 1.02127 14.7785 0.732753C14.5162 0.41801 14.1023 0.263549 13.7002 0.260634C13.4554 0.257719 13.2106 0.260634 12.9687 0.260634H9.41616H4.9602H1.80398C1.45135 0.260634 1.13076 0.248976 0.795622 0.397605C0.303104 0.61618 0.00873959 1.12033 0 1.64785V1.76442V3.58588V7.03061V11.3758V15.8843V19.8594V22.5581V23.2138V23.3216C0.0116572 23.9366 0.393431 24.4641 0.970468 24.6681C1.23567 24.7613 1.54168 24.738 1.81853 24.738H3.1154H7.22748H11.5028C12.2372 24.738 12.9716 24.7439 13.706 24.738C14.1898 24.7351 14.6211 24.499 14.8922 24.0998C15.067 23.8404 15.1253 23.5373 15.1253 23.2313V21.8849V17.6795V16.8285C15.1253 16.5225 14.8572 16.2311 14.5424 16.2456C14.2218 16.2544 13.9566 16.4963 13.9566 16.8227L13.9566 16.8225Z" fill="#3C3C3C"/>
<path d="M6.3942 13.0779H8.08739H12.1528H17.0693H21.3213C22.009 13.0779 22.6997 13.0925 23.3875 13.0779H23.4166C23.7226 13.0779 24.0141 12.8098 23.9995 12.495C23.9849 12.1803 23.743 11.9121 23.4166 11.9121H21.7234H17.658H12.7415H8.48956C7.8018 11.9121 7.11111 11.8975 6.42334 11.9121H6.3942C6.0882 11.9121 5.79677 12.1802 5.81131 12.495C5.82297 12.8097 6.06486 13.0779 6.3942 13.0779H6.3942Z" fill="#3C3C3C"/>
<path d="M18.8295 8.70911C19.2987 9.17832 19.7679 9.6475 20.2371 10.1167C20.9861 10.8657 21.7322 11.6118 22.4811 12.3607C22.653 12.5327 22.8279 12.7075 22.9998 12.8795V12.0547C22.5306 12.5239 22.0615 12.9931 21.5922 13.4623C20.8432 14.2113 20.0972 14.9574 19.3482 15.7063C19.1763 15.8782 19.0014 16.0531 18.8295 16.225C18.6138 16.4407 18.5964 16.837 18.8295 17.0498C19.0626 17.2626 19.424 17.28 19.6543 17.0498L23.8247 12.8794C24.0461 12.6579 24.0491 12.2791 23.8247 12.0547C23.3554 11.5855 22.8863 11.1163 22.417 10.6471C21.6681 9.89806 20.922 9.152 20.1731 8.40306C20.0011 8.23111 19.8262 8.05625 19.6543 7.88431C19.4386 7.66865 19.0423 7.65116 18.8295 7.88431C18.6168 8.11745 18.5993 8.47881 18.8295 8.70908L18.8295 8.70911Z" fill="#3C3C3C"/>
</svg>
