<svg width="23" height="23" viewBox="0 0 23 23" fill="none" xmlns="http://www.w3.org/2000/svg">
<path d="M22.9416 1.55139C22.9004 1.50659 22.843 1.48125 22.7829 1.48125H22.0586C22.0061 1.48125 21.9551 1.50072 21.9151 1.53625L19.4522 3.7349C17.3004 1.64714 14.4449 0.5 11.3871 0.5C5.10863 0.5 0 5.4343 0 11.5C0 17.5651 5.10793 22.5 11.3871 22.5C17.6661 22.5003 22.7733 17.5657 22.7733 11.5008C22.7733 10.7071 22.6853 9.9145 22.5117 9.14639L22.9995 1.71841C23.0037 1.65692 22.9825 1.59698 22.9415 1.55218L22.9416 1.55139ZM22.0893 8.94386H18.8435C18.8274 8.942 18.8116 8.942 18.7955 8.94386H15.1416L14.9385 8.663L17.1283 6.48539C17.1704 6.44337 17.1938 6.38528 17.1935 6.32503C17.1932 6.26478 17.1683 6.20731 17.1252 6.16591C15.5999 4.70199 13.5622 3.89591 11.3874 3.89591C6.94844 3.89591 3.33705 7.30696 3.33705 11.5C3.33705 15.6928 6.94828 19.1042 11.3874 19.1042C15.8264 19.1042 19.4378 15.6931 19.4378 11.5C19.4378 10.7801 19.3321 10.0708 19.1227 9.38666H22.1192C22.2649 10.0781 22.3386 10.7882 22.3386 11.5C22.3386 17.3211 17.4258 22.0563 11.3875 22.0563C5.34827 22.0563 0.435616 17.3207 0.435616 11.5C0.435616 5.67939 5.34843 0.94378 11.3867 0.94378C14.3912 0.94378 17.1922 2.09282 19.2762 4.179C19.2823 4.18611 19.289 4.19321 19.296 4.1997C19.3779 4.27664 19.5036 4.27849 19.5871 4.20372L22.1401 1.92446H22.5496L22.0893 8.94386ZM14.4759 8.77052L14.8565 9.2967C14.8975 9.35355 14.9627 9.38692 15.0313 9.38692H18.6654C18.8891 10.0691 19.0023 10.7792 19.0023 11.5003C19.0023 15.4487 15.5859 18.6613 11.3871 18.6613C7.18823 18.6613 3.77188 15.4493 3.77188 11.5003C3.77188 7.55132 7.18823 4.33928 11.3871 4.33928C13.3719 4.33928 15.2342 5.04528 16.659 6.33244L14.4984 8.48071C14.421 8.55795 14.4115 8.68154 14.4759 8.77052H14.4759Z" fill="black"/>
</svg>
