<svg width="19" height="27" viewBox="0 0 19 27" fill="none" xmlns="http://www.w3.org/2000/svg">
<path d="M1.58869 26.4999H17.4113C18.3009 26.4999 19 25.8024 19 24.9145V2.08542C19 1.1977 18.3011 0.5 17.4113 0.5H4.35289H4.32118C4.28948 0.5 4.25757 0.5 4.22587 0.531636H4.19417C4.16246 0.531636 4.13055 0.563272 4.09885 0.595123L0.0953186 4.62206C0.0636173 4.65369 0.0636173 4.68554 0.0317014 4.71718V4.74881C0.0317014 4.78045 0.0317013 4.8123 0 4.84393V4.87557V24.9146C0 25.8023 0.699136 26.5 1.58869 26.5L1.58869 26.4999ZM4.03523 1.57818V4.52693H1.08041L4.03523 1.57818ZM0.635524 5.16093H4.35289C4.54352 5.16093 4.67054 5.03417 4.67054 4.84393V1.13421H17.4114C17.9516 1.13421 18.3646 1.54633 18.3646 2.08542V24.9145C18.3646 25.4536 17.9516 25.8657 17.4114 25.8657H1.5888C1.0486 25.8657 0.635633 25.4536 0.635633 24.9145L0.635524 5.16093Z" fill="black"/>
</svg>
