<svg width="25" height="25" viewBox="0 0 25 25" fill="none" xmlns="http://www.w3.org/2000/svg">
<path d="M19.5015 12.4498V9.61286V9.20758C19.5015 9.01727 19.3742 8.85516 19.2248 8.85516H18.2287H15.8353H12.9412H10.4399H9.61538C9.48811 8.85516 9.35253 8.84106 9.22526 8.85516H9.20866C9.29996 8.97146 9.39404 9.09128 9.48535 9.20758V4.69665V4.0623C9.39404 4.1786 9.29996 4.29842 9.20866 4.41472H10.2048H12.5981H15.4922H17.9935C18.3975 4.41472 18.8042 4.43586 19.2082 4.41472H19.2248C19.3742 4.41472 19.5015 4.25261 19.5015 4.0623V1.23943V0.837674C19.3438 0.922254 19.1861 1.00331 19.0283 1.08789C19.6481 1.74339 20.2679 2.39889 20.8905 3.05085C21.8782 4.09403 22.866 5.13715 23.8538 6.18027C24.0779 6.41992 24.3048 6.65603 24.5289 6.8957V6.3988C23.9091 7.0543 23.2893 7.7098 22.6668 8.36176C21.679 9.40494 20.6912 10.4481 19.7035 11.4912C19.4794 11.7308 19.2525 11.9669 19.0283 12.2066C18.9121 12.3264 18.9287 12.5802 19.0283 12.7035C19.1418 12.848 19.305 12.8269 19.4185 12.7035C20.0382 12.048 20.658 11.3925 21.2806 10.7406C22.2683 9.69737 23.2561 8.65425 24.2439 7.61114C24.468 7.37149 24.6949 7.13537 24.919 6.8957C25.0269 6.78293 25.0269 6.51157 24.919 6.3988C24.2992 5.7433 23.6795 5.0878 23.0569 4.43584C22.0691 3.39266 21.0813 2.34954 20.0936 1.30642C19.8695 1.06677 19.6426 0.830656 19.4185 0.590985C19.2414 0.404207 18.9453 0.513455 18.9453 0.841199V3.66407V4.06583C19.0366 3.94953 19.1307 3.82971 19.222 3.71341H18.2259H15.8326H12.9384H10.4372C10.0332 3.71341 9.62648 3.69226 9.22249 3.71341H9.20589C9.05648 3.71341 8.9292 3.87552 8.9292 4.06583V8.57675V9.2111C8.9292 9.4014 9.05647 9.56352 9.20589 9.56352H10.202H12.5953H15.4895H17.9908H18.8153C18.9426 9.56352 19.0781 9.57762 19.2054 9.56352H19.222L18.9453 9.2111V12.048V12.4533C18.9481 12.9009 19.5015 12.9044 19.5015 12.4498L19.5015 12.4498Z" fill="black"/>
<path d="M6.05461 24.1505V21.3135V20.9083C5.9633 21.0245 5.86923 21.1444 5.77792 21.2607H6.77402H9.16738H12.0615H14.5628C14.9668 21.2607 15.3735 21.2818 15.7775 21.2607H15.7941C15.9435 21.2607 16.0707 21.0986 16.0707 20.9083V16.3973V15.763C16.0707 15.5727 15.9435 15.4106 15.7941 15.4106H14.798H12.4046H9.51046H7.00919H6.18465C6.05738 15.4106 5.9218 15.3965 5.79453 15.4106H5.77793C5.86923 15.5269 5.96331 15.6467 6.05461 15.763V12.9401V12.5383C6.05461 12.2106 5.75856 12.1014 5.58148 12.2881C4.9617 12.9436 4.34192 13.5991 3.71936 14.2511C2.73161 15.2943 1.74381 16.3374 0.756059 17.3805C0.531942 17.6202 0.305058 17.8563 0.0809304 18.0959C-0.0269768 18.2087 -0.0269768 18.4801 0.0809304 18.5928C0.700709 19.2484 1.32049 19.9039 1.94305 20.5558C2.9308 21.599 3.9186 22.6421 4.90635 23.6852C5.13047 23.9249 5.35735 24.161 5.58148 24.4007C5.69769 24.5205 5.86093 24.5452 5.97161 24.4007C6.06845 24.2773 6.08782 24.0236 5.97161 23.9038C5.35183 23.2483 4.73205 22.5928 4.10949 21.9408C3.12174 20.8976 2.13394 19.8545 1.14619 18.8114C0.922069 18.5717 0.695184 18.3356 0.471057 18.0959V18.5928C1.09084 17.9373 1.71061 17.2818 2.33318 16.6299C3.32093 15.5867 4.30873 14.5436 5.29648 13.5005C5.52059 13.2608 5.74748 13.0247 5.97161 12.785C5.81389 12.7005 5.65618 12.6194 5.49847 12.5348V15.3577V15.7594C5.49847 15.9498 5.62574 16.1119 5.77516 16.1119H6.77126H9.16461H12.0588H14.56H15.3846C15.5118 16.1119 15.6474 16.126 15.7747 16.1119H15.7913C15.7 15.9956 15.6059 15.8757 15.5146 15.7594V20.2704V20.9047L15.7913 20.5523H14.7952H12.4018H9.50769H7.00642C6.60246 20.5523 6.19575 20.5312 5.79175 20.5523H5.77515C5.62574 20.5523 5.49846 20.7144 5.49846 20.9047V23.7416V24.1469C5.50123 24.6015 6.0546 24.6051 6.0546 24.1505L6.05461 24.1505Z" fill="black"/>
</svg>
