<svg width="26" height="26" viewBox="0 0 26 26" fill="none" xmlns="http://www.w3.org/2000/svg">
<path d="M12.6912 25.3824C5.70029 25.3824 0 19.6822 0 12.6912C0 5.70022 5.70022 8.2312e-09 12.6912 8.2312e-09C19.6821 -0.000250115 25.3824 5.69997 25.3824 12.6912C25.3824 19.6821 19.6822 25.3824 12.6912 25.3824ZM12.6912 0.717017C6.09465 0.717017 0.717018 6.09465 0.717018 12.6912C0.717018 19.2878 6.09465 24.6654 12.6912 24.6654C19.2878 24.6654 24.6654 19.2878 24.6654 12.6912C24.6654 6.09465 19.2878 0.717017 12.6912 0.717017Z" fill="black"/>
<path d="M12.6912 14.3403C12.4762 14.3403 12.3326 14.197 12.3326 13.9817C12.3326 12.8343 13.2647 12.2967 13.7308 12.0458C13.8026 12.0101 13.8743 11.9741 13.9101 11.9383C15.0932 11.2931 15.8102 10.1816 15.8102 8.99841C15.8102 7.24165 14.3402 5.77196 12.5837 5.77196C10.827 5.77196 9.3573 7.24191 9.3573 8.99841C9.3573 9.21348 9.214 9.35702 8.99869 9.35702C8.78362 9.35702 8.64008 9.21373 8.64008 8.99841C8.64008 6.88327 10.4326 5.05469 12.5838 5.05469C14.6989 5.05469 16.5275 6.84723 16.5275 8.99841C16.5275 10.4323 15.667 11.7948 14.2689 12.5477C14.2328 12.5835 14.1613 12.6195 14.0895 12.6913C13.5516 12.9778 13.0497 13.3364 13.0497 13.9819C13.0497 14.1969 12.9064 14.3402 12.6914 14.3402L12.6912 14.3403Z" fill="black"/>
<path d="M12.6912 20.3992C11.4723 20.3992 10.5043 19.3954 10.5043 18.2123C10.5043 17.0292 11.5081 16.0254 12.6912 16.0254C13.8743 16.0254 14.8781 17.0292 14.8781 18.2123C14.8781 19.3954 13.91 20.3992 12.6912 20.3992ZM12.6912 16.7423C11.8667 16.7423 11.2212 17.4236 11.2212 18.2123C11.2212 19.001 11.9025 19.6822 12.6912 19.6822C13.4799 19.6822 14.1611 19.0368 14.1611 18.2123C14.1611 17.3878 13.5157 16.7423 12.6912 16.7423Z" fill="black"/>
</svg>
