<svg width="21" height="21" viewBox="0 0 21 21" fill="none" xmlns="http://www.w3.org/2000/svg">
<path fill-rule="evenodd" clip-rule="evenodd" d="M2.2654 18.3553C2.587 18.6768 3.02294 18.8574 3.47761 18.8574H12.9803C13.435 18.8574 13.8709 18.6768 14.1925 18.3553L14.2413 18.3066C14.5627 17.985 14.7433 17.5491 14.7433 17.0944V7.5917C14.7433 7.13703 14.5627 6.70109 14.2413 6.37949L14.1925 6.33077C13.8709 6.00934 13.435 5.8287 12.9803 5.8287H3.47761C3.02294 5.8287 2.587 6.00933 2.2654 6.33077L2.21668 6.37949C1.89525 6.70108 1.71461 7.13703 1.71461 7.5917V17.0944C1.71461 17.5491 1.89525 17.985 2.21668 18.3066L2.2654 18.3553ZM15.453 5.16777L15.4043 5.11889C14.7614 4.47603 13.8893 4.11475 12.98 4.11475H3.47728C2.5679 4.11475 1.69588 4.47602 1.05303 5.11889L1.00414 5.16777C0.361286 5.81063 0 6.68286 0 7.59203V17.0947C0 18.004 0.361273 18.8761 1.00414 19.5192L1.05303 19.5677C1.69588 20.2108 2.56794 20.572 3.47728 20.572H12.98C13.8894 20.572 14.7614 20.2108 15.4043 19.5677L15.453 19.5192C16.096 18.8761 16.4573 18.004 16.4573 17.0947V7.59203C16.4573 6.68281 16.096 5.81063 15.453 5.16777Z" fill="#313131"/>
<path fill-rule="evenodd" clip-rule="evenodd" d="M16.4575 14.743H17.0945C17.5492 14.743 17.9851 14.5624 18.3067 14.2409L18.3554 14.1922C18.6769 13.8706 18.8575 13.4347 18.8575 12.98V3.47729C18.8575 3.02261 18.6769 2.58667 18.3554 2.26507L18.3067 2.21635C17.9851 1.89493 17.5492 1.71428 17.0945 1.71428H7.59179C7.13712 1.71428 6.70117 1.89492 6.37957 2.21635L6.33086 2.26507C6.00943 2.58667 5.82879 3.02261 5.82879 3.47729V4.11427H4.1145V3.47729C4.1145 2.5679 4.47577 1.69588 5.11864 1.05303L5.16753 1.00414C5.81038 0.361286 6.68244 0 7.59178 0H17.0945C18.0037 0 18.8759 0.361273 19.5189 1.00414L19.5675 1.05303C20.2105 1.69588 20.5718 2.56794 20.5718 3.47729V12.98C20.5718 13.8894 20.2105 14.7614 19.5675 15.4043L19.5189 15.453C18.8759 16.096 18.0037 16.4573 17.0945 16.4573H16.4575L16.4575 14.743Z" fill="#313131"/>
</svg>
