<svg width="25" height="17" viewBox="0 0 25 17" fill="none" xmlns="http://www.w3.org/2000/svg">
<path d="M24.385 6.58354C22.2013 4.12882 17.7555 0 12.5 0C7.24448 0 2.7986 4.12891 0.614949 6.58354C0.218959 7.02631 0 7.59933 0 8.19335C0 8.78736 0.218954 9.36034 0.614949 9.80315C2.7987 12.2579 7.24448 16.3867 12.5 16.3867C17.7555 16.3867 22.2014 12.2578 24.385 9.80315C24.781 9.36038 25 8.78736 25 8.19335C25 7.59933 24.781 7.02635 24.385 6.58354ZM23.5801 9.0785C21.9195 10.9564 17.5169 15.308 12.4999 15.308C7.48349 15.3082 3.08073 10.9592 1.41976 9.08424C1.20099 8.83853 1.08029 8.52094 1.08029 8.19215C1.08029 7.86315 1.20099 7.54577 1.41976 7.30005C3.08045 5.4221 7.48588 1.07056 12.4999 1.07056C17.514 1.07056 21.9196 5.42756 23.5801 7.30292C23.7982 7.54845 23.9185 7.86546 23.9185 8.19373C23.9185 8.522 23.7982 8.839 23.5801 9.08453V9.0785Z" fill="#005758"/>
<path d="M12.5 3.29175C11.1999 3.29175 9.95322 3.80825 9.03415 4.72751C8.11489 5.64658 7.59839 6.89329 7.59839 8.19337C7.59839 9.49346 8.11489 10.7402 9.03415 11.6592C9.95322 12.5785 11.1999 13.095 12.5 13.095C13.8001 13.095 15.0468 12.5785 15.9659 11.6592C16.8851 10.7402 17.4016 9.49346 17.4016 8.19337C17.4001 6.89386 16.8833 5.64787 15.9644 4.72904C15.0455 3.81021 13.7995 3.29328 12.5001 3.2918L12.5 3.29175ZM12.5 12.0244C11.4848 12.0244 10.5111 11.6212 9.7932 10.9035C9.07535 10.1856 8.67187 9.21209 8.67167 8.19687C8.6713 7.18165 9.0744 6.20792 9.79191 5.48987C10.5096 4.77182 11.4831 4.36796 12.4981 4.36757C13.5134 4.36701 14.4873 4.76992 15.2055 5.48723C15.9238 6.20475 16.3278 7.17806 16.3284 8.19328C16.3271 9.20816 15.9232 10.1811 15.2055 10.8988C14.4879 11.6165 13.5149 12.0203 12.5 12.0217V12.0244Z" fill="#005758"/>
</svg>
