<svg width="22" height="22" viewBox="0 0 22 22" fill="none" xmlns="http://www.w3.org/2000/svg">
<path d="M9.27502 15.225C9.37494 15.325 9.49998 15.375 9.62501 15.375C9.75004 15.375 9.87508 15.325 9.975 15.225L16.6 8.60003C16.8 8.4 16.8 8.10007 16.6 7.90003C16.4 7.69998 16.1 7.7 15.9 7.90003L9.625 14.175L6.60009 11.1499C6.40006 10.9499 6.10013 10.9499 5.90009 11.1499C5.70004 11.35 5.70006 11.6499 5.90009 11.8499L9.27502 15.225Z" fill="black"/>
<path d="M11 22C17.075 22 22 17.075 22 11C22 4.925 17.075 0 11 0C4.925 0 0 4.925 0 11C0 17.075 4.925 22 11 22ZM11 1C16.525 1 21 5.475 21 11C21 16.525 16.525 21 11 21C5.475 21 1 16.525 1 11C1 5.475 5.475 1 11 1Z" fill="black"/>
</svg>
