<svg width="27" height="23" viewBox="0 0 27 23" fill="none" xmlns="http://www.w3.org/2000/svg">
<path d="M13.0357 10.869C14.0569 9.85424 14.6909 8.44944 14.6909 6.89813C14.6909 3.80973 12.1777 1.29663 9.08885 1.29663C6.00001 1.29663 3.48625 3.80979 3.48625 6.89813C3.48625 8.44944 4.12003 9.85446 5.14208 10.8694C3.3354 11.7725 1.4894 12.7421 0.726085 15.7905C0.368968 17.2202 0.0200457 19.4785 0.0056165 19.5742C-0.0247168 19.7712 0.0697274 19.9664 0.242691 20.0658C0.382957 20.1462 3.73874 22.029 9.08856 22.029C14.4395 22.029 17.7945 20.1462 17.9344 20.0658C18.1074 19.967 18.2018 19.7719 18.1715 19.5742C18.1571 19.4787 17.8081 17.2202 17.4506 15.7905C16.6884 12.741 14.8415 11.7725 13.0348 10.869L13.0357 10.869ZM4.4503 6.89813C4.4503 4.34064 6.53103 2.26036 9.08896 2.26036C11.6468 2.26036 13.7272 4.34064 13.7272 6.89813C13.7272 9.45645 11.6469 11.5368 9.08896 11.5368C6.53108 11.5368 4.4503 9.45651 4.4503 6.89813ZM9.08896 21.0646C4.87866 21.0646 1.91952 19.8145 1.01247 19.3771C1.12477 18.6838 1.39518 17.0882 1.66068 16.0237C2.32993 13.3507 3.87826 12.5777 5.67089 11.6823C5.7649 11.635 5.86021 11.5868 5.9553 11.5393C6.85024 12.146 7.92912 12.5003 9.08908 12.5003C10.249 12.5003 11.3279 12.1455 12.2233 11.5388C12.3188 11.587 12.4145 11.6356 12.5096 11.6834C14.3019 12.5784 15.8495 13.3517 16.5171 16.0238C16.783 17.0887 17.053 18.6844 17.1657 19.3784C16.2619 19.8166 13.3136 21.0645 9.08864 21.0645L9.08896 21.0646Z" fill="black"/>
<path d="M25.5858 13.6326C24.8731 10.7765 23.1507 9.85701 21.4594 9.0107C22.4072 8.05424 22.9941 6.73915 22.9941 5.28962C22.9941 2.37267 20.6208 0 17.7038 0C16.0004 0 14.4863 0.812551 13.5176 2.06635C13.7581 2.28707 13.9846 2.5207 14.1903 2.77476C14.9762 1.6804 16.2566 0.963782 17.7038 0.963782C20.0891 0.963782 22.0303 2.90423 22.0303 5.28962C22.0303 7.6754 20.0899 9.61651 17.7038 9.61651C16.8306 9.61651 16.0191 9.35427 15.3382 8.9081C15.2384 9.21896 15.1152 9.52057 14.9695 9.81317C15.7685 10.2979 16.7028 10.5803 17.7038 10.5803C18.7934 10.5803 19.8063 10.2488 20.6487 9.68215C20.7335 9.72497 20.8193 9.76842 20.9032 9.8108C22.5797 10.6474 24.0269 11.3703 24.6499 13.8673C24.8971 14.8547 25.1473 16.3307 25.2551 16.9929C24.484 17.364 22.2254 18.3134 18.9762 18.5214C19.0667 19.0523 19.1231 19.4196 19.1246 19.4292C19.127 19.4447 19.1261 19.4596 19.128 19.4759C23.3224 19.1915 25.907 17.7489 26.0254 17.6804C26.1984 17.5812 26.2928 17.3866 26.2625 17.1884C26.2496 17.0987 25.9228 14.9765 25.5859 13.6326L25.5858 13.6326Z" fill="black"/>
</svg>
