<svg width="25" height="26" viewBox="0 0 25 26" fill="none" xmlns="http://www.w3.org/2000/svg">
<path d="M7.20047 10.6542C3.16033 10.6542 0 9.0577 0 7.03771C0 6.19066 0.553854 5.40865 1.59654 4.75708L1.92245 5.31093C1.10792 5.83229 0.651778 6.41864 0.651778 7.03774C0.651778 8.63429 3.64926 10.0027 7.20062 10.0027C8.69948 10.0027 11.5665 9.44885 12.3485 8.92752L12.7069 9.48137C11.7619 10.1329 8.6992 10.6543 7.20058 10.6543L7.20047 10.6542Z" fill="black"/>
<path d="M7.20047 13.5213C3.16033 13.5213 0 11.9248 0 9.90481V7.0376H0.651568V9.90481C0.651568 11.5014 3.64905 12.8698 7.20041 12.8698C10.7517 12.8698 13.7493 11.5014 13.7493 9.90481V8.30827H14.4008V9.90481C14.4011 11.925 11.2407 13.5213 7.20094 13.5213H7.20047Z" fill="black"/>
<path d="M8.63413 7.23305C4.59398 7.23305 1.43365 5.63651 1.43365 3.61653C1.43365 1.59654 4.59404 0 8.63413 0C12.6743 0 15.8346 1.59654 15.8346 3.61653C15.8344 5.63651 12.674 7.23305 8.63413 7.23305ZM8.63413 0.684208C5.08282 0.684208 2.08528 2.05262 2.08528 3.64917C2.08528 5.24571 5.08276 6.61412 8.63413 6.61412C12.1854 6.61412 15.183 5.24571 15.183 3.64917C15.183 2.05262 12.1855 0.684208 8.63413 0.684208Z" fill="black"/>
<path d="M8.63413 10.1002C4.59398 10.1002 1.43365 8.50365 1.43365 6.48367V3.61646H2.08522V6.48367C2.08522 8.08021 5.0827 9.44863 8.63407 9.44863C12.1854 9.44863 15.1829 8.08021 15.1829 6.48367V3.61646H15.8345V6.48367C15.8347 8.50365 12.6743 10.1002 8.63459 10.1002H8.63413Z" fill="black"/>
<path d="M10.1001 25.9999C6.0927 25.9999 2.93225 24.4033 2.93225 22.3833V19.5161H3.58382V22.3833C3.58382 23.9799 6.5813 25.3483 10.1001 25.3483C12.5762 25.3483 14.8243 24.6967 15.9647 23.6867L16.3883 24.1753C15.1502 25.283 12.7391 25.9998 10.1002 25.9998L10.1001 25.9999Z" fill="black"/>
<path d="M22.1227 24.4361C20.3307 24.4361 17.9849 22.644 16.2255 19.777C14.0426 16.2257 13.7494 12.6092 15.5087 11.534C17.268 10.4588 20.3634 12.381 22.5463 15.8998C24.7292 19.4511 25.0224 23.0677 23.2631 24.1429C22.9045 24.3383 22.5461 24.4361 22.1226 24.4361L22.1227 24.4361ZM16.649 11.8923C16.3558 11.8923 16.0951 11.9575 15.867 12.0877C14.4661 12.9675 14.8895 16.3233 16.7792 19.4511C18.7015 22.579 21.5035 24.4685 22.9045 23.589C24.3054 22.7092 23.882 19.3533 21.9922 16.2256C20.3959 13.619 18.1478 11.8923 16.6489 11.8923L16.649 11.8923Z" fill="black"/>
<path d="M19.6139 26.0001C18.9296 26.0001 18.1151 25.7069 17.2681 25.1855C15.9974 24.371 14.7267 23.0026 13.7167 21.341C11.5663 17.7897 11.2406 14.1732 13 13.098L15.5088 11.5667L15.8672 12.1205L13.3584 13.6191C11.9575 14.4989 12.3809 17.8548 14.2706 20.9825C15.2481 22.5464 16.4211 23.8497 17.6265 24.6316C18.7342 25.3483 19.7442 25.5438 20.396 25.1529L22.9049 23.6216L23.2308 24.1754L20.722 25.7068C20.396 25.9024 20.0376 26.0002 19.614 26.0002L19.6139 26.0001Z" fill="black"/>
<path d="M10.3609 20.2983H10.2956C6.19044 20.2983 2.93225 18.6692 2.93225 16.584C2.93225 16.4538 2.93225 16.3233 2.96475 16.1931L3.61632 16.3233C3.58382 16.4211 3.58382 16.4863 3.58382 16.584C3.58382 18.2456 6.67899 19.6467 10.3282 19.6467C11.2729 19.6467 12.2179 19.549 13.1301 19.3535L13.2604 20.0051C12.3154 20.2006 11.3379 20.2983 10.3606 20.2983H10.3609Z" fill="black"/>
<path d="M10.4912 23.2305H10.3282C6.19056 23.2305 2.93225 21.6014 2.93225 19.5162V16.584H3.58382V19.5162C3.58382 21.1778 6.67899 22.5789 10.3282 22.5789C11.7943 22.6114 13.2279 22.3507 14.5962 21.8621L14.8244 22.4812C13.4233 22.9698 11.957 23.2305 10.4909 23.2305L10.4912 23.2305Z" fill="black"/>
<path d="M15.8345 11.9247L15.2154 11.6965C15.2806 11.5336 15.2806 11.4034 15.2806 11.2404C15.2806 10.3934 14.5313 9.77431 13.8797 9.41591L14.2056 8.86206C15.3133 9.51363 15.9324 10.3609 15.9324 11.2404C15.9649 11.4686 15.8997 11.6966 15.8345 11.9248L15.8345 11.9247Z" fill="black"/>
<path d="M8.66666 14.9548H8.53643C5.18056 14.9548 2.24824 13.847 1.40112 12.218L1.98747 11.9248C2.70426 13.2932 5.47379 14.3032 8.5689 14.3032C9.90479 14.3032 11.2079 14.1077 12.4461 13.7168L12.6416 14.3359C11.3382 14.7593 10.0026 14.9548 8.66666 14.9548L8.66666 14.9548Z" fill="black"/>
<path d="M8.66672 17.8871H8.56899C4.43111 17.8871 1.17303 16.258 1.17303 14.1728V11.7944H1.8246V14.1728C1.8246 15.8344 4.91977 17.2355 8.56893 17.2355C9.80708 17.2355 11.0451 17.0726 12.2507 16.7142L12.4461 17.3333C11.208 17.7242 9.93731 17.8871 8.66664 17.8871L8.66672 17.8871Z" fill="black"/>
</svg>
