<svg width="19" height="21" viewBox="0 0 19 21" fill="none" xmlns="http://www.w3.org/2000/svg">
<path d="M13.0357 9.57239C14.0569 8.55761 14.6909 7.1528 14.6909 5.6015C14.6909 2.5131 12.1777 0 9.08885 0C6.00001 0 3.48625 2.51316 3.48625 5.6015C3.48625 7.1528 4.12003 8.55783 5.14208 9.57278C3.3354 10.4759 1.4894 11.4455 0.726085 14.4938C0.368968 15.9236 0.0200457 18.1818 0.0056165 18.2775C-0.0247168 18.4746 0.0697274 18.6697 0.242691 18.7691C0.382957 18.8496 3.73874 20.7324 9.08856 20.7324C14.4395 20.7324 17.7945 18.8495 17.9344 18.7691C18.1074 18.6704 18.2018 18.4753 18.1715 18.2775C18.1571 18.182 17.8081 15.9236 17.4506 14.4938C16.6884 11.4444 14.8415 10.4759 13.0348 9.57234L13.0357 9.57239ZM4.4503 5.6015C4.4503 3.04401 6.53103 0.963727 9.08896 0.963727C11.6468 0.963727 13.7272 3.04401 13.7272 5.6015C13.7272 8.15982 11.6469 10.2402 9.08896 10.2402C6.53108 10.2402 4.4503 8.15987 4.4503 5.6015ZM9.08896 19.768C4.87866 19.768 1.91952 18.5179 1.01247 18.0805C1.12477 17.3871 1.39518 15.7915 1.66068 14.727C2.32993 12.054 3.87826 11.2811 5.67089 10.3857C5.7649 10.3384 5.86021 10.2902 5.9553 10.2427C6.85024 10.8493 7.92912 11.2036 9.08908 11.2036C10.249 11.2036 11.3279 10.8489 12.2233 10.2422C12.3188 10.2904 12.4145 10.339 12.5096 10.3868C14.3019 11.2817 15.8495 12.0551 16.5171 14.7272C16.783 15.7921 17.053 17.3877 17.1657 18.0817C16.2619 18.5199 13.3136 19.7679 9.08864 19.7679L9.08896 19.768Z" fill="rgba(153, 153, 153, 1)"/>
</svg>
